%TF.GenerationSoftware,KiCad,Pcbnew,9.0.3*%
%TF.CreationDate,2025-08-13T11:48:25-07:00*%
%TF.ProjectId,PD Board,50442042-6f61-4726-942e-6b696361645f,rev?*%
%TF.SameCoordinates,Original*%
%TF.FileFunction,Soldermask,Top*%
%TF.FilePolarity,Negative*%
%FSLAX46Y46*%
G04 Gerber Fmt 4.6, Leading zero omitted, Abs format (unit mm)*
G04 Created by KiCad (PCBNEW 9.0.3) date 2025-08-13 11:48:25*
%MOMM*%
%LPD*%
G01*
G04 APERTURE LIST*
G04 APERTURE END LIST*
G36*
X92991807Y-134984538D02*
G01*
X93178354Y-135045151D01*
X93353123Y-135134200D01*
X93511810Y-135249493D01*
X93650507Y-135388190D01*
X93765800Y-135546877D01*
X93854849Y-135721646D01*
X93915462Y-135908193D01*
X93946147Y-136101926D01*
X93946147Y-136298074D01*
X93915462Y-136491807D01*
X93854849Y-136678354D01*
X93765800Y-136853123D01*
X93650507Y-137011810D01*
X93511810Y-137150507D01*
X93353123Y-137265800D01*
X93178354Y-137354849D01*
X92991807Y-137415462D01*
X92798074Y-137446147D01*
X92601926Y-137446147D01*
X92408193Y-137415462D01*
X92221646Y-137354849D01*
X92046877Y-137265800D01*
X91888190Y-137150507D01*
X91749493Y-137011810D01*
X91634200Y-136853123D01*
X91545151Y-136678354D01*
X91484538Y-136491807D01*
X91453853Y-136298074D01*
X91453853Y-136101926D01*
X91484538Y-135908193D01*
X91545151Y-135721646D01*
X91634200Y-135546877D01*
X91749493Y-135388190D01*
X91888190Y-135249493D01*
X92046877Y-135134200D01*
X92221646Y-135045151D01*
X92408193Y-134984538D01*
X92601926Y-134953853D01*
X92798074Y-134953853D01*
X92991807Y-134984538D01*
G37*
G36*
X167491807Y-134984538D02*
G01*
X167678354Y-135045151D01*
X167853123Y-135134200D01*
X168011810Y-135249493D01*
X168150507Y-135388190D01*
X168265800Y-135546877D01*
X168354849Y-135721646D01*
X168415462Y-135908193D01*
X168446147Y-136101926D01*
X168446147Y-136298074D01*
X168415462Y-136491807D01*
X168354849Y-136678354D01*
X168265800Y-136853123D01*
X168150507Y-137011810D01*
X168011810Y-137150507D01*
X167853123Y-137265800D01*
X167678354Y-137354849D01*
X167491807Y-137415462D01*
X167298074Y-137446147D01*
X167101926Y-137446147D01*
X166908193Y-137415462D01*
X166721646Y-137354849D01*
X166546877Y-137265800D01*
X166388190Y-137150507D01*
X166249493Y-137011810D01*
X166134200Y-136853123D01*
X166045151Y-136678354D01*
X165984538Y-136491807D01*
X165953853Y-136298074D01*
X165953853Y-136101926D01*
X165984538Y-135908193D01*
X166045151Y-135721646D01*
X166134200Y-135546877D01*
X166249493Y-135388190D01*
X166388190Y-135249493D01*
X166546877Y-135134200D01*
X166721646Y-135045151D01*
X166908193Y-134984538D01*
X167101926Y-134953853D01*
X167298074Y-134953853D01*
X167491807Y-134984538D01*
G37*
G36*
X107513028Y-128216983D02*
G01*
X107689612Y-128290127D01*
X107848533Y-128396315D01*
X107983685Y-128531467D01*
X108089873Y-128690388D01*
X108163017Y-128866972D01*
X108200305Y-129054433D01*
X108200305Y-129245567D01*
X108163017Y-129433028D01*
X108089873Y-129609612D01*
X107983685Y-129768533D01*
X107848533Y-129903685D01*
X107689612Y-130009873D01*
X107513028Y-130083017D01*
X107325567Y-130120305D01*
X107134433Y-130120305D01*
X106946972Y-130083017D01*
X106770388Y-130009873D01*
X106611467Y-129903685D01*
X106476315Y-129768533D01*
X106370127Y-129609612D01*
X106296983Y-129433028D01*
X106259695Y-129245567D01*
X106259695Y-129054433D01*
X106296983Y-128866972D01*
X106370127Y-128690388D01*
X106476315Y-128531467D01*
X106611467Y-128396315D01*
X106770388Y-128290127D01*
X106946972Y-128216983D01*
X107134433Y-128179695D01*
X107325567Y-128179695D01*
X107513028Y-128216983D01*
G37*
G36*
X112513028Y-128216983D02*
G01*
X112689612Y-128290127D01*
X112848533Y-128396315D01*
X112983685Y-128531467D01*
X113089873Y-128690388D01*
X113163017Y-128866972D01*
X113200305Y-129054433D01*
X113200305Y-129245567D01*
X113163017Y-129433028D01*
X113089873Y-129609612D01*
X112983685Y-129768533D01*
X112848533Y-129903685D01*
X112689612Y-130009873D01*
X112513028Y-130083017D01*
X112325567Y-130120305D01*
X112134433Y-130120305D01*
X111946972Y-130083017D01*
X111770388Y-130009873D01*
X111611467Y-129903685D01*
X111476315Y-129768533D01*
X111370127Y-129609612D01*
X111296983Y-129433028D01*
X111259695Y-129245567D01*
X111259695Y-129054433D01*
X111296983Y-128866972D01*
X111370127Y-128690388D01*
X111476315Y-128531467D01*
X111611467Y-128396315D01*
X111770388Y-128290127D01*
X111946972Y-128216983D01*
X112134433Y-128179695D01*
X112325567Y-128179695D01*
X112513028Y-128216983D01*
G37*
G36*
X123013028Y-128216983D02*
G01*
X123189612Y-128290127D01*
X123348533Y-128396315D01*
X123483685Y-128531467D01*
X123589873Y-128690388D01*
X123663017Y-128866972D01*
X123700305Y-129054433D01*
X123700305Y-129245567D01*
X123663017Y-129433028D01*
X123589873Y-129609612D01*
X123483685Y-129768533D01*
X123348533Y-129903685D01*
X123189612Y-130009873D01*
X123013028Y-130083017D01*
X122825567Y-130120305D01*
X122634433Y-130120305D01*
X122446972Y-130083017D01*
X122270388Y-130009873D01*
X122111467Y-129903685D01*
X121976315Y-129768533D01*
X121870127Y-129609612D01*
X121796983Y-129433028D01*
X121759695Y-129245567D01*
X121759695Y-129054433D01*
X121796983Y-128866972D01*
X121870127Y-128690388D01*
X121976315Y-128531467D01*
X122111467Y-128396315D01*
X122270388Y-128290127D01*
X122446972Y-128216983D01*
X122634433Y-128179695D01*
X122825567Y-128179695D01*
X123013028Y-128216983D01*
G37*
G36*
X128013028Y-128216983D02*
G01*
X128189612Y-128290127D01*
X128348533Y-128396315D01*
X128483685Y-128531467D01*
X128589873Y-128690388D01*
X128663017Y-128866972D01*
X128700305Y-129054433D01*
X128700305Y-129245567D01*
X128663017Y-129433028D01*
X128589873Y-129609612D01*
X128483685Y-129768533D01*
X128348533Y-129903685D01*
X128189612Y-130009873D01*
X128013028Y-130083017D01*
X127825567Y-130120305D01*
X127634433Y-130120305D01*
X127446972Y-130083017D01*
X127270388Y-130009873D01*
X127111467Y-129903685D01*
X126976315Y-129768533D01*
X126870127Y-129609612D01*
X126796983Y-129433028D01*
X126759695Y-129245567D01*
X126759695Y-129054433D01*
X126796983Y-128866972D01*
X126870127Y-128690388D01*
X126976315Y-128531467D01*
X127111467Y-128396315D01*
X127270388Y-128290127D01*
X127446972Y-128216983D01*
X127634433Y-128179695D01*
X127825567Y-128179695D01*
X128013028Y-128216983D01*
G37*
G36*
X138513028Y-128216983D02*
G01*
X138689612Y-128290127D01*
X138848533Y-128396315D01*
X138983685Y-128531467D01*
X139089873Y-128690388D01*
X139163017Y-128866972D01*
X139200305Y-129054433D01*
X139200305Y-129245567D01*
X139163017Y-129433028D01*
X139089873Y-129609612D01*
X138983685Y-129768533D01*
X138848533Y-129903685D01*
X138689612Y-130009873D01*
X138513028Y-130083017D01*
X138325567Y-130120305D01*
X138134433Y-130120305D01*
X137946972Y-130083017D01*
X137770388Y-130009873D01*
X137611467Y-129903685D01*
X137476315Y-129768533D01*
X137370127Y-129609612D01*
X137296983Y-129433028D01*
X137259695Y-129245567D01*
X137259695Y-129054433D01*
X137296983Y-128866972D01*
X137370127Y-128690388D01*
X137476315Y-128531467D01*
X137611467Y-128396315D01*
X137770388Y-128290127D01*
X137946972Y-128216983D01*
X138134433Y-128179695D01*
X138325567Y-128179695D01*
X138513028Y-128216983D01*
G37*
G36*
X143513028Y-128216983D02*
G01*
X143689612Y-128290127D01*
X143848533Y-128396315D01*
X143983685Y-128531467D01*
X144089873Y-128690388D01*
X144163017Y-128866972D01*
X144200305Y-129054433D01*
X144200305Y-129245567D01*
X144163017Y-129433028D01*
X144089873Y-129609612D01*
X143983685Y-129768533D01*
X143848533Y-129903685D01*
X143689612Y-130009873D01*
X143513028Y-130083017D01*
X143325567Y-130120305D01*
X143134433Y-130120305D01*
X142946972Y-130083017D01*
X142770388Y-130009873D01*
X142611467Y-129903685D01*
X142476315Y-129768533D01*
X142370127Y-129609612D01*
X142296983Y-129433028D01*
X142259695Y-129245567D01*
X142259695Y-129054433D01*
X142296983Y-128866972D01*
X142370127Y-128690388D01*
X142476315Y-128531467D01*
X142611467Y-128396315D01*
X142770388Y-128290127D01*
X142946972Y-128216983D01*
X143134433Y-128179695D01*
X143325567Y-128179695D01*
X143513028Y-128216983D01*
G37*
G36*
X154013028Y-128216983D02*
G01*
X154189612Y-128290127D01*
X154348533Y-128396315D01*
X154483685Y-128531467D01*
X154589873Y-128690388D01*
X154663017Y-128866972D01*
X154700305Y-129054433D01*
X154700305Y-129245567D01*
X154663017Y-129433028D01*
X154589873Y-129609612D01*
X154483685Y-129768533D01*
X154348533Y-129903685D01*
X154189612Y-130009873D01*
X154013028Y-130083017D01*
X153825567Y-130120305D01*
X153634433Y-130120305D01*
X153446972Y-130083017D01*
X153270388Y-130009873D01*
X153111467Y-129903685D01*
X152976315Y-129768533D01*
X152870127Y-129609612D01*
X152796983Y-129433028D01*
X152759695Y-129245567D01*
X152759695Y-129054433D01*
X152796983Y-128866972D01*
X152870127Y-128690388D01*
X152976315Y-128531467D01*
X153111467Y-128396315D01*
X153270388Y-128290127D01*
X153446972Y-128216983D01*
X153634433Y-128179695D01*
X153825567Y-128179695D01*
X154013028Y-128216983D01*
G37*
G36*
X159013028Y-128216983D02*
G01*
X159189612Y-128290127D01*
X159348533Y-128396315D01*
X159483685Y-128531467D01*
X159589873Y-128690388D01*
X159663017Y-128866972D01*
X159700305Y-129054433D01*
X159700305Y-129245567D01*
X159663017Y-129433028D01*
X159589873Y-129609612D01*
X159483685Y-129768533D01*
X159348533Y-129903685D01*
X159189612Y-130009873D01*
X159013028Y-130083017D01*
X158825567Y-130120305D01*
X158634433Y-130120305D01*
X158446972Y-130083017D01*
X158270388Y-130009873D01*
X158111467Y-129903685D01*
X157976315Y-129768533D01*
X157870127Y-129609612D01*
X157796983Y-129433028D01*
X157759695Y-129245567D01*
X157759695Y-129054433D01*
X157796983Y-128866972D01*
X157870127Y-128690388D01*
X157976315Y-128531467D01*
X158111467Y-128396315D01*
X158270388Y-128290127D01*
X158446972Y-128216983D01*
X158634433Y-128179695D01*
X158825567Y-128179695D01*
X159013028Y-128216983D01*
G37*
G36*
X94964624Y-123668136D02*
G01*
X95140889Y-123725408D01*
X95306025Y-123809549D01*
X95455965Y-123918487D01*
X95587017Y-124049539D01*
X95695955Y-124199479D01*
X95780096Y-124364615D01*
X95837368Y-124540880D01*
X95866361Y-124723934D01*
X95866361Y-124909270D01*
X95837368Y-125092324D01*
X95780096Y-125268589D01*
X95695955Y-125433725D01*
X95587017Y-125583665D01*
X95455965Y-125714717D01*
X95306025Y-125823655D01*
X95140889Y-125907796D01*
X94964624Y-125965068D01*
X94781570Y-125994061D01*
X94596234Y-125994061D01*
X94413180Y-125965068D01*
X94236915Y-125907796D01*
X94071779Y-125823655D01*
X93921839Y-125714717D01*
X93790787Y-125583665D01*
X93681849Y-125433725D01*
X93597708Y-125268589D01*
X93540436Y-125092324D01*
X93511443Y-124909270D01*
X93511443Y-124723934D01*
X93540436Y-124540880D01*
X93597708Y-124364615D01*
X93681849Y-124199479D01*
X93790787Y-124049539D01*
X93921839Y-123918487D01*
X94071779Y-123809549D01*
X94236915Y-123725408D01*
X94413180Y-123668136D01*
X94596234Y-123639143D01*
X94781570Y-123639143D01*
X94964624Y-123668136D01*
G37*
G36*
X108205000Y-121925000D02*
G01*
X106255000Y-121925000D01*
X106255000Y-119975000D01*
X108205000Y-119975000D01*
X108205000Y-121925000D01*
G37*
G36*
X123705000Y-121925000D02*
G01*
X121755000Y-121925000D01*
X121755000Y-119975000D01*
X123705000Y-119975000D01*
X123705000Y-121925000D01*
G37*
G36*
X139205000Y-121925000D02*
G01*
X137255000Y-121925000D01*
X137255000Y-119975000D01*
X139205000Y-119975000D01*
X139205000Y-121925000D01*
G37*
G36*
X154705000Y-121925000D02*
G01*
X152755000Y-121925000D01*
X152755000Y-119975000D01*
X154705000Y-119975000D01*
X154705000Y-121925000D01*
G37*
G36*
X112513028Y-120016983D02*
G01*
X112689612Y-120090127D01*
X112848533Y-120196315D01*
X112983685Y-120331467D01*
X113089873Y-120490388D01*
X113163017Y-120666972D01*
X113200305Y-120854433D01*
X113200305Y-121045567D01*
X113163017Y-121233028D01*
X113089873Y-121409612D01*
X112983685Y-121568533D01*
X112848533Y-121703685D01*
X112689612Y-121809873D01*
X112513028Y-121883017D01*
X112325567Y-121920305D01*
X112134433Y-121920305D01*
X111946972Y-121883017D01*
X111770388Y-121809873D01*
X111611467Y-121703685D01*
X111476315Y-121568533D01*
X111370127Y-121409612D01*
X111296983Y-121233028D01*
X111259695Y-121045567D01*
X111259695Y-120854433D01*
X111296983Y-120666972D01*
X111370127Y-120490388D01*
X111476315Y-120331467D01*
X111611467Y-120196315D01*
X111770388Y-120090127D01*
X111946972Y-120016983D01*
X112134433Y-119979695D01*
X112325567Y-119979695D01*
X112513028Y-120016983D01*
G37*
G36*
X128013028Y-120016983D02*
G01*
X128189612Y-120090127D01*
X128348533Y-120196315D01*
X128483685Y-120331467D01*
X128589873Y-120490388D01*
X128663017Y-120666972D01*
X128700305Y-120854433D01*
X128700305Y-121045567D01*
X128663017Y-121233028D01*
X128589873Y-121409612D01*
X128483685Y-121568533D01*
X128348533Y-121703685D01*
X128189612Y-121809873D01*
X128013028Y-121883017D01*
X127825567Y-121920305D01*
X127634433Y-121920305D01*
X127446972Y-121883017D01*
X127270388Y-121809873D01*
X127111467Y-121703685D01*
X126976315Y-121568533D01*
X126870127Y-121409612D01*
X126796983Y-121233028D01*
X126759695Y-121045567D01*
X126759695Y-120854433D01*
X126796983Y-120666972D01*
X126870127Y-120490388D01*
X126976315Y-120331467D01*
X127111467Y-120196315D01*
X127270388Y-120090127D01*
X127446972Y-120016983D01*
X127634433Y-119979695D01*
X127825567Y-119979695D01*
X128013028Y-120016983D01*
G37*
G36*
X143513028Y-120016983D02*
G01*
X143689612Y-120090127D01*
X143848533Y-120196315D01*
X143983685Y-120331467D01*
X144089873Y-120490388D01*
X144163017Y-120666972D01*
X144200305Y-120854433D01*
X144200305Y-121045567D01*
X144163017Y-121233028D01*
X144089873Y-121409612D01*
X143983685Y-121568533D01*
X143848533Y-121703685D01*
X143689612Y-121809873D01*
X143513028Y-121883017D01*
X143325567Y-121920305D01*
X143134433Y-121920305D01*
X142946972Y-121883017D01*
X142770388Y-121809873D01*
X142611467Y-121703685D01*
X142476315Y-121568533D01*
X142370127Y-121409612D01*
X142296983Y-121233028D01*
X142259695Y-121045567D01*
X142259695Y-120854433D01*
X142296983Y-120666972D01*
X142370127Y-120490388D01*
X142476315Y-120331467D01*
X142611467Y-120196315D01*
X142770388Y-120090127D01*
X142946972Y-120016983D01*
X143134433Y-119979695D01*
X143325567Y-119979695D01*
X143513028Y-120016983D01*
G37*
G36*
X159013028Y-120016983D02*
G01*
X159189612Y-120090127D01*
X159348533Y-120196315D01*
X159483685Y-120331467D01*
X159589873Y-120490388D01*
X159663017Y-120666972D01*
X159700305Y-120854433D01*
X159700305Y-121045567D01*
X159663017Y-121233028D01*
X159589873Y-121409612D01*
X159483685Y-121568533D01*
X159348533Y-121703685D01*
X159189612Y-121809873D01*
X159013028Y-121883017D01*
X158825567Y-121920305D01*
X158634433Y-121920305D01*
X158446972Y-121883017D01*
X158270388Y-121809873D01*
X158111467Y-121703685D01*
X157976315Y-121568533D01*
X157870127Y-121409612D01*
X157796983Y-121233028D01*
X157759695Y-121045567D01*
X157759695Y-120854433D01*
X157796983Y-120666972D01*
X157870127Y-120490388D01*
X157976315Y-120331467D01*
X158111467Y-120196315D01*
X158270388Y-120090127D01*
X158446972Y-120016983D01*
X158634433Y-119979695D01*
X158825567Y-119979695D01*
X159013028Y-120016983D01*
G37*
G36*
X94964624Y-117968132D02*
G01*
X95140889Y-118025404D01*
X95306025Y-118109545D01*
X95455965Y-118218483D01*
X95587017Y-118349535D01*
X95695955Y-118499475D01*
X95780096Y-118664611D01*
X95837368Y-118840876D01*
X95866361Y-119023930D01*
X95866361Y-119209266D01*
X95837368Y-119392320D01*
X95780096Y-119568585D01*
X95695955Y-119733721D01*
X95587017Y-119883661D01*
X95455965Y-120014713D01*
X95306025Y-120123651D01*
X95140889Y-120207792D01*
X94964624Y-120265064D01*
X94781570Y-120294057D01*
X94596234Y-120294057D01*
X94413180Y-120265064D01*
X94236915Y-120207792D01*
X94071779Y-120123651D01*
X93921839Y-120014713D01*
X93790787Y-119883661D01*
X93681849Y-119733721D01*
X93597708Y-119568585D01*
X93540436Y-119392320D01*
X93511443Y-119209266D01*
X93511443Y-119023930D01*
X93540436Y-118840876D01*
X93597708Y-118664611D01*
X93681849Y-118499475D01*
X93790787Y-118349535D01*
X93921839Y-118218483D01*
X94071779Y-118109545D01*
X94236915Y-118025404D01*
X94413180Y-117968132D01*
X94596234Y-117939139D01*
X94781570Y-117939139D01*
X94964624Y-117968132D01*
G37*
G36*
X114305000Y-112755000D02*
G01*
X112355000Y-112755000D01*
X112355000Y-110805000D01*
X114305000Y-110805000D01*
X114305000Y-112755000D01*
G37*
G36*
X129805000Y-112755000D02*
G01*
X127855000Y-112755000D01*
X127855000Y-110805000D01*
X129805000Y-110805000D01*
X129805000Y-112755000D01*
G37*
G36*
X145305000Y-112755000D02*
G01*
X143355000Y-112755000D01*
X143355000Y-110805000D01*
X145305000Y-110805000D01*
X145305000Y-112755000D01*
G37*
G36*
X160805000Y-112755000D02*
G01*
X158855000Y-112755000D01*
X158855000Y-110805000D01*
X160805000Y-110805000D01*
X160805000Y-112755000D01*
G37*
G36*
X108613028Y-110846983D02*
G01*
X108789612Y-110920127D01*
X108948533Y-111026315D01*
X109083685Y-111161467D01*
X109189873Y-111320388D01*
X109263017Y-111496972D01*
X109300305Y-111684433D01*
X109300305Y-111875567D01*
X109263017Y-112063028D01*
X109189873Y-112239612D01*
X109083685Y-112398533D01*
X108948533Y-112533685D01*
X108789612Y-112639873D01*
X108613028Y-112713017D01*
X108425567Y-112750305D01*
X108234433Y-112750305D01*
X108046972Y-112713017D01*
X107870388Y-112639873D01*
X107711467Y-112533685D01*
X107576315Y-112398533D01*
X107470127Y-112239612D01*
X107396983Y-112063028D01*
X107359695Y-111875567D01*
X107359695Y-111684433D01*
X107396983Y-111496972D01*
X107470127Y-111320388D01*
X107576315Y-111161467D01*
X107711467Y-111026315D01*
X107870388Y-110920127D01*
X108046972Y-110846983D01*
X108234433Y-110809695D01*
X108425567Y-110809695D01*
X108613028Y-110846983D01*
G37*
G36*
X124113028Y-110846983D02*
G01*
X124289612Y-110920127D01*
X124448533Y-111026315D01*
X124583685Y-111161467D01*
X124689873Y-111320388D01*
X124763017Y-111496972D01*
X124800305Y-111684433D01*
X124800305Y-111875567D01*
X124763017Y-112063028D01*
X124689873Y-112239612D01*
X124583685Y-112398533D01*
X124448533Y-112533685D01*
X124289612Y-112639873D01*
X124113028Y-112713017D01*
X123925567Y-112750305D01*
X123734433Y-112750305D01*
X123546972Y-112713017D01*
X123370388Y-112639873D01*
X123211467Y-112533685D01*
X123076315Y-112398533D01*
X122970127Y-112239612D01*
X122896983Y-112063028D01*
X122859695Y-111875567D01*
X122859695Y-111684433D01*
X122896983Y-111496972D01*
X122970127Y-111320388D01*
X123076315Y-111161467D01*
X123211467Y-111026315D01*
X123370388Y-110920127D01*
X123546972Y-110846983D01*
X123734433Y-110809695D01*
X123925567Y-110809695D01*
X124113028Y-110846983D01*
G37*
G36*
X139613028Y-110846983D02*
G01*
X139789612Y-110920127D01*
X139948533Y-111026315D01*
X140083685Y-111161467D01*
X140189873Y-111320388D01*
X140263017Y-111496972D01*
X140300305Y-111684433D01*
X140300305Y-111875567D01*
X140263017Y-112063028D01*
X140189873Y-112239612D01*
X140083685Y-112398533D01*
X139948533Y-112533685D01*
X139789612Y-112639873D01*
X139613028Y-112713017D01*
X139425567Y-112750305D01*
X139234433Y-112750305D01*
X139046972Y-112713017D01*
X138870388Y-112639873D01*
X138711467Y-112533685D01*
X138576315Y-112398533D01*
X138470127Y-112239612D01*
X138396983Y-112063028D01*
X138359695Y-111875567D01*
X138359695Y-111684433D01*
X138396983Y-111496972D01*
X138470127Y-111320388D01*
X138576315Y-111161467D01*
X138711467Y-111026315D01*
X138870388Y-110920127D01*
X139046972Y-110846983D01*
X139234433Y-110809695D01*
X139425567Y-110809695D01*
X139613028Y-110846983D01*
G37*
G36*
X155113028Y-110846983D02*
G01*
X155289612Y-110920127D01*
X155448533Y-111026315D01*
X155583685Y-111161467D01*
X155689873Y-111320388D01*
X155763017Y-111496972D01*
X155800305Y-111684433D01*
X155800305Y-111875567D01*
X155763017Y-112063028D01*
X155689873Y-112239612D01*
X155583685Y-112398533D01*
X155448533Y-112533685D01*
X155289612Y-112639873D01*
X155113028Y-112713017D01*
X154925567Y-112750305D01*
X154734433Y-112750305D01*
X154546972Y-112713017D01*
X154370388Y-112639873D01*
X154211467Y-112533685D01*
X154076315Y-112398533D01*
X153970127Y-112239612D01*
X153896983Y-112063028D01*
X153859695Y-111875567D01*
X153859695Y-111684433D01*
X153896983Y-111496972D01*
X153970127Y-111320388D01*
X154076315Y-111161467D01*
X154211467Y-111026315D01*
X154370388Y-110920127D01*
X154546972Y-110846983D01*
X154734433Y-110809695D01*
X154925567Y-110809695D01*
X155113028Y-110846983D01*
G37*
G36*
X93737350Y-110718464D02*
G01*
X93787540Y-110724287D01*
X93804689Y-110731859D01*
X93828171Y-110736530D01*
X93853310Y-110753327D01*
X93873196Y-110762108D01*
X93886777Y-110775689D01*
X93909277Y-110790723D01*
X93924310Y-110813222D01*
X93937891Y-110826803D01*
X93946670Y-110846686D01*
X93963470Y-110871829D01*
X93968141Y-110895312D01*
X93975712Y-110912459D01*
X93981533Y-110962639D01*
X93982500Y-110967500D01*
X93982500Y-112072500D01*
X93981532Y-112077363D01*
X93975712Y-112127540D01*
X93968141Y-112144685D01*
X93963470Y-112168171D01*
X93946669Y-112193315D01*
X93937891Y-112213196D01*
X93924312Y-112226774D01*
X93909277Y-112249277D01*
X93886774Y-112264312D01*
X93873196Y-112277891D01*
X93853315Y-112286669D01*
X93828171Y-112303470D01*
X93804685Y-112308141D01*
X93787540Y-112315712D01*
X93737361Y-112321532D01*
X93732500Y-112322500D01*
X92627500Y-112322500D01*
X92622638Y-112321532D01*
X92572459Y-112315712D01*
X92555312Y-112308141D01*
X92531829Y-112303470D01*
X92506686Y-112286670D01*
X92486803Y-112277891D01*
X92473222Y-112264310D01*
X92450723Y-112249277D01*
X92435689Y-112226777D01*
X92422108Y-112213196D01*
X92413327Y-112193310D01*
X92396530Y-112168171D01*
X92391859Y-112144689D01*
X92384287Y-112127540D01*
X92378464Y-112077349D01*
X92377500Y-112072500D01*
X92377500Y-110967500D01*
X92378464Y-110962650D01*
X92384287Y-110912459D01*
X92391859Y-110895308D01*
X92396530Y-110871829D01*
X92413326Y-110846691D01*
X92422108Y-110826803D01*
X92435691Y-110813219D01*
X92450723Y-110790723D01*
X92473219Y-110775691D01*
X92486803Y-110762108D01*
X92506691Y-110753326D01*
X92531829Y-110736530D01*
X92555308Y-110731859D01*
X92572459Y-110724287D01*
X92622651Y-110718464D01*
X92627500Y-110717500D01*
X93732500Y-110717500D01*
X93737350Y-110718464D01*
G37*
G36*
X96412953Y-110752055D02*
G01*
X96558296Y-110812258D01*
X96689101Y-110899659D01*
X96800341Y-111010899D01*
X96887742Y-111141704D01*
X96947945Y-111287047D01*
X96978636Y-111441341D01*
X96978636Y-111598659D01*
X96947945Y-111752953D01*
X96887742Y-111898296D01*
X96800341Y-112029101D01*
X96689101Y-112140341D01*
X96558296Y-112227742D01*
X96412953Y-112287945D01*
X96258659Y-112318636D01*
X96101341Y-112318636D01*
X95947047Y-112287945D01*
X95801704Y-112227742D01*
X95670899Y-112140341D01*
X95559659Y-112029101D01*
X95472258Y-111898296D01*
X95412055Y-111752953D01*
X95381364Y-111598659D01*
X95381364Y-111441341D01*
X95412055Y-111287047D01*
X95472258Y-111141704D01*
X95559659Y-111010899D01*
X95670899Y-110899659D01*
X95801704Y-110812258D01*
X95947047Y-110752055D01*
X96101341Y-110721364D01*
X96258659Y-110721364D01*
X96412953Y-110752055D01*
G37*
G36*
X93412953Y-107752055D02*
G01*
X93558296Y-107812258D01*
X93689101Y-107899659D01*
X93800341Y-108010899D01*
X93887742Y-108141704D01*
X93947945Y-108287047D01*
X93978636Y-108441341D01*
X93978636Y-108598659D01*
X93947945Y-108752953D01*
X93887742Y-108898296D01*
X93800341Y-109029101D01*
X93689101Y-109140341D01*
X93558296Y-109227742D01*
X93412953Y-109287945D01*
X93258659Y-109318636D01*
X93101341Y-109318636D01*
X92947047Y-109287945D01*
X92801704Y-109227742D01*
X92670899Y-109140341D01*
X92559659Y-109029101D01*
X92472258Y-108898296D01*
X92412055Y-108752953D01*
X92381364Y-108598659D01*
X92381364Y-108441341D01*
X92412055Y-108287047D01*
X92472258Y-108141704D01*
X92559659Y-108010899D01*
X92670899Y-107899659D01*
X92801704Y-107812258D01*
X92947047Y-107752055D01*
X93101341Y-107721364D01*
X93258659Y-107721364D01*
X93412953Y-107752055D01*
G37*
G36*
X96412953Y-107752055D02*
G01*
X96558296Y-107812258D01*
X96689101Y-107899659D01*
X96800341Y-108010899D01*
X96887742Y-108141704D01*
X96947945Y-108287047D01*
X96978636Y-108441341D01*
X96978636Y-108598659D01*
X96947945Y-108752953D01*
X96887742Y-108898296D01*
X96800341Y-109029101D01*
X96689101Y-109140341D01*
X96558296Y-109227742D01*
X96412953Y-109287945D01*
X96258659Y-109318636D01*
X96101341Y-109318636D01*
X95947047Y-109287945D01*
X95801704Y-109227742D01*
X95670899Y-109140341D01*
X95559659Y-109029101D01*
X95472258Y-108898296D01*
X95412055Y-108752953D01*
X95381364Y-108598659D01*
X95381364Y-108441341D01*
X95412055Y-108287047D01*
X95472258Y-108141704D01*
X95559659Y-108010899D01*
X95670899Y-107899659D01*
X95801704Y-107812258D01*
X95947047Y-107752055D01*
X96101341Y-107721364D01*
X96258659Y-107721364D01*
X96412953Y-107752055D01*
G37*
G36*
X97355169Y-106768821D02*
G01*
X97470468Y-106835390D01*
X97564610Y-106929532D01*
X97631179Y-107044831D01*
X97665637Y-107173432D01*
X97665637Y-107306568D01*
X97631179Y-107435169D01*
X97564610Y-107550468D01*
X97470468Y-107644610D01*
X97355169Y-107711179D01*
X97226568Y-107745637D01*
X97093432Y-107745637D01*
X96964831Y-107711179D01*
X96849532Y-107644610D01*
X96755390Y-107550468D01*
X96688821Y-107435169D01*
X96654363Y-107306568D01*
X96654363Y-107173432D01*
X96688821Y-107044831D01*
X96755390Y-106929532D01*
X96849532Y-106835390D01*
X96964831Y-106768821D01*
X97093432Y-106734363D01*
X97226568Y-106734363D01*
X97355169Y-106768821D01*
G37*
G36*
X108613028Y-102646983D02*
G01*
X108789612Y-102720127D01*
X108948533Y-102826315D01*
X109083685Y-102961467D01*
X109189873Y-103120388D01*
X109263017Y-103296972D01*
X109300305Y-103484433D01*
X109300305Y-103675567D01*
X109263017Y-103863028D01*
X109189873Y-104039612D01*
X109083685Y-104198533D01*
X108948533Y-104333685D01*
X108789612Y-104439873D01*
X108613028Y-104513017D01*
X108425567Y-104550305D01*
X108234433Y-104550305D01*
X108046972Y-104513017D01*
X107870388Y-104439873D01*
X107711467Y-104333685D01*
X107576315Y-104198533D01*
X107470127Y-104039612D01*
X107396983Y-103863028D01*
X107359695Y-103675567D01*
X107359695Y-103484433D01*
X107396983Y-103296972D01*
X107470127Y-103120388D01*
X107576315Y-102961467D01*
X107711467Y-102826315D01*
X107870388Y-102720127D01*
X108046972Y-102646983D01*
X108234433Y-102609695D01*
X108425567Y-102609695D01*
X108613028Y-102646983D01*
G37*
G36*
X113613028Y-102646983D02*
G01*
X113789612Y-102720127D01*
X113948533Y-102826315D01*
X114083685Y-102961467D01*
X114189873Y-103120388D01*
X114263017Y-103296972D01*
X114300305Y-103484433D01*
X114300305Y-103675567D01*
X114263017Y-103863028D01*
X114189873Y-104039612D01*
X114083685Y-104198533D01*
X113948533Y-104333685D01*
X113789612Y-104439873D01*
X113613028Y-104513017D01*
X113425567Y-104550305D01*
X113234433Y-104550305D01*
X113046972Y-104513017D01*
X112870388Y-104439873D01*
X112711467Y-104333685D01*
X112576315Y-104198533D01*
X112470127Y-104039612D01*
X112396983Y-103863028D01*
X112359695Y-103675567D01*
X112359695Y-103484433D01*
X112396983Y-103296972D01*
X112470127Y-103120388D01*
X112576315Y-102961467D01*
X112711467Y-102826315D01*
X112870388Y-102720127D01*
X113046972Y-102646983D01*
X113234433Y-102609695D01*
X113425567Y-102609695D01*
X113613028Y-102646983D01*
G37*
G36*
X124113028Y-102646983D02*
G01*
X124289612Y-102720127D01*
X124448533Y-102826315D01*
X124583685Y-102961467D01*
X124689873Y-103120388D01*
X124763017Y-103296972D01*
X124800305Y-103484433D01*
X124800305Y-103675567D01*
X124763017Y-103863028D01*
X124689873Y-104039612D01*
X124583685Y-104198533D01*
X124448533Y-104333685D01*
X124289612Y-104439873D01*
X124113028Y-104513017D01*
X123925567Y-104550305D01*
X123734433Y-104550305D01*
X123546972Y-104513017D01*
X123370388Y-104439873D01*
X123211467Y-104333685D01*
X123076315Y-104198533D01*
X122970127Y-104039612D01*
X122896983Y-103863028D01*
X122859695Y-103675567D01*
X122859695Y-103484433D01*
X122896983Y-103296972D01*
X122970127Y-103120388D01*
X123076315Y-102961467D01*
X123211467Y-102826315D01*
X123370388Y-102720127D01*
X123546972Y-102646983D01*
X123734433Y-102609695D01*
X123925567Y-102609695D01*
X124113028Y-102646983D01*
G37*
G36*
X129113028Y-102646983D02*
G01*
X129289612Y-102720127D01*
X129448533Y-102826315D01*
X129583685Y-102961467D01*
X129689873Y-103120388D01*
X129763017Y-103296972D01*
X129800305Y-103484433D01*
X129800305Y-103675567D01*
X129763017Y-103863028D01*
X129689873Y-104039612D01*
X129583685Y-104198533D01*
X129448533Y-104333685D01*
X129289612Y-104439873D01*
X129113028Y-104513017D01*
X128925567Y-104550305D01*
X128734433Y-104550305D01*
X128546972Y-104513017D01*
X128370388Y-104439873D01*
X128211467Y-104333685D01*
X128076315Y-104198533D01*
X127970127Y-104039612D01*
X127896983Y-103863028D01*
X127859695Y-103675567D01*
X127859695Y-103484433D01*
X127896983Y-103296972D01*
X127970127Y-103120388D01*
X128076315Y-102961467D01*
X128211467Y-102826315D01*
X128370388Y-102720127D01*
X128546972Y-102646983D01*
X128734433Y-102609695D01*
X128925567Y-102609695D01*
X129113028Y-102646983D01*
G37*
G36*
X139613028Y-102646983D02*
G01*
X139789612Y-102720127D01*
X139948533Y-102826315D01*
X140083685Y-102961467D01*
X140189873Y-103120388D01*
X140263017Y-103296972D01*
X140300305Y-103484433D01*
X140300305Y-103675567D01*
X140263017Y-103863028D01*
X140189873Y-104039612D01*
X140083685Y-104198533D01*
X139948533Y-104333685D01*
X139789612Y-104439873D01*
X139613028Y-104513017D01*
X139425567Y-104550305D01*
X139234433Y-104550305D01*
X139046972Y-104513017D01*
X138870388Y-104439873D01*
X138711467Y-104333685D01*
X138576315Y-104198533D01*
X138470127Y-104039612D01*
X138396983Y-103863028D01*
X138359695Y-103675567D01*
X138359695Y-103484433D01*
X138396983Y-103296972D01*
X138470127Y-103120388D01*
X138576315Y-102961467D01*
X138711467Y-102826315D01*
X138870388Y-102720127D01*
X139046972Y-102646983D01*
X139234433Y-102609695D01*
X139425567Y-102609695D01*
X139613028Y-102646983D01*
G37*
G36*
X144613028Y-102646983D02*
G01*
X144789612Y-102720127D01*
X144948533Y-102826315D01*
X145083685Y-102961467D01*
X145189873Y-103120388D01*
X145263017Y-103296972D01*
X145300305Y-103484433D01*
X145300305Y-103675567D01*
X145263017Y-103863028D01*
X145189873Y-104039612D01*
X145083685Y-104198533D01*
X144948533Y-104333685D01*
X144789612Y-104439873D01*
X144613028Y-104513017D01*
X144425567Y-104550305D01*
X144234433Y-104550305D01*
X144046972Y-104513017D01*
X143870388Y-104439873D01*
X143711467Y-104333685D01*
X143576315Y-104198533D01*
X143470127Y-104039612D01*
X143396983Y-103863028D01*
X143359695Y-103675567D01*
X143359695Y-103484433D01*
X143396983Y-103296972D01*
X143470127Y-103120388D01*
X143576315Y-102961467D01*
X143711467Y-102826315D01*
X143870388Y-102720127D01*
X144046972Y-102646983D01*
X144234433Y-102609695D01*
X144425567Y-102609695D01*
X144613028Y-102646983D01*
G37*
G36*
X155113028Y-102646983D02*
G01*
X155289612Y-102720127D01*
X155448533Y-102826315D01*
X155583685Y-102961467D01*
X155689873Y-103120388D01*
X155763017Y-103296972D01*
X155800305Y-103484433D01*
X155800305Y-103675567D01*
X155763017Y-103863028D01*
X155689873Y-104039612D01*
X155583685Y-104198533D01*
X155448533Y-104333685D01*
X155289612Y-104439873D01*
X155113028Y-104513017D01*
X154925567Y-104550305D01*
X154734433Y-104550305D01*
X154546972Y-104513017D01*
X154370388Y-104439873D01*
X154211467Y-104333685D01*
X154076315Y-104198533D01*
X153970127Y-104039612D01*
X153896983Y-103863028D01*
X153859695Y-103675567D01*
X153859695Y-103484433D01*
X153896983Y-103296972D01*
X153970127Y-103120388D01*
X154076315Y-102961467D01*
X154211467Y-102826315D01*
X154370388Y-102720127D01*
X154546972Y-102646983D01*
X154734433Y-102609695D01*
X154925567Y-102609695D01*
X155113028Y-102646983D01*
G37*
G36*
X160113028Y-102646983D02*
G01*
X160289612Y-102720127D01*
X160448533Y-102826315D01*
X160583685Y-102961467D01*
X160689873Y-103120388D01*
X160763017Y-103296972D01*
X160800305Y-103484433D01*
X160800305Y-103675567D01*
X160763017Y-103863028D01*
X160689873Y-104039612D01*
X160583685Y-104198533D01*
X160448533Y-104333685D01*
X160289612Y-104439873D01*
X160113028Y-104513017D01*
X159925567Y-104550305D01*
X159734433Y-104550305D01*
X159546972Y-104513017D01*
X159370388Y-104439873D01*
X159211467Y-104333685D01*
X159076315Y-104198533D01*
X158970127Y-104039612D01*
X158896983Y-103863028D01*
X158859695Y-103675567D01*
X158859695Y-103484433D01*
X158896983Y-103296972D01*
X158970127Y-103120388D01*
X159076315Y-102961467D01*
X159211467Y-102826315D01*
X159370388Y-102720127D01*
X159546972Y-102646983D01*
X159734433Y-102609695D01*
X159925567Y-102609695D01*
X160113028Y-102646983D01*
G37*
G36*
X92469850Y-102450964D02*
G01*
X92520040Y-102456787D01*
X92537189Y-102464359D01*
X92560671Y-102469030D01*
X92585810Y-102485827D01*
X92605696Y-102494608D01*
X92619277Y-102508189D01*
X92641777Y-102523223D01*
X92656810Y-102545722D01*
X92670391Y-102559303D01*
X92679170Y-102579186D01*
X92695970Y-102604329D01*
X92700641Y-102627812D01*
X92708212Y-102644959D01*
X92714033Y-102695139D01*
X92715000Y-102700000D01*
X92715000Y-103200000D01*
X92714032Y-103204863D01*
X92708212Y-103255040D01*
X92700641Y-103272185D01*
X92695970Y-103295671D01*
X92679169Y-103320815D01*
X92670391Y-103340696D01*
X92656812Y-103354274D01*
X92641777Y-103376777D01*
X92619274Y-103391812D01*
X92605696Y-103405391D01*
X92585815Y-103414169D01*
X92560671Y-103430970D01*
X92537185Y-103435641D01*
X92520040Y-103443212D01*
X92469861Y-103449032D01*
X92465000Y-103450000D01*
X91515000Y-103450000D01*
X91510138Y-103449032D01*
X91459959Y-103443212D01*
X91442812Y-103435641D01*
X91419329Y-103430970D01*
X91394186Y-103414170D01*
X91374303Y-103405391D01*
X91360722Y-103391810D01*
X91338223Y-103376777D01*
X91323189Y-103354277D01*
X91309608Y-103340696D01*
X91300827Y-103320810D01*
X91284030Y-103295671D01*
X91279359Y-103272189D01*
X91271787Y-103255040D01*
X91265964Y-103204849D01*
X91265000Y-103200000D01*
X91265000Y-102700000D01*
X91265964Y-102695150D01*
X91271787Y-102644959D01*
X91279359Y-102627808D01*
X91284030Y-102604329D01*
X91300826Y-102579191D01*
X91309608Y-102559303D01*
X91323191Y-102545719D01*
X91338223Y-102523223D01*
X91360719Y-102508191D01*
X91374303Y-102494608D01*
X91394191Y-102485826D01*
X91419329Y-102469030D01*
X91442808Y-102464359D01*
X91459959Y-102456787D01*
X91510151Y-102450964D01*
X91515000Y-102450000D01*
X92465000Y-102450000D01*
X92469850Y-102450964D01*
G37*
G36*
X99679850Y-101520964D02*
G01*
X99730040Y-101526787D01*
X99747189Y-101534359D01*
X99770671Y-101539030D01*
X99795810Y-101555827D01*
X99815696Y-101564608D01*
X99829277Y-101578189D01*
X99851777Y-101593223D01*
X99866810Y-101615722D01*
X99880391Y-101629303D01*
X99889170Y-101649186D01*
X99905970Y-101674329D01*
X99910641Y-101697812D01*
X99918212Y-101714959D01*
X99924033Y-101765139D01*
X99925000Y-101770000D01*
X99925000Y-102270000D01*
X99924032Y-102274863D01*
X99918212Y-102325040D01*
X99910641Y-102342185D01*
X99905970Y-102365671D01*
X99889169Y-102390815D01*
X99880391Y-102410696D01*
X99866812Y-102424274D01*
X99851777Y-102446777D01*
X99829274Y-102461812D01*
X99815696Y-102475391D01*
X99795815Y-102484169D01*
X99770671Y-102500970D01*
X99747185Y-102505641D01*
X99730040Y-102513212D01*
X99679861Y-102519032D01*
X99675000Y-102520000D01*
X98725000Y-102520000D01*
X98720138Y-102519032D01*
X98669959Y-102513212D01*
X98652812Y-102505641D01*
X98629329Y-102500970D01*
X98604186Y-102484170D01*
X98584303Y-102475391D01*
X98570722Y-102461810D01*
X98548223Y-102446777D01*
X98533189Y-102424277D01*
X98519608Y-102410696D01*
X98510827Y-102390810D01*
X98494030Y-102365671D01*
X98489359Y-102342189D01*
X98481787Y-102325040D01*
X98475964Y-102274849D01*
X98475000Y-102270000D01*
X98475000Y-101770000D01*
X98475964Y-101765150D01*
X98481787Y-101714959D01*
X98489359Y-101697808D01*
X98494030Y-101674329D01*
X98510826Y-101649191D01*
X98519608Y-101629303D01*
X98533191Y-101615719D01*
X98548223Y-101593223D01*
X98570719Y-101578191D01*
X98584303Y-101564608D01*
X98604191Y-101555826D01*
X98629329Y-101539030D01*
X98652808Y-101534359D01*
X98669959Y-101526787D01*
X98720151Y-101520964D01*
X98725000Y-101520000D01*
X99675000Y-101520000D01*
X99679850Y-101520964D01*
G37*
G36*
X102504850Y-101430964D02*
G01*
X102555040Y-101436787D01*
X102572189Y-101444359D01*
X102595671Y-101449030D01*
X102620810Y-101465827D01*
X102640696Y-101474608D01*
X102654277Y-101488189D01*
X102676777Y-101503223D01*
X102691810Y-101525722D01*
X102705391Y-101539303D01*
X102714170Y-101559186D01*
X102730970Y-101584329D01*
X102735641Y-101607812D01*
X102743212Y-101624959D01*
X102749033Y-101675139D01*
X102750000Y-101680000D01*
X102750000Y-102205000D01*
X102749032Y-102209863D01*
X102743212Y-102260040D01*
X102735641Y-102277185D01*
X102730970Y-102300671D01*
X102714169Y-102325815D01*
X102705391Y-102345696D01*
X102691812Y-102359274D01*
X102676777Y-102381777D01*
X102654274Y-102396812D01*
X102640696Y-102410391D01*
X102620815Y-102419169D01*
X102595671Y-102435970D01*
X102572185Y-102440641D01*
X102555040Y-102448212D01*
X102504861Y-102454032D01*
X102500000Y-102455000D01*
X101600000Y-102455000D01*
X101595138Y-102454032D01*
X101544959Y-102448212D01*
X101527812Y-102440641D01*
X101504329Y-102435970D01*
X101479186Y-102419170D01*
X101459303Y-102410391D01*
X101445722Y-102396810D01*
X101423223Y-102381777D01*
X101408189Y-102359277D01*
X101394608Y-102345696D01*
X101385827Y-102325810D01*
X101369030Y-102300671D01*
X101364359Y-102277189D01*
X101356787Y-102260040D01*
X101350964Y-102209849D01*
X101350000Y-102205000D01*
X101350000Y-101680000D01*
X101350964Y-101675150D01*
X101356787Y-101624959D01*
X101364359Y-101607808D01*
X101369030Y-101584329D01*
X101385826Y-101559191D01*
X101394608Y-101539303D01*
X101408191Y-101525719D01*
X101423223Y-101503223D01*
X101445719Y-101488191D01*
X101459303Y-101474608D01*
X101479191Y-101465826D01*
X101504329Y-101449030D01*
X101527808Y-101444359D01*
X101544959Y-101436787D01*
X101595151Y-101430964D01*
X101600000Y-101430000D01*
X102500000Y-101430000D01*
X102504850Y-101430964D01*
G37*
G36*
X97188000Y-102399401D02*
G01*
X95867200Y-102399401D01*
X95867200Y-101840601D01*
X97188000Y-101840601D01*
X97188000Y-102399401D01*
G37*
G36*
X92469850Y-100550964D02*
G01*
X92520040Y-100556787D01*
X92537189Y-100564359D01*
X92560671Y-100569030D01*
X92585810Y-100585827D01*
X92605696Y-100594608D01*
X92619277Y-100608189D01*
X92641777Y-100623223D01*
X92656810Y-100645722D01*
X92670391Y-100659303D01*
X92679170Y-100679186D01*
X92695970Y-100704329D01*
X92700641Y-100727812D01*
X92708212Y-100744959D01*
X92714033Y-100795139D01*
X92715000Y-100800000D01*
X92715000Y-101300000D01*
X92714032Y-101304863D01*
X92708212Y-101355040D01*
X92700641Y-101372185D01*
X92695970Y-101395671D01*
X92679169Y-101420815D01*
X92670391Y-101440696D01*
X92656812Y-101454274D01*
X92641777Y-101476777D01*
X92619274Y-101491812D01*
X92605696Y-101505391D01*
X92585815Y-101514169D01*
X92560671Y-101530970D01*
X92537185Y-101535641D01*
X92520040Y-101543212D01*
X92469861Y-101549032D01*
X92465000Y-101550000D01*
X91515000Y-101550000D01*
X91510138Y-101549032D01*
X91459959Y-101543212D01*
X91442812Y-101535641D01*
X91419329Y-101530970D01*
X91394186Y-101514170D01*
X91374303Y-101505391D01*
X91360722Y-101491810D01*
X91338223Y-101476777D01*
X91323189Y-101454277D01*
X91309608Y-101440696D01*
X91300827Y-101420810D01*
X91284030Y-101395671D01*
X91279359Y-101372189D01*
X91271787Y-101355040D01*
X91265964Y-101304849D01*
X91265000Y-101300000D01*
X91265000Y-100800000D01*
X91265964Y-100795150D01*
X91271787Y-100744959D01*
X91279359Y-100727808D01*
X91284030Y-100704329D01*
X91300826Y-100679191D01*
X91309608Y-100659303D01*
X91323191Y-100645719D01*
X91338223Y-100623223D01*
X91360719Y-100608191D01*
X91374303Y-100594608D01*
X91394191Y-100585826D01*
X91419329Y-100569030D01*
X91442808Y-100564359D01*
X91459959Y-100556787D01*
X91510151Y-100550964D01*
X91515000Y-100550000D01*
X92465000Y-100550000D01*
X92469850Y-100550964D01*
G37*
G36*
X94800400Y-101449400D02*
G01*
X93479600Y-101449400D01*
X93479600Y-100890600D01*
X94800400Y-100890600D01*
X94800400Y-101449400D01*
G37*
G36*
X102504850Y-99605964D02*
G01*
X102555040Y-99611787D01*
X102572189Y-99619359D01*
X102595671Y-99624030D01*
X102620810Y-99640827D01*
X102640696Y-99649608D01*
X102654277Y-99663189D01*
X102676777Y-99678223D01*
X102691810Y-99700722D01*
X102705391Y-99714303D01*
X102714170Y-99734186D01*
X102730970Y-99759329D01*
X102735641Y-99782812D01*
X102743212Y-99799959D01*
X102749033Y-99850139D01*
X102750000Y-99855000D01*
X102750000Y-100380000D01*
X102749032Y-100384863D01*
X102743212Y-100435040D01*
X102735641Y-100452185D01*
X102730970Y-100475671D01*
X102714169Y-100500815D01*
X102705391Y-100520696D01*
X102691812Y-100534274D01*
X102676777Y-100556777D01*
X102654274Y-100571812D01*
X102640696Y-100585391D01*
X102620815Y-100594169D01*
X102595671Y-100610970D01*
X102572185Y-100615641D01*
X102555040Y-100623212D01*
X102504861Y-100629032D01*
X102500000Y-100630000D01*
X101600000Y-100630000D01*
X101595138Y-100629032D01*
X101544959Y-100623212D01*
X101527812Y-100615641D01*
X101504329Y-100610970D01*
X101479186Y-100594170D01*
X101459303Y-100585391D01*
X101445722Y-100571810D01*
X101423223Y-100556777D01*
X101408189Y-100534277D01*
X101394608Y-100520696D01*
X101385827Y-100500810D01*
X101369030Y-100475671D01*
X101364359Y-100452189D01*
X101356787Y-100435040D01*
X101350964Y-100384849D01*
X101350000Y-100380000D01*
X101350000Y-99855000D01*
X101350964Y-99850150D01*
X101356787Y-99799959D01*
X101364359Y-99782808D01*
X101369030Y-99759329D01*
X101385826Y-99734191D01*
X101394608Y-99714303D01*
X101408191Y-99700719D01*
X101423223Y-99678223D01*
X101445719Y-99663191D01*
X101459303Y-99649608D01*
X101479191Y-99640826D01*
X101504329Y-99624030D01*
X101527808Y-99619359D01*
X101544959Y-99611787D01*
X101595151Y-99605964D01*
X101600000Y-99605000D01*
X102500000Y-99605000D01*
X102504850Y-99605964D01*
G37*
G36*
X99679850Y-99620964D02*
G01*
X99730040Y-99626787D01*
X99747189Y-99634359D01*
X99770671Y-99639030D01*
X99795810Y-99655827D01*
X99815696Y-99664608D01*
X99829277Y-99678189D01*
X99851777Y-99693223D01*
X99866810Y-99715722D01*
X99880391Y-99729303D01*
X99889170Y-99749186D01*
X99905970Y-99774329D01*
X99910641Y-99797812D01*
X99918212Y-99814959D01*
X99924033Y-99865139D01*
X99925000Y-99870000D01*
X99925000Y-100370000D01*
X99924032Y-100374863D01*
X99918212Y-100425040D01*
X99910641Y-100442185D01*
X99905970Y-100465671D01*
X99889169Y-100490815D01*
X99880391Y-100510696D01*
X99866812Y-100524274D01*
X99851777Y-100546777D01*
X99829274Y-100561812D01*
X99815696Y-100575391D01*
X99795815Y-100584169D01*
X99770671Y-100600970D01*
X99747185Y-100605641D01*
X99730040Y-100613212D01*
X99679861Y-100619032D01*
X99675000Y-100620000D01*
X98725000Y-100620000D01*
X98720138Y-100619032D01*
X98669959Y-100613212D01*
X98652812Y-100605641D01*
X98629329Y-100600970D01*
X98604186Y-100584170D01*
X98584303Y-100575391D01*
X98570722Y-100561810D01*
X98548223Y-100546777D01*
X98533189Y-100524277D01*
X98519608Y-100510696D01*
X98510827Y-100490810D01*
X98494030Y-100465671D01*
X98489359Y-100442189D01*
X98481787Y-100425040D01*
X98475964Y-100374849D01*
X98475000Y-100370000D01*
X98475000Y-99870000D01*
X98475964Y-99865150D01*
X98481787Y-99814959D01*
X98489359Y-99797808D01*
X98494030Y-99774329D01*
X98510826Y-99749191D01*
X98519608Y-99729303D01*
X98533191Y-99715719D01*
X98548223Y-99693223D01*
X98570719Y-99678191D01*
X98584303Y-99664608D01*
X98604191Y-99655826D01*
X98629329Y-99639030D01*
X98652808Y-99634359D01*
X98669959Y-99626787D01*
X98720151Y-99620964D01*
X98725000Y-99620000D01*
X99675000Y-99620000D01*
X99679850Y-99620964D01*
G37*
G36*
X97188000Y-100499399D02*
G01*
X95867200Y-100499399D01*
X95867200Y-99940599D01*
X97188000Y-99940599D01*
X97188000Y-100499399D01*
G37*
G36*
X100757703Y-97451532D02*
G01*
X100819716Y-97459696D01*
X100835315Y-97466970D01*
X100855238Y-97470933D01*
X100881626Y-97488565D01*
X100907203Y-97500492D01*
X100922764Y-97516053D01*
X100944454Y-97530546D01*
X100958946Y-97552235D01*
X100974507Y-97567796D01*
X100986432Y-97593370D01*
X101004067Y-97619762D01*
X101008030Y-97639686D01*
X101015303Y-97655283D01*
X101023465Y-97717283D01*
X101025000Y-97725000D01*
X101025000Y-98275000D01*
X101023464Y-98282718D01*
X101015303Y-98344716D01*
X101008030Y-98360311D01*
X101004067Y-98380238D01*
X100986431Y-98406631D01*
X100974507Y-98432203D01*
X100958948Y-98447761D01*
X100944454Y-98469454D01*
X100922761Y-98483948D01*
X100907203Y-98499507D01*
X100881631Y-98511431D01*
X100855238Y-98529067D01*
X100835311Y-98533030D01*
X100819716Y-98540303D01*
X100757718Y-98548464D01*
X100750000Y-98550000D01*
X98500000Y-98550000D01*
X98492283Y-98548465D01*
X98430283Y-98540303D01*
X98414686Y-98533030D01*
X98394762Y-98529067D01*
X98368370Y-98511432D01*
X98342796Y-98499507D01*
X98327235Y-98483946D01*
X98305546Y-98469454D01*
X98291053Y-98447764D01*
X98275492Y-98432203D01*
X98263565Y-98406626D01*
X98245933Y-98380238D01*
X98241970Y-98360315D01*
X98234696Y-98344716D01*
X98226532Y-98282703D01*
X98225000Y-98275000D01*
X98225000Y-97725000D01*
X98226531Y-97717298D01*
X98234696Y-97655283D01*
X98241970Y-97639682D01*
X98245933Y-97619762D01*
X98263563Y-97593375D01*
X98275492Y-97567796D01*
X98291055Y-97552232D01*
X98305546Y-97530546D01*
X98327232Y-97516055D01*
X98342796Y-97500492D01*
X98368375Y-97488563D01*
X98394762Y-97470933D01*
X98414682Y-97466970D01*
X98430283Y-97459696D01*
X98492298Y-97451531D01*
X98500000Y-97450000D01*
X100750000Y-97450000D01*
X100757703Y-97451532D01*
G37*
G36*
X92991807Y-94584538D02*
G01*
X93178354Y-94645151D01*
X93353123Y-94734200D01*
X93511810Y-94849493D01*
X93650507Y-94988190D01*
X93765800Y-95146877D01*
X93854849Y-95321646D01*
X93915462Y-95508193D01*
X93946147Y-95701926D01*
X93946147Y-95898074D01*
X93915462Y-96091807D01*
X93854849Y-96278354D01*
X93765800Y-96453123D01*
X93650507Y-96611810D01*
X93511810Y-96750507D01*
X93353123Y-96865800D01*
X93178354Y-96954849D01*
X92991807Y-97015462D01*
X92798074Y-97046147D01*
X92601926Y-97046147D01*
X92408193Y-97015462D01*
X92221646Y-96954849D01*
X92046877Y-96865800D01*
X91888190Y-96750507D01*
X91749493Y-96611810D01*
X91634200Y-96453123D01*
X91545151Y-96278354D01*
X91484538Y-96091807D01*
X91453853Y-95898074D01*
X91453853Y-95701926D01*
X91484538Y-95508193D01*
X91545151Y-95321646D01*
X91634200Y-95146877D01*
X91749493Y-94988190D01*
X91888190Y-94849493D01*
X92046877Y-94734200D01*
X92221646Y-94645151D01*
X92408193Y-94584538D01*
X92601926Y-94553853D01*
X92798074Y-94553853D01*
X92991807Y-94584538D01*
G37*
G36*
X167491807Y-94584538D02*
G01*
X167678354Y-94645151D01*
X167853123Y-94734200D01*
X168011810Y-94849493D01*
X168150507Y-94988190D01*
X168265800Y-95146877D01*
X168354849Y-95321646D01*
X168415462Y-95508193D01*
X168446147Y-95701926D01*
X168446147Y-95898074D01*
X168415462Y-96091807D01*
X168354849Y-96278354D01*
X168265800Y-96453123D01*
X168150507Y-96611810D01*
X168011810Y-96750507D01*
X167853123Y-96865800D01*
X167678354Y-96954849D01*
X167491807Y-97015462D01*
X167298074Y-97046147D01*
X167101926Y-97046147D01*
X166908193Y-97015462D01*
X166721646Y-96954849D01*
X166546877Y-96865800D01*
X166388190Y-96750507D01*
X166249493Y-96611810D01*
X166134200Y-96453123D01*
X166045151Y-96278354D01*
X165984538Y-96091807D01*
X165953853Y-95898074D01*
X165953853Y-95701926D01*
X165984538Y-95508193D01*
X166045151Y-95321646D01*
X166134200Y-95146877D01*
X166249493Y-94988190D01*
X166388190Y-94849493D01*
X166546877Y-94734200D01*
X166721646Y-94645151D01*
X166908193Y-94584538D01*
X167101926Y-94553853D01*
X167298074Y-94553853D01*
X167491807Y-94584538D01*
G37*
G36*
X100757703Y-94351532D02*
G01*
X100819716Y-94359696D01*
X100835315Y-94366970D01*
X100855238Y-94370933D01*
X100881626Y-94388565D01*
X100907203Y-94400492D01*
X100922764Y-94416053D01*
X100944454Y-94430546D01*
X100958946Y-94452235D01*
X100974507Y-94467796D01*
X100986432Y-94493370D01*
X101004067Y-94519762D01*
X101008030Y-94539686D01*
X101015303Y-94555283D01*
X101023465Y-94617283D01*
X101025000Y-94625000D01*
X101025000Y-95175000D01*
X101023464Y-95182718D01*
X101015303Y-95244716D01*
X101008030Y-95260311D01*
X101004067Y-95280238D01*
X100986431Y-95306631D01*
X100974507Y-95332203D01*
X100958948Y-95347761D01*
X100944454Y-95369454D01*
X100922761Y-95383948D01*
X100907203Y-95399507D01*
X100881631Y-95411431D01*
X100855238Y-95429067D01*
X100835311Y-95433030D01*
X100819716Y-95440303D01*
X100757718Y-95448464D01*
X100750000Y-95450000D01*
X98500000Y-95450000D01*
X98492283Y-95448465D01*
X98430283Y-95440303D01*
X98414686Y-95433030D01*
X98394762Y-95429067D01*
X98368370Y-95411432D01*
X98342796Y-95399507D01*
X98327235Y-95383946D01*
X98305546Y-95369454D01*
X98291053Y-95347764D01*
X98275492Y-95332203D01*
X98263565Y-95306626D01*
X98245933Y-95280238D01*
X98241970Y-95260315D01*
X98234696Y-95244716D01*
X98226532Y-95182703D01*
X98225000Y-95175000D01*
X98225000Y-94625000D01*
X98226531Y-94617298D01*
X98234696Y-94555283D01*
X98241970Y-94539682D01*
X98245933Y-94519762D01*
X98263563Y-94493375D01*
X98275492Y-94467796D01*
X98291055Y-94452232D01*
X98305546Y-94430546D01*
X98327232Y-94416055D01*
X98342796Y-94400492D01*
X98368375Y-94388563D01*
X98394762Y-94370933D01*
X98414682Y-94366970D01*
X98430283Y-94359696D01*
X98492298Y-94351531D01*
X98500000Y-94350000D01*
X100750000Y-94350000D01*
X100757703Y-94351532D01*
G37*
M02*
