%TF.GenerationSoftware,KiCad,Pcbnew,9.0.3*%
%TF.CreationDate,2025-08-13T11:48:25-07:00*%
%TF.ProjectId,PD Board,50442042-6f61-4726-942e-6b696361645f,rev?*%
%TF.SameCoordinates,Original*%
%TF.FileFunction,Soldermask,Bot*%
%TF.FilePolarity,Negative*%
%FSLAX46Y46*%
G04 Gerber Fmt 4.6, Leading zero omitted, Abs format (unit mm)*
G04 Created by KiCad (PCBNEW 9.0.3) date 2025-08-13 11:48:25*
%MOMM*%
%LPD*%
G01*
G04 APERTURE LIST*
G04 APERTURE END LIST*
G36*
X92991807Y-134984538D02*
G01*
X93178354Y-135045151D01*
X93353123Y-135134200D01*
X93511810Y-135249493D01*
X93650507Y-135388190D01*
X93765800Y-135546877D01*
X93854849Y-135721646D01*
X93915462Y-135908193D01*
X93946147Y-136101926D01*
X93946147Y-136298074D01*
X93915462Y-136491807D01*
X93854849Y-136678354D01*
X93765800Y-136853123D01*
X93650507Y-137011810D01*
X93511810Y-137150507D01*
X93353123Y-137265800D01*
X93178354Y-137354849D01*
X92991807Y-137415462D01*
X92798074Y-137446147D01*
X92601926Y-137446147D01*
X92408193Y-137415462D01*
X92221646Y-137354849D01*
X92046877Y-137265800D01*
X91888190Y-137150507D01*
X91749493Y-137011810D01*
X91634200Y-136853123D01*
X91545151Y-136678354D01*
X91484538Y-136491807D01*
X91453853Y-136298074D01*
X91453853Y-136101926D01*
X91484538Y-135908193D01*
X91545151Y-135721646D01*
X91634200Y-135546877D01*
X91749493Y-135388190D01*
X91888190Y-135249493D01*
X92046877Y-135134200D01*
X92221646Y-135045151D01*
X92408193Y-134984538D01*
X92601926Y-134953853D01*
X92798074Y-134953853D01*
X92991807Y-134984538D01*
G37*
G36*
X167491807Y-134984538D02*
G01*
X167678354Y-135045151D01*
X167853123Y-135134200D01*
X168011810Y-135249493D01*
X168150507Y-135388190D01*
X168265800Y-135546877D01*
X168354849Y-135721646D01*
X168415462Y-135908193D01*
X168446147Y-136101926D01*
X168446147Y-136298074D01*
X168415462Y-136491807D01*
X168354849Y-136678354D01*
X168265800Y-136853123D01*
X168150507Y-137011810D01*
X168011810Y-137150507D01*
X167853123Y-137265800D01*
X167678354Y-137354849D01*
X167491807Y-137415462D01*
X167298074Y-137446147D01*
X167101926Y-137446147D01*
X166908193Y-137415462D01*
X166721646Y-137354849D01*
X166546877Y-137265800D01*
X166388190Y-137150507D01*
X166249493Y-137011810D01*
X166134200Y-136853123D01*
X166045151Y-136678354D01*
X165984538Y-136491807D01*
X165953853Y-136298074D01*
X165953853Y-136101926D01*
X165984538Y-135908193D01*
X166045151Y-135721646D01*
X166134200Y-135546877D01*
X166249493Y-135388190D01*
X166388190Y-135249493D01*
X166546877Y-135134200D01*
X166721646Y-135045151D01*
X166908193Y-134984538D01*
X167101926Y-134953853D01*
X167298074Y-134953853D01*
X167491807Y-134984538D01*
G37*
G36*
X107513028Y-128216983D02*
G01*
X107689612Y-128290127D01*
X107848533Y-128396315D01*
X107983685Y-128531467D01*
X108089873Y-128690388D01*
X108163017Y-128866972D01*
X108200305Y-129054433D01*
X108200305Y-129245567D01*
X108163017Y-129433028D01*
X108089873Y-129609612D01*
X107983685Y-129768533D01*
X107848533Y-129903685D01*
X107689612Y-130009873D01*
X107513028Y-130083017D01*
X107325567Y-130120305D01*
X107134433Y-130120305D01*
X106946972Y-130083017D01*
X106770388Y-130009873D01*
X106611467Y-129903685D01*
X106476315Y-129768533D01*
X106370127Y-129609612D01*
X106296983Y-129433028D01*
X106259695Y-129245567D01*
X106259695Y-129054433D01*
X106296983Y-128866972D01*
X106370127Y-128690388D01*
X106476315Y-128531467D01*
X106611467Y-128396315D01*
X106770388Y-128290127D01*
X106946972Y-128216983D01*
X107134433Y-128179695D01*
X107325567Y-128179695D01*
X107513028Y-128216983D01*
G37*
G36*
X112513028Y-128216983D02*
G01*
X112689612Y-128290127D01*
X112848533Y-128396315D01*
X112983685Y-128531467D01*
X113089873Y-128690388D01*
X113163017Y-128866972D01*
X113200305Y-129054433D01*
X113200305Y-129245567D01*
X113163017Y-129433028D01*
X113089873Y-129609612D01*
X112983685Y-129768533D01*
X112848533Y-129903685D01*
X112689612Y-130009873D01*
X112513028Y-130083017D01*
X112325567Y-130120305D01*
X112134433Y-130120305D01*
X111946972Y-130083017D01*
X111770388Y-130009873D01*
X111611467Y-129903685D01*
X111476315Y-129768533D01*
X111370127Y-129609612D01*
X111296983Y-129433028D01*
X111259695Y-129245567D01*
X111259695Y-129054433D01*
X111296983Y-128866972D01*
X111370127Y-128690388D01*
X111476315Y-128531467D01*
X111611467Y-128396315D01*
X111770388Y-128290127D01*
X111946972Y-128216983D01*
X112134433Y-128179695D01*
X112325567Y-128179695D01*
X112513028Y-128216983D01*
G37*
G36*
X123013028Y-128216983D02*
G01*
X123189612Y-128290127D01*
X123348533Y-128396315D01*
X123483685Y-128531467D01*
X123589873Y-128690388D01*
X123663017Y-128866972D01*
X123700305Y-129054433D01*
X123700305Y-129245567D01*
X123663017Y-129433028D01*
X123589873Y-129609612D01*
X123483685Y-129768533D01*
X123348533Y-129903685D01*
X123189612Y-130009873D01*
X123013028Y-130083017D01*
X122825567Y-130120305D01*
X122634433Y-130120305D01*
X122446972Y-130083017D01*
X122270388Y-130009873D01*
X122111467Y-129903685D01*
X121976315Y-129768533D01*
X121870127Y-129609612D01*
X121796983Y-129433028D01*
X121759695Y-129245567D01*
X121759695Y-129054433D01*
X121796983Y-128866972D01*
X121870127Y-128690388D01*
X121976315Y-128531467D01*
X122111467Y-128396315D01*
X122270388Y-128290127D01*
X122446972Y-128216983D01*
X122634433Y-128179695D01*
X122825567Y-128179695D01*
X123013028Y-128216983D01*
G37*
G36*
X128013028Y-128216983D02*
G01*
X128189612Y-128290127D01*
X128348533Y-128396315D01*
X128483685Y-128531467D01*
X128589873Y-128690388D01*
X128663017Y-128866972D01*
X128700305Y-129054433D01*
X128700305Y-129245567D01*
X128663017Y-129433028D01*
X128589873Y-129609612D01*
X128483685Y-129768533D01*
X128348533Y-129903685D01*
X128189612Y-130009873D01*
X128013028Y-130083017D01*
X127825567Y-130120305D01*
X127634433Y-130120305D01*
X127446972Y-130083017D01*
X127270388Y-130009873D01*
X127111467Y-129903685D01*
X126976315Y-129768533D01*
X126870127Y-129609612D01*
X126796983Y-129433028D01*
X126759695Y-129245567D01*
X126759695Y-129054433D01*
X126796983Y-128866972D01*
X126870127Y-128690388D01*
X126976315Y-128531467D01*
X127111467Y-128396315D01*
X127270388Y-128290127D01*
X127446972Y-128216983D01*
X127634433Y-128179695D01*
X127825567Y-128179695D01*
X128013028Y-128216983D01*
G37*
G36*
X138513028Y-128216983D02*
G01*
X138689612Y-128290127D01*
X138848533Y-128396315D01*
X138983685Y-128531467D01*
X139089873Y-128690388D01*
X139163017Y-128866972D01*
X139200305Y-129054433D01*
X139200305Y-129245567D01*
X139163017Y-129433028D01*
X139089873Y-129609612D01*
X138983685Y-129768533D01*
X138848533Y-129903685D01*
X138689612Y-130009873D01*
X138513028Y-130083017D01*
X138325567Y-130120305D01*
X138134433Y-130120305D01*
X137946972Y-130083017D01*
X137770388Y-130009873D01*
X137611467Y-129903685D01*
X137476315Y-129768533D01*
X137370127Y-129609612D01*
X137296983Y-129433028D01*
X137259695Y-129245567D01*
X137259695Y-129054433D01*
X137296983Y-128866972D01*
X137370127Y-128690388D01*
X137476315Y-128531467D01*
X137611467Y-128396315D01*
X137770388Y-128290127D01*
X137946972Y-128216983D01*
X138134433Y-128179695D01*
X138325567Y-128179695D01*
X138513028Y-128216983D01*
G37*
G36*
X143513028Y-128216983D02*
G01*
X143689612Y-128290127D01*
X143848533Y-128396315D01*
X143983685Y-128531467D01*
X144089873Y-128690388D01*
X144163017Y-128866972D01*
X144200305Y-129054433D01*
X144200305Y-129245567D01*
X144163017Y-129433028D01*
X144089873Y-129609612D01*
X143983685Y-129768533D01*
X143848533Y-129903685D01*
X143689612Y-130009873D01*
X143513028Y-130083017D01*
X143325567Y-130120305D01*
X143134433Y-130120305D01*
X142946972Y-130083017D01*
X142770388Y-130009873D01*
X142611467Y-129903685D01*
X142476315Y-129768533D01*
X142370127Y-129609612D01*
X142296983Y-129433028D01*
X142259695Y-129245567D01*
X142259695Y-129054433D01*
X142296983Y-128866972D01*
X142370127Y-128690388D01*
X142476315Y-128531467D01*
X142611467Y-128396315D01*
X142770388Y-128290127D01*
X142946972Y-128216983D01*
X143134433Y-128179695D01*
X143325567Y-128179695D01*
X143513028Y-128216983D01*
G37*
G36*
X154013028Y-128216983D02*
G01*
X154189612Y-128290127D01*
X154348533Y-128396315D01*
X154483685Y-128531467D01*
X154589873Y-128690388D01*
X154663017Y-128866972D01*
X154700305Y-129054433D01*
X154700305Y-129245567D01*
X154663017Y-129433028D01*
X154589873Y-129609612D01*
X154483685Y-129768533D01*
X154348533Y-129903685D01*
X154189612Y-130009873D01*
X154013028Y-130083017D01*
X153825567Y-130120305D01*
X153634433Y-130120305D01*
X153446972Y-130083017D01*
X153270388Y-130009873D01*
X153111467Y-129903685D01*
X152976315Y-129768533D01*
X152870127Y-129609612D01*
X152796983Y-129433028D01*
X152759695Y-129245567D01*
X152759695Y-129054433D01*
X152796983Y-128866972D01*
X152870127Y-128690388D01*
X152976315Y-128531467D01*
X153111467Y-128396315D01*
X153270388Y-128290127D01*
X153446972Y-128216983D01*
X153634433Y-128179695D01*
X153825567Y-128179695D01*
X154013028Y-128216983D01*
G37*
G36*
X159013028Y-128216983D02*
G01*
X159189612Y-128290127D01*
X159348533Y-128396315D01*
X159483685Y-128531467D01*
X159589873Y-128690388D01*
X159663017Y-128866972D01*
X159700305Y-129054433D01*
X159700305Y-129245567D01*
X159663017Y-129433028D01*
X159589873Y-129609612D01*
X159483685Y-129768533D01*
X159348533Y-129903685D01*
X159189612Y-130009873D01*
X159013028Y-130083017D01*
X158825567Y-130120305D01*
X158634433Y-130120305D01*
X158446972Y-130083017D01*
X158270388Y-130009873D01*
X158111467Y-129903685D01*
X157976315Y-129768533D01*
X157870127Y-129609612D01*
X157796983Y-129433028D01*
X157759695Y-129245567D01*
X157759695Y-129054433D01*
X157796983Y-128866972D01*
X157870127Y-128690388D01*
X157976315Y-128531467D01*
X158111467Y-128396315D01*
X158270388Y-128290127D01*
X158446972Y-128216983D01*
X158634433Y-128179695D01*
X158825567Y-128179695D01*
X159013028Y-128216983D01*
G37*
G36*
X94964624Y-123668136D02*
G01*
X95140889Y-123725408D01*
X95306025Y-123809549D01*
X95455965Y-123918487D01*
X95587017Y-124049539D01*
X95695955Y-124199479D01*
X95780096Y-124364615D01*
X95837368Y-124540880D01*
X95866361Y-124723934D01*
X95866361Y-124909270D01*
X95837368Y-125092324D01*
X95780096Y-125268589D01*
X95695955Y-125433725D01*
X95587017Y-125583665D01*
X95455965Y-125714717D01*
X95306025Y-125823655D01*
X95140889Y-125907796D01*
X94964624Y-125965068D01*
X94781570Y-125994061D01*
X94596234Y-125994061D01*
X94413180Y-125965068D01*
X94236915Y-125907796D01*
X94071779Y-125823655D01*
X93921839Y-125714717D01*
X93790787Y-125583665D01*
X93681849Y-125433725D01*
X93597708Y-125268589D01*
X93540436Y-125092324D01*
X93511443Y-124909270D01*
X93511443Y-124723934D01*
X93540436Y-124540880D01*
X93597708Y-124364615D01*
X93681849Y-124199479D01*
X93790787Y-124049539D01*
X93921839Y-123918487D01*
X94071779Y-123809549D01*
X94236915Y-123725408D01*
X94413180Y-123668136D01*
X94596234Y-123639143D01*
X94781570Y-123639143D01*
X94964624Y-123668136D01*
G37*
G36*
X108205000Y-121925000D02*
G01*
X106255000Y-121925000D01*
X106255000Y-119975000D01*
X108205000Y-119975000D01*
X108205000Y-121925000D01*
G37*
G36*
X123705000Y-121925000D02*
G01*
X121755000Y-121925000D01*
X121755000Y-119975000D01*
X123705000Y-119975000D01*
X123705000Y-121925000D01*
G37*
G36*
X139205000Y-121925000D02*
G01*
X137255000Y-121925000D01*
X137255000Y-119975000D01*
X139205000Y-119975000D01*
X139205000Y-121925000D01*
G37*
G36*
X154705000Y-121925000D02*
G01*
X152755000Y-121925000D01*
X152755000Y-119975000D01*
X154705000Y-119975000D01*
X154705000Y-121925000D01*
G37*
G36*
X112513028Y-120016983D02*
G01*
X112689612Y-120090127D01*
X112848533Y-120196315D01*
X112983685Y-120331467D01*
X113089873Y-120490388D01*
X113163017Y-120666972D01*
X113200305Y-120854433D01*
X113200305Y-121045567D01*
X113163017Y-121233028D01*
X113089873Y-121409612D01*
X112983685Y-121568533D01*
X112848533Y-121703685D01*
X112689612Y-121809873D01*
X112513028Y-121883017D01*
X112325567Y-121920305D01*
X112134433Y-121920305D01*
X111946972Y-121883017D01*
X111770388Y-121809873D01*
X111611467Y-121703685D01*
X111476315Y-121568533D01*
X111370127Y-121409612D01*
X111296983Y-121233028D01*
X111259695Y-121045567D01*
X111259695Y-120854433D01*
X111296983Y-120666972D01*
X111370127Y-120490388D01*
X111476315Y-120331467D01*
X111611467Y-120196315D01*
X111770388Y-120090127D01*
X111946972Y-120016983D01*
X112134433Y-119979695D01*
X112325567Y-119979695D01*
X112513028Y-120016983D01*
G37*
G36*
X128013028Y-120016983D02*
G01*
X128189612Y-120090127D01*
X128348533Y-120196315D01*
X128483685Y-120331467D01*
X128589873Y-120490388D01*
X128663017Y-120666972D01*
X128700305Y-120854433D01*
X128700305Y-121045567D01*
X128663017Y-121233028D01*
X128589873Y-121409612D01*
X128483685Y-121568533D01*
X128348533Y-121703685D01*
X128189612Y-121809873D01*
X128013028Y-121883017D01*
X127825567Y-121920305D01*
X127634433Y-121920305D01*
X127446972Y-121883017D01*
X127270388Y-121809873D01*
X127111467Y-121703685D01*
X126976315Y-121568533D01*
X126870127Y-121409612D01*
X126796983Y-121233028D01*
X126759695Y-121045567D01*
X126759695Y-120854433D01*
X126796983Y-120666972D01*
X126870127Y-120490388D01*
X126976315Y-120331467D01*
X127111467Y-120196315D01*
X127270388Y-120090127D01*
X127446972Y-120016983D01*
X127634433Y-119979695D01*
X127825567Y-119979695D01*
X128013028Y-120016983D01*
G37*
G36*
X143513028Y-120016983D02*
G01*
X143689612Y-120090127D01*
X143848533Y-120196315D01*
X143983685Y-120331467D01*
X144089873Y-120490388D01*
X144163017Y-120666972D01*
X144200305Y-120854433D01*
X144200305Y-121045567D01*
X144163017Y-121233028D01*
X144089873Y-121409612D01*
X143983685Y-121568533D01*
X143848533Y-121703685D01*
X143689612Y-121809873D01*
X143513028Y-121883017D01*
X143325567Y-121920305D01*
X143134433Y-121920305D01*
X142946972Y-121883017D01*
X142770388Y-121809873D01*
X142611467Y-121703685D01*
X142476315Y-121568533D01*
X142370127Y-121409612D01*
X142296983Y-121233028D01*
X142259695Y-121045567D01*
X142259695Y-120854433D01*
X142296983Y-120666972D01*
X142370127Y-120490388D01*
X142476315Y-120331467D01*
X142611467Y-120196315D01*
X142770388Y-120090127D01*
X142946972Y-120016983D01*
X143134433Y-119979695D01*
X143325567Y-119979695D01*
X143513028Y-120016983D01*
G37*
G36*
X159013028Y-120016983D02*
G01*
X159189612Y-120090127D01*
X159348533Y-120196315D01*
X159483685Y-120331467D01*
X159589873Y-120490388D01*
X159663017Y-120666972D01*
X159700305Y-120854433D01*
X159700305Y-121045567D01*
X159663017Y-121233028D01*
X159589873Y-121409612D01*
X159483685Y-121568533D01*
X159348533Y-121703685D01*
X159189612Y-121809873D01*
X159013028Y-121883017D01*
X158825567Y-121920305D01*
X158634433Y-121920305D01*
X158446972Y-121883017D01*
X158270388Y-121809873D01*
X158111467Y-121703685D01*
X157976315Y-121568533D01*
X157870127Y-121409612D01*
X157796983Y-121233028D01*
X157759695Y-121045567D01*
X157759695Y-120854433D01*
X157796983Y-120666972D01*
X157870127Y-120490388D01*
X157976315Y-120331467D01*
X158111467Y-120196315D01*
X158270388Y-120090127D01*
X158446972Y-120016983D01*
X158634433Y-119979695D01*
X158825567Y-119979695D01*
X159013028Y-120016983D01*
G37*
G36*
X94964624Y-117968132D02*
G01*
X95140889Y-118025404D01*
X95306025Y-118109545D01*
X95455965Y-118218483D01*
X95587017Y-118349535D01*
X95695955Y-118499475D01*
X95780096Y-118664611D01*
X95837368Y-118840876D01*
X95866361Y-119023930D01*
X95866361Y-119209266D01*
X95837368Y-119392320D01*
X95780096Y-119568585D01*
X95695955Y-119733721D01*
X95587017Y-119883661D01*
X95455965Y-120014713D01*
X95306025Y-120123651D01*
X95140889Y-120207792D01*
X94964624Y-120265064D01*
X94781570Y-120294057D01*
X94596234Y-120294057D01*
X94413180Y-120265064D01*
X94236915Y-120207792D01*
X94071779Y-120123651D01*
X93921839Y-120014713D01*
X93790787Y-119883661D01*
X93681849Y-119733721D01*
X93597708Y-119568585D01*
X93540436Y-119392320D01*
X93511443Y-119209266D01*
X93511443Y-119023930D01*
X93540436Y-118840876D01*
X93597708Y-118664611D01*
X93681849Y-118499475D01*
X93790787Y-118349535D01*
X93921839Y-118218483D01*
X94071779Y-118109545D01*
X94236915Y-118025404D01*
X94413180Y-117968132D01*
X94596234Y-117939139D01*
X94781570Y-117939139D01*
X94964624Y-117968132D01*
G37*
G36*
X114305000Y-112755000D02*
G01*
X112355000Y-112755000D01*
X112355000Y-110805000D01*
X114305000Y-110805000D01*
X114305000Y-112755000D01*
G37*
G36*
X129805000Y-112755000D02*
G01*
X127855000Y-112755000D01*
X127855000Y-110805000D01*
X129805000Y-110805000D01*
X129805000Y-112755000D01*
G37*
G36*
X145305000Y-112755000D02*
G01*
X143355000Y-112755000D01*
X143355000Y-110805000D01*
X145305000Y-110805000D01*
X145305000Y-112755000D01*
G37*
G36*
X160805000Y-112755000D02*
G01*
X158855000Y-112755000D01*
X158855000Y-110805000D01*
X160805000Y-110805000D01*
X160805000Y-112755000D01*
G37*
G36*
X108613028Y-110846983D02*
G01*
X108789612Y-110920127D01*
X108948533Y-111026315D01*
X109083685Y-111161467D01*
X109189873Y-111320388D01*
X109263017Y-111496972D01*
X109300305Y-111684433D01*
X109300305Y-111875567D01*
X109263017Y-112063028D01*
X109189873Y-112239612D01*
X109083685Y-112398533D01*
X108948533Y-112533685D01*
X108789612Y-112639873D01*
X108613028Y-112713017D01*
X108425567Y-112750305D01*
X108234433Y-112750305D01*
X108046972Y-112713017D01*
X107870388Y-112639873D01*
X107711467Y-112533685D01*
X107576315Y-112398533D01*
X107470127Y-112239612D01*
X107396983Y-112063028D01*
X107359695Y-111875567D01*
X107359695Y-111684433D01*
X107396983Y-111496972D01*
X107470127Y-111320388D01*
X107576315Y-111161467D01*
X107711467Y-111026315D01*
X107870388Y-110920127D01*
X108046972Y-110846983D01*
X108234433Y-110809695D01*
X108425567Y-110809695D01*
X108613028Y-110846983D01*
G37*
G36*
X124113028Y-110846983D02*
G01*
X124289612Y-110920127D01*
X124448533Y-111026315D01*
X124583685Y-111161467D01*
X124689873Y-111320388D01*
X124763017Y-111496972D01*
X124800305Y-111684433D01*
X124800305Y-111875567D01*
X124763017Y-112063028D01*
X124689873Y-112239612D01*
X124583685Y-112398533D01*
X124448533Y-112533685D01*
X124289612Y-112639873D01*
X124113028Y-112713017D01*
X123925567Y-112750305D01*
X123734433Y-112750305D01*
X123546972Y-112713017D01*
X123370388Y-112639873D01*
X123211467Y-112533685D01*
X123076315Y-112398533D01*
X122970127Y-112239612D01*
X122896983Y-112063028D01*
X122859695Y-111875567D01*
X122859695Y-111684433D01*
X122896983Y-111496972D01*
X122970127Y-111320388D01*
X123076315Y-111161467D01*
X123211467Y-111026315D01*
X123370388Y-110920127D01*
X123546972Y-110846983D01*
X123734433Y-110809695D01*
X123925567Y-110809695D01*
X124113028Y-110846983D01*
G37*
G36*
X139613028Y-110846983D02*
G01*
X139789612Y-110920127D01*
X139948533Y-111026315D01*
X140083685Y-111161467D01*
X140189873Y-111320388D01*
X140263017Y-111496972D01*
X140300305Y-111684433D01*
X140300305Y-111875567D01*
X140263017Y-112063028D01*
X140189873Y-112239612D01*
X140083685Y-112398533D01*
X139948533Y-112533685D01*
X139789612Y-112639873D01*
X139613028Y-112713017D01*
X139425567Y-112750305D01*
X139234433Y-112750305D01*
X139046972Y-112713017D01*
X138870388Y-112639873D01*
X138711467Y-112533685D01*
X138576315Y-112398533D01*
X138470127Y-112239612D01*
X138396983Y-112063028D01*
X138359695Y-111875567D01*
X138359695Y-111684433D01*
X138396983Y-111496972D01*
X138470127Y-111320388D01*
X138576315Y-111161467D01*
X138711467Y-111026315D01*
X138870388Y-110920127D01*
X139046972Y-110846983D01*
X139234433Y-110809695D01*
X139425567Y-110809695D01*
X139613028Y-110846983D01*
G37*
G36*
X155113028Y-110846983D02*
G01*
X155289612Y-110920127D01*
X155448533Y-111026315D01*
X155583685Y-111161467D01*
X155689873Y-111320388D01*
X155763017Y-111496972D01*
X155800305Y-111684433D01*
X155800305Y-111875567D01*
X155763017Y-112063028D01*
X155689873Y-112239612D01*
X155583685Y-112398533D01*
X155448533Y-112533685D01*
X155289612Y-112639873D01*
X155113028Y-112713017D01*
X154925567Y-112750305D01*
X154734433Y-112750305D01*
X154546972Y-112713017D01*
X154370388Y-112639873D01*
X154211467Y-112533685D01*
X154076315Y-112398533D01*
X153970127Y-112239612D01*
X153896983Y-112063028D01*
X153859695Y-111875567D01*
X153859695Y-111684433D01*
X153896983Y-111496972D01*
X153970127Y-111320388D01*
X154076315Y-111161467D01*
X154211467Y-111026315D01*
X154370388Y-110920127D01*
X154546972Y-110846983D01*
X154734433Y-110809695D01*
X154925567Y-110809695D01*
X155113028Y-110846983D01*
G37*
G36*
X93737350Y-110718464D02*
G01*
X93787540Y-110724287D01*
X93804689Y-110731859D01*
X93828171Y-110736530D01*
X93853310Y-110753327D01*
X93873196Y-110762108D01*
X93886777Y-110775689D01*
X93909277Y-110790723D01*
X93924310Y-110813222D01*
X93937891Y-110826803D01*
X93946670Y-110846686D01*
X93963470Y-110871829D01*
X93968141Y-110895312D01*
X93975712Y-110912459D01*
X93981533Y-110962639D01*
X93982500Y-110967500D01*
X93982500Y-112072500D01*
X93981532Y-112077363D01*
X93975712Y-112127540D01*
X93968141Y-112144685D01*
X93963470Y-112168171D01*
X93946669Y-112193315D01*
X93937891Y-112213196D01*
X93924312Y-112226774D01*
X93909277Y-112249277D01*
X93886774Y-112264312D01*
X93873196Y-112277891D01*
X93853315Y-112286669D01*
X93828171Y-112303470D01*
X93804685Y-112308141D01*
X93787540Y-112315712D01*
X93737361Y-112321532D01*
X93732500Y-112322500D01*
X92627500Y-112322500D01*
X92622638Y-112321532D01*
X92572459Y-112315712D01*
X92555312Y-112308141D01*
X92531829Y-112303470D01*
X92506686Y-112286670D01*
X92486803Y-112277891D01*
X92473222Y-112264310D01*
X92450723Y-112249277D01*
X92435689Y-112226777D01*
X92422108Y-112213196D01*
X92413327Y-112193310D01*
X92396530Y-112168171D01*
X92391859Y-112144689D01*
X92384287Y-112127540D01*
X92378464Y-112077349D01*
X92377500Y-112072500D01*
X92377500Y-110967500D01*
X92378464Y-110962650D01*
X92384287Y-110912459D01*
X92391859Y-110895308D01*
X92396530Y-110871829D01*
X92413326Y-110846691D01*
X92422108Y-110826803D01*
X92435691Y-110813219D01*
X92450723Y-110790723D01*
X92473219Y-110775691D01*
X92486803Y-110762108D01*
X92506691Y-110753326D01*
X92531829Y-110736530D01*
X92555308Y-110731859D01*
X92572459Y-110724287D01*
X92622651Y-110718464D01*
X92627500Y-110717500D01*
X93732500Y-110717500D01*
X93737350Y-110718464D01*
G37*
G36*
X96412953Y-110752055D02*
G01*
X96558296Y-110812258D01*
X96689101Y-110899659D01*
X96800341Y-111010899D01*
X96887742Y-111141704D01*
X96947945Y-111287047D01*
X96978636Y-111441341D01*
X96978636Y-111598659D01*
X96947945Y-111752953D01*
X96887742Y-111898296D01*
X96800341Y-112029101D01*
X96689101Y-112140341D01*
X96558296Y-112227742D01*
X96412953Y-112287945D01*
X96258659Y-112318636D01*
X96101341Y-112318636D01*
X95947047Y-112287945D01*
X95801704Y-112227742D01*
X95670899Y-112140341D01*
X95559659Y-112029101D01*
X95472258Y-111898296D01*
X95412055Y-111752953D01*
X95381364Y-111598659D01*
X95381364Y-111441341D01*
X95412055Y-111287047D01*
X95472258Y-111141704D01*
X95559659Y-111010899D01*
X95670899Y-110899659D01*
X95801704Y-110812258D01*
X95947047Y-110752055D01*
X96101341Y-110721364D01*
X96258659Y-110721364D01*
X96412953Y-110752055D01*
G37*
G36*
X93412953Y-107752055D02*
G01*
X93558296Y-107812258D01*
X93689101Y-107899659D01*
X93800341Y-108010899D01*
X93887742Y-108141704D01*
X93947945Y-108287047D01*
X93978636Y-108441341D01*
X93978636Y-108598659D01*
X93947945Y-108752953D01*
X93887742Y-108898296D01*
X93800341Y-109029101D01*
X93689101Y-109140341D01*
X93558296Y-109227742D01*
X93412953Y-109287945D01*
X93258659Y-109318636D01*
X93101341Y-109318636D01*
X92947047Y-109287945D01*
X92801704Y-109227742D01*
X92670899Y-109140341D01*
X92559659Y-109029101D01*
X92472258Y-108898296D01*
X92412055Y-108752953D01*
X92381364Y-108598659D01*
X92381364Y-108441341D01*
X92412055Y-108287047D01*
X92472258Y-108141704D01*
X92559659Y-108010899D01*
X92670899Y-107899659D01*
X92801704Y-107812258D01*
X92947047Y-107752055D01*
X93101341Y-107721364D01*
X93258659Y-107721364D01*
X93412953Y-107752055D01*
G37*
G36*
X96412953Y-107752055D02*
G01*
X96558296Y-107812258D01*
X96689101Y-107899659D01*
X96800341Y-108010899D01*
X96887742Y-108141704D01*
X96947945Y-108287047D01*
X96978636Y-108441341D01*
X96978636Y-108598659D01*
X96947945Y-108752953D01*
X96887742Y-108898296D01*
X96800341Y-109029101D01*
X96689101Y-109140341D01*
X96558296Y-109227742D01*
X96412953Y-109287945D01*
X96258659Y-109318636D01*
X96101341Y-109318636D01*
X95947047Y-109287945D01*
X95801704Y-109227742D01*
X95670899Y-109140341D01*
X95559659Y-109029101D01*
X95472258Y-108898296D01*
X95412055Y-108752953D01*
X95381364Y-108598659D01*
X95381364Y-108441341D01*
X95412055Y-108287047D01*
X95472258Y-108141704D01*
X95559659Y-108010899D01*
X95670899Y-107899659D01*
X95801704Y-107812258D01*
X95947047Y-107752055D01*
X96101341Y-107721364D01*
X96258659Y-107721364D01*
X96412953Y-107752055D01*
G37*
G36*
X97355169Y-106768821D02*
G01*
X97470468Y-106835390D01*
X97564610Y-106929532D01*
X97631179Y-107044831D01*
X97665637Y-107173432D01*
X97665637Y-107306568D01*
X97631179Y-107435169D01*
X97564610Y-107550468D01*
X97470468Y-107644610D01*
X97355169Y-107711179D01*
X97226568Y-107745637D01*
X97093432Y-107745637D01*
X96964831Y-107711179D01*
X96849532Y-107644610D01*
X96755390Y-107550468D01*
X96688821Y-107435169D01*
X96654363Y-107306568D01*
X96654363Y-107173432D01*
X96688821Y-107044831D01*
X96755390Y-106929532D01*
X96849532Y-106835390D01*
X96964831Y-106768821D01*
X97093432Y-106734363D01*
X97226568Y-106734363D01*
X97355169Y-106768821D01*
G37*
G36*
X108613028Y-102646983D02*
G01*
X108789612Y-102720127D01*
X108948533Y-102826315D01*
X109083685Y-102961467D01*
X109189873Y-103120388D01*
X109263017Y-103296972D01*
X109300305Y-103484433D01*
X109300305Y-103675567D01*
X109263017Y-103863028D01*
X109189873Y-104039612D01*
X109083685Y-104198533D01*
X108948533Y-104333685D01*
X108789612Y-104439873D01*
X108613028Y-104513017D01*
X108425567Y-104550305D01*
X108234433Y-104550305D01*
X108046972Y-104513017D01*
X107870388Y-104439873D01*
X107711467Y-104333685D01*
X107576315Y-104198533D01*
X107470127Y-104039612D01*
X107396983Y-103863028D01*
X107359695Y-103675567D01*
X107359695Y-103484433D01*
X107396983Y-103296972D01*
X107470127Y-103120388D01*
X107576315Y-102961467D01*
X107711467Y-102826315D01*
X107870388Y-102720127D01*
X108046972Y-102646983D01*
X108234433Y-102609695D01*
X108425567Y-102609695D01*
X108613028Y-102646983D01*
G37*
G36*
X113613028Y-102646983D02*
G01*
X113789612Y-102720127D01*
X113948533Y-102826315D01*
X114083685Y-102961467D01*
X114189873Y-103120388D01*
X114263017Y-103296972D01*
X114300305Y-103484433D01*
X114300305Y-103675567D01*
X114263017Y-103863028D01*
X114189873Y-104039612D01*
X114083685Y-104198533D01*
X113948533Y-104333685D01*
X113789612Y-104439873D01*
X113613028Y-104513017D01*
X113425567Y-104550305D01*
X113234433Y-104550305D01*
X113046972Y-104513017D01*
X112870388Y-104439873D01*
X112711467Y-104333685D01*
X112576315Y-104198533D01*
X112470127Y-104039612D01*
X112396983Y-103863028D01*
X112359695Y-103675567D01*
X112359695Y-103484433D01*
X112396983Y-103296972D01*
X112470127Y-103120388D01*
X112576315Y-102961467D01*
X112711467Y-102826315D01*
X112870388Y-102720127D01*
X113046972Y-102646983D01*
X113234433Y-102609695D01*
X113425567Y-102609695D01*
X113613028Y-102646983D01*
G37*
G36*
X124113028Y-102646983D02*
G01*
X124289612Y-102720127D01*
X124448533Y-102826315D01*
X124583685Y-102961467D01*
X124689873Y-103120388D01*
X124763017Y-103296972D01*
X124800305Y-103484433D01*
X124800305Y-103675567D01*
X124763017Y-103863028D01*
X124689873Y-104039612D01*
X124583685Y-104198533D01*
X124448533Y-104333685D01*
X124289612Y-104439873D01*
X124113028Y-104513017D01*
X123925567Y-104550305D01*
X123734433Y-104550305D01*
X123546972Y-104513017D01*
X123370388Y-104439873D01*
X123211467Y-104333685D01*
X123076315Y-104198533D01*
X122970127Y-104039612D01*
X122896983Y-103863028D01*
X122859695Y-103675567D01*
X122859695Y-103484433D01*
X122896983Y-103296972D01*
X122970127Y-103120388D01*
X123076315Y-102961467D01*
X123211467Y-102826315D01*
X123370388Y-102720127D01*
X123546972Y-102646983D01*
X123734433Y-102609695D01*
X123925567Y-102609695D01*
X124113028Y-102646983D01*
G37*
G36*
X129113028Y-102646983D02*
G01*
X129289612Y-102720127D01*
X129448533Y-102826315D01*
X129583685Y-102961467D01*
X129689873Y-103120388D01*
X129763017Y-103296972D01*
X129800305Y-103484433D01*
X129800305Y-103675567D01*
X129763017Y-103863028D01*
X129689873Y-104039612D01*
X129583685Y-104198533D01*
X129448533Y-104333685D01*
X129289612Y-104439873D01*
X129113028Y-104513017D01*
X128925567Y-104550305D01*
X128734433Y-104550305D01*
X128546972Y-104513017D01*
X128370388Y-104439873D01*
X128211467Y-104333685D01*
X128076315Y-104198533D01*
X127970127Y-104039612D01*
X127896983Y-103863028D01*
X127859695Y-103675567D01*
X127859695Y-103484433D01*
X127896983Y-103296972D01*
X127970127Y-103120388D01*
X128076315Y-102961467D01*
X128211467Y-102826315D01*
X128370388Y-102720127D01*
X128546972Y-102646983D01*
X128734433Y-102609695D01*
X128925567Y-102609695D01*
X129113028Y-102646983D01*
G37*
G36*
X139613028Y-102646983D02*
G01*
X139789612Y-102720127D01*
X139948533Y-102826315D01*
X140083685Y-102961467D01*
X140189873Y-103120388D01*
X140263017Y-103296972D01*
X140300305Y-103484433D01*
X140300305Y-103675567D01*
X140263017Y-103863028D01*
X140189873Y-104039612D01*
X140083685Y-104198533D01*
X139948533Y-104333685D01*
X139789612Y-104439873D01*
X139613028Y-104513017D01*
X139425567Y-104550305D01*
X139234433Y-104550305D01*
X139046972Y-104513017D01*
X138870388Y-104439873D01*
X138711467Y-104333685D01*
X138576315Y-104198533D01*
X138470127Y-104039612D01*
X138396983Y-103863028D01*
X138359695Y-103675567D01*
X138359695Y-103484433D01*
X138396983Y-103296972D01*
X138470127Y-103120388D01*
X138576315Y-102961467D01*
X138711467Y-102826315D01*
X138870388Y-102720127D01*
X139046972Y-102646983D01*
X139234433Y-102609695D01*
X139425567Y-102609695D01*
X139613028Y-102646983D01*
G37*
G36*
X144613028Y-102646983D02*
G01*
X144789612Y-102720127D01*
X144948533Y-102826315D01*
X145083685Y-102961467D01*
X145189873Y-103120388D01*
X145263017Y-103296972D01*
X145300305Y-103484433D01*
X145300305Y-103675567D01*
X145263017Y-103863028D01*
X145189873Y-104039612D01*
X145083685Y-104198533D01*
X144948533Y-104333685D01*
X144789612Y-104439873D01*
X144613028Y-104513017D01*
X144425567Y-104550305D01*
X144234433Y-104550305D01*
X144046972Y-104513017D01*
X143870388Y-104439873D01*
X143711467Y-104333685D01*
X143576315Y-104198533D01*
X143470127Y-104039612D01*
X143396983Y-103863028D01*
X143359695Y-103675567D01*
X143359695Y-103484433D01*
X143396983Y-103296972D01*
X143470127Y-103120388D01*
X143576315Y-102961467D01*
X143711467Y-102826315D01*
X143870388Y-102720127D01*
X144046972Y-102646983D01*
X144234433Y-102609695D01*
X144425567Y-102609695D01*
X144613028Y-102646983D01*
G37*
G36*
X155113028Y-102646983D02*
G01*
X155289612Y-102720127D01*
X155448533Y-102826315D01*
X155583685Y-102961467D01*
X155689873Y-103120388D01*
X155763017Y-103296972D01*
X155800305Y-103484433D01*
X155800305Y-103675567D01*
X155763017Y-103863028D01*
X155689873Y-104039612D01*
X155583685Y-104198533D01*
X155448533Y-104333685D01*
X155289612Y-104439873D01*
X155113028Y-104513017D01*
X154925567Y-104550305D01*
X154734433Y-104550305D01*
X154546972Y-104513017D01*
X154370388Y-104439873D01*
X154211467Y-104333685D01*
X154076315Y-104198533D01*
X153970127Y-104039612D01*
X153896983Y-103863028D01*
X153859695Y-103675567D01*
X153859695Y-103484433D01*
X153896983Y-103296972D01*
X153970127Y-103120388D01*
X154076315Y-102961467D01*
X154211467Y-102826315D01*
X154370388Y-102720127D01*
X154546972Y-102646983D01*
X154734433Y-102609695D01*
X154925567Y-102609695D01*
X155113028Y-102646983D01*
G37*
G36*
X160113028Y-102646983D02*
G01*
X160289612Y-102720127D01*
X160448533Y-102826315D01*
X160583685Y-102961467D01*
X160689873Y-103120388D01*
X160763017Y-103296972D01*
X160800305Y-103484433D01*
X160800305Y-103675567D01*
X160763017Y-103863028D01*
X160689873Y-104039612D01*
X160583685Y-104198533D01*
X160448533Y-104333685D01*
X160289612Y-104439873D01*
X160113028Y-104513017D01*
X159925567Y-104550305D01*
X159734433Y-104550305D01*
X159546972Y-104513017D01*
X159370388Y-104439873D01*
X159211467Y-104333685D01*
X159076315Y-104198533D01*
X158970127Y-104039612D01*
X158896983Y-103863028D01*
X158859695Y-103675567D01*
X158859695Y-103484433D01*
X158896983Y-103296972D01*
X158970127Y-103120388D01*
X159076315Y-102961467D01*
X159211467Y-102826315D01*
X159370388Y-102720127D01*
X159546972Y-102646983D01*
X159734433Y-102609695D01*
X159925567Y-102609695D01*
X160113028Y-102646983D01*
G37*
G36*
X92991807Y-94584538D02*
G01*
X93178354Y-94645151D01*
X93353123Y-94734200D01*
X93511810Y-94849493D01*
X93650507Y-94988190D01*
X93765800Y-95146877D01*
X93854849Y-95321646D01*
X93915462Y-95508193D01*
X93946147Y-95701926D01*
X93946147Y-95898074D01*
X93915462Y-96091807D01*
X93854849Y-96278354D01*
X93765800Y-96453123D01*
X93650507Y-96611810D01*
X93511810Y-96750507D01*
X93353123Y-96865800D01*
X93178354Y-96954849D01*
X92991807Y-97015462D01*
X92798074Y-97046147D01*
X92601926Y-97046147D01*
X92408193Y-97015462D01*
X92221646Y-96954849D01*
X92046877Y-96865800D01*
X91888190Y-96750507D01*
X91749493Y-96611810D01*
X91634200Y-96453123D01*
X91545151Y-96278354D01*
X91484538Y-96091807D01*
X91453853Y-95898074D01*
X91453853Y-95701926D01*
X91484538Y-95508193D01*
X91545151Y-95321646D01*
X91634200Y-95146877D01*
X91749493Y-94988190D01*
X91888190Y-94849493D01*
X92046877Y-94734200D01*
X92221646Y-94645151D01*
X92408193Y-94584538D01*
X92601926Y-94553853D01*
X92798074Y-94553853D01*
X92991807Y-94584538D01*
G37*
G36*
X167491807Y-94584538D02*
G01*
X167678354Y-94645151D01*
X167853123Y-94734200D01*
X168011810Y-94849493D01*
X168150507Y-94988190D01*
X168265800Y-95146877D01*
X168354849Y-95321646D01*
X168415462Y-95508193D01*
X168446147Y-95701926D01*
X168446147Y-95898074D01*
X168415462Y-96091807D01*
X168354849Y-96278354D01*
X168265800Y-96453123D01*
X168150507Y-96611810D01*
X168011810Y-96750507D01*
X167853123Y-96865800D01*
X167678354Y-96954849D01*
X167491807Y-97015462D01*
X167298074Y-97046147D01*
X167101926Y-97046147D01*
X166908193Y-97015462D01*
X166721646Y-96954849D01*
X166546877Y-96865800D01*
X166388190Y-96750507D01*
X166249493Y-96611810D01*
X166134200Y-96453123D01*
X166045151Y-96278354D01*
X165984538Y-96091807D01*
X165953853Y-95898074D01*
X165953853Y-95701926D01*
X165984538Y-95508193D01*
X166045151Y-95321646D01*
X166134200Y-95146877D01*
X166249493Y-94988190D01*
X166388190Y-94849493D01*
X166546877Y-94734200D01*
X166721646Y-94645151D01*
X166908193Y-94584538D01*
X167101926Y-94553853D01*
X167298074Y-94553853D01*
X167491807Y-94584538D01*
G37*
M02*
