M48
; DRILL file {KiCad 9.0.3} date 2025-08-10T21:02:18-0700
; FORMAT={-:-/ absolute / metric / decimal}
; #@! TF.CreationDate,2025-08-10T21:02:18-07:00
; #@! TF.GenerationSoftware,Kicad,Pcbnew,9.0.3
; #@! TF.FileFunction,Plated,1,4,PTH
FMAT,2
METRIC
; #@! TA.AperFunction,Plated,PTH,ComponentDrill
T1C0.762
; #@! TA.AperFunction,Plated,PTH,ComponentDrill
T2C0.900
; #@! TA.AperFunction,Plated,PTH,ComponentDrill
T3C1.300
; #@! TA.AperFunction,Plated,PTH,ComponentDrill
T4C1.854
%
G90
G05
T1
X100.75Y-105.015
X100.75Y-118.985
T2
X99.625Y-96.45
X99.625Y-98.99
T3
X107.32Y-120.95
X107.32Y-129.15
X108.33Y-103.58
X108.33Y-111.78
X112.32Y-120.95
X112.32Y-129.15
X113.33Y-103.58
X113.33Y-111.78
X122.82Y-120.95
X122.82Y-129.15
X123.83Y-103.58
X123.83Y-111.78
X127.82Y-120.95
X127.82Y-129.15
X128.83Y-103.58
X128.83Y-111.78
X138.32Y-120.95
X138.32Y-129.15
X139.33Y-103.58
X139.33Y-111.78
X143.32Y-120.95
X143.32Y-129.15
X144.33Y-103.58
X144.33Y-111.78
X153.82Y-120.95
X153.82Y-129.15
X154.83Y-103.58
X154.83Y-111.78
X158.82Y-120.95
X158.82Y-129.15
X159.83Y-103.58
X159.83Y-111.78
T4
X95.01Y-124.74
X95.01Y-130.44
M30
