G04 #@! TF.GenerationSoftware,KiCad,Pcbnew,9.0.3*
G04 #@! TF.CreationDate,2025-08-14T10:37:31-07:00*
G04 #@! TF.ProjectId,PD Board,50442042-6f61-4726-942e-6b696361645f,rev?*
G04 #@! TF.SameCoordinates,Original*
G04 #@! TF.FileFunction,Legend,Top*
G04 #@! TF.FilePolarity,Positive*
%FSLAX46Y46*%
G04 Gerber Fmt 4.6, Leading zero omitted, Abs format (unit mm)*
G04 Created by KiCad (PCBNEW 9.0.3) date 2025-08-14 10:37:31*
%MOMM*%
%LPD*%
G01*
G04 APERTURE LIST*
G04 Aperture macros list*
%AMRoundRect*
0 Rectangle with rounded corners*
0 $1 Rounding radius*
0 $2 $3 $4 $5 $6 $7 $8 $9 X,Y pos of 4 corners*
0 Add a 4 corners polygon primitive as box body*
4,1,4,$2,$3,$4,$5,$6,$7,$8,$9,$2,$3,0*
0 Add four circle primitives for the rounded corners*
1,1,$1+$1,$2,$3*
1,1,$1+$1,$4,$5*
1,1,$1+$1,$6,$7*
1,1,$1+$1,$8,$9*
0 Add four rect primitives between the rounded corners*
20,1,$1+$1,$2,$3,$4,$5,0*
20,1,$1+$1,$4,$5,$6,$7,0*
20,1,$1+$1,$6,$7,$8,$9,0*
20,1,$1+$1,$8,$9,$2,$3,0*%
G04 Aperture macros list end*
%ADD10C,0.254000*%
%ADD11C,0.200000*%
%ADD12C,0.150000*%
%ADD13C,0.100000*%
%ADD14C,0.191421*%
%ADD15C,0.120000*%
%ADD16C,0.152400*%
%ADD17C,0.508000*%
%ADD18R,1.950000X1.950000*%
%ADD19C,1.950000*%
%ADD20C,1.020000*%
%ADD21RoundRect,0.250000X-0.552500X0.552500X-0.552500X-0.552500X0.552500X-0.552500X0.552500X0.552500X0*%
%ADD22C,1.605000*%
%ADD23RoundRect,0.250000X-0.475000X0.250000X-0.475000X-0.250000X0.475000X-0.250000X0.475000X0.250000X0*%
%ADD24C,2.500000*%
%ADD25RoundRect,0.275000X-1.125000X0.275000X-1.125000X-0.275000X1.125000X-0.275000X1.125000X0.275000X0*%
%ADD26C,2.362200*%
%ADD27RoundRect,0.250000X0.450000X-0.262500X0.450000X0.262500X-0.450000X0.262500X-0.450000X-0.262500X0*%
%ADD28R,1.320800X0.558800*%
G04 APERTURE END LIST*
D10*
X140792618Y-105979318D02*
X140792618Y-104709318D01*
X140792618Y-104709318D02*
X141276428Y-104709318D01*
X141276428Y-104709318D02*
X141397380Y-104769794D01*
X141397380Y-104769794D02*
X141457857Y-104830270D01*
X141457857Y-104830270D02*
X141518333Y-104951222D01*
X141518333Y-104951222D02*
X141518333Y-105132651D01*
X141518333Y-105132651D02*
X141457857Y-105253603D01*
X141457857Y-105253603D02*
X141397380Y-105314080D01*
X141397380Y-105314080D02*
X141276428Y-105374556D01*
X141276428Y-105374556D02*
X140792618Y-105374556D01*
X141941666Y-104709318D02*
X142788333Y-104709318D01*
X142788333Y-104709318D02*
X142244047Y-105979318D01*
D11*
X98532219Y-110503333D02*
X99246504Y-110503333D01*
X99246504Y-110503333D02*
X99389361Y-110550952D01*
X99389361Y-110550952D02*
X99484600Y-110646190D01*
X99484600Y-110646190D02*
X99532219Y-110789047D01*
X99532219Y-110789047D02*
X99532219Y-110884285D01*
X99532219Y-109503333D02*
X99532219Y-110074761D01*
X99532219Y-109789047D02*
X98532219Y-109789047D01*
X98532219Y-109789047D02*
X98675076Y-109884285D01*
X98675076Y-109884285D02*
X98770314Y-109979523D01*
X98770314Y-109979523D02*
X98817933Y-110074761D01*
D12*
X91883333Y-99969580D02*
X91835714Y-100017200D01*
X91835714Y-100017200D02*
X91692857Y-100064819D01*
X91692857Y-100064819D02*
X91597619Y-100064819D01*
X91597619Y-100064819D02*
X91454762Y-100017200D01*
X91454762Y-100017200D02*
X91359524Y-99921961D01*
X91359524Y-99921961D02*
X91311905Y-99826723D01*
X91311905Y-99826723D02*
X91264286Y-99636247D01*
X91264286Y-99636247D02*
X91264286Y-99493390D01*
X91264286Y-99493390D02*
X91311905Y-99302914D01*
X91311905Y-99302914D02*
X91359524Y-99207676D01*
X91359524Y-99207676D02*
X91454762Y-99112438D01*
X91454762Y-99112438D02*
X91597619Y-99064819D01*
X91597619Y-99064819D02*
X91692857Y-99064819D01*
X91692857Y-99064819D02*
X91835714Y-99112438D01*
X91835714Y-99112438D02*
X91883333Y-99160057D01*
X92835714Y-100064819D02*
X92264286Y-100064819D01*
X92550000Y-100064819D02*
X92550000Y-99064819D01*
X92550000Y-99064819D02*
X92454762Y-99207676D01*
X92454762Y-99207676D02*
X92359524Y-99302914D01*
X92359524Y-99302914D02*
X92264286Y-99350533D01*
D10*
X139892618Y-127899318D02*
X139892618Y-126629318D01*
X139892618Y-126629318D02*
X140376428Y-126629318D01*
X140376428Y-126629318D02*
X140497380Y-126689794D01*
X140497380Y-126689794D02*
X140557857Y-126750270D01*
X140557857Y-126750270D02*
X140618333Y-126871222D01*
X140618333Y-126871222D02*
X140618333Y-127052651D01*
X140618333Y-127052651D02*
X140557857Y-127173603D01*
X140557857Y-127173603D02*
X140497380Y-127234080D01*
X140497380Y-127234080D02*
X140376428Y-127294556D01*
X140376428Y-127294556D02*
X139892618Y-127294556D01*
X141041666Y-126629318D02*
X141827857Y-126629318D01*
X141827857Y-126629318D02*
X141404523Y-127113127D01*
X141404523Y-127113127D02*
X141585952Y-127113127D01*
X141585952Y-127113127D02*
X141706904Y-127173603D01*
X141706904Y-127173603D02*
X141767380Y-127234080D01*
X141767380Y-127234080D02*
X141827857Y-127355032D01*
X141827857Y-127355032D02*
X141827857Y-127657413D01*
X141827857Y-127657413D02*
X141767380Y-127778365D01*
X141767380Y-127778365D02*
X141706904Y-127838842D01*
X141706904Y-127838842D02*
X141585952Y-127899318D01*
X141585952Y-127899318D02*
X141223095Y-127899318D01*
X141223095Y-127899318D02*
X141102142Y-127838842D01*
X141102142Y-127838842D02*
X141041666Y-127778365D01*
D12*
X101462704Y-95859524D02*
X102262704Y-95859524D01*
X102262704Y-95859524D02*
X102262704Y-96050000D01*
X102262704Y-96050000D02*
X102224609Y-96164286D01*
X102224609Y-96164286D02*
X102148419Y-96240476D01*
X102148419Y-96240476D02*
X102072228Y-96278571D01*
X102072228Y-96278571D02*
X101919847Y-96316667D01*
X101919847Y-96316667D02*
X101805561Y-96316667D01*
X101805561Y-96316667D02*
X101653180Y-96278571D01*
X101653180Y-96278571D02*
X101576990Y-96240476D01*
X101576990Y-96240476D02*
X101500800Y-96164286D01*
X101500800Y-96164286D02*
X101462704Y-96050000D01*
X101462704Y-96050000D02*
X101462704Y-95859524D01*
X101462704Y-97078571D02*
X101462704Y-96621428D01*
X101462704Y-96850000D02*
X102262704Y-96850000D01*
X102262704Y-96850000D02*
X102148419Y-96773809D01*
X102148419Y-96773809D02*
X102072228Y-96697619D01*
X102072228Y-96697619D02*
X102034133Y-96621428D01*
D10*
X156292618Y-105979318D02*
X156292618Y-104709318D01*
X156292618Y-104709318D02*
X156776428Y-104709318D01*
X156776428Y-104709318D02*
X156897380Y-104769794D01*
X156897380Y-104769794D02*
X156957857Y-104830270D01*
X156957857Y-104830270D02*
X157018333Y-104951222D01*
X157018333Y-104951222D02*
X157018333Y-105132651D01*
X157018333Y-105132651D02*
X156957857Y-105253603D01*
X156957857Y-105253603D02*
X156897380Y-105314080D01*
X156897380Y-105314080D02*
X156776428Y-105374556D01*
X156776428Y-105374556D02*
X156292618Y-105374556D01*
X157744047Y-105253603D02*
X157623095Y-105193127D01*
X157623095Y-105193127D02*
X157562618Y-105132651D01*
X157562618Y-105132651D02*
X157502142Y-105011699D01*
X157502142Y-105011699D02*
X157502142Y-104951222D01*
X157502142Y-104951222D02*
X157562618Y-104830270D01*
X157562618Y-104830270D02*
X157623095Y-104769794D01*
X157623095Y-104769794D02*
X157744047Y-104709318D01*
X157744047Y-104709318D02*
X157985952Y-104709318D01*
X157985952Y-104709318D02*
X158106904Y-104769794D01*
X158106904Y-104769794D02*
X158167380Y-104830270D01*
X158167380Y-104830270D02*
X158227857Y-104951222D01*
X158227857Y-104951222D02*
X158227857Y-105011699D01*
X158227857Y-105011699D02*
X158167380Y-105132651D01*
X158167380Y-105132651D02*
X158106904Y-105193127D01*
X158106904Y-105193127D02*
X157985952Y-105253603D01*
X157985952Y-105253603D02*
X157744047Y-105253603D01*
X157744047Y-105253603D02*
X157623095Y-105314080D01*
X157623095Y-105314080D02*
X157562618Y-105374556D01*
X157562618Y-105374556D02*
X157502142Y-105495508D01*
X157502142Y-105495508D02*
X157502142Y-105737413D01*
X157502142Y-105737413D02*
X157562618Y-105858365D01*
X157562618Y-105858365D02*
X157623095Y-105918842D01*
X157623095Y-105918842D02*
X157744047Y-105979318D01*
X157744047Y-105979318D02*
X157985952Y-105979318D01*
X157985952Y-105979318D02*
X158106904Y-105918842D01*
X158106904Y-105918842D02*
X158167380Y-105858365D01*
X158167380Y-105858365D02*
X158227857Y-105737413D01*
X158227857Y-105737413D02*
X158227857Y-105495508D01*
X158227857Y-105495508D02*
X158167380Y-105374556D01*
X158167380Y-105374556D02*
X158106904Y-105314080D01*
X158106904Y-105314080D02*
X157985952Y-105253603D01*
X155392618Y-127899318D02*
X155392618Y-126629318D01*
X155392618Y-126629318D02*
X155876428Y-126629318D01*
X155876428Y-126629318D02*
X155997380Y-126689794D01*
X155997380Y-126689794D02*
X156057857Y-126750270D01*
X156057857Y-126750270D02*
X156118333Y-126871222D01*
X156118333Y-126871222D02*
X156118333Y-127052651D01*
X156118333Y-127052651D02*
X156057857Y-127173603D01*
X156057857Y-127173603D02*
X155997380Y-127234080D01*
X155997380Y-127234080D02*
X155876428Y-127294556D01*
X155876428Y-127294556D02*
X155392618Y-127294556D01*
X157206904Y-127052651D02*
X157206904Y-127899318D01*
X156904523Y-126568842D02*
X156602142Y-127475984D01*
X156602142Y-127475984D02*
X157388333Y-127475984D01*
X108892618Y-127899318D02*
X108892618Y-126629318D01*
X108892618Y-126629318D02*
X109376428Y-126629318D01*
X109376428Y-126629318D02*
X109497380Y-126689794D01*
X109497380Y-126689794D02*
X109557857Y-126750270D01*
X109557857Y-126750270D02*
X109618333Y-126871222D01*
X109618333Y-126871222D02*
X109618333Y-127052651D01*
X109618333Y-127052651D02*
X109557857Y-127173603D01*
X109557857Y-127173603D02*
X109497380Y-127234080D01*
X109497380Y-127234080D02*
X109376428Y-127294556D01*
X109376428Y-127294556D02*
X108892618Y-127294556D01*
X110827857Y-127899318D02*
X110102142Y-127899318D01*
X110464999Y-127899318D02*
X110464999Y-126629318D01*
X110464999Y-126629318D02*
X110344047Y-126810746D01*
X110344047Y-126810746D02*
X110223095Y-126931699D01*
X110223095Y-126931699D02*
X110102142Y-126992175D01*
D12*
X99033333Y-103809580D02*
X98985714Y-103857200D01*
X98985714Y-103857200D02*
X98842857Y-103904819D01*
X98842857Y-103904819D02*
X98747619Y-103904819D01*
X98747619Y-103904819D02*
X98604762Y-103857200D01*
X98604762Y-103857200D02*
X98509524Y-103761961D01*
X98509524Y-103761961D02*
X98461905Y-103666723D01*
X98461905Y-103666723D02*
X98414286Y-103476247D01*
X98414286Y-103476247D02*
X98414286Y-103333390D01*
X98414286Y-103333390D02*
X98461905Y-103142914D01*
X98461905Y-103142914D02*
X98509524Y-103047676D01*
X98509524Y-103047676D02*
X98604762Y-102952438D01*
X98604762Y-102952438D02*
X98747619Y-102904819D01*
X98747619Y-102904819D02*
X98842857Y-102904819D01*
X98842857Y-102904819D02*
X98985714Y-102952438D01*
X98985714Y-102952438D02*
X99033333Y-103000057D01*
X99414286Y-103000057D02*
X99461905Y-102952438D01*
X99461905Y-102952438D02*
X99557143Y-102904819D01*
X99557143Y-102904819D02*
X99795238Y-102904819D01*
X99795238Y-102904819D02*
X99890476Y-102952438D01*
X99890476Y-102952438D02*
X99938095Y-103000057D01*
X99938095Y-103000057D02*
X99985714Y-103095295D01*
X99985714Y-103095295D02*
X99985714Y-103190533D01*
X99985714Y-103190533D02*
X99938095Y-103333390D01*
X99938095Y-103333390D02*
X99366667Y-103904819D01*
X99366667Y-103904819D02*
X99985714Y-103904819D01*
D10*
X124392618Y-127899318D02*
X124392618Y-126629318D01*
X124392618Y-126629318D02*
X124876428Y-126629318D01*
X124876428Y-126629318D02*
X124997380Y-126689794D01*
X124997380Y-126689794D02*
X125057857Y-126750270D01*
X125057857Y-126750270D02*
X125118333Y-126871222D01*
X125118333Y-126871222D02*
X125118333Y-127052651D01*
X125118333Y-127052651D02*
X125057857Y-127173603D01*
X125057857Y-127173603D02*
X124997380Y-127234080D01*
X124997380Y-127234080D02*
X124876428Y-127294556D01*
X124876428Y-127294556D02*
X124392618Y-127294556D01*
X125602142Y-126750270D02*
X125662618Y-126689794D01*
X125662618Y-126689794D02*
X125783571Y-126629318D01*
X125783571Y-126629318D02*
X126085952Y-126629318D01*
X126085952Y-126629318D02*
X126206904Y-126689794D01*
X126206904Y-126689794D02*
X126267380Y-126750270D01*
X126267380Y-126750270D02*
X126327857Y-126871222D01*
X126327857Y-126871222D02*
X126327857Y-126992175D01*
X126327857Y-126992175D02*
X126267380Y-127173603D01*
X126267380Y-127173603D02*
X125541666Y-127899318D01*
X125541666Y-127899318D02*
X126327857Y-127899318D01*
D12*
X101943333Y-103914819D02*
X101610000Y-103438628D01*
X101371905Y-103914819D02*
X101371905Y-102914819D01*
X101371905Y-102914819D02*
X101752857Y-102914819D01*
X101752857Y-102914819D02*
X101848095Y-102962438D01*
X101848095Y-102962438D02*
X101895714Y-103010057D01*
X101895714Y-103010057D02*
X101943333Y-103105295D01*
X101943333Y-103105295D02*
X101943333Y-103248152D01*
X101943333Y-103248152D02*
X101895714Y-103343390D01*
X101895714Y-103343390D02*
X101848095Y-103391009D01*
X101848095Y-103391009D02*
X101752857Y-103438628D01*
X101752857Y-103438628D02*
X101371905Y-103438628D01*
X102895714Y-103914819D02*
X102324286Y-103914819D01*
X102610000Y-103914819D02*
X102610000Y-102914819D01*
X102610000Y-102914819D02*
X102514762Y-103057676D01*
X102514762Y-103057676D02*
X102419524Y-103152914D01*
X102419524Y-103152914D02*
X102324286Y-103200533D01*
X94788619Y-101931904D02*
X95598142Y-101931904D01*
X95598142Y-101931904D02*
X95693380Y-101884285D01*
X95693380Y-101884285D02*
X95741000Y-101836666D01*
X95741000Y-101836666D02*
X95788619Y-101741428D01*
X95788619Y-101741428D02*
X95788619Y-101550952D01*
X95788619Y-101550952D02*
X95741000Y-101455714D01*
X95741000Y-101455714D02*
X95693380Y-101408095D01*
X95693380Y-101408095D02*
X95598142Y-101360476D01*
X95598142Y-101360476D02*
X94788619Y-101360476D01*
X95788619Y-100360476D02*
X95788619Y-100931904D01*
X95788619Y-100646190D02*
X94788619Y-100646190D01*
X94788619Y-100646190D02*
X94931476Y-100741428D01*
X94931476Y-100741428D02*
X95026714Y-100836666D01*
X95026714Y-100836666D02*
X95074333Y-100931904D01*
D10*
X125292618Y-105979318D02*
X125292618Y-104709318D01*
X125292618Y-104709318D02*
X125776428Y-104709318D01*
X125776428Y-104709318D02*
X125897380Y-104769794D01*
X125897380Y-104769794D02*
X125957857Y-104830270D01*
X125957857Y-104830270D02*
X126018333Y-104951222D01*
X126018333Y-104951222D02*
X126018333Y-105132651D01*
X126018333Y-105132651D02*
X125957857Y-105253603D01*
X125957857Y-105253603D02*
X125897380Y-105314080D01*
X125897380Y-105314080D02*
X125776428Y-105374556D01*
X125776428Y-105374556D02*
X125292618Y-105374556D01*
X127106904Y-104709318D02*
X126864999Y-104709318D01*
X126864999Y-104709318D02*
X126744047Y-104769794D01*
X126744047Y-104769794D02*
X126683571Y-104830270D01*
X126683571Y-104830270D02*
X126562618Y-105011699D01*
X126562618Y-105011699D02*
X126502142Y-105253603D01*
X126502142Y-105253603D02*
X126502142Y-105737413D01*
X126502142Y-105737413D02*
X126562618Y-105858365D01*
X126562618Y-105858365D02*
X126623095Y-105918842D01*
X126623095Y-105918842D02*
X126744047Y-105979318D01*
X126744047Y-105979318D02*
X126985952Y-105979318D01*
X126985952Y-105979318D02*
X127106904Y-105918842D01*
X127106904Y-105918842D02*
X127167380Y-105858365D01*
X127167380Y-105858365D02*
X127227857Y-105737413D01*
X127227857Y-105737413D02*
X127227857Y-105435032D01*
X127227857Y-105435032D02*
X127167380Y-105314080D01*
X127167380Y-105314080D02*
X127106904Y-105253603D01*
X127106904Y-105253603D02*
X126985952Y-105193127D01*
X126985952Y-105193127D02*
X126744047Y-105193127D01*
X126744047Y-105193127D02*
X126623095Y-105253603D01*
X126623095Y-105253603D02*
X126562618Y-105314080D01*
X126562618Y-105314080D02*
X126502142Y-105435032D01*
X109792618Y-105979318D02*
X109792618Y-104709318D01*
X109792618Y-104709318D02*
X110276428Y-104709318D01*
X110276428Y-104709318D02*
X110397380Y-104769794D01*
X110397380Y-104769794D02*
X110457857Y-104830270D01*
X110457857Y-104830270D02*
X110518333Y-104951222D01*
X110518333Y-104951222D02*
X110518333Y-105132651D01*
X110518333Y-105132651D02*
X110457857Y-105253603D01*
X110457857Y-105253603D02*
X110397380Y-105314080D01*
X110397380Y-105314080D02*
X110276428Y-105374556D01*
X110276428Y-105374556D02*
X109792618Y-105374556D01*
X111667380Y-104709318D02*
X111062618Y-104709318D01*
X111062618Y-104709318D02*
X111002142Y-105314080D01*
X111002142Y-105314080D02*
X111062618Y-105253603D01*
X111062618Y-105253603D02*
X111183571Y-105193127D01*
X111183571Y-105193127D02*
X111485952Y-105193127D01*
X111485952Y-105193127D02*
X111606904Y-105253603D01*
X111606904Y-105253603D02*
X111667380Y-105314080D01*
X111667380Y-105314080D02*
X111727857Y-105435032D01*
X111727857Y-105435032D02*
X111727857Y-105737413D01*
X111727857Y-105737413D02*
X111667380Y-105858365D01*
X111667380Y-105858365D02*
X111606904Y-105918842D01*
X111606904Y-105918842D02*
X111485952Y-105979318D01*
X111485952Y-105979318D02*
X111183571Y-105979318D01*
X111183571Y-105979318D02*
X111062618Y-105918842D01*
X111062618Y-105918842D02*
X111002142Y-105858365D01*
D11*
G04 #@! TO.C,P7*
X135530000Y-98380000D02*
X147030000Y-98380000D01*
X135530000Y-114680000D02*
X135530000Y-98380000D01*
X136830000Y-95480000D02*
X136830000Y-98380000D01*
X141230000Y-95480000D02*
X136830000Y-95480000D01*
X141230000Y-98380000D02*
X141230000Y-95480000D01*
X141830000Y-95480000D02*
X141830000Y-98380000D01*
D13*
X144230000Y-115180000D02*
X144230000Y-115180000D01*
X144330000Y-115180000D02*
X144330000Y-115180000D01*
D11*
X146230000Y-95480000D02*
X141830000Y-95480000D01*
X146230000Y-98380000D02*
X146230000Y-95480000D01*
X147030000Y-98380000D02*
X147030000Y-114680000D01*
X147030000Y-108180000D02*
X147930000Y-108180000D01*
X147030000Y-114680000D02*
X135530000Y-114680000D01*
X147930000Y-102780000D02*
X147030000Y-102780000D01*
X147930000Y-108180000D02*
X147930000Y-102780000D01*
D13*
X144230000Y-115180000D02*
G75*
G02*
X144330000Y-115180000I50000J0D01*
G01*
X144330000Y-115180000D02*
G75*
G02*
X144230000Y-115180000I-50000J0D01*
G01*
G04 #@! TO.C,J1*
X91250000Y-106595000D02*
X98110000Y-106595000D01*
X91250000Y-113445000D02*
X91250000Y-106595000D01*
X98110000Y-106595000D02*
X98110000Y-113445000D01*
X98110000Y-113445000D02*
X91250000Y-113445000D01*
D14*
X93275710Y-112820000D02*
G75*
G02*
X93084290Y-112820000I-95710J0D01*
G01*
X93084290Y-112820000D02*
G75*
G02*
X93275710Y-112820000I95710J0D01*
G01*
D15*
G04 #@! TO.C,C1*
X91255000Y-101738748D02*
X91255000Y-102261252D01*
X92725000Y-101738748D02*
X92725000Y-102261252D01*
D11*
G04 #@! TO.C,P3*
X134630000Y-124550000D02*
X134630000Y-129950000D01*
X134630000Y-129950000D02*
X135530000Y-129950000D01*
X135530000Y-118050000D02*
X147030000Y-118050000D01*
X135530000Y-124550000D02*
X134630000Y-124550000D01*
X135530000Y-134350000D02*
X135530000Y-118050000D01*
X136330000Y-134350000D02*
X136330000Y-137250000D01*
X136330000Y-137250000D02*
X140730000Y-137250000D01*
D13*
X138230000Y-117550000D02*
X138230000Y-117550000D01*
X138330000Y-117550000D02*
X138330000Y-117550000D01*
D11*
X140730000Y-137250000D02*
X140730000Y-134350000D01*
X141330000Y-134350000D02*
X141330000Y-137250000D01*
X141330000Y-137250000D02*
X145730000Y-137250000D01*
X145730000Y-137250000D02*
X145730000Y-134350000D01*
X147030000Y-118050000D02*
X147030000Y-134350000D01*
X147030000Y-134350000D02*
X135530000Y-134350000D01*
D13*
X138230000Y-117550000D02*
G75*
G02*
X138330000Y-117550000I50000J0D01*
G01*
X138330000Y-117550000D02*
G75*
G02*
X138230000Y-117550000I-50000J0D01*
G01*
D15*
G04 #@! TO.C,D1*
X98125000Y-94250000D02*
X98125000Y-94450000D01*
X98125000Y-94850000D02*
X98125000Y-98050000D01*
X101125000Y-94250000D02*
X98125000Y-94250000D01*
X101125000Y-94250000D02*
X101125000Y-94450000D01*
X101125000Y-94850000D02*
X101125000Y-98050000D01*
X98425000Y-95650000D02*
X98625000Y-95650000D01*
X98625000Y-95850000D01*
X98425000Y-95850000D01*
X98425000Y-95650000D01*
X100825000Y-95650000D02*
X100625000Y-95650000D01*
X100625000Y-95850000D01*
X100825000Y-95850000D01*
X100825000Y-95650000D01*
D11*
G04 #@! TO.C,P8*
X151030000Y-98380000D02*
X162530000Y-98380000D01*
X151030000Y-114680000D02*
X151030000Y-98380000D01*
X152330000Y-95480000D02*
X152330000Y-98380000D01*
X156730000Y-95480000D02*
X152330000Y-95480000D01*
X156730000Y-98380000D02*
X156730000Y-95480000D01*
X157330000Y-95480000D02*
X157330000Y-98380000D01*
D13*
X159730000Y-115180000D02*
X159730000Y-115180000D01*
X159830000Y-115180000D02*
X159830000Y-115180000D01*
D11*
X161730000Y-95480000D02*
X157330000Y-95480000D01*
X161730000Y-98380000D02*
X161730000Y-95480000D01*
X162530000Y-98380000D02*
X162530000Y-114680000D01*
X162530000Y-108180000D02*
X163430000Y-108180000D01*
X162530000Y-114680000D02*
X151030000Y-114680000D01*
X163430000Y-102780000D02*
X162530000Y-102780000D01*
X163430000Y-108180000D02*
X163430000Y-102780000D01*
D13*
X159730000Y-115180000D02*
G75*
G02*
X159830000Y-115180000I50000J0D01*
G01*
X159830000Y-115180000D02*
G75*
G02*
X159730000Y-115180000I-50000J0D01*
G01*
D16*
G04 #@! TO.C,M1*
X91250103Y-115819800D02*
X91250103Y-128113400D01*
X91250103Y-128113400D02*
X98285903Y-128113400D01*
X98285898Y-117940700D02*
X98285903Y-115819800D01*
X98285898Y-125992500D02*
X102095898Y-125992500D01*
X98285903Y-115819800D02*
X91250103Y-115819800D01*
X98285903Y-128113400D02*
X98285898Y-125992500D01*
X102095898Y-117940700D02*
X98285898Y-117940700D01*
X102095898Y-125992500D02*
X102095898Y-117940700D01*
D17*
X95069902Y-128748400D02*
G75*
G02*
X94307902Y-128748400I-381000J0D01*
G01*
X94307902Y-128748400D02*
G75*
G02*
X95069902Y-128748400I381000J0D01*
G01*
D11*
G04 #@! TO.C,P4*
X150130000Y-124550000D02*
X150130000Y-129950000D01*
X150130000Y-129950000D02*
X151030000Y-129950000D01*
X151030000Y-118050000D02*
X162530000Y-118050000D01*
X151030000Y-124550000D02*
X150130000Y-124550000D01*
X151030000Y-134350000D02*
X151030000Y-118050000D01*
X151830000Y-134350000D02*
X151830000Y-137250000D01*
X151830000Y-137250000D02*
X156230000Y-137250000D01*
D13*
X153730000Y-117550000D02*
X153730000Y-117550000D01*
X153830000Y-117550000D02*
X153830000Y-117550000D01*
D11*
X156230000Y-137250000D02*
X156230000Y-134350000D01*
X156830000Y-134350000D02*
X156830000Y-137250000D01*
X156830000Y-137250000D02*
X161230000Y-137250000D01*
X161230000Y-137250000D02*
X161230000Y-134350000D01*
X162530000Y-118050000D02*
X162530000Y-134350000D01*
X162530000Y-134350000D02*
X151030000Y-134350000D01*
D13*
X153730000Y-117550000D02*
G75*
G02*
X153830000Y-117550000I50000J0D01*
G01*
X153830000Y-117550000D02*
G75*
G02*
X153730000Y-117550000I-50000J0D01*
G01*
D11*
G04 #@! TO.C,P1*
X103630000Y-124550000D02*
X103630000Y-129950000D01*
X103630000Y-129950000D02*
X104530000Y-129950000D01*
X104530000Y-118050000D02*
X116030000Y-118050000D01*
X104530000Y-124550000D02*
X103630000Y-124550000D01*
X104530000Y-134350000D02*
X104530000Y-118050000D01*
X105330000Y-134350000D02*
X105330000Y-137250000D01*
X105330000Y-137250000D02*
X109730000Y-137250000D01*
D13*
X107230000Y-117550000D02*
X107230000Y-117550000D01*
X107330000Y-117550000D02*
X107330000Y-117550000D01*
D11*
X109730000Y-137250000D02*
X109730000Y-134350000D01*
X110330000Y-134350000D02*
X110330000Y-137250000D01*
X110330000Y-137250000D02*
X114730000Y-137250000D01*
X114730000Y-137250000D02*
X114730000Y-134350000D01*
X116030000Y-118050000D02*
X116030000Y-134350000D01*
X116030000Y-134350000D02*
X104530000Y-134350000D01*
D13*
X107230000Y-117550000D02*
G75*
G02*
X107330000Y-117550000I50000J0D01*
G01*
X107330000Y-117550000D02*
G75*
G02*
X107230000Y-117550000I-50000J0D01*
G01*
D15*
G04 #@! TO.C,C2*
X98465000Y-100808748D02*
X98465000Y-101331252D01*
X99935000Y-100808748D02*
X99935000Y-101331252D01*
D11*
G04 #@! TO.C,P2*
X119130000Y-124550000D02*
X119130000Y-129950000D01*
X119130000Y-129950000D02*
X120030000Y-129950000D01*
X120030000Y-118050000D02*
X131530000Y-118050000D01*
X120030000Y-124550000D02*
X119130000Y-124550000D01*
X120030000Y-134350000D02*
X120030000Y-118050000D01*
X120830000Y-134350000D02*
X120830000Y-137250000D01*
X120830000Y-137250000D02*
X125230000Y-137250000D01*
D13*
X122730000Y-117550000D02*
X122730000Y-117550000D01*
X122830000Y-117550000D02*
X122830000Y-117550000D01*
D11*
X125230000Y-137250000D02*
X125230000Y-134350000D01*
X125830000Y-134350000D02*
X125830000Y-137250000D01*
X125830000Y-137250000D02*
X130230000Y-137250000D01*
X130230000Y-137250000D02*
X130230000Y-134350000D01*
X131530000Y-118050000D02*
X131530000Y-134350000D01*
X131530000Y-134350000D02*
X120030000Y-134350000D01*
D13*
X122730000Y-117550000D02*
G75*
G02*
X122830000Y-117550000I50000J0D01*
G01*
X122830000Y-117550000D02*
G75*
G02*
X122730000Y-117550000I-50000J0D01*
G01*
D15*
G04 #@! TO.C,R1*
X101315000Y-101257064D02*
X101315000Y-100802936D01*
X102785000Y-101257064D02*
X102785000Y-100802936D01*
D16*
G04 #@! TO.C,U1*
X94305100Y-99493600D02*
X94305100Y-100557860D01*
X94305100Y-101782140D02*
X94305100Y-102846400D01*
X94305100Y-102846400D02*
X96362500Y-102846400D01*
X96362500Y-99493600D02*
X94305100Y-99493600D01*
X96362500Y-101507861D02*
X96362500Y-100832139D01*
X96959400Y-103989400D02*
G75*
G02*
X96705400Y-103989400I-127000J0D01*
G01*
X96705400Y-103989400D02*
G75*
G02*
X96959400Y-103989400I127000J0D01*
G01*
D11*
G04 #@! TO.C,P6*
X120030000Y-98380000D02*
X131530000Y-98380000D01*
X120030000Y-114680000D02*
X120030000Y-98380000D01*
X121330000Y-95480000D02*
X121330000Y-98380000D01*
X125730000Y-95480000D02*
X121330000Y-95480000D01*
X125730000Y-98380000D02*
X125730000Y-95480000D01*
X126330000Y-95480000D02*
X126330000Y-98380000D01*
D13*
X128730000Y-115180000D02*
X128730000Y-115180000D01*
X128830000Y-115180000D02*
X128830000Y-115180000D01*
D11*
X130730000Y-95480000D02*
X126330000Y-95480000D01*
X130730000Y-98380000D02*
X130730000Y-95480000D01*
X131530000Y-98380000D02*
X131530000Y-114680000D01*
X131530000Y-108180000D02*
X132430000Y-108180000D01*
X131530000Y-114680000D02*
X120030000Y-114680000D01*
X132430000Y-102780000D02*
X131530000Y-102780000D01*
X132430000Y-108180000D02*
X132430000Y-102780000D01*
D13*
X128730000Y-115180000D02*
G75*
G02*
X128830000Y-115180000I50000J0D01*
G01*
X128830000Y-115180000D02*
G75*
G02*
X128730000Y-115180000I-50000J0D01*
G01*
D11*
G04 #@! TO.C,P5*
X104530000Y-98380000D02*
X116030000Y-98380000D01*
X104530000Y-114680000D02*
X104530000Y-98380000D01*
X105830000Y-95480000D02*
X105830000Y-98380000D01*
X110230000Y-95480000D02*
X105830000Y-95480000D01*
X110230000Y-98380000D02*
X110230000Y-95480000D01*
X110830000Y-95480000D02*
X110830000Y-98380000D01*
D13*
X113230000Y-115180000D02*
X113230000Y-115180000D01*
X113330000Y-115180000D02*
X113330000Y-115180000D01*
D11*
X115230000Y-95480000D02*
X110830000Y-95480000D01*
X115230000Y-98380000D02*
X115230000Y-95480000D01*
X116030000Y-98380000D02*
X116030000Y-114680000D01*
X116030000Y-108180000D02*
X116930000Y-108180000D01*
X116030000Y-114680000D02*
X104530000Y-114680000D01*
X116930000Y-102780000D02*
X116030000Y-102780000D01*
X116930000Y-108180000D02*
X116930000Y-102780000D01*
D13*
X113230000Y-115180000D02*
G75*
G02*
X113330000Y-115180000I50000J0D01*
G01*
X113330000Y-115180000D02*
G75*
G02*
X113230000Y-115180000I-50000J0D01*
G01*
G04 #@! TD*
%LPC*%
D18*
G04 #@! TO.C,P7*
X144330000Y-111780000D03*
D19*
X144330000Y-103580000D03*
X139330000Y-111780000D03*
X139330000Y-103580000D03*
G04 #@! TD*
D20*
G04 #@! TO.C,J1*
X97160000Y-107240000D03*
D21*
X93180000Y-111520000D03*
D22*
X96180000Y-111520000D03*
X93180000Y-108520000D03*
X96180000Y-108520000D03*
G04 #@! TD*
D23*
G04 #@! TO.C,C1*
X91990000Y-101050000D03*
X91990000Y-102950000D03*
G04 #@! TD*
D24*
G04 #@! TO.C,H4*
X92700000Y-95800000D03*
G04 #@! TD*
D18*
G04 #@! TO.C,P3*
X138230000Y-120950000D03*
D19*
X138230000Y-129150000D03*
X143230000Y-120950000D03*
X143230000Y-129150000D03*
G04 #@! TD*
D25*
G04 #@! TO.C,D1*
X99625000Y-94900000D03*
X99625000Y-98000000D03*
G04 #@! TD*
D24*
G04 #@! TO.C,H3*
X167200000Y-95800000D03*
G04 #@! TD*
D18*
G04 #@! TO.C,P8*
X159830000Y-111780000D03*
D19*
X159830000Y-103580000D03*
X154830000Y-111780000D03*
X154830000Y-103580000D03*
G04 #@! TD*
D26*
G04 #@! TO.C,M1*
X94688902Y-124816602D03*
X94688902Y-119116598D03*
G04 #@! TD*
D24*
G04 #@! TO.C,H1*
X92700000Y-136200000D03*
G04 #@! TD*
D18*
G04 #@! TO.C,P4*
X153730000Y-120950000D03*
D19*
X153730000Y-129150000D03*
X158730000Y-120950000D03*
X158730000Y-129150000D03*
G04 #@! TD*
D18*
G04 #@! TO.C,P1*
X107230000Y-120950000D03*
D19*
X107230000Y-129150000D03*
X112230000Y-120950000D03*
X112230000Y-129150000D03*
G04 #@! TD*
D23*
G04 #@! TO.C,C2*
X99200000Y-100120000D03*
X99200000Y-102020000D03*
G04 #@! TD*
D18*
G04 #@! TO.C,P2*
X122730000Y-120950000D03*
D19*
X122730000Y-129150000D03*
X127730000Y-120950000D03*
X127730000Y-129150000D03*
G04 #@! TD*
D27*
G04 #@! TO.C,R1*
X102050000Y-101942500D03*
X102050000Y-100117500D03*
G04 #@! TD*
D28*
G04 #@! TO.C,U1*
X96527600Y-102120001D03*
X96527600Y-100219999D03*
X94140000Y-101170000D03*
G04 #@! TD*
D18*
G04 #@! TO.C,P6*
X128830000Y-111780000D03*
D19*
X128830000Y-103580000D03*
X123830000Y-111780000D03*
X123830000Y-103580000D03*
G04 #@! TD*
D18*
G04 #@! TO.C,P5*
X113330000Y-111780000D03*
D19*
X113330000Y-103580000D03*
X108330000Y-111780000D03*
X108330000Y-103580000D03*
G04 #@! TD*
D24*
G04 #@! TO.C,H2*
X167200000Y-136200000D03*
G04 #@! TD*
%LPD*%
M02*
