%TF.GenerationSoftware,KiCad,Pcbnew,9.0.3*%
%TF.CreationDate,2025-08-14T10:35:20-07:00*%
%TF.ProjectId,PD Board,50442042-6f61-4726-942e-6b696361645f,rev?*%
%TF.SameCoordinates,Original*%
%TF.FileFunction,Drillmap*%
%TF.FilePolarity,Positive*%
%FSLAX45Y45*%
G04 Gerber Fmt 4.5, Leading zero omitted, Abs format (unit mm)*
G04 Created by KiCad (PCBNEW 9.0.3) date 2025-08-14 10:35:20*
%MOMM*%
%LPD*%
G01*
G04 APERTURE LIST*
%ADD10C,0.038100*%
%ADD11C,0.200000*%
%ADD12C,0.100000*%
%ADD13C,0.107000*%
%ADD14C,0.130000*%
%ADD15C,0.185420*%
G04 APERTURE END LIST*
D10*
X17000000Y-13690000D02*
G75*
G02*
X16790000Y-13900000I-210000J0D01*
G01*
X9200000Y-9300000D02*
X16790000Y-9300000D01*
X16790000Y-9300000D02*
G75*
G02*
X17000000Y-9510000I0J-210000D01*
G01*
X16790000Y-13900000D02*
X9200000Y-13900000D01*
X17000000Y-9510000D02*
X17000000Y-13690000D01*
X8990000Y-9510000D02*
G75*
G02*
X9200000Y-9300000I210000J0D01*
G01*
X8990000Y-13690000D02*
X8990000Y-9510000D01*
X9200000Y-13900000D02*
G75*
G02*
X8990000Y-13690000I0J210000D01*
G01*
D11*
D12*
X9184000Y-9976000D02*
X9214000Y-10006000D01*
X9214000Y-9976000D02*
X9184000Y-10006000D01*
X9907000Y-10319000D02*
X9937000Y-10349000D01*
X9937000Y-10319000D02*
X9907000Y-10349000D01*
D13*
X9371500Y-10852000D02*
G75*
G02*
X9264500Y-10852000I-53500J0D01*
G01*
X9264500Y-10852000D02*
G75*
G02*
X9371500Y-10852000I53500J0D01*
G01*
X9371500Y-11152000D02*
G75*
G02*
X9264500Y-11152000I-53500J0D01*
G01*
X9264500Y-11152000D02*
G75*
G02*
X9371500Y-11152000I53500J0D01*
G01*
X9671500Y-10852000D02*
G75*
G02*
X9564500Y-10852000I-53500J0D01*
G01*
X9564500Y-10852000D02*
G75*
G02*
X9671500Y-10852000I53500J0D01*
G01*
X9671500Y-11152000D02*
G75*
G02*
X9564500Y-11152000I-53500J0D01*
G01*
X9564500Y-11152000D02*
G75*
G02*
X9671500Y-11152000I53500J0D01*
G01*
D14*
X10723000Y-12030000D02*
X10723000Y-12160000D01*
X10658000Y-12095000D02*
X10788000Y-12095000D01*
X10723000Y-12850000D02*
X10723000Y-12980000D01*
X10658000Y-12915000D02*
X10788000Y-12915000D01*
X10833000Y-10293000D02*
X10833000Y-10423000D01*
X10768000Y-10358000D02*
X10898000Y-10358000D01*
X10833000Y-11113000D02*
X10833000Y-11243000D01*
X10768000Y-11178000D02*
X10898000Y-11178000D01*
X11223000Y-12030000D02*
X11223000Y-12160000D01*
X11158000Y-12095000D02*
X11288000Y-12095000D01*
X11223000Y-12850000D02*
X11223000Y-12980000D01*
X11158000Y-12915000D02*
X11288000Y-12915000D01*
X11333000Y-10293000D02*
X11333000Y-10423000D01*
X11268000Y-10358000D02*
X11398000Y-10358000D01*
X11333000Y-11113000D02*
X11333000Y-11243000D01*
X11268000Y-11178000D02*
X11398000Y-11178000D01*
X12273000Y-12030000D02*
X12273000Y-12160000D01*
X12208000Y-12095000D02*
X12338000Y-12095000D01*
X12273000Y-12850000D02*
X12273000Y-12980000D01*
X12208000Y-12915000D02*
X12338000Y-12915000D01*
X12383000Y-10293000D02*
X12383000Y-10423000D01*
X12318000Y-10358000D02*
X12448000Y-10358000D01*
X12383000Y-11113000D02*
X12383000Y-11243000D01*
X12318000Y-11178000D02*
X12448000Y-11178000D01*
X12773000Y-12030000D02*
X12773000Y-12160000D01*
X12708000Y-12095000D02*
X12838000Y-12095000D01*
X12773000Y-12850000D02*
X12773000Y-12980000D01*
X12708000Y-12915000D02*
X12838000Y-12915000D01*
X12883000Y-10293000D02*
X12883000Y-10423000D01*
X12818000Y-10358000D02*
X12948000Y-10358000D01*
X12883000Y-11113000D02*
X12883000Y-11243000D01*
X12818000Y-11178000D02*
X12948000Y-11178000D01*
X13823000Y-12030000D02*
X13823000Y-12160000D01*
X13758000Y-12095000D02*
X13888000Y-12095000D01*
X13823000Y-12850000D02*
X13823000Y-12980000D01*
X13758000Y-12915000D02*
X13888000Y-12915000D01*
X13933000Y-10293000D02*
X13933000Y-10423000D01*
X13868000Y-10358000D02*
X13998000Y-10358000D01*
X13933000Y-11113000D02*
X13933000Y-11243000D01*
X13868000Y-11178000D02*
X13998000Y-11178000D01*
X14323000Y-12030000D02*
X14323000Y-12160000D01*
X14258000Y-12095000D02*
X14388000Y-12095000D01*
X14323000Y-12850000D02*
X14323000Y-12980000D01*
X14258000Y-12915000D02*
X14388000Y-12915000D01*
X14433000Y-10293000D02*
X14433000Y-10423000D01*
X14368000Y-10358000D02*
X14498000Y-10358000D01*
X14433000Y-11113000D02*
X14433000Y-11243000D01*
X14368000Y-11178000D02*
X14498000Y-11178000D01*
X15373000Y-12030000D02*
X15373000Y-12160000D01*
X15308000Y-12095000D02*
X15438000Y-12095000D01*
X15373000Y-12850000D02*
X15373000Y-12980000D01*
X15308000Y-12915000D02*
X15438000Y-12915000D01*
X15483000Y-10293000D02*
X15483000Y-10423000D01*
X15418000Y-10358000D02*
X15548000Y-10358000D01*
X15483000Y-11113000D02*
X15483000Y-11243000D01*
X15418000Y-11178000D02*
X15548000Y-11178000D01*
X15873000Y-12030000D02*
X15873000Y-12160000D01*
X15808000Y-12095000D02*
X15938000Y-12095000D01*
X15873000Y-12850000D02*
X15873000Y-12980000D01*
X15808000Y-12915000D02*
X15938000Y-12915000D01*
X15983000Y-10293000D02*
X15983000Y-10423000D01*
X15918000Y-10358000D02*
X16048000Y-10358000D01*
X15983000Y-11113000D02*
X15983000Y-11243000D01*
X15918000Y-11178000D02*
X16048000Y-11178000D01*
D15*
X9534447Y-11977216D02*
X9534447Y-11846103D01*
X9403334Y-11846103D01*
X9403334Y-11977216D01*
X9534447Y-11977216D01*
X9534447Y-12547217D02*
X9534447Y-12416104D01*
X9403334Y-12416104D01*
X9403334Y-12547217D01*
X9534447Y-12547217D01*
D11*
X9248872Y-14213389D02*
X9248872Y-14013389D01*
X9248872Y-14013389D02*
X9296491Y-14013389D01*
X9296491Y-14013389D02*
X9325062Y-14022913D01*
X9325062Y-14022913D02*
X9344110Y-14041960D01*
X9344110Y-14041960D02*
X9353634Y-14061008D01*
X9353634Y-14061008D02*
X9363158Y-14099103D01*
X9363158Y-14099103D02*
X9363158Y-14127674D01*
X9363158Y-14127674D02*
X9353634Y-14165770D01*
X9353634Y-14165770D02*
X9344110Y-14184817D01*
X9344110Y-14184817D02*
X9325062Y-14203865D01*
X9325062Y-14203865D02*
X9296491Y-14213389D01*
X9296491Y-14213389D02*
X9248872Y-14213389D01*
X9448872Y-14213389D02*
X9448872Y-14080055D01*
X9448872Y-14118151D02*
X9458396Y-14099103D01*
X9458396Y-14099103D02*
X9467919Y-14089579D01*
X9467919Y-14089579D02*
X9486967Y-14080055D01*
X9486967Y-14080055D02*
X9506015Y-14080055D01*
X9572681Y-14213389D02*
X9572681Y-14080055D01*
X9572681Y-14013389D02*
X9563158Y-14022913D01*
X9563158Y-14022913D02*
X9572681Y-14032436D01*
X9572681Y-14032436D02*
X9582205Y-14022913D01*
X9582205Y-14022913D02*
X9572681Y-14013389D01*
X9572681Y-14013389D02*
X9572681Y-14032436D01*
X9696491Y-14213389D02*
X9677443Y-14203865D01*
X9677443Y-14203865D02*
X9667919Y-14184817D01*
X9667919Y-14184817D02*
X9667919Y-14013389D01*
X9801253Y-14213389D02*
X9782205Y-14203865D01*
X9782205Y-14203865D02*
X9772681Y-14184817D01*
X9772681Y-14184817D02*
X9772681Y-14013389D01*
X10029824Y-14213389D02*
X10029824Y-14013389D01*
X10029824Y-14013389D02*
X10096491Y-14156246D01*
X10096491Y-14156246D02*
X10163158Y-14013389D01*
X10163158Y-14013389D02*
X10163158Y-14213389D01*
X10344110Y-14213389D02*
X10344110Y-14108627D01*
X10344110Y-14108627D02*
X10334586Y-14089579D01*
X10334586Y-14089579D02*
X10315539Y-14080055D01*
X10315539Y-14080055D02*
X10277443Y-14080055D01*
X10277443Y-14080055D02*
X10258396Y-14089579D01*
X10344110Y-14203865D02*
X10325062Y-14213389D01*
X10325062Y-14213389D02*
X10277443Y-14213389D01*
X10277443Y-14213389D02*
X10258396Y-14203865D01*
X10258396Y-14203865D02*
X10248872Y-14184817D01*
X10248872Y-14184817D02*
X10248872Y-14165770D01*
X10248872Y-14165770D02*
X10258396Y-14146722D01*
X10258396Y-14146722D02*
X10277443Y-14137198D01*
X10277443Y-14137198D02*
X10325062Y-14137198D01*
X10325062Y-14137198D02*
X10344110Y-14127674D01*
X10439348Y-14080055D02*
X10439348Y-14280055D01*
X10439348Y-14089579D02*
X10458396Y-14080055D01*
X10458396Y-14080055D02*
X10496491Y-14080055D01*
X10496491Y-14080055D02*
X10515539Y-14089579D01*
X10515539Y-14089579D02*
X10525062Y-14099103D01*
X10525062Y-14099103D02*
X10534586Y-14118151D01*
X10534586Y-14118151D02*
X10534586Y-14175293D01*
X10534586Y-14175293D02*
X10525062Y-14194341D01*
X10525062Y-14194341D02*
X10515539Y-14203865D01*
X10515539Y-14203865D02*
X10496491Y-14213389D01*
X10496491Y-14213389D02*
X10458396Y-14213389D01*
X10458396Y-14213389D02*
X10439348Y-14203865D01*
X10620300Y-14194341D02*
X10629824Y-14203865D01*
X10629824Y-14203865D02*
X10620300Y-14213389D01*
X10620300Y-14213389D02*
X10610777Y-14203865D01*
X10610777Y-14203865D02*
X10620300Y-14194341D01*
X10620300Y-14194341D02*
X10620300Y-14213389D01*
X10620300Y-14089579D02*
X10629824Y-14099103D01*
X10629824Y-14099103D02*
X10620300Y-14108627D01*
X10620300Y-14108627D02*
X10610777Y-14099103D01*
X10610777Y-14099103D02*
X10620300Y-14089579D01*
X10620300Y-14089579D02*
X10620300Y-14108627D01*
D12*
X8958095Y-14526905D02*
X8988095Y-14556905D01*
X8988095Y-14526905D02*
X8958095Y-14556905D01*
D11*
X9286967Y-14433389D02*
X9306015Y-14433389D01*
X9306015Y-14433389D02*
X9325062Y-14442913D01*
X9325062Y-14442913D02*
X9334586Y-14452436D01*
X9334586Y-14452436D02*
X9344110Y-14471484D01*
X9344110Y-14471484D02*
X9353634Y-14509579D01*
X9353634Y-14509579D02*
X9353634Y-14557198D01*
X9353634Y-14557198D02*
X9344110Y-14595293D01*
X9344110Y-14595293D02*
X9334586Y-14614341D01*
X9334586Y-14614341D02*
X9325062Y-14623865D01*
X9325062Y-14623865D02*
X9306015Y-14633389D01*
X9306015Y-14633389D02*
X9286967Y-14633389D01*
X9286967Y-14633389D02*
X9267919Y-14623865D01*
X9267919Y-14623865D02*
X9258396Y-14614341D01*
X9258396Y-14614341D02*
X9248872Y-14595293D01*
X9248872Y-14595293D02*
X9239348Y-14557198D01*
X9239348Y-14557198D02*
X9239348Y-14509579D01*
X9239348Y-14509579D02*
X9248872Y-14471484D01*
X9248872Y-14471484D02*
X9258396Y-14452436D01*
X9258396Y-14452436D02*
X9267919Y-14442913D01*
X9267919Y-14442913D02*
X9286967Y-14433389D01*
X9439348Y-14614341D02*
X9448872Y-14623865D01*
X9448872Y-14623865D02*
X9439348Y-14633389D01*
X9439348Y-14633389D02*
X9429824Y-14623865D01*
X9429824Y-14623865D02*
X9439348Y-14614341D01*
X9439348Y-14614341D02*
X9439348Y-14633389D01*
X9515539Y-14433389D02*
X9639348Y-14433389D01*
X9639348Y-14433389D02*
X9572681Y-14509579D01*
X9572681Y-14509579D02*
X9601253Y-14509579D01*
X9601253Y-14509579D02*
X9620300Y-14519103D01*
X9620300Y-14519103D02*
X9629824Y-14528627D01*
X9629824Y-14528627D02*
X9639348Y-14547674D01*
X9639348Y-14547674D02*
X9639348Y-14595293D01*
X9639348Y-14595293D02*
X9629824Y-14614341D01*
X9629824Y-14614341D02*
X9620300Y-14623865D01*
X9620300Y-14623865D02*
X9601253Y-14633389D01*
X9601253Y-14633389D02*
X9544110Y-14633389D01*
X9544110Y-14633389D02*
X9525062Y-14623865D01*
X9525062Y-14623865D02*
X9515539Y-14614341D01*
X9763158Y-14433389D02*
X9782205Y-14433389D01*
X9782205Y-14433389D02*
X9801253Y-14442913D01*
X9801253Y-14442913D02*
X9810777Y-14452436D01*
X9810777Y-14452436D02*
X9820300Y-14471484D01*
X9820300Y-14471484D02*
X9829824Y-14509579D01*
X9829824Y-14509579D02*
X9829824Y-14557198D01*
X9829824Y-14557198D02*
X9820300Y-14595293D01*
X9820300Y-14595293D02*
X9810777Y-14614341D01*
X9810777Y-14614341D02*
X9801253Y-14623865D01*
X9801253Y-14623865D02*
X9782205Y-14633389D01*
X9782205Y-14633389D02*
X9763158Y-14633389D01*
X9763158Y-14633389D02*
X9744110Y-14623865D01*
X9744110Y-14623865D02*
X9734586Y-14614341D01*
X9734586Y-14614341D02*
X9725062Y-14595293D01*
X9725062Y-14595293D02*
X9715539Y-14557198D01*
X9715539Y-14557198D02*
X9715539Y-14509579D01*
X9715539Y-14509579D02*
X9725062Y-14471484D01*
X9725062Y-14471484D02*
X9734586Y-14452436D01*
X9734586Y-14452436D02*
X9744110Y-14442913D01*
X9744110Y-14442913D02*
X9763158Y-14433389D01*
X9953634Y-14433389D02*
X9972681Y-14433389D01*
X9972681Y-14433389D02*
X9991729Y-14442913D01*
X9991729Y-14442913D02*
X10001253Y-14452436D01*
X10001253Y-14452436D02*
X10010777Y-14471484D01*
X10010777Y-14471484D02*
X10020300Y-14509579D01*
X10020300Y-14509579D02*
X10020300Y-14557198D01*
X10020300Y-14557198D02*
X10010777Y-14595293D01*
X10010777Y-14595293D02*
X10001253Y-14614341D01*
X10001253Y-14614341D02*
X9991729Y-14623865D01*
X9991729Y-14623865D02*
X9972681Y-14633389D01*
X9972681Y-14633389D02*
X9953634Y-14633389D01*
X9953634Y-14633389D02*
X9934586Y-14623865D01*
X9934586Y-14623865D02*
X9925062Y-14614341D01*
X9925062Y-14614341D02*
X9915539Y-14595293D01*
X9915539Y-14595293D02*
X9906015Y-14557198D01*
X9906015Y-14557198D02*
X9906015Y-14509579D01*
X9906015Y-14509579D02*
X9915539Y-14471484D01*
X9915539Y-14471484D02*
X9925062Y-14452436D01*
X9925062Y-14452436D02*
X9934586Y-14442913D01*
X9934586Y-14442913D02*
X9953634Y-14433389D01*
X10106015Y-14633389D02*
X10106015Y-14500055D01*
X10106015Y-14519103D02*
X10115539Y-14509579D01*
X10115539Y-14509579D02*
X10134586Y-14500055D01*
X10134586Y-14500055D02*
X10163158Y-14500055D01*
X10163158Y-14500055D02*
X10182205Y-14509579D01*
X10182205Y-14509579D02*
X10191729Y-14528627D01*
X10191729Y-14528627D02*
X10191729Y-14633389D01*
X10191729Y-14528627D02*
X10201253Y-14509579D01*
X10201253Y-14509579D02*
X10220300Y-14500055D01*
X10220300Y-14500055D02*
X10248872Y-14500055D01*
X10248872Y-14500055D02*
X10267920Y-14509579D01*
X10267920Y-14509579D02*
X10277443Y-14528627D01*
X10277443Y-14528627D02*
X10277443Y-14633389D01*
X10372681Y-14633389D02*
X10372681Y-14500055D01*
X10372681Y-14519103D02*
X10382205Y-14509579D01*
X10382205Y-14509579D02*
X10401253Y-14500055D01*
X10401253Y-14500055D02*
X10429824Y-14500055D01*
X10429824Y-14500055D02*
X10448872Y-14509579D01*
X10448872Y-14509579D02*
X10458396Y-14528627D01*
X10458396Y-14528627D02*
X10458396Y-14633389D01*
X10458396Y-14528627D02*
X10467920Y-14509579D01*
X10467920Y-14509579D02*
X10486967Y-14500055D01*
X10486967Y-14500055D02*
X10515539Y-14500055D01*
X10515539Y-14500055D02*
X10534586Y-14509579D01*
X10534586Y-14509579D02*
X10544110Y-14528627D01*
X10544110Y-14528627D02*
X10544110Y-14633389D01*
X10934586Y-14423865D02*
X10763158Y-14681008D01*
X11191729Y-14433389D02*
X11210777Y-14433389D01*
X11210777Y-14433389D02*
X11229824Y-14442913D01*
X11229824Y-14442913D02*
X11239348Y-14452436D01*
X11239348Y-14452436D02*
X11248872Y-14471484D01*
X11248872Y-14471484D02*
X11258396Y-14509579D01*
X11258396Y-14509579D02*
X11258396Y-14557198D01*
X11258396Y-14557198D02*
X11248872Y-14595293D01*
X11248872Y-14595293D02*
X11239348Y-14614341D01*
X11239348Y-14614341D02*
X11229824Y-14623865D01*
X11229824Y-14623865D02*
X11210777Y-14633389D01*
X11210777Y-14633389D02*
X11191729Y-14633389D01*
X11191729Y-14633389D02*
X11172682Y-14623865D01*
X11172682Y-14623865D02*
X11163158Y-14614341D01*
X11163158Y-14614341D02*
X11153634Y-14595293D01*
X11153634Y-14595293D02*
X11144110Y-14557198D01*
X11144110Y-14557198D02*
X11144110Y-14509579D01*
X11144110Y-14509579D02*
X11153634Y-14471484D01*
X11153634Y-14471484D02*
X11163158Y-14452436D01*
X11163158Y-14452436D02*
X11172682Y-14442913D01*
X11172682Y-14442913D02*
X11191729Y-14433389D01*
X11344110Y-14614341D02*
X11353634Y-14623865D01*
X11353634Y-14623865D02*
X11344110Y-14633389D01*
X11344110Y-14633389D02*
X11334586Y-14623865D01*
X11334586Y-14623865D02*
X11344110Y-14614341D01*
X11344110Y-14614341D02*
X11344110Y-14633389D01*
X11477443Y-14433389D02*
X11496491Y-14433389D01*
X11496491Y-14433389D02*
X11515539Y-14442913D01*
X11515539Y-14442913D02*
X11525062Y-14452436D01*
X11525062Y-14452436D02*
X11534586Y-14471484D01*
X11534586Y-14471484D02*
X11544110Y-14509579D01*
X11544110Y-14509579D02*
X11544110Y-14557198D01*
X11544110Y-14557198D02*
X11534586Y-14595293D01*
X11534586Y-14595293D02*
X11525062Y-14614341D01*
X11525062Y-14614341D02*
X11515539Y-14623865D01*
X11515539Y-14623865D02*
X11496491Y-14633389D01*
X11496491Y-14633389D02*
X11477443Y-14633389D01*
X11477443Y-14633389D02*
X11458396Y-14623865D01*
X11458396Y-14623865D02*
X11448872Y-14614341D01*
X11448872Y-14614341D02*
X11439348Y-14595293D01*
X11439348Y-14595293D02*
X11429824Y-14557198D01*
X11429824Y-14557198D02*
X11429824Y-14509579D01*
X11429824Y-14509579D02*
X11439348Y-14471484D01*
X11439348Y-14471484D02*
X11448872Y-14452436D01*
X11448872Y-14452436D02*
X11458396Y-14442913D01*
X11458396Y-14442913D02*
X11477443Y-14433389D01*
X11734586Y-14633389D02*
X11620301Y-14633389D01*
X11677443Y-14633389D02*
X11677443Y-14433389D01*
X11677443Y-14433389D02*
X11658396Y-14461960D01*
X11658396Y-14461960D02*
X11639348Y-14481008D01*
X11639348Y-14481008D02*
X11620301Y-14490532D01*
X11925062Y-14633389D02*
X11810777Y-14633389D01*
X11867920Y-14633389D02*
X11867920Y-14433389D01*
X11867920Y-14433389D02*
X11848872Y-14461960D01*
X11848872Y-14461960D02*
X11829824Y-14481008D01*
X11829824Y-14481008D02*
X11810777Y-14490532D01*
X12039348Y-14519103D02*
X12020301Y-14509579D01*
X12020301Y-14509579D02*
X12010777Y-14500055D01*
X12010777Y-14500055D02*
X12001253Y-14481008D01*
X12001253Y-14481008D02*
X12001253Y-14471484D01*
X12001253Y-14471484D02*
X12010777Y-14452436D01*
X12010777Y-14452436D02*
X12020301Y-14442913D01*
X12020301Y-14442913D02*
X12039348Y-14433389D01*
X12039348Y-14433389D02*
X12077443Y-14433389D01*
X12077443Y-14433389D02*
X12096491Y-14442913D01*
X12096491Y-14442913D02*
X12106015Y-14452436D01*
X12106015Y-14452436D02*
X12115539Y-14471484D01*
X12115539Y-14471484D02*
X12115539Y-14481008D01*
X12115539Y-14481008D02*
X12106015Y-14500055D01*
X12106015Y-14500055D02*
X12096491Y-14509579D01*
X12096491Y-14509579D02*
X12077443Y-14519103D01*
X12077443Y-14519103D02*
X12039348Y-14519103D01*
X12039348Y-14519103D02*
X12020301Y-14528627D01*
X12020301Y-14528627D02*
X12010777Y-14538151D01*
X12010777Y-14538151D02*
X12001253Y-14557198D01*
X12001253Y-14557198D02*
X12001253Y-14595293D01*
X12001253Y-14595293D02*
X12010777Y-14614341D01*
X12010777Y-14614341D02*
X12020301Y-14623865D01*
X12020301Y-14623865D02*
X12039348Y-14633389D01*
X12039348Y-14633389D02*
X12077443Y-14633389D01*
X12077443Y-14633389D02*
X12096491Y-14623865D01*
X12096491Y-14623865D02*
X12106015Y-14614341D01*
X12106015Y-14614341D02*
X12115539Y-14595293D01*
X12115539Y-14595293D02*
X12115539Y-14557198D01*
X12115539Y-14557198D02*
X12106015Y-14538151D01*
X12106015Y-14538151D02*
X12096491Y-14528627D01*
X12096491Y-14528627D02*
X12077443Y-14519103D01*
X12191729Y-14433389D02*
X12191729Y-14471484D01*
X12267920Y-14433389D02*
X12267920Y-14471484D01*
X12563158Y-14709579D02*
X12553634Y-14700055D01*
X12553634Y-14700055D02*
X12534586Y-14671484D01*
X12534586Y-14671484D02*
X12525063Y-14652436D01*
X12525063Y-14652436D02*
X12515539Y-14623865D01*
X12515539Y-14623865D02*
X12506015Y-14576246D01*
X12506015Y-14576246D02*
X12506015Y-14538151D01*
X12506015Y-14538151D02*
X12515539Y-14490532D01*
X12515539Y-14490532D02*
X12525063Y-14461960D01*
X12525063Y-14461960D02*
X12534586Y-14442913D01*
X12534586Y-14442913D02*
X12553634Y-14414341D01*
X12553634Y-14414341D02*
X12563158Y-14404817D01*
X12629824Y-14452436D02*
X12639348Y-14442913D01*
X12639348Y-14442913D02*
X12658396Y-14433389D01*
X12658396Y-14433389D02*
X12706015Y-14433389D01*
X12706015Y-14433389D02*
X12725063Y-14442913D01*
X12725063Y-14442913D02*
X12734586Y-14452436D01*
X12734586Y-14452436D02*
X12744110Y-14471484D01*
X12744110Y-14471484D02*
X12744110Y-14490532D01*
X12744110Y-14490532D02*
X12734586Y-14519103D01*
X12734586Y-14519103D02*
X12620301Y-14633389D01*
X12620301Y-14633389D02*
X12744110Y-14633389D01*
X12982205Y-14633389D02*
X12982205Y-14433389D01*
X13067920Y-14633389D02*
X13067920Y-14528627D01*
X13067920Y-14528627D02*
X13058396Y-14509579D01*
X13058396Y-14509579D02*
X13039348Y-14500055D01*
X13039348Y-14500055D02*
X13010777Y-14500055D01*
X13010777Y-14500055D02*
X12991729Y-14509579D01*
X12991729Y-14509579D02*
X12982205Y-14519103D01*
X13191729Y-14633389D02*
X13172682Y-14623865D01*
X13172682Y-14623865D02*
X13163158Y-14614341D01*
X13163158Y-14614341D02*
X13153634Y-14595293D01*
X13153634Y-14595293D02*
X13153634Y-14538151D01*
X13153634Y-14538151D02*
X13163158Y-14519103D01*
X13163158Y-14519103D02*
X13172682Y-14509579D01*
X13172682Y-14509579D02*
X13191729Y-14500055D01*
X13191729Y-14500055D02*
X13220301Y-14500055D01*
X13220301Y-14500055D02*
X13239348Y-14509579D01*
X13239348Y-14509579D02*
X13248872Y-14519103D01*
X13248872Y-14519103D02*
X13258396Y-14538151D01*
X13258396Y-14538151D02*
X13258396Y-14595293D01*
X13258396Y-14595293D02*
X13248872Y-14614341D01*
X13248872Y-14614341D02*
X13239348Y-14623865D01*
X13239348Y-14623865D02*
X13220301Y-14633389D01*
X13220301Y-14633389D02*
X13191729Y-14633389D01*
X13372682Y-14633389D02*
X13353634Y-14623865D01*
X13353634Y-14623865D02*
X13344110Y-14604817D01*
X13344110Y-14604817D02*
X13344110Y-14433389D01*
X13525063Y-14623865D02*
X13506015Y-14633389D01*
X13506015Y-14633389D02*
X13467920Y-14633389D01*
X13467920Y-14633389D02*
X13448872Y-14623865D01*
X13448872Y-14623865D02*
X13439348Y-14604817D01*
X13439348Y-14604817D02*
X13439348Y-14528627D01*
X13439348Y-14528627D02*
X13448872Y-14509579D01*
X13448872Y-14509579D02*
X13467920Y-14500055D01*
X13467920Y-14500055D02*
X13506015Y-14500055D01*
X13506015Y-14500055D02*
X13525063Y-14509579D01*
X13525063Y-14509579D02*
X13534586Y-14528627D01*
X13534586Y-14528627D02*
X13534586Y-14547674D01*
X13534586Y-14547674D02*
X13439348Y-14566722D01*
X13610777Y-14623865D02*
X13629825Y-14633389D01*
X13629825Y-14633389D02*
X13667920Y-14633389D01*
X13667920Y-14633389D02*
X13686967Y-14623865D01*
X13686967Y-14623865D02*
X13696491Y-14604817D01*
X13696491Y-14604817D02*
X13696491Y-14595293D01*
X13696491Y-14595293D02*
X13686967Y-14576246D01*
X13686967Y-14576246D02*
X13667920Y-14566722D01*
X13667920Y-14566722D02*
X13639348Y-14566722D01*
X13639348Y-14566722D02*
X13620301Y-14557198D01*
X13620301Y-14557198D02*
X13610777Y-14538151D01*
X13610777Y-14538151D02*
X13610777Y-14528627D01*
X13610777Y-14528627D02*
X13620301Y-14509579D01*
X13620301Y-14509579D02*
X13639348Y-14500055D01*
X13639348Y-14500055D02*
X13667920Y-14500055D01*
X13667920Y-14500055D02*
X13686967Y-14509579D01*
X13763158Y-14709579D02*
X13772682Y-14700055D01*
X13772682Y-14700055D02*
X13791729Y-14671484D01*
X13791729Y-14671484D02*
X13801253Y-14652436D01*
X13801253Y-14652436D02*
X13810777Y-14623865D01*
X13810777Y-14623865D02*
X13820301Y-14576246D01*
X13820301Y-14576246D02*
X13820301Y-14538151D01*
X13820301Y-14538151D02*
X13810777Y-14490532D01*
X13810777Y-14490532D02*
X13801253Y-14461960D01*
X13801253Y-14461960D02*
X13791729Y-14442913D01*
X13791729Y-14442913D02*
X13772682Y-14414341D01*
X13772682Y-14414341D02*
X13763158Y-14404817D01*
D13*
X8988095Y-14805905D02*
G75*
G02*
X8881095Y-14805905I-53500J0D01*
G01*
X8881095Y-14805905D02*
G75*
G02*
X8988095Y-14805905I53500J0D01*
G01*
D11*
X9353634Y-14897389D02*
X9239348Y-14897389D01*
X9296491Y-14897389D02*
X9296491Y-14697389D01*
X9296491Y-14697389D02*
X9277443Y-14725960D01*
X9277443Y-14725960D02*
X9258396Y-14745008D01*
X9258396Y-14745008D02*
X9239348Y-14754532D01*
X9439348Y-14878341D02*
X9448872Y-14887865D01*
X9448872Y-14887865D02*
X9439348Y-14897389D01*
X9439348Y-14897389D02*
X9429824Y-14887865D01*
X9429824Y-14887865D02*
X9439348Y-14878341D01*
X9439348Y-14878341D02*
X9439348Y-14897389D01*
X9572681Y-14697389D02*
X9591729Y-14697389D01*
X9591729Y-14697389D02*
X9610777Y-14706913D01*
X9610777Y-14706913D02*
X9620300Y-14716436D01*
X9620300Y-14716436D02*
X9629824Y-14735484D01*
X9629824Y-14735484D02*
X9639348Y-14773579D01*
X9639348Y-14773579D02*
X9639348Y-14821198D01*
X9639348Y-14821198D02*
X9629824Y-14859293D01*
X9629824Y-14859293D02*
X9620300Y-14878341D01*
X9620300Y-14878341D02*
X9610777Y-14887865D01*
X9610777Y-14887865D02*
X9591729Y-14897389D01*
X9591729Y-14897389D02*
X9572681Y-14897389D01*
X9572681Y-14897389D02*
X9553634Y-14887865D01*
X9553634Y-14887865D02*
X9544110Y-14878341D01*
X9544110Y-14878341D02*
X9534586Y-14859293D01*
X9534586Y-14859293D02*
X9525062Y-14821198D01*
X9525062Y-14821198D02*
X9525062Y-14773579D01*
X9525062Y-14773579D02*
X9534586Y-14735484D01*
X9534586Y-14735484D02*
X9544110Y-14716436D01*
X9544110Y-14716436D02*
X9553634Y-14706913D01*
X9553634Y-14706913D02*
X9572681Y-14697389D01*
X9706015Y-14697389D02*
X9839348Y-14697389D01*
X9839348Y-14697389D02*
X9753634Y-14897389D01*
X9953634Y-14697389D02*
X9972681Y-14697389D01*
X9972681Y-14697389D02*
X9991729Y-14706913D01*
X9991729Y-14706913D02*
X10001253Y-14716436D01*
X10001253Y-14716436D02*
X10010777Y-14735484D01*
X10010777Y-14735484D02*
X10020300Y-14773579D01*
X10020300Y-14773579D02*
X10020300Y-14821198D01*
X10020300Y-14821198D02*
X10010777Y-14859293D01*
X10010777Y-14859293D02*
X10001253Y-14878341D01*
X10001253Y-14878341D02*
X9991729Y-14887865D01*
X9991729Y-14887865D02*
X9972681Y-14897389D01*
X9972681Y-14897389D02*
X9953634Y-14897389D01*
X9953634Y-14897389D02*
X9934586Y-14887865D01*
X9934586Y-14887865D02*
X9925062Y-14878341D01*
X9925062Y-14878341D02*
X9915539Y-14859293D01*
X9915539Y-14859293D02*
X9906015Y-14821198D01*
X9906015Y-14821198D02*
X9906015Y-14773579D01*
X9906015Y-14773579D02*
X9915539Y-14735484D01*
X9915539Y-14735484D02*
X9925062Y-14716436D01*
X9925062Y-14716436D02*
X9934586Y-14706913D01*
X9934586Y-14706913D02*
X9953634Y-14697389D01*
X10106015Y-14897389D02*
X10106015Y-14764055D01*
X10106015Y-14783103D02*
X10115539Y-14773579D01*
X10115539Y-14773579D02*
X10134586Y-14764055D01*
X10134586Y-14764055D02*
X10163158Y-14764055D01*
X10163158Y-14764055D02*
X10182205Y-14773579D01*
X10182205Y-14773579D02*
X10191729Y-14792627D01*
X10191729Y-14792627D02*
X10191729Y-14897389D01*
X10191729Y-14792627D02*
X10201253Y-14773579D01*
X10201253Y-14773579D02*
X10220300Y-14764055D01*
X10220300Y-14764055D02*
X10248872Y-14764055D01*
X10248872Y-14764055D02*
X10267920Y-14773579D01*
X10267920Y-14773579D02*
X10277443Y-14792627D01*
X10277443Y-14792627D02*
X10277443Y-14897389D01*
X10372681Y-14897389D02*
X10372681Y-14764055D01*
X10372681Y-14783103D02*
X10382205Y-14773579D01*
X10382205Y-14773579D02*
X10401253Y-14764055D01*
X10401253Y-14764055D02*
X10429824Y-14764055D01*
X10429824Y-14764055D02*
X10448872Y-14773579D01*
X10448872Y-14773579D02*
X10458396Y-14792627D01*
X10458396Y-14792627D02*
X10458396Y-14897389D01*
X10458396Y-14792627D02*
X10467920Y-14773579D01*
X10467920Y-14773579D02*
X10486967Y-14764055D01*
X10486967Y-14764055D02*
X10515539Y-14764055D01*
X10515539Y-14764055D02*
X10534586Y-14773579D01*
X10534586Y-14773579D02*
X10544110Y-14792627D01*
X10544110Y-14792627D02*
X10544110Y-14897389D01*
X10934586Y-14687865D02*
X10763158Y-14945008D01*
X11191729Y-14697389D02*
X11210777Y-14697389D01*
X11210777Y-14697389D02*
X11229824Y-14706913D01*
X11229824Y-14706913D02*
X11239348Y-14716436D01*
X11239348Y-14716436D02*
X11248872Y-14735484D01*
X11248872Y-14735484D02*
X11258396Y-14773579D01*
X11258396Y-14773579D02*
X11258396Y-14821198D01*
X11258396Y-14821198D02*
X11248872Y-14859293D01*
X11248872Y-14859293D02*
X11239348Y-14878341D01*
X11239348Y-14878341D02*
X11229824Y-14887865D01*
X11229824Y-14887865D02*
X11210777Y-14897389D01*
X11210777Y-14897389D02*
X11191729Y-14897389D01*
X11191729Y-14897389D02*
X11172682Y-14887865D01*
X11172682Y-14887865D02*
X11163158Y-14878341D01*
X11163158Y-14878341D02*
X11153634Y-14859293D01*
X11153634Y-14859293D02*
X11144110Y-14821198D01*
X11144110Y-14821198D02*
X11144110Y-14773579D01*
X11144110Y-14773579D02*
X11153634Y-14735484D01*
X11153634Y-14735484D02*
X11163158Y-14716436D01*
X11163158Y-14716436D02*
X11172682Y-14706913D01*
X11172682Y-14706913D02*
X11191729Y-14697389D01*
X11344110Y-14878341D02*
X11353634Y-14887865D01*
X11353634Y-14887865D02*
X11344110Y-14897389D01*
X11344110Y-14897389D02*
X11334586Y-14887865D01*
X11334586Y-14887865D02*
X11344110Y-14878341D01*
X11344110Y-14878341D02*
X11344110Y-14897389D01*
X11477443Y-14697389D02*
X11496491Y-14697389D01*
X11496491Y-14697389D02*
X11515539Y-14706913D01*
X11515539Y-14706913D02*
X11525062Y-14716436D01*
X11525062Y-14716436D02*
X11534586Y-14735484D01*
X11534586Y-14735484D02*
X11544110Y-14773579D01*
X11544110Y-14773579D02*
X11544110Y-14821198D01*
X11544110Y-14821198D02*
X11534586Y-14859293D01*
X11534586Y-14859293D02*
X11525062Y-14878341D01*
X11525062Y-14878341D02*
X11515539Y-14887865D01*
X11515539Y-14887865D02*
X11496491Y-14897389D01*
X11496491Y-14897389D02*
X11477443Y-14897389D01*
X11477443Y-14897389D02*
X11458396Y-14887865D01*
X11458396Y-14887865D02*
X11448872Y-14878341D01*
X11448872Y-14878341D02*
X11439348Y-14859293D01*
X11439348Y-14859293D02*
X11429824Y-14821198D01*
X11429824Y-14821198D02*
X11429824Y-14773579D01*
X11429824Y-14773579D02*
X11439348Y-14735484D01*
X11439348Y-14735484D02*
X11448872Y-14716436D01*
X11448872Y-14716436D02*
X11458396Y-14706913D01*
X11458396Y-14706913D02*
X11477443Y-14697389D01*
X11715539Y-14764055D02*
X11715539Y-14897389D01*
X11667920Y-14687865D02*
X11620301Y-14830722D01*
X11620301Y-14830722D02*
X11744110Y-14830722D01*
X11810777Y-14716436D02*
X11820301Y-14706913D01*
X11820301Y-14706913D02*
X11839348Y-14697389D01*
X11839348Y-14697389D02*
X11886967Y-14697389D01*
X11886967Y-14697389D02*
X11906015Y-14706913D01*
X11906015Y-14706913D02*
X11915539Y-14716436D01*
X11915539Y-14716436D02*
X11925062Y-14735484D01*
X11925062Y-14735484D02*
X11925062Y-14754532D01*
X11925062Y-14754532D02*
X11915539Y-14783103D01*
X11915539Y-14783103D02*
X11801253Y-14897389D01*
X11801253Y-14897389D02*
X11925062Y-14897389D01*
X12115539Y-14897389D02*
X12001253Y-14897389D01*
X12058396Y-14897389D02*
X12058396Y-14697389D01*
X12058396Y-14697389D02*
X12039348Y-14725960D01*
X12039348Y-14725960D02*
X12020301Y-14745008D01*
X12020301Y-14745008D02*
X12001253Y-14754532D01*
X12191729Y-14697389D02*
X12191729Y-14735484D01*
X12267920Y-14697389D02*
X12267920Y-14735484D01*
X12563158Y-14973579D02*
X12553634Y-14964055D01*
X12553634Y-14964055D02*
X12534586Y-14935484D01*
X12534586Y-14935484D02*
X12525063Y-14916436D01*
X12525063Y-14916436D02*
X12515539Y-14887865D01*
X12515539Y-14887865D02*
X12506015Y-14840246D01*
X12506015Y-14840246D02*
X12506015Y-14802151D01*
X12506015Y-14802151D02*
X12515539Y-14754532D01*
X12515539Y-14754532D02*
X12525063Y-14725960D01*
X12525063Y-14725960D02*
X12534586Y-14706913D01*
X12534586Y-14706913D02*
X12553634Y-14678341D01*
X12553634Y-14678341D02*
X12563158Y-14668817D01*
X12725063Y-14764055D02*
X12725063Y-14897389D01*
X12677443Y-14687865D02*
X12629824Y-14830722D01*
X12629824Y-14830722D02*
X12753634Y-14830722D01*
X12982205Y-14897389D02*
X12982205Y-14697389D01*
X13067920Y-14897389D02*
X13067920Y-14792627D01*
X13067920Y-14792627D02*
X13058396Y-14773579D01*
X13058396Y-14773579D02*
X13039348Y-14764055D01*
X13039348Y-14764055D02*
X13010777Y-14764055D01*
X13010777Y-14764055D02*
X12991729Y-14773579D01*
X12991729Y-14773579D02*
X12982205Y-14783103D01*
X13191729Y-14897389D02*
X13172682Y-14887865D01*
X13172682Y-14887865D02*
X13163158Y-14878341D01*
X13163158Y-14878341D02*
X13153634Y-14859293D01*
X13153634Y-14859293D02*
X13153634Y-14802151D01*
X13153634Y-14802151D02*
X13163158Y-14783103D01*
X13163158Y-14783103D02*
X13172682Y-14773579D01*
X13172682Y-14773579D02*
X13191729Y-14764055D01*
X13191729Y-14764055D02*
X13220301Y-14764055D01*
X13220301Y-14764055D02*
X13239348Y-14773579D01*
X13239348Y-14773579D02*
X13248872Y-14783103D01*
X13248872Y-14783103D02*
X13258396Y-14802151D01*
X13258396Y-14802151D02*
X13258396Y-14859293D01*
X13258396Y-14859293D02*
X13248872Y-14878341D01*
X13248872Y-14878341D02*
X13239348Y-14887865D01*
X13239348Y-14887865D02*
X13220301Y-14897389D01*
X13220301Y-14897389D02*
X13191729Y-14897389D01*
X13372682Y-14897389D02*
X13353634Y-14887865D01*
X13353634Y-14887865D02*
X13344110Y-14868817D01*
X13344110Y-14868817D02*
X13344110Y-14697389D01*
X13525063Y-14887865D02*
X13506015Y-14897389D01*
X13506015Y-14897389D02*
X13467920Y-14897389D01*
X13467920Y-14897389D02*
X13448872Y-14887865D01*
X13448872Y-14887865D02*
X13439348Y-14868817D01*
X13439348Y-14868817D02*
X13439348Y-14792627D01*
X13439348Y-14792627D02*
X13448872Y-14773579D01*
X13448872Y-14773579D02*
X13467920Y-14764055D01*
X13467920Y-14764055D02*
X13506015Y-14764055D01*
X13506015Y-14764055D02*
X13525063Y-14773579D01*
X13525063Y-14773579D02*
X13534586Y-14792627D01*
X13534586Y-14792627D02*
X13534586Y-14811674D01*
X13534586Y-14811674D02*
X13439348Y-14830722D01*
X13610777Y-14887865D02*
X13629825Y-14897389D01*
X13629825Y-14897389D02*
X13667920Y-14897389D01*
X13667920Y-14897389D02*
X13686967Y-14887865D01*
X13686967Y-14887865D02*
X13696491Y-14868817D01*
X13696491Y-14868817D02*
X13696491Y-14859293D01*
X13696491Y-14859293D02*
X13686967Y-14840246D01*
X13686967Y-14840246D02*
X13667920Y-14830722D01*
X13667920Y-14830722D02*
X13639348Y-14830722D01*
X13639348Y-14830722D02*
X13620301Y-14821198D01*
X13620301Y-14821198D02*
X13610777Y-14802151D01*
X13610777Y-14802151D02*
X13610777Y-14792627D01*
X13610777Y-14792627D02*
X13620301Y-14773579D01*
X13620301Y-14773579D02*
X13639348Y-14764055D01*
X13639348Y-14764055D02*
X13667920Y-14764055D01*
X13667920Y-14764055D02*
X13686967Y-14773579D01*
X13763158Y-14973579D02*
X13772682Y-14964055D01*
X13772682Y-14964055D02*
X13791729Y-14935484D01*
X13791729Y-14935484D02*
X13801253Y-14916436D01*
X13801253Y-14916436D02*
X13810777Y-14887865D01*
X13810777Y-14887865D02*
X13820301Y-14840246D01*
X13820301Y-14840246D02*
X13820301Y-14802151D01*
X13820301Y-14802151D02*
X13810777Y-14754532D01*
X13810777Y-14754532D02*
X13801253Y-14725960D01*
X13801253Y-14725960D02*
X13791729Y-14706913D01*
X13791729Y-14706913D02*
X13772682Y-14678341D01*
X13772682Y-14678341D02*
X13763158Y-14668817D01*
D14*
X8923095Y-15004905D02*
X8923095Y-15134905D01*
X8858095Y-15069905D02*
X8988095Y-15069905D01*
D11*
X9353634Y-15161389D02*
X9239348Y-15161389D01*
X9296491Y-15161389D02*
X9296491Y-14961389D01*
X9296491Y-14961389D02*
X9277443Y-14989960D01*
X9277443Y-14989960D02*
X9258396Y-15009008D01*
X9258396Y-15009008D02*
X9239348Y-15018532D01*
X9439348Y-15142341D02*
X9448872Y-15151865D01*
X9448872Y-15151865D02*
X9439348Y-15161389D01*
X9439348Y-15161389D02*
X9429824Y-15151865D01*
X9429824Y-15151865D02*
X9439348Y-15142341D01*
X9439348Y-15142341D02*
X9439348Y-15161389D01*
X9515539Y-14961389D02*
X9639348Y-14961389D01*
X9639348Y-14961389D02*
X9572681Y-15037579D01*
X9572681Y-15037579D02*
X9601253Y-15037579D01*
X9601253Y-15037579D02*
X9620300Y-15047103D01*
X9620300Y-15047103D02*
X9629824Y-15056627D01*
X9629824Y-15056627D02*
X9639348Y-15075674D01*
X9639348Y-15075674D02*
X9639348Y-15123293D01*
X9639348Y-15123293D02*
X9629824Y-15142341D01*
X9629824Y-15142341D02*
X9620300Y-15151865D01*
X9620300Y-15151865D02*
X9601253Y-15161389D01*
X9601253Y-15161389D02*
X9544110Y-15161389D01*
X9544110Y-15161389D02*
X9525062Y-15151865D01*
X9525062Y-15151865D02*
X9515539Y-15142341D01*
X9763158Y-14961389D02*
X9782205Y-14961389D01*
X9782205Y-14961389D02*
X9801253Y-14970913D01*
X9801253Y-14970913D02*
X9810777Y-14980436D01*
X9810777Y-14980436D02*
X9820300Y-14999484D01*
X9820300Y-14999484D02*
X9829824Y-15037579D01*
X9829824Y-15037579D02*
X9829824Y-15085198D01*
X9829824Y-15085198D02*
X9820300Y-15123293D01*
X9820300Y-15123293D02*
X9810777Y-15142341D01*
X9810777Y-15142341D02*
X9801253Y-15151865D01*
X9801253Y-15151865D02*
X9782205Y-15161389D01*
X9782205Y-15161389D02*
X9763158Y-15161389D01*
X9763158Y-15161389D02*
X9744110Y-15151865D01*
X9744110Y-15151865D02*
X9734586Y-15142341D01*
X9734586Y-15142341D02*
X9725062Y-15123293D01*
X9725062Y-15123293D02*
X9715539Y-15085198D01*
X9715539Y-15085198D02*
X9715539Y-15037579D01*
X9715539Y-15037579D02*
X9725062Y-14999484D01*
X9725062Y-14999484D02*
X9734586Y-14980436D01*
X9734586Y-14980436D02*
X9744110Y-14970913D01*
X9744110Y-14970913D02*
X9763158Y-14961389D01*
X9953634Y-14961389D02*
X9972681Y-14961389D01*
X9972681Y-14961389D02*
X9991729Y-14970913D01*
X9991729Y-14970913D02*
X10001253Y-14980436D01*
X10001253Y-14980436D02*
X10010777Y-14999484D01*
X10010777Y-14999484D02*
X10020300Y-15037579D01*
X10020300Y-15037579D02*
X10020300Y-15085198D01*
X10020300Y-15085198D02*
X10010777Y-15123293D01*
X10010777Y-15123293D02*
X10001253Y-15142341D01*
X10001253Y-15142341D02*
X9991729Y-15151865D01*
X9991729Y-15151865D02*
X9972681Y-15161389D01*
X9972681Y-15161389D02*
X9953634Y-15161389D01*
X9953634Y-15161389D02*
X9934586Y-15151865D01*
X9934586Y-15151865D02*
X9925062Y-15142341D01*
X9925062Y-15142341D02*
X9915539Y-15123293D01*
X9915539Y-15123293D02*
X9906015Y-15085198D01*
X9906015Y-15085198D02*
X9906015Y-15037579D01*
X9906015Y-15037579D02*
X9915539Y-14999484D01*
X9915539Y-14999484D02*
X9925062Y-14980436D01*
X9925062Y-14980436D02*
X9934586Y-14970913D01*
X9934586Y-14970913D02*
X9953634Y-14961389D01*
X10106015Y-15161389D02*
X10106015Y-15028055D01*
X10106015Y-15047103D02*
X10115539Y-15037579D01*
X10115539Y-15037579D02*
X10134586Y-15028055D01*
X10134586Y-15028055D02*
X10163158Y-15028055D01*
X10163158Y-15028055D02*
X10182205Y-15037579D01*
X10182205Y-15037579D02*
X10191729Y-15056627D01*
X10191729Y-15056627D02*
X10191729Y-15161389D01*
X10191729Y-15056627D02*
X10201253Y-15037579D01*
X10201253Y-15037579D02*
X10220300Y-15028055D01*
X10220300Y-15028055D02*
X10248872Y-15028055D01*
X10248872Y-15028055D02*
X10267920Y-15037579D01*
X10267920Y-15037579D02*
X10277443Y-15056627D01*
X10277443Y-15056627D02*
X10277443Y-15161389D01*
X10372681Y-15161389D02*
X10372681Y-15028055D01*
X10372681Y-15047103D02*
X10382205Y-15037579D01*
X10382205Y-15037579D02*
X10401253Y-15028055D01*
X10401253Y-15028055D02*
X10429824Y-15028055D01*
X10429824Y-15028055D02*
X10448872Y-15037579D01*
X10448872Y-15037579D02*
X10458396Y-15056627D01*
X10458396Y-15056627D02*
X10458396Y-15161389D01*
X10458396Y-15056627D02*
X10467920Y-15037579D01*
X10467920Y-15037579D02*
X10486967Y-15028055D01*
X10486967Y-15028055D02*
X10515539Y-15028055D01*
X10515539Y-15028055D02*
X10534586Y-15037579D01*
X10534586Y-15037579D02*
X10544110Y-15056627D01*
X10544110Y-15056627D02*
X10544110Y-15161389D01*
X10934586Y-14951865D02*
X10763158Y-15209008D01*
X11191729Y-14961389D02*
X11210777Y-14961389D01*
X11210777Y-14961389D02*
X11229824Y-14970913D01*
X11229824Y-14970913D02*
X11239348Y-14980436D01*
X11239348Y-14980436D02*
X11248872Y-14999484D01*
X11248872Y-14999484D02*
X11258396Y-15037579D01*
X11258396Y-15037579D02*
X11258396Y-15085198D01*
X11258396Y-15085198D02*
X11248872Y-15123293D01*
X11248872Y-15123293D02*
X11239348Y-15142341D01*
X11239348Y-15142341D02*
X11229824Y-15151865D01*
X11229824Y-15151865D02*
X11210777Y-15161389D01*
X11210777Y-15161389D02*
X11191729Y-15161389D01*
X11191729Y-15161389D02*
X11172682Y-15151865D01*
X11172682Y-15151865D02*
X11163158Y-15142341D01*
X11163158Y-15142341D02*
X11153634Y-15123293D01*
X11153634Y-15123293D02*
X11144110Y-15085198D01*
X11144110Y-15085198D02*
X11144110Y-15037579D01*
X11144110Y-15037579D02*
X11153634Y-14999484D01*
X11153634Y-14999484D02*
X11163158Y-14980436D01*
X11163158Y-14980436D02*
X11172682Y-14970913D01*
X11172682Y-14970913D02*
X11191729Y-14961389D01*
X11344110Y-15142341D02*
X11353634Y-15151865D01*
X11353634Y-15151865D02*
X11344110Y-15161389D01*
X11344110Y-15161389D02*
X11334586Y-15151865D01*
X11334586Y-15151865D02*
X11344110Y-15142341D01*
X11344110Y-15142341D02*
X11344110Y-15161389D01*
X11477443Y-14961389D02*
X11496491Y-14961389D01*
X11496491Y-14961389D02*
X11515539Y-14970913D01*
X11515539Y-14970913D02*
X11525062Y-14980436D01*
X11525062Y-14980436D02*
X11534586Y-14999484D01*
X11534586Y-14999484D02*
X11544110Y-15037579D01*
X11544110Y-15037579D02*
X11544110Y-15085198D01*
X11544110Y-15085198D02*
X11534586Y-15123293D01*
X11534586Y-15123293D02*
X11525062Y-15142341D01*
X11525062Y-15142341D02*
X11515539Y-15151865D01*
X11515539Y-15151865D02*
X11496491Y-15161389D01*
X11496491Y-15161389D02*
X11477443Y-15161389D01*
X11477443Y-15161389D02*
X11458396Y-15151865D01*
X11458396Y-15151865D02*
X11448872Y-15142341D01*
X11448872Y-15142341D02*
X11439348Y-15123293D01*
X11439348Y-15123293D02*
X11429824Y-15085198D01*
X11429824Y-15085198D02*
X11429824Y-15037579D01*
X11429824Y-15037579D02*
X11439348Y-14999484D01*
X11439348Y-14999484D02*
X11448872Y-14980436D01*
X11448872Y-14980436D02*
X11458396Y-14970913D01*
X11458396Y-14970913D02*
X11477443Y-14961389D01*
X11725062Y-14961389D02*
X11629824Y-14961389D01*
X11629824Y-14961389D02*
X11620301Y-15056627D01*
X11620301Y-15056627D02*
X11629824Y-15047103D01*
X11629824Y-15047103D02*
X11648872Y-15037579D01*
X11648872Y-15037579D02*
X11696491Y-15037579D01*
X11696491Y-15037579D02*
X11715539Y-15047103D01*
X11715539Y-15047103D02*
X11725062Y-15056627D01*
X11725062Y-15056627D02*
X11734586Y-15075674D01*
X11734586Y-15075674D02*
X11734586Y-15123293D01*
X11734586Y-15123293D02*
X11725062Y-15142341D01*
X11725062Y-15142341D02*
X11715539Y-15151865D01*
X11715539Y-15151865D02*
X11696491Y-15161389D01*
X11696491Y-15161389D02*
X11648872Y-15161389D01*
X11648872Y-15161389D02*
X11629824Y-15151865D01*
X11629824Y-15151865D02*
X11620301Y-15142341D01*
X11925062Y-15161389D02*
X11810777Y-15161389D01*
X11867920Y-15161389D02*
X11867920Y-14961389D01*
X11867920Y-14961389D02*
X11848872Y-14989960D01*
X11848872Y-14989960D02*
X11829824Y-15009008D01*
X11829824Y-15009008D02*
X11810777Y-15018532D01*
X12001253Y-14980436D02*
X12010777Y-14970913D01*
X12010777Y-14970913D02*
X12029824Y-14961389D01*
X12029824Y-14961389D02*
X12077443Y-14961389D01*
X12077443Y-14961389D02*
X12096491Y-14970913D01*
X12096491Y-14970913D02*
X12106015Y-14980436D01*
X12106015Y-14980436D02*
X12115539Y-14999484D01*
X12115539Y-14999484D02*
X12115539Y-15018532D01*
X12115539Y-15018532D02*
X12106015Y-15047103D01*
X12106015Y-15047103D02*
X11991729Y-15161389D01*
X11991729Y-15161389D02*
X12115539Y-15161389D01*
X12191729Y-14961389D02*
X12191729Y-14999484D01*
X12267920Y-14961389D02*
X12267920Y-14999484D01*
X12563158Y-15237579D02*
X12553634Y-15228055D01*
X12553634Y-15228055D02*
X12534586Y-15199484D01*
X12534586Y-15199484D02*
X12525063Y-15180436D01*
X12525063Y-15180436D02*
X12515539Y-15151865D01*
X12515539Y-15151865D02*
X12506015Y-15104246D01*
X12506015Y-15104246D02*
X12506015Y-15066151D01*
X12506015Y-15066151D02*
X12515539Y-15018532D01*
X12515539Y-15018532D02*
X12525063Y-14989960D01*
X12525063Y-14989960D02*
X12534586Y-14970913D01*
X12534586Y-14970913D02*
X12553634Y-14942341D01*
X12553634Y-14942341D02*
X12563158Y-14932817D01*
X12620301Y-14961389D02*
X12744110Y-14961389D01*
X12744110Y-14961389D02*
X12677443Y-15037579D01*
X12677443Y-15037579D02*
X12706015Y-15037579D01*
X12706015Y-15037579D02*
X12725063Y-15047103D01*
X12725063Y-15047103D02*
X12734586Y-15056627D01*
X12734586Y-15056627D02*
X12744110Y-15075674D01*
X12744110Y-15075674D02*
X12744110Y-15123293D01*
X12744110Y-15123293D02*
X12734586Y-15142341D01*
X12734586Y-15142341D02*
X12725063Y-15151865D01*
X12725063Y-15151865D02*
X12706015Y-15161389D01*
X12706015Y-15161389D02*
X12648872Y-15161389D01*
X12648872Y-15161389D02*
X12629824Y-15151865D01*
X12629824Y-15151865D02*
X12620301Y-15142341D01*
X12820301Y-14980436D02*
X12829824Y-14970913D01*
X12829824Y-14970913D02*
X12848872Y-14961389D01*
X12848872Y-14961389D02*
X12896491Y-14961389D01*
X12896491Y-14961389D02*
X12915539Y-14970913D01*
X12915539Y-14970913D02*
X12925063Y-14980436D01*
X12925063Y-14980436D02*
X12934586Y-14999484D01*
X12934586Y-14999484D02*
X12934586Y-15018532D01*
X12934586Y-15018532D02*
X12925063Y-15047103D01*
X12925063Y-15047103D02*
X12810777Y-15161389D01*
X12810777Y-15161389D02*
X12934586Y-15161389D01*
X13172682Y-15161389D02*
X13172682Y-14961389D01*
X13258396Y-15161389D02*
X13258396Y-15056627D01*
X13258396Y-15056627D02*
X13248872Y-15037579D01*
X13248872Y-15037579D02*
X13229825Y-15028055D01*
X13229825Y-15028055D02*
X13201253Y-15028055D01*
X13201253Y-15028055D02*
X13182205Y-15037579D01*
X13182205Y-15037579D02*
X13172682Y-15047103D01*
X13382205Y-15161389D02*
X13363158Y-15151865D01*
X13363158Y-15151865D02*
X13353634Y-15142341D01*
X13353634Y-15142341D02*
X13344110Y-15123293D01*
X13344110Y-15123293D02*
X13344110Y-15066151D01*
X13344110Y-15066151D02*
X13353634Y-15047103D01*
X13353634Y-15047103D02*
X13363158Y-15037579D01*
X13363158Y-15037579D02*
X13382205Y-15028055D01*
X13382205Y-15028055D02*
X13410777Y-15028055D01*
X13410777Y-15028055D02*
X13429825Y-15037579D01*
X13429825Y-15037579D02*
X13439348Y-15047103D01*
X13439348Y-15047103D02*
X13448872Y-15066151D01*
X13448872Y-15066151D02*
X13448872Y-15123293D01*
X13448872Y-15123293D02*
X13439348Y-15142341D01*
X13439348Y-15142341D02*
X13429825Y-15151865D01*
X13429825Y-15151865D02*
X13410777Y-15161389D01*
X13410777Y-15161389D02*
X13382205Y-15161389D01*
X13563158Y-15161389D02*
X13544110Y-15151865D01*
X13544110Y-15151865D02*
X13534586Y-15132817D01*
X13534586Y-15132817D02*
X13534586Y-14961389D01*
X13715539Y-15151865D02*
X13696491Y-15161389D01*
X13696491Y-15161389D02*
X13658396Y-15161389D01*
X13658396Y-15161389D02*
X13639348Y-15151865D01*
X13639348Y-15151865D02*
X13629825Y-15132817D01*
X13629825Y-15132817D02*
X13629825Y-15056627D01*
X13629825Y-15056627D02*
X13639348Y-15037579D01*
X13639348Y-15037579D02*
X13658396Y-15028055D01*
X13658396Y-15028055D02*
X13696491Y-15028055D01*
X13696491Y-15028055D02*
X13715539Y-15037579D01*
X13715539Y-15037579D02*
X13725063Y-15056627D01*
X13725063Y-15056627D02*
X13725063Y-15075674D01*
X13725063Y-15075674D02*
X13629825Y-15094722D01*
X13801253Y-15151865D02*
X13820301Y-15161389D01*
X13820301Y-15161389D02*
X13858396Y-15161389D01*
X13858396Y-15161389D02*
X13877444Y-15151865D01*
X13877444Y-15151865D02*
X13886967Y-15132817D01*
X13886967Y-15132817D02*
X13886967Y-15123293D01*
X13886967Y-15123293D02*
X13877444Y-15104246D01*
X13877444Y-15104246D02*
X13858396Y-15094722D01*
X13858396Y-15094722D02*
X13829825Y-15094722D01*
X13829825Y-15094722D02*
X13810777Y-15085198D01*
X13810777Y-15085198D02*
X13801253Y-15066151D01*
X13801253Y-15066151D02*
X13801253Y-15056627D01*
X13801253Y-15056627D02*
X13810777Y-15037579D01*
X13810777Y-15037579D02*
X13829825Y-15028055D01*
X13829825Y-15028055D02*
X13858396Y-15028055D01*
X13858396Y-15028055D02*
X13877444Y-15037579D01*
X13953634Y-15237579D02*
X13963158Y-15228055D01*
X13963158Y-15228055D02*
X13982206Y-15199484D01*
X13982206Y-15199484D02*
X13991729Y-15180436D01*
X13991729Y-15180436D02*
X14001253Y-15151865D01*
X14001253Y-15151865D02*
X14010777Y-15104246D01*
X14010777Y-15104246D02*
X14010777Y-15066151D01*
X14010777Y-15066151D02*
X14001253Y-15018532D01*
X14001253Y-15018532D02*
X13991729Y-14989960D01*
X13991729Y-14989960D02*
X13982206Y-14970913D01*
X13982206Y-14970913D02*
X13963158Y-14942341D01*
X13963158Y-14942341D02*
X13953634Y-14932817D01*
D15*
X8960942Y-15399461D02*
X8960942Y-15268348D01*
X8829829Y-15268348D01*
X8829829Y-15399461D01*
X8960942Y-15399461D01*
D11*
X9353634Y-15425389D02*
X9239348Y-15425389D01*
X9296491Y-15425389D02*
X9296491Y-15225389D01*
X9296491Y-15225389D02*
X9277443Y-15253960D01*
X9277443Y-15253960D02*
X9258396Y-15273008D01*
X9258396Y-15273008D02*
X9239348Y-15282532D01*
X9439348Y-15406341D02*
X9448872Y-15415865D01*
X9448872Y-15415865D02*
X9439348Y-15425389D01*
X9439348Y-15425389D02*
X9429824Y-15415865D01*
X9429824Y-15415865D02*
X9439348Y-15406341D01*
X9439348Y-15406341D02*
X9439348Y-15425389D01*
X9563158Y-15311103D02*
X9544110Y-15301579D01*
X9544110Y-15301579D02*
X9534586Y-15292055D01*
X9534586Y-15292055D02*
X9525062Y-15273008D01*
X9525062Y-15273008D02*
X9525062Y-15263484D01*
X9525062Y-15263484D02*
X9534586Y-15244436D01*
X9534586Y-15244436D02*
X9544110Y-15234913D01*
X9544110Y-15234913D02*
X9563158Y-15225389D01*
X9563158Y-15225389D02*
X9601253Y-15225389D01*
X9601253Y-15225389D02*
X9620300Y-15234913D01*
X9620300Y-15234913D02*
X9629824Y-15244436D01*
X9629824Y-15244436D02*
X9639348Y-15263484D01*
X9639348Y-15263484D02*
X9639348Y-15273008D01*
X9639348Y-15273008D02*
X9629824Y-15292055D01*
X9629824Y-15292055D02*
X9620300Y-15301579D01*
X9620300Y-15301579D02*
X9601253Y-15311103D01*
X9601253Y-15311103D02*
X9563158Y-15311103D01*
X9563158Y-15311103D02*
X9544110Y-15320627D01*
X9544110Y-15320627D02*
X9534586Y-15330151D01*
X9534586Y-15330151D02*
X9525062Y-15349198D01*
X9525062Y-15349198D02*
X9525062Y-15387293D01*
X9525062Y-15387293D02*
X9534586Y-15406341D01*
X9534586Y-15406341D02*
X9544110Y-15415865D01*
X9544110Y-15415865D02*
X9563158Y-15425389D01*
X9563158Y-15425389D02*
X9601253Y-15425389D01*
X9601253Y-15425389D02*
X9620300Y-15415865D01*
X9620300Y-15415865D02*
X9629824Y-15406341D01*
X9629824Y-15406341D02*
X9639348Y-15387293D01*
X9639348Y-15387293D02*
X9639348Y-15349198D01*
X9639348Y-15349198D02*
X9629824Y-15330151D01*
X9629824Y-15330151D02*
X9620300Y-15320627D01*
X9620300Y-15320627D02*
X9601253Y-15311103D01*
X9820300Y-15225389D02*
X9725062Y-15225389D01*
X9725062Y-15225389D02*
X9715539Y-15320627D01*
X9715539Y-15320627D02*
X9725062Y-15311103D01*
X9725062Y-15311103D02*
X9744110Y-15301579D01*
X9744110Y-15301579D02*
X9791729Y-15301579D01*
X9791729Y-15301579D02*
X9810777Y-15311103D01*
X9810777Y-15311103D02*
X9820300Y-15320627D01*
X9820300Y-15320627D02*
X9829824Y-15339674D01*
X9829824Y-15339674D02*
X9829824Y-15387293D01*
X9829824Y-15387293D02*
X9820300Y-15406341D01*
X9820300Y-15406341D02*
X9810777Y-15415865D01*
X9810777Y-15415865D02*
X9791729Y-15425389D01*
X9791729Y-15425389D02*
X9744110Y-15425389D01*
X9744110Y-15425389D02*
X9725062Y-15415865D01*
X9725062Y-15415865D02*
X9715539Y-15406341D01*
X10001253Y-15292055D02*
X10001253Y-15425389D01*
X9953634Y-15215865D02*
X9906015Y-15358722D01*
X9906015Y-15358722D02*
X10029824Y-15358722D01*
X10106015Y-15425389D02*
X10106015Y-15292055D01*
X10106015Y-15311103D02*
X10115539Y-15301579D01*
X10115539Y-15301579D02*
X10134586Y-15292055D01*
X10134586Y-15292055D02*
X10163158Y-15292055D01*
X10163158Y-15292055D02*
X10182205Y-15301579D01*
X10182205Y-15301579D02*
X10191729Y-15320627D01*
X10191729Y-15320627D02*
X10191729Y-15425389D01*
X10191729Y-15320627D02*
X10201253Y-15301579D01*
X10201253Y-15301579D02*
X10220300Y-15292055D01*
X10220300Y-15292055D02*
X10248872Y-15292055D01*
X10248872Y-15292055D02*
X10267920Y-15301579D01*
X10267920Y-15301579D02*
X10277443Y-15320627D01*
X10277443Y-15320627D02*
X10277443Y-15425389D01*
X10372681Y-15425389D02*
X10372681Y-15292055D01*
X10372681Y-15311103D02*
X10382205Y-15301579D01*
X10382205Y-15301579D02*
X10401253Y-15292055D01*
X10401253Y-15292055D02*
X10429824Y-15292055D01*
X10429824Y-15292055D02*
X10448872Y-15301579D01*
X10448872Y-15301579D02*
X10458396Y-15320627D01*
X10458396Y-15320627D02*
X10458396Y-15425389D01*
X10458396Y-15320627D02*
X10467920Y-15301579D01*
X10467920Y-15301579D02*
X10486967Y-15292055D01*
X10486967Y-15292055D02*
X10515539Y-15292055D01*
X10515539Y-15292055D02*
X10534586Y-15301579D01*
X10534586Y-15301579D02*
X10544110Y-15320627D01*
X10544110Y-15320627D02*
X10544110Y-15425389D01*
X10934586Y-15215865D02*
X10763158Y-15473008D01*
X11191729Y-15225389D02*
X11210777Y-15225389D01*
X11210777Y-15225389D02*
X11229824Y-15234913D01*
X11229824Y-15234913D02*
X11239348Y-15244436D01*
X11239348Y-15244436D02*
X11248872Y-15263484D01*
X11248872Y-15263484D02*
X11258396Y-15301579D01*
X11258396Y-15301579D02*
X11258396Y-15349198D01*
X11258396Y-15349198D02*
X11248872Y-15387293D01*
X11248872Y-15387293D02*
X11239348Y-15406341D01*
X11239348Y-15406341D02*
X11229824Y-15415865D01*
X11229824Y-15415865D02*
X11210777Y-15425389D01*
X11210777Y-15425389D02*
X11191729Y-15425389D01*
X11191729Y-15425389D02*
X11172682Y-15415865D01*
X11172682Y-15415865D02*
X11163158Y-15406341D01*
X11163158Y-15406341D02*
X11153634Y-15387293D01*
X11153634Y-15387293D02*
X11144110Y-15349198D01*
X11144110Y-15349198D02*
X11144110Y-15301579D01*
X11144110Y-15301579D02*
X11153634Y-15263484D01*
X11153634Y-15263484D02*
X11163158Y-15244436D01*
X11163158Y-15244436D02*
X11172682Y-15234913D01*
X11172682Y-15234913D02*
X11191729Y-15225389D01*
X11344110Y-15406341D02*
X11353634Y-15415865D01*
X11353634Y-15415865D02*
X11344110Y-15425389D01*
X11344110Y-15425389D02*
X11334586Y-15415865D01*
X11334586Y-15415865D02*
X11344110Y-15406341D01*
X11344110Y-15406341D02*
X11344110Y-15425389D01*
X11477443Y-15225389D02*
X11496491Y-15225389D01*
X11496491Y-15225389D02*
X11515539Y-15234913D01*
X11515539Y-15234913D02*
X11525062Y-15244436D01*
X11525062Y-15244436D02*
X11534586Y-15263484D01*
X11534586Y-15263484D02*
X11544110Y-15301579D01*
X11544110Y-15301579D02*
X11544110Y-15349198D01*
X11544110Y-15349198D02*
X11534586Y-15387293D01*
X11534586Y-15387293D02*
X11525062Y-15406341D01*
X11525062Y-15406341D02*
X11515539Y-15415865D01*
X11515539Y-15415865D02*
X11496491Y-15425389D01*
X11496491Y-15425389D02*
X11477443Y-15425389D01*
X11477443Y-15425389D02*
X11458396Y-15415865D01*
X11458396Y-15415865D02*
X11448872Y-15406341D01*
X11448872Y-15406341D02*
X11439348Y-15387293D01*
X11439348Y-15387293D02*
X11429824Y-15349198D01*
X11429824Y-15349198D02*
X11429824Y-15301579D01*
X11429824Y-15301579D02*
X11439348Y-15263484D01*
X11439348Y-15263484D02*
X11448872Y-15244436D01*
X11448872Y-15244436D02*
X11458396Y-15234913D01*
X11458396Y-15234913D02*
X11477443Y-15225389D01*
X11610777Y-15225389D02*
X11744110Y-15225389D01*
X11744110Y-15225389D02*
X11658396Y-15425389D01*
X11801253Y-15225389D02*
X11925062Y-15225389D01*
X11925062Y-15225389D02*
X11858396Y-15301579D01*
X11858396Y-15301579D02*
X11886967Y-15301579D01*
X11886967Y-15301579D02*
X11906015Y-15311103D01*
X11906015Y-15311103D02*
X11915539Y-15320627D01*
X11915539Y-15320627D02*
X11925062Y-15339674D01*
X11925062Y-15339674D02*
X11925062Y-15387293D01*
X11925062Y-15387293D02*
X11915539Y-15406341D01*
X11915539Y-15406341D02*
X11906015Y-15415865D01*
X11906015Y-15415865D02*
X11886967Y-15425389D01*
X11886967Y-15425389D02*
X11829824Y-15425389D01*
X11829824Y-15425389D02*
X11810777Y-15415865D01*
X11810777Y-15415865D02*
X11801253Y-15406341D01*
X12048872Y-15225389D02*
X12067920Y-15225389D01*
X12067920Y-15225389D02*
X12086967Y-15234913D01*
X12086967Y-15234913D02*
X12096491Y-15244436D01*
X12096491Y-15244436D02*
X12106015Y-15263484D01*
X12106015Y-15263484D02*
X12115539Y-15301579D01*
X12115539Y-15301579D02*
X12115539Y-15349198D01*
X12115539Y-15349198D02*
X12106015Y-15387293D01*
X12106015Y-15387293D02*
X12096491Y-15406341D01*
X12096491Y-15406341D02*
X12086967Y-15415865D01*
X12086967Y-15415865D02*
X12067920Y-15425389D01*
X12067920Y-15425389D02*
X12048872Y-15425389D01*
X12048872Y-15425389D02*
X12029824Y-15415865D01*
X12029824Y-15415865D02*
X12020301Y-15406341D01*
X12020301Y-15406341D02*
X12010777Y-15387293D01*
X12010777Y-15387293D02*
X12001253Y-15349198D01*
X12001253Y-15349198D02*
X12001253Y-15301579D01*
X12001253Y-15301579D02*
X12010777Y-15263484D01*
X12010777Y-15263484D02*
X12020301Y-15244436D01*
X12020301Y-15244436D02*
X12029824Y-15234913D01*
X12029824Y-15234913D02*
X12048872Y-15225389D01*
X12191729Y-15225389D02*
X12191729Y-15263484D01*
X12267920Y-15225389D02*
X12267920Y-15263484D01*
X12563158Y-15501579D02*
X12553634Y-15492055D01*
X12553634Y-15492055D02*
X12534586Y-15463484D01*
X12534586Y-15463484D02*
X12525063Y-15444436D01*
X12525063Y-15444436D02*
X12515539Y-15415865D01*
X12515539Y-15415865D02*
X12506015Y-15368246D01*
X12506015Y-15368246D02*
X12506015Y-15330151D01*
X12506015Y-15330151D02*
X12515539Y-15282532D01*
X12515539Y-15282532D02*
X12525063Y-15253960D01*
X12525063Y-15253960D02*
X12534586Y-15234913D01*
X12534586Y-15234913D02*
X12553634Y-15206341D01*
X12553634Y-15206341D02*
X12563158Y-15196817D01*
X12629824Y-15244436D02*
X12639348Y-15234913D01*
X12639348Y-15234913D02*
X12658396Y-15225389D01*
X12658396Y-15225389D02*
X12706015Y-15225389D01*
X12706015Y-15225389D02*
X12725063Y-15234913D01*
X12725063Y-15234913D02*
X12734586Y-15244436D01*
X12734586Y-15244436D02*
X12744110Y-15263484D01*
X12744110Y-15263484D02*
X12744110Y-15282532D01*
X12744110Y-15282532D02*
X12734586Y-15311103D01*
X12734586Y-15311103D02*
X12620301Y-15425389D01*
X12620301Y-15425389D02*
X12744110Y-15425389D01*
X12982205Y-15425389D02*
X12982205Y-15225389D01*
X13067920Y-15425389D02*
X13067920Y-15320627D01*
X13067920Y-15320627D02*
X13058396Y-15301579D01*
X13058396Y-15301579D02*
X13039348Y-15292055D01*
X13039348Y-15292055D02*
X13010777Y-15292055D01*
X13010777Y-15292055D02*
X12991729Y-15301579D01*
X12991729Y-15301579D02*
X12982205Y-15311103D01*
X13191729Y-15425389D02*
X13172682Y-15415865D01*
X13172682Y-15415865D02*
X13163158Y-15406341D01*
X13163158Y-15406341D02*
X13153634Y-15387293D01*
X13153634Y-15387293D02*
X13153634Y-15330151D01*
X13153634Y-15330151D02*
X13163158Y-15311103D01*
X13163158Y-15311103D02*
X13172682Y-15301579D01*
X13172682Y-15301579D02*
X13191729Y-15292055D01*
X13191729Y-15292055D02*
X13220301Y-15292055D01*
X13220301Y-15292055D02*
X13239348Y-15301579D01*
X13239348Y-15301579D02*
X13248872Y-15311103D01*
X13248872Y-15311103D02*
X13258396Y-15330151D01*
X13258396Y-15330151D02*
X13258396Y-15387293D01*
X13258396Y-15387293D02*
X13248872Y-15406341D01*
X13248872Y-15406341D02*
X13239348Y-15415865D01*
X13239348Y-15415865D02*
X13220301Y-15425389D01*
X13220301Y-15425389D02*
X13191729Y-15425389D01*
X13372682Y-15425389D02*
X13353634Y-15415865D01*
X13353634Y-15415865D02*
X13344110Y-15396817D01*
X13344110Y-15396817D02*
X13344110Y-15225389D01*
X13525063Y-15415865D02*
X13506015Y-15425389D01*
X13506015Y-15425389D02*
X13467920Y-15425389D01*
X13467920Y-15425389D02*
X13448872Y-15415865D01*
X13448872Y-15415865D02*
X13439348Y-15396817D01*
X13439348Y-15396817D02*
X13439348Y-15320627D01*
X13439348Y-15320627D02*
X13448872Y-15301579D01*
X13448872Y-15301579D02*
X13467920Y-15292055D01*
X13467920Y-15292055D02*
X13506015Y-15292055D01*
X13506015Y-15292055D02*
X13525063Y-15301579D01*
X13525063Y-15301579D02*
X13534586Y-15320627D01*
X13534586Y-15320627D02*
X13534586Y-15339674D01*
X13534586Y-15339674D02*
X13439348Y-15358722D01*
X13610777Y-15415865D02*
X13629825Y-15425389D01*
X13629825Y-15425389D02*
X13667920Y-15425389D01*
X13667920Y-15425389D02*
X13686967Y-15415865D01*
X13686967Y-15415865D02*
X13696491Y-15396817D01*
X13696491Y-15396817D02*
X13696491Y-15387293D01*
X13696491Y-15387293D02*
X13686967Y-15368246D01*
X13686967Y-15368246D02*
X13667920Y-15358722D01*
X13667920Y-15358722D02*
X13639348Y-15358722D01*
X13639348Y-15358722D02*
X13620301Y-15349198D01*
X13620301Y-15349198D02*
X13610777Y-15330151D01*
X13610777Y-15330151D02*
X13610777Y-15320627D01*
X13610777Y-15320627D02*
X13620301Y-15301579D01*
X13620301Y-15301579D02*
X13639348Y-15292055D01*
X13639348Y-15292055D02*
X13667920Y-15292055D01*
X13667920Y-15292055D02*
X13686967Y-15301579D01*
X13763158Y-15501579D02*
X13772682Y-15492055D01*
X13772682Y-15492055D02*
X13791729Y-15463484D01*
X13791729Y-15463484D02*
X13801253Y-15444436D01*
X13801253Y-15444436D02*
X13810777Y-15415865D01*
X13810777Y-15415865D02*
X13820301Y-15368246D01*
X13820301Y-15368246D02*
X13820301Y-15330151D01*
X13820301Y-15330151D02*
X13810777Y-15282532D01*
X13810777Y-15282532D02*
X13801253Y-15253960D01*
X13801253Y-15253960D02*
X13791729Y-15234913D01*
X13791729Y-15234913D02*
X13772682Y-15206341D01*
X13772682Y-15206341D02*
X13763158Y-15196817D01*
M02*
