%TF.GenerationSoftware,KiCad,Pcbnew,9.0.3*%
%TF.CreationDate,2025-08-14T10:35:20-07:00*%
%TF.ProjectId,PD Board,50442042-6f61-4726-942e-6b696361645f,rev?*%
%TF.SameCoordinates,Original*%
%TF.FileFunction,Drillmap*%
%TF.FilePolarity,Positive*%
%FSLAX45Y45*%
G04 Gerber Fmt 4.5, Leading zero omitted, Abs format (unit mm)*
G04 Created by KiCad (PCBNEW 9.0.3) date 2025-08-14 10:35:20*
%MOMM*%
%LPD*%
G01*
G04 APERTURE LIST*
%ADD10C,0.038100*%
%ADD11C,0.200000*%
%ADD12C,0.102000*%
%ADD13C,0.250000*%
%ADD14C,0.304800*%
G04 APERTURE END LIST*
D10*
X17000000Y-13690000D02*
G75*
G02*
X16790000Y-13900000I-210000J0D01*
G01*
X9200000Y-9300000D02*
X16790000Y-9300000D01*
X16790000Y-9300000D02*
G75*
G02*
X17000000Y-9510000I0J-210000D01*
G01*
X16790000Y-13900000D02*
X9200000Y-13900000D01*
X17000000Y-9510000D02*
X17000000Y-13690000D01*
X8990000Y-9510000D02*
G75*
G02*
X9200000Y-9300000I210000J0D01*
G01*
X8990000Y-13690000D02*
X8990000Y-9510000D01*
X9200000Y-13900000D02*
G75*
G02*
X8990000Y-13690000I0J210000D01*
G01*
D11*
D12*
X9665000Y-10673000D02*
X9767000Y-10775000D01*
X9767000Y-10673000D02*
X9665000Y-10775000D01*
D13*
X9395000Y-9580000D02*
G75*
G02*
X9145000Y-9580000I-125000J0D01*
G01*
X9145000Y-9580000D02*
G75*
G02*
X9395000Y-9580000I125000J0D01*
G01*
X9395000Y-13620000D02*
G75*
G02*
X9145000Y-13620000I-125000J0D01*
G01*
X9145000Y-13620000D02*
G75*
G02*
X9395000Y-13620000I125000J0D01*
G01*
X16845000Y-9580000D02*
G75*
G02*
X16595000Y-9580000I-125000J0D01*
G01*
X16595000Y-9580000D02*
G75*
G02*
X16845000Y-9580000I125000J0D01*
G01*
X16845000Y-13620000D02*
G75*
G02*
X16595000Y-13620000I-125000J0D01*
G01*
X16595000Y-13620000D02*
G75*
G02*
X16845000Y-13620000I125000J0D01*
G01*
D14*
X9334890Y-12044260D02*
X9334890Y-12349060D01*
X9182490Y-12196660D02*
X9487290Y-12196660D01*
D11*
X9248872Y-14213389D02*
X9248872Y-14013389D01*
X9248872Y-14013389D02*
X9296491Y-14013389D01*
X9296491Y-14013389D02*
X9325062Y-14022913D01*
X9325062Y-14022913D02*
X9344110Y-14041960D01*
X9344110Y-14041960D02*
X9353634Y-14061008D01*
X9353634Y-14061008D02*
X9363158Y-14099103D01*
X9363158Y-14099103D02*
X9363158Y-14127674D01*
X9363158Y-14127674D02*
X9353634Y-14165770D01*
X9353634Y-14165770D02*
X9344110Y-14184817D01*
X9344110Y-14184817D02*
X9325062Y-14203865D01*
X9325062Y-14203865D02*
X9296491Y-14213389D01*
X9296491Y-14213389D02*
X9248872Y-14213389D01*
X9448872Y-14213389D02*
X9448872Y-14080055D01*
X9448872Y-14118151D02*
X9458396Y-14099103D01*
X9458396Y-14099103D02*
X9467919Y-14089579D01*
X9467919Y-14089579D02*
X9486967Y-14080055D01*
X9486967Y-14080055D02*
X9506015Y-14080055D01*
X9572681Y-14213389D02*
X9572681Y-14080055D01*
X9572681Y-14013389D02*
X9563158Y-14022913D01*
X9563158Y-14022913D02*
X9572681Y-14032436D01*
X9572681Y-14032436D02*
X9582205Y-14022913D01*
X9582205Y-14022913D02*
X9572681Y-14013389D01*
X9572681Y-14013389D02*
X9572681Y-14032436D01*
X9696491Y-14213389D02*
X9677443Y-14203865D01*
X9677443Y-14203865D02*
X9667919Y-14184817D01*
X9667919Y-14184817D02*
X9667919Y-14013389D01*
X9801253Y-14213389D02*
X9782205Y-14203865D01*
X9782205Y-14203865D02*
X9772681Y-14184817D01*
X9772681Y-14184817D02*
X9772681Y-14013389D01*
X10029824Y-14213389D02*
X10029824Y-14013389D01*
X10029824Y-14013389D02*
X10096491Y-14156246D01*
X10096491Y-14156246D02*
X10163158Y-14013389D01*
X10163158Y-14013389D02*
X10163158Y-14213389D01*
X10344110Y-14213389D02*
X10344110Y-14108627D01*
X10344110Y-14108627D02*
X10334586Y-14089579D01*
X10334586Y-14089579D02*
X10315539Y-14080055D01*
X10315539Y-14080055D02*
X10277443Y-14080055D01*
X10277443Y-14080055D02*
X10258396Y-14089579D01*
X10344110Y-14203865D02*
X10325062Y-14213389D01*
X10325062Y-14213389D02*
X10277443Y-14213389D01*
X10277443Y-14213389D02*
X10258396Y-14203865D01*
X10258396Y-14203865D02*
X10248872Y-14184817D01*
X10248872Y-14184817D02*
X10248872Y-14165770D01*
X10248872Y-14165770D02*
X10258396Y-14146722D01*
X10258396Y-14146722D02*
X10277443Y-14137198D01*
X10277443Y-14137198D02*
X10325062Y-14137198D01*
X10325062Y-14137198D02*
X10344110Y-14127674D01*
X10439348Y-14080055D02*
X10439348Y-14280055D01*
X10439348Y-14089579D02*
X10458396Y-14080055D01*
X10458396Y-14080055D02*
X10496491Y-14080055D01*
X10496491Y-14080055D02*
X10515539Y-14089579D01*
X10515539Y-14089579D02*
X10525062Y-14099103D01*
X10525062Y-14099103D02*
X10534586Y-14118151D01*
X10534586Y-14118151D02*
X10534586Y-14175293D01*
X10534586Y-14175293D02*
X10525062Y-14194341D01*
X10525062Y-14194341D02*
X10515539Y-14203865D01*
X10515539Y-14203865D02*
X10496491Y-14213389D01*
X10496491Y-14213389D02*
X10458396Y-14213389D01*
X10458396Y-14213389D02*
X10439348Y-14203865D01*
X10620300Y-14194341D02*
X10629824Y-14203865D01*
X10629824Y-14203865D02*
X10620300Y-14213389D01*
X10620300Y-14213389D02*
X10610777Y-14203865D01*
X10610777Y-14203865D02*
X10620300Y-14194341D01*
X10620300Y-14194341D02*
X10620300Y-14213389D01*
X10620300Y-14089579D02*
X10629824Y-14099103D01*
X10629824Y-14099103D02*
X10620300Y-14108627D01*
X10620300Y-14108627D02*
X10610777Y-14099103D01*
X10610777Y-14099103D02*
X10620300Y-14089579D01*
X10620300Y-14089579D02*
X10620300Y-14108627D01*
D12*
X8886095Y-14490905D02*
X8988095Y-14592905D01*
X8988095Y-14490905D02*
X8886095Y-14592905D01*
D11*
X9353634Y-14633389D02*
X9239348Y-14633389D01*
X9296491Y-14633389D02*
X9296491Y-14433389D01*
X9296491Y-14433389D02*
X9277443Y-14461960D01*
X9277443Y-14461960D02*
X9258396Y-14481008D01*
X9258396Y-14481008D02*
X9239348Y-14490532D01*
X9439348Y-14614341D02*
X9448872Y-14623865D01*
X9448872Y-14623865D02*
X9439348Y-14633389D01*
X9439348Y-14633389D02*
X9429824Y-14623865D01*
X9429824Y-14623865D02*
X9439348Y-14614341D01*
X9439348Y-14614341D02*
X9439348Y-14633389D01*
X9572681Y-14433389D02*
X9591729Y-14433389D01*
X9591729Y-14433389D02*
X9610777Y-14442913D01*
X9610777Y-14442913D02*
X9620300Y-14452436D01*
X9620300Y-14452436D02*
X9629824Y-14471484D01*
X9629824Y-14471484D02*
X9639348Y-14509579D01*
X9639348Y-14509579D02*
X9639348Y-14557198D01*
X9639348Y-14557198D02*
X9629824Y-14595293D01*
X9629824Y-14595293D02*
X9620300Y-14614341D01*
X9620300Y-14614341D02*
X9610777Y-14623865D01*
X9610777Y-14623865D02*
X9591729Y-14633389D01*
X9591729Y-14633389D02*
X9572681Y-14633389D01*
X9572681Y-14633389D02*
X9553634Y-14623865D01*
X9553634Y-14623865D02*
X9544110Y-14614341D01*
X9544110Y-14614341D02*
X9534586Y-14595293D01*
X9534586Y-14595293D02*
X9525062Y-14557198D01*
X9525062Y-14557198D02*
X9525062Y-14509579D01*
X9525062Y-14509579D02*
X9534586Y-14471484D01*
X9534586Y-14471484D02*
X9544110Y-14452436D01*
X9544110Y-14452436D02*
X9553634Y-14442913D01*
X9553634Y-14442913D02*
X9572681Y-14433389D01*
X9715539Y-14452436D02*
X9725062Y-14442913D01*
X9725062Y-14442913D02*
X9744110Y-14433389D01*
X9744110Y-14433389D02*
X9791729Y-14433389D01*
X9791729Y-14433389D02*
X9810777Y-14442913D01*
X9810777Y-14442913D02*
X9820300Y-14452436D01*
X9820300Y-14452436D02*
X9829824Y-14471484D01*
X9829824Y-14471484D02*
X9829824Y-14490532D01*
X9829824Y-14490532D02*
X9820300Y-14519103D01*
X9820300Y-14519103D02*
X9706015Y-14633389D01*
X9706015Y-14633389D02*
X9829824Y-14633389D01*
X9953634Y-14433389D02*
X9972681Y-14433389D01*
X9972681Y-14433389D02*
X9991729Y-14442913D01*
X9991729Y-14442913D02*
X10001253Y-14452436D01*
X10001253Y-14452436D02*
X10010777Y-14471484D01*
X10010777Y-14471484D02*
X10020300Y-14509579D01*
X10020300Y-14509579D02*
X10020300Y-14557198D01*
X10020300Y-14557198D02*
X10010777Y-14595293D01*
X10010777Y-14595293D02*
X10001253Y-14614341D01*
X10001253Y-14614341D02*
X9991729Y-14623865D01*
X9991729Y-14623865D02*
X9972681Y-14633389D01*
X9972681Y-14633389D02*
X9953634Y-14633389D01*
X9953634Y-14633389D02*
X9934586Y-14623865D01*
X9934586Y-14623865D02*
X9925062Y-14614341D01*
X9925062Y-14614341D02*
X9915539Y-14595293D01*
X9915539Y-14595293D02*
X9906015Y-14557198D01*
X9906015Y-14557198D02*
X9906015Y-14509579D01*
X9906015Y-14509579D02*
X9915539Y-14471484D01*
X9915539Y-14471484D02*
X9925062Y-14452436D01*
X9925062Y-14452436D02*
X9934586Y-14442913D01*
X9934586Y-14442913D02*
X9953634Y-14433389D01*
X10106015Y-14633389D02*
X10106015Y-14500055D01*
X10106015Y-14519103D02*
X10115539Y-14509579D01*
X10115539Y-14509579D02*
X10134586Y-14500055D01*
X10134586Y-14500055D02*
X10163158Y-14500055D01*
X10163158Y-14500055D02*
X10182205Y-14509579D01*
X10182205Y-14509579D02*
X10191729Y-14528627D01*
X10191729Y-14528627D02*
X10191729Y-14633389D01*
X10191729Y-14528627D02*
X10201253Y-14509579D01*
X10201253Y-14509579D02*
X10220300Y-14500055D01*
X10220300Y-14500055D02*
X10248872Y-14500055D01*
X10248872Y-14500055D02*
X10267920Y-14509579D01*
X10267920Y-14509579D02*
X10277443Y-14528627D01*
X10277443Y-14528627D02*
X10277443Y-14633389D01*
X10372681Y-14633389D02*
X10372681Y-14500055D01*
X10372681Y-14519103D02*
X10382205Y-14509579D01*
X10382205Y-14509579D02*
X10401253Y-14500055D01*
X10401253Y-14500055D02*
X10429824Y-14500055D01*
X10429824Y-14500055D02*
X10448872Y-14509579D01*
X10448872Y-14509579D02*
X10458396Y-14528627D01*
X10458396Y-14528627D02*
X10458396Y-14633389D01*
X10458396Y-14528627D02*
X10467920Y-14509579D01*
X10467920Y-14509579D02*
X10486967Y-14500055D01*
X10486967Y-14500055D02*
X10515539Y-14500055D01*
X10515539Y-14500055D02*
X10534586Y-14509579D01*
X10534586Y-14509579D02*
X10544110Y-14528627D01*
X10544110Y-14528627D02*
X10544110Y-14633389D01*
X10934586Y-14423865D02*
X10763158Y-14681008D01*
X11191729Y-14433389D02*
X11210777Y-14433389D01*
X11210777Y-14433389D02*
X11229824Y-14442913D01*
X11229824Y-14442913D02*
X11239348Y-14452436D01*
X11239348Y-14452436D02*
X11248872Y-14471484D01*
X11248872Y-14471484D02*
X11258396Y-14509579D01*
X11258396Y-14509579D02*
X11258396Y-14557198D01*
X11258396Y-14557198D02*
X11248872Y-14595293D01*
X11248872Y-14595293D02*
X11239348Y-14614341D01*
X11239348Y-14614341D02*
X11229824Y-14623865D01*
X11229824Y-14623865D02*
X11210777Y-14633389D01*
X11210777Y-14633389D02*
X11191729Y-14633389D01*
X11191729Y-14633389D02*
X11172682Y-14623865D01*
X11172682Y-14623865D02*
X11163158Y-14614341D01*
X11163158Y-14614341D02*
X11153634Y-14595293D01*
X11153634Y-14595293D02*
X11144110Y-14557198D01*
X11144110Y-14557198D02*
X11144110Y-14509579D01*
X11144110Y-14509579D02*
X11153634Y-14471484D01*
X11153634Y-14471484D02*
X11163158Y-14452436D01*
X11163158Y-14452436D02*
X11172682Y-14442913D01*
X11172682Y-14442913D02*
X11191729Y-14433389D01*
X11344110Y-14614341D02*
X11353634Y-14623865D01*
X11353634Y-14623865D02*
X11344110Y-14633389D01*
X11344110Y-14633389D02*
X11334586Y-14623865D01*
X11334586Y-14623865D02*
X11344110Y-14614341D01*
X11344110Y-14614341D02*
X11344110Y-14633389D01*
X11477443Y-14433389D02*
X11496491Y-14433389D01*
X11496491Y-14433389D02*
X11515539Y-14442913D01*
X11515539Y-14442913D02*
X11525062Y-14452436D01*
X11525062Y-14452436D02*
X11534586Y-14471484D01*
X11534586Y-14471484D02*
X11544110Y-14509579D01*
X11544110Y-14509579D02*
X11544110Y-14557198D01*
X11544110Y-14557198D02*
X11534586Y-14595293D01*
X11534586Y-14595293D02*
X11525062Y-14614341D01*
X11525062Y-14614341D02*
X11515539Y-14623865D01*
X11515539Y-14623865D02*
X11496491Y-14633389D01*
X11496491Y-14633389D02*
X11477443Y-14633389D01*
X11477443Y-14633389D02*
X11458396Y-14623865D01*
X11458396Y-14623865D02*
X11448872Y-14614341D01*
X11448872Y-14614341D02*
X11439348Y-14595293D01*
X11439348Y-14595293D02*
X11429824Y-14557198D01*
X11429824Y-14557198D02*
X11429824Y-14509579D01*
X11429824Y-14509579D02*
X11439348Y-14471484D01*
X11439348Y-14471484D02*
X11448872Y-14452436D01*
X11448872Y-14452436D02*
X11458396Y-14442913D01*
X11458396Y-14442913D02*
X11477443Y-14433389D01*
X11715539Y-14500055D02*
X11715539Y-14633389D01*
X11667920Y-14423865D02*
X11620301Y-14566722D01*
X11620301Y-14566722D02*
X11744110Y-14566722D01*
X11858396Y-14433389D02*
X11877443Y-14433389D01*
X11877443Y-14433389D02*
X11896491Y-14442913D01*
X11896491Y-14442913D02*
X11906015Y-14452436D01*
X11906015Y-14452436D02*
X11915539Y-14471484D01*
X11915539Y-14471484D02*
X11925062Y-14509579D01*
X11925062Y-14509579D02*
X11925062Y-14557198D01*
X11925062Y-14557198D02*
X11915539Y-14595293D01*
X11915539Y-14595293D02*
X11906015Y-14614341D01*
X11906015Y-14614341D02*
X11896491Y-14623865D01*
X11896491Y-14623865D02*
X11877443Y-14633389D01*
X11877443Y-14633389D02*
X11858396Y-14633389D01*
X11858396Y-14633389D02*
X11839348Y-14623865D01*
X11839348Y-14623865D02*
X11829824Y-14614341D01*
X11829824Y-14614341D02*
X11820301Y-14595293D01*
X11820301Y-14595293D02*
X11810777Y-14557198D01*
X11810777Y-14557198D02*
X11810777Y-14509579D01*
X11810777Y-14509579D02*
X11820301Y-14471484D01*
X11820301Y-14471484D02*
X11829824Y-14452436D01*
X11829824Y-14452436D02*
X11839348Y-14442913D01*
X11839348Y-14442913D02*
X11858396Y-14433389D01*
X12001253Y-14452436D02*
X12010777Y-14442913D01*
X12010777Y-14442913D02*
X12029824Y-14433389D01*
X12029824Y-14433389D02*
X12077443Y-14433389D01*
X12077443Y-14433389D02*
X12096491Y-14442913D01*
X12096491Y-14442913D02*
X12106015Y-14452436D01*
X12106015Y-14452436D02*
X12115539Y-14471484D01*
X12115539Y-14471484D02*
X12115539Y-14490532D01*
X12115539Y-14490532D02*
X12106015Y-14519103D01*
X12106015Y-14519103D02*
X11991729Y-14633389D01*
X11991729Y-14633389D02*
X12115539Y-14633389D01*
X12191729Y-14433389D02*
X12191729Y-14471484D01*
X12267920Y-14433389D02*
X12267920Y-14471484D01*
X12563158Y-14709579D02*
X12553634Y-14700055D01*
X12553634Y-14700055D02*
X12534586Y-14671484D01*
X12534586Y-14671484D02*
X12525063Y-14652436D01*
X12525063Y-14652436D02*
X12515539Y-14623865D01*
X12515539Y-14623865D02*
X12506015Y-14576246D01*
X12506015Y-14576246D02*
X12506015Y-14538151D01*
X12506015Y-14538151D02*
X12515539Y-14490532D01*
X12515539Y-14490532D02*
X12525063Y-14461960D01*
X12525063Y-14461960D02*
X12534586Y-14442913D01*
X12534586Y-14442913D02*
X12553634Y-14414341D01*
X12553634Y-14414341D02*
X12563158Y-14404817D01*
X12744110Y-14633389D02*
X12629824Y-14633389D01*
X12686967Y-14633389D02*
X12686967Y-14433389D01*
X12686967Y-14433389D02*
X12667920Y-14461960D01*
X12667920Y-14461960D02*
X12648872Y-14481008D01*
X12648872Y-14481008D02*
X12629824Y-14490532D01*
X12982205Y-14633389D02*
X12982205Y-14433389D01*
X13067920Y-14633389D02*
X13067920Y-14528627D01*
X13067920Y-14528627D02*
X13058396Y-14509579D01*
X13058396Y-14509579D02*
X13039348Y-14500055D01*
X13039348Y-14500055D02*
X13010777Y-14500055D01*
X13010777Y-14500055D02*
X12991729Y-14509579D01*
X12991729Y-14509579D02*
X12982205Y-14519103D01*
X13191729Y-14633389D02*
X13172682Y-14623865D01*
X13172682Y-14623865D02*
X13163158Y-14614341D01*
X13163158Y-14614341D02*
X13153634Y-14595293D01*
X13153634Y-14595293D02*
X13153634Y-14538151D01*
X13153634Y-14538151D02*
X13163158Y-14519103D01*
X13163158Y-14519103D02*
X13172682Y-14509579D01*
X13172682Y-14509579D02*
X13191729Y-14500055D01*
X13191729Y-14500055D02*
X13220301Y-14500055D01*
X13220301Y-14500055D02*
X13239348Y-14509579D01*
X13239348Y-14509579D02*
X13248872Y-14519103D01*
X13248872Y-14519103D02*
X13258396Y-14538151D01*
X13258396Y-14538151D02*
X13258396Y-14595293D01*
X13258396Y-14595293D02*
X13248872Y-14614341D01*
X13248872Y-14614341D02*
X13239348Y-14623865D01*
X13239348Y-14623865D02*
X13220301Y-14633389D01*
X13220301Y-14633389D02*
X13191729Y-14633389D01*
X13372682Y-14633389D02*
X13353634Y-14623865D01*
X13353634Y-14623865D02*
X13344110Y-14604817D01*
X13344110Y-14604817D02*
X13344110Y-14433389D01*
X13525063Y-14623865D02*
X13506015Y-14633389D01*
X13506015Y-14633389D02*
X13467920Y-14633389D01*
X13467920Y-14633389D02*
X13448872Y-14623865D01*
X13448872Y-14623865D02*
X13439348Y-14604817D01*
X13439348Y-14604817D02*
X13439348Y-14528627D01*
X13439348Y-14528627D02*
X13448872Y-14509579D01*
X13448872Y-14509579D02*
X13467920Y-14500055D01*
X13467920Y-14500055D02*
X13506015Y-14500055D01*
X13506015Y-14500055D02*
X13525063Y-14509579D01*
X13525063Y-14509579D02*
X13534586Y-14528627D01*
X13534586Y-14528627D02*
X13534586Y-14547674D01*
X13534586Y-14547674D02*
X13439348Y-14566722D01*
X13601253Y-14709579D02*
X13610777Y-14700055D01*
X13610777Y-14700055D02*
X13629825Y-14671484D01*
X13629825Y-14671484D02*
X13639348Y-14652436D01*
X13639348Y-14652436D02*
X13648872Y-14623865D01*
X13648872Y-14623865D02*
X13658396Y-14576246D01*
X13658396Y-14576246D02*
X13658396Y-14538151D01*
X13658396Y-14538151D02*
X13648872Y-14490532D01*
X13648872Y-14490532D02*
X13639348Y-14461960D01*
X13639348Y-14461960D02*
X13629825Y-14442913D01*
X13629825Y-14442913D02*
X13610777Y-14414341D01*
X13610777Y-14414341D02*
X13601253Y-14404817D01*
X13963158Y-14709579D02*
X13953634Y-14700055D01*
X13953634Y-14700055D02*
X13934586Y-14671484D01*
X13934586Y-14671484D02*
X13925063Y-14652436D01*
X13925063Y-14652436D02*
X13915539Y-14623865D01*
X13915539Y-14623865D02*
X13906015Y-14576246D01*
X13906015Y-14576246D02*
X13906015Y-14538151D01*
X13906015Y-14538151D02*
X13915539Y-14490532D01*
X13915539Y-14490532D02*
X13925063Y-14461960D01*
X13925063Y-14461960D02*
X13934586Y-14442913D01*
X13934586Y-14442913D02*
X13953634Y-14414341D01*
X13953634Y-14414341D02*
X13963158Y-14404817D01*
X14039348Y-14500055D02*
X14039348Y-14633389D01*
X14039348Y-14519103D02*
X14048872Y-14509579D01*
X14048872Y-14509579D02*
X14067920Y-14500055D01*
X14067920Y-14500055D02*
X14096491Y-14500055D01*
X14096491Y-14500055D02*
X14115539Y-14509579D01*
X14115539Y-14509579D02*
X14125063Y-14528627D01*
X14125063Y-14528627D02*
X14125063Y-14633389D01*
X14248872Y-14633389D02*
X14229825Y-14623865D01*
X14229825Y-14623865D02*
X14220301Y-14614341D01*
X14220301Y-14614341D02*
X14210777Y-14595293D01*
X14210777Y-14595293D02*
X14210777Y-14538151D01*
X14210777Y-14538151D02*
X14220301Y-14519103D01*
X14220301Y-14519103D02*
X14229825Y-14509579D01*
X14229825Y-14509579D02*
X14248872Y-14500055D01*
X14248872Y-14500055D02*
X14277444Y-14500055D01*
X14277444Y-14500055D02*
X14296491Y-14509579D01*
X14296491Y-14509579D02*
X14306015Y-14519103D01*
X14306015Y-14519103D02*
X14315539Y-14538151D01*
X14315539Y-14538151D02*
X14315539Y-14595293D01*
X14315539Y-14595293D02*
X14306015Y-14614341D01*
X14306015Y-14614341D02*
X14296491Y-14623865D01*
X14296491Y-14623865D02*
X14277444Y-14633389D01*
X14277444Y-14633389D02*
X14248872Y-14633389D01*
X14372682Y-14500055D02*
X14448872Y-14500055D01*
X14401253Y-14433389D02*
X14401253Y-14604817D01*
X14401253Y-14604817D02*
X14410777Y-14623865D01*
X14410777Y-14623865D02*
X14429825Y-14633389D01*
X14429825Y-14633389D02*
X14448872Y-14633389D01*
X14667920Y-14500055D02*
X14667920Y-14700055D01*
X14667920Y-14509579D02*
X14686967Y-14500055D01*
X14686967Y-14500055D02*
X14725063Y-14500055D01*
X14725063Y-14500055D02*
X14744110Y-14509579D01*
X14744110Y-14509579D02*
X14753634Y-14519103D01*
X14753634Y-14519103D02*
X14763158Y-14538151D01*
X14763158Y-14538151D02*
X14763158Y-14595293D01*
X14763158Y-14595293D02*
X14753634Y-14614341D01*
X14753634Y-14614341D02*
X14744110Y-14623865D01*
X14744110Y-14623865D02*
X14725063Y-14633389D01*
X14725063Y-14633389D02*
X14686967Y-14633389D01*
X14686967Y-14633389D02*
X14667920Y-14623865D01*
X14877444Y-14633389D02*
X14858396Y-14623865D01*
X14858396Y-14623865D02*
X14848872Y-14604817D01*
X14848872Y-14604817D02*
X14848872Y-14433389D01*
X15039348Y-14633389D02*
X15039348Y-14528627D01*
X15039348Y-14528627D02*
X15029825Y-14509579D01*
X15029825Y-14509579D02*
X15010777Y-14500055D01*
X15010777Y-14500055D02*
X14972682Y-14500055D01*
X14972682Y-14500055D02*
X14953634Y-14509579D01*
X15039348Y-14623865D02*
X15020301Y-14633389D01*
X15020301Y-14633389D02*
X14972682Y-14633389D01*
X14972682Y-14633389D02*
X14953634Y-14623865D01*
X14953634Y-14623865D02*
X14944110Y-14604817D01*
X14944110Y-14604817D02*
X14944110Y-14585770D01*
X14944110Y-14585770D02*
X14953634Y-14566722D01*
X14953634Y-14566722D02*
X14972682Y-14557198D01*
X14972682Y-14557198D02*
X15020301Y-14557198D01*
X15020301Y-14557198D02*
X15039348Y-14547674D01*
X15106015Y-14500055D02*
X15182206Y-14500055D01*
X15134587Y-14433389D02*
X15134587Y-14604817D01*
X15134587Y-14604817D02*
X15144110Y-14623865D01*
X15144110Y-14623865D02*
X15163158Y-14633389D01*
X15163158Y-14633389D02*
X15182206Y-14633389D01*
X15325063Y-14623865D02*
X15306015Y-14633389D01*
X15306015Y-14633389D02*
X15267920Y-14633389D01*
X15267920Y-14633389D02*
X15248872Y-14623865D01*
X15248872Y-14623865D02*
X15239348Y-14604817D01*
X15239348Y-14604817D02*
X15239348Y-14528627D01*
X15239348Y-14528627D02*
X15248872Y-14509579D01*
X15248872Y-14509579D02*
X15267920Y-14500055D01*
X15267920Y-14500055D02*
X15306015Y-14500055D01*
X15306015Y-14500055D02*
X15325063Y-14509579D01*
X15325063Y-14509579D02*
X15334587Y-14528627D01*
X15334587Y-14528627D02*
X15334587Y-14547674D01*
X15334587Y-14547674D02*
X15239348Y-14566722D01*
X15506015Y-14633389D02*
X15506015Y-14433389D01*
X15506015Y-14623865D02*
X15486968Y-14633389D01*
X15486968Y-14633389D02*
X15448872Y-14633389D01*
X15448872Y-14633389D02*
X15429825Y-14623865D01*
X15429825Y-14623865D02*
X15420301Y-14614341D01*
X15420301Y-14614341D02*
X15410777Y-14595293D01*
X15410777Y-14595293D02*
X15410777Y-14538151D01*
X15410777Y-14538151D02*
X15420301Y-14519103D01*
X15420301Y-14519103D02*
X15429825Y-14509579D01*
X15429825Y-14509579D02*
X15448872Y-14500055D01*
X15448872Y-14500055D02*
X15486968Y-14500055D01*
X15486968Y-14500055D02*
X15506015Y-14509579D01*
X15582206Y-14709579D02*
X15591729Y-14700055D01*
X15591729Y-14700055D02*
X15610777Y-14671484D01*
X15610777Y-14671484D02*
X15620301Y-14652436D01*
X15620301Y-14652436D02*
X15629825Y-14623865D01*
X15629825Y-14623865D02*
X15639348Y-14576246D01*
X15639348Y-14576246D02*
X15639348Y-14538151D01*
X15639348Y-14538151D02*
X15629825Y-14490532D01*
X15629825Y-14490532D02*
X15620301Y-14461960D01*
X15620301Y-14461960D02*
X15610777Y-14442913D01*
X15610777Y-14442913D02*
X15591729Y-14414341D01*
X15591729Y-14414341D02*
X15582206Y-14404817D01*
X8988095Y-14805905D02*
G75*
G02*
X8788095Y-14805905I-100000J0D01*
G01*
X8788095Y-14805905D02*
G75*
G02*
X8988095Y-14805905I100000J0D01*
G01*
X9239348Y-14716436D02*
X9248872Y-14706913D01*
X9248872Y-14706913D02*
X9267919Y-14697389D01*
X9267919Y-14697389D02*
X9315539Y-14697389D01*
X9315539Y-14697389D02*
X9334586Y-14706913D01*
X9334586Y-14706913D02*
X9344110Y-14716436D01*
X9344110Y-14716436D02*
X9353634Y-14735484D01*
X9353634Y-14735484D02*
X9353634Y-14754532D01*
X9353634Y-14754532D02*
X9344110Y-14783103D01*
X9344110Y-14783103D02*
X9229824Y-14897389D01*
X9229824Y-14897389D02*
X9353634Y-14897389D01*
X9439348Y-14878341D02*
X9448872Y-14887865D01*
X9448872Y-14887865D02*
X9439348Y-14897389D01*
X9439348Y-14897389D02*
X9429824Y-14887865D01*
X9429824Y-14887865D02*
X9439348Y-14878341D01*
X9439348Y-14878341D02*
X9439348Y-14897389D01*
X9629824Y-14697389D02*
X9534586Y-14697389D01*
X9534586Y-14697389D02*
X9525062Y-14792627D01*
X9525062Y-14792627D02*
X9534586Y-14783103D01*
X9534586Y-14783103D02*
X9553634Y-14773579D01*
X9553634Y-14773579D02*
X9601253Y-14773579D01*
X9601253Y-14773579D02*
X9620300Y-14783103D01*
X9620300Y-14783103D02*
X9629824Y-14792627D01*
X9629824Y-14792627D02*
X9639348Y-14811674D01*
X9639348Y-14811674D02*
X9639348Y-14859293D01*
X9639348Y-14859293D02*
X9629824Y-14878341D01*
X9629824Y-14878341D02*
X9620300Y-14887865D01*
X9620300Y-14887865D02*
X9601253Y-14897389D01*
X9601253Y-14897389D02*
X9553634Y-14897389D01*
X9553634Y-14897389D02*
X9534586Y-14887865D01*
X9534586Y-14887865D02*
X9525062Y-14878341D01*
X9763158Y-14697389D02*
X9782205Y-14697389D01*
X9782205Y-14697389D02*
X9801253Y-14706913D01*
X9801253Y-14706913D02*
X9810777Y-14716436D01*
X9810777Y-14716436D02*
X9820300Y-14735484D01*
X9820300Y-14735484D02*
X9829824Y-14773579D01*
X9829824Y-14773579D02*
X9829824Y-14821198D01*
X9829824Y-14821198D02*
X9820300Y-14859293D01*
X9820300Y-14859293D02*
X9810777Y-14878341D01*
X9810777Y-14878341D02*
X9801253Y-14887865D01*
X9801253Y-14887865D02*
X9782205Y-14897389D01*
X9782205Y-14897389D02*
X9763158Y-14897389D01*
X9763158Y-14897389D02*
X9744110Y-14887865D01*
X9744110Y-14887865D02*
X9734586Y-14878341D01*
X9734586Y-14878341D02*
X9725062Y-14859293D01*
X9725062Y-14859293D02*
X9715539Y-14821198D01*
X9715539Y-14821198D02*
X9715539Y-14773579D01*
X9715539Y-14773579D02*
X9725062Y-14735484D01*
X9725062Y-14735484D02*
X9734586Y-14716436D01*
X9734586Y-14716436D02*
X9744110Y-14706913D01*
X9744110Y-14706913D02*
X9763158Y-14697389D01*
X9953634Y-14697389D02*
X9972681Y-14697389D01*
X9972681Y-14697389D02*
X9991729Y-14706913D01*
X9991729Y-14706913D02*
X10001253Y-14716436D01*
X10001253Y-14716436D02*
X10010777Y-14735484D01*
X10010777Y-14735484D02*
X10020300Y-14773579D01*
X10020300Y-14773579D02*
X10020300Y-14821198D01*
X10020300Y-14821198D02*
X10010777Y-14859293D01*
X10010777Y-14859293D02*
X10001253Y-14878341D01*
X10001253Y-14878341D02*
X9991729Y-14887865D01*
X9991729Y-14887865D02*
X9972681Y-14897389D01*
X9972681Y-14897389D02*
X9953634Y-14897389D01*
X9953634Y-14897389D02*
X9934586Y-14887865D01*
X9934586Y-14887865D02*
X9925062Y-14878341D01*
X9925062Y-14878341D02*
X9915539Y-14859293D01*
X9915539Y-14859293D02*
X9906015Y-14821198D01*
X9906015Y-14821198D02*
X9906015Y-14773579D01*
X9906015Y-14773579D02*
X9915539Y-14735484D01*
X9915539Y-14735484D02*
X9925062Y-14716436D01*
X9925062Y-14716436D02*
X9934586Y-14706913D01*
X9934586Y-14706913D02*
X9953634Y-14697389D01*
X10106015Y-14897389D02*
X10106015Y-14764055D01*
X10106015Y-14783103D02*
X10115539Y-14773579D01*
X10115539Y-14773579D02*
X10134586Y-14764055D01*
X10134586Y-14764055D02*
X10163158Y-14764055D01*
X10163158Y-14764055D02*
X10182205Y-14773579D01*
X10182205Y-14773579D02*
X10191729Y-14792627D01*
X10191729Y-14792627D02*
X10191729Y-14897389D01*
X10191729Y-14792627D02*
X10201253Y-14773579D01*
X10201253Y-14773579D02*
X10220300Y-14764055D01*
X10220300Y-14764055D02*
X10248872Y-14764055D01*
X10248872Y-14764055D02*
X10267920Y-14773579D01*
X10267920Y-14773579D02*
X10277443Y-14792627D01*
X10277443Y-14792627D02*
X10277443Y-14897389D01*
X10372681Y-14897389D02*
X10372681Y-14764055D01*
X10372681Y-14783103D02*
X10382205Y-14773579D01*
X10382205Y-14773579D02*
X10401253Y-14764055D01*
X10401253Y-14764055D02*
X10429824Y-14764055D01*
X10429824Y-14764055D02*
X10448872Y-14773579D01*
X10448872Y-14773579D02*
X10458396Y-14792627D01*
X10458396Y-14792627D02*
X10458396Y-14897389D01*
X10458396Y-14792627D02*
X10467920Y-14773579D01*
X10467920Y-14773579D02*
X10486967Y-14764055D01*
X10486967Y-14764055D02*
X10515539Y-14764055D01*
X10515539Y-14764055D02*
X10534586Y-14773579D01*
X10534586Y-14773579D02*
X10544110Y-14792627D01*
X10544110Y-14792627D02*
X10544110Y-14897389D01*
X10934586Y-14687865D02*
X10763158Y-14945008D01*
X11191729Y-14697389D02*
X11210777Y-14697389D01*
X11210777Y-14697389D02*
X11229824Y-14706913D01*
X11229824Y-14706913D02*
X11239348Y-14716436D01*
X11239348Y-14716436D02*
X11248872Y-14735484D01*
X11248872Y-14735484D02*
X11258396Y-14773579D01*
X11258396Y-14773579D02*
X11258396Y-14821198D01*
X11258396Y-14821198D02*
X11248872Y-14859293D01*
X11248872Y-14859293D02*
X11239348Y-14878341D01*
X11239348Y-14878341D02*
X11229824Y-14887865D01*
X11229824Y-14887865D02*
X11210777Y-14897389D01*
X11210777Y-14897389D02*
X11191729Y-14897389D01*
X11191729Y-14897389D02*
X11172682Y-14887865D01*
X11172682Y-14887865D02*
X11163158Y-14878341D01*
X11163158Y-14878341D02*
X11153634Y-14859293D01*
X11153634Y-14859293D02*
X11144110Y-14821198D01*
X11144110Y-14821198D02*
X11144110Y-14773579D01*
X11144110Y-14773579D02*
X11153634Y-14735484D01*
X11153634Y-14735484D02*
X11163158Y-14716436D01*
X11163158Y-14716436D02*
X11172682Y-14706913D01*
X11172682Y-14706913D02*
X11191729Y-14697389D01*
X11344110Y-14878341D02*
X11353634Y-14887865D01*
X11353634Y-14887865D02*
X11344110Y-14897389D01*
X11344110Y-14897389D02*
X11334586Y-14887865D01*
X11334586Y-14887865D02*
X11344110Y-14878341D01*
X11344110Y-14878341D02*
X11344110Y-14897389D01*
X11477443Y-14697389D02*
X11496491Y-14697389D01*
X11496491Y-14697389D02*
X11515539Y-14706913D01*
X11515539Y-14706913D02*
X11525062Y-14716436D01*
X11525062Y-14716436D02*
X11534586Y-14735484D01*
X11534586Y-14735484D02*
X11544110Y-14773579D01*
X11544110Y-14773579D02*
X11544110Y-14821198D01*
X11544110Y-14821198D02*
X11534586Y-14859293D01*
X11534586Y-14859293D02*
X11525062Y-14878341D01*
X11525062Y-14878341D02*
X11515539Y-14887865D01*
X11515539Y-14887865D02*
X11496491Y-14897389D01*
X11496491Y-14897389D02*
X11477443Y-14897389D01*
X11477443Y-14897389D02*
X11458396Y-14887865D01*
X11458396Y-14887865D02*
X11448872Y-14878341D01*
X11448872Y-14878341D02*
X11439348Y-14859293D01*
X11439348Y-14859293D02*
X11429824Y-14821198D01*
X11429824Y-14821198D02*
X11429824Y-14773579D01*
X11429824Y-14773579D02*
X11439348Y-14735484D01*
X11439348Y-14735484D02*
X11448872Y-14716436D01*
X11448872Y-14716436D02*
X11458396Y-14706913D01*
X11458396Y-14706913D02*
X11477443Y-14697389D01*
X11639348Y-14897389D02*
X11677443Y-14897389D01*
X11677443Y-14897389D02*
X11696491Y-14887865D01*
X11696491Y-14887865D02*
X11706015Y-14878341D01*
X11706015Y-14878341D02*
X11725062Y-14849770D01*
X11725062Y-14849770D02*
X11734586Y-14811674D01*
X11734586Y-14811674D02*
X11734586Y-14735484D01*
X11734586Y-14735484D02*
X11725062Y-14716436D01*
X11725062Y-14716436D02*
X11715539Y-14706913D01*
X11715539Y-14706913D02*
X11696491Y-14697389D01*
X11696491Y-14697389D02*
X11658396Y-14697389D01*
X11658396Y-14697389D02*
X11639348Y-14706913D01*
X11639348Y-14706913D02*
X11629824Y-14716436D01*
X11629824Y-14716436D02*
X11620301Y-14735484D01*
X11620301Y-14735484D02*
X11620301Y-14783103D01*
X11620301Y-14783103D02*
X11629824Y-14802151D01*
X11629824Y-14802151D02*
X11639348Y-14811674D01*
X11639348Y-14811674D02*
X11658396Y-14821198D01*
X11658396Y-14821198D02*
X11696491Y-14821198D01*
X11696491Y-14821198D02*
X11715539Y-14811674D01*
X11715539Y-14811674D02*
X11725062Y-14802151D01*
X11725062Y-14802151D02*
X11734586Y-14783103D01*
X11848872Y-14783103D02*
X11829824Y-14773579D01*
X11829824Y-14773579D02*
X11820301Y-14764055D01*
X11820301Y-14764055D02*
X11810777Y-14745008D01*
X11810777Y-14745008D02*
X11810777Y-14735484D01*
X11810777Y-14735484D02*
X11820301Y-14716436D01*
X11820301Y-14716436D02*
X11829824Y-14706913D01*
X11829824Y-14706913D02*
X11848872Y-14697389D01*
X11848872Y-14697389D02*
X11886967Y-14697389D01*
X11886967Y-14697389D02*
X11906015Y-14706913D01*
X11906015Y-14706913D02*
X11915539Y-14716436D01*
X11915539Y-14716436D02*
X11925062Y-14735484D01*
X11925062Y-14735484D02*
X11925062Y-14745008D01*
X11925062Y-14745008D02*
X11915539Y-14764055D01*
X11915539Y-14764055D02*
X11906015Y-14773579D01*
X11906015Y-14773579D02*
X11886967Y-14783103D01*
X11886967Y-14783103D02*
X11848872Y-14783103D01*
X11848872Y-14783103D02*
X11829824Y-14792627D01*
X11829824Y-14792627D02*
X11820301Y-14802151D01*
X11820301Y-14802151D02*
X11810777Y-14821198D01*
X11810777Y-14821198D02*
X11810777Y-14859293D01*
X11810777Y-14859293D02*
X11820301Y-14878341D01*
X11820301Y-14878341D02*
X11829824Y-14887865D01*
X11829824Y-14887865D02*
X11848872Y-14897389D01*
X11848872Y-14897389D02*
X11886967Y-14897389D01*
X11886967Y-14897389D02*
X11906015Y-14887865D01*
X11906015Y-14887865D02*
X11915539Y-14878341D01*
X11915539Y-14878341D02*
X11925062Y-14859293D01*
X11925062Y-14859293D02*
X11925062Y-14821198D01*
X11925062Y-14821198D02*
X11915539Y-14802151D01*
X11915539Y-14802151D02*
X11906015Y-14792627D01*
X11906015Y-14792627D02*
X11886967Y-14783103D01*
X12096491Y-14764055D02*
X12096491Y-14897389D01*
X12048872Y-14687865D02*
X12001253Y-14830722D01*
X12001253Y-14830722D02*
X12125062Y-14830722D01*
X12191729Y-14697389D02*
X12191729Y-14735484D01*
X12267920Y-14697389D02*
X12267920Y-14735484D01*
X12563158Y-14973579D02*
X12553634Y-14964055D01*
X12553634Y-14964055D02*
X12534586Y-14935484D01*
X12534586Y-14935484D02*
X12525063Y-14916436D01*
X12525063Y-14916436D02*
X12515539Y-14887865D01*
X12515539Y-14887865D02*
X12506015Y-14840246D01*
X12506015Y-14840246D02*
X12506015Y-14802151D01*
X12506015Y-14802151D02*
X12515539Y-14754532D01*
X12515539Y-14754532D02*
X12525063Y-14725960D01*
X12525063Y-14725960D02*
X12534586Y-14706913D01*
X12534586Y-14706913D02*
X12553634Y-14678341D01*
X12553634Y-14678341D02*
X12563158Y-14668817D01*
X12725063Y-14764055D02*
X12725063Y-14897389D01*
X12677443Y-14687865D02*
X12629824Y-14830722D01*
X12629824Y-14830722D02*
X12753634Y-14830722D01*
X12982205Y-14897389D02*
X12982205Y-14697389D01*
X13067920Y-14897389D02*
X13067920Y-14792627D01*
X13067920Y-14792627D02*
X13058396Y-14773579D01*
X13058396Y-14773579D02*
X13039348Y-14764055D01*
X13039348Y-14764055D02*
X13010777Y-14764055D01*
X13010777Y-14764055D02*
X12991729Y-14773579D01*
X12991729Y-14773579D02*
X12982205Y-14783103D01*
X13191729Y-14897389D02*
X13172682Y-14887865D01*
X13172682Y-14887865D02*
X13163158Y-14878341D01*
X13163158Y-14878341D02*
X13153634Y-14859293D01*
X13153634Y-14859293D02*
X13153634Y-14802151D01*
X13153634Y-14802151D02*
X13163158Y-14783103D01*
X13163158Y-14783103D02*
X13172682Y-14773579D01*
X13172682Y-14773579D02*
X13191729Y-14764055D01*
X13191729Y-14764055D02*
X13220301Y-14764055D01*
X13220301Y-14764055D02*
X13239348Y-14773579D01*
X13239348Y-14773579D02*
X13248872Y-14783103D01*
X13248872Y-14783103D02*
X13258396Y-14802151D01*
X13258396Y-14802151D02*
X13258396Y-14859293D01*
X13258396Y-14859293D02*
X13248872Y-14878341D01*
X13248872Y-14878341D02*
X13239348Y-14887865D01*
X13239348Y-14887865D02*
X13220301Y-14897389D01*
X13220301Y-14897389D02*
X13191729Y-14897389D01*
X13372682Y-14897389D02*
X13353634Y-14887865D01*
X13353634Y-14887865D02*
X13344110Y-14868817D01*
X13344110Y-14868817D02*
X13344110Y-14697389D01*
X13525063Y-14887865D02*
X13506015Y-14897389D01*
X13506015Y-14897389D02*
X13467920Y-14897389D01*
X13467920Y-14897389D02*
X13448872Y-14887865D01*
X13448872Y-14887865D02*
X13439348Y-14868817D01*
X13439348Y-14868817D02*
X13439348Y-14792627D01*
X13439348Y-14792627D02*
X13448872Y-14773579D01*
X13448872Y-14773579D02*
X13467920Y-14764055D01*
X13467920Y-14764055D02*
X13506015Y-14764055D01*
X13506015Y-14764055D02*
X13525063Y-14773579D01*
X13525063Y-14773579D02*
X13534586Y-14792627D01*
X13534586Y-14792627D02*
X13534586Y-14811674D01*
X13534586Y-14811674D02*
X13439348Y-14830722D01*
X13610777Y-14887865D02*
X13629825Y-14897389D01*
X13629825Y-14897389D02*
X13667920Y-14897389D01*
X13667920Y-14897389D02*
X13686967Y-14887865D01*
X13686967Y-14887865D02*
X13696491Y-14868817D01*
X13696491Y-14868817D02*
X13696491Y-14859293D01*
X13696491Y-14859293D02*
X13686967Y-14840246D01*
X13686967Y-14840246D02*
X13667920Y-14830722D01*
X13667920Y-14830722D02*
X13639348Y-14830722D01*
X13639348Y-14830722D02*
X13620301Y-14821198D01*
X13620301Y-14821198D02*
X13610777Y-14802151D01*
X13610777Y-14802151D02*
X13610777Y-14792627D01*
X13610777Y-14792627D02*
X13620301Y-14773579D01*
X13620301Y-14773579D02*
X13639348Y-14764055D01*
X13639348Y-14764055D02*
X13667920Y-14764055D01*
X13667920Y-14764055D02*
X13686967Y-14773579D01*
X13763158Y-14973579D02*
X13772682Y-14964055D01*
X13772682Y-14964055D02*
X13791729Y-14935484D01*
X13791729Y-14935484D02*
X13801253Y-14916436D01*
X13801253Y-14916436D02*
X13810777Y-14887865D01*
X13810777Y-14887865D02*
X13820301Y-14840246D01*
X13820301Y-14840246D02*
X13820301Y-14802151D01*
X13820301Y-14802151D02*
X13810777Y-14754532D01*
X13810777Y-14754532D02*
X13801253Y-14725960D01*
X13801253Y-14725960D02*
X13791729Y-14706913D01*
X13791729Y-14706913D02*
X13772682Y-14678341D01*
X13772682Y-14678341D02*
X13763158Y-14668817D01*
X14125063Y-14973579D02*
X14115539Y-14964055D01*
X14115539Y-14964055D02*
X14096491Y-14935484D01*
X14096491Y-14935484D02*
X14086967Y-14916436D01*
X14086967Y-14916436D02*
X14077444Y-14887865D01*
X14077444Y-14887865D02*
X14067920Y-14840246D01*
X14067920Y-14840246D02*
X14067920Y-14802151D01*
X14067920Y-14802151D02*
X14077444Y-14754532D01*
X14077444Y-14754532D02*
X14086967Y-14725960D01*
X14086967Y-14725960D02*
X14096491Y-14706913D01*
X14096491Y-14706913D02*
X14115539Y-14678341D01*
X14115539Y-14678341D02*
X14125063Y-14668817D01*
X14201253Y-14764055D02*
X14201253Y-14897389D01*
X14201253Y-14783103D02*
X14210777Y-14773579D01*
X14210777Y-14773579D02*
X14229825Y-14764055D01*
X14229825Y-14764055D02*
X14258396Y-14764055D01*
X14258396Y-14764055D02*
X14277444Y-14773579D01*
X14277444Y-14773579D02*
X14286967Y-14792627D01*
X14286967Y-14792627D02*
X14286967Y-14897389D01*
X14410777Y-14897389D02*
X14391729Y-14887865D01*
X14391729Y-14887865D02*
X14382206Y-14878341D01*
X14382206Y-14878341D02*
X14372682Y-14859293D01*
X14372682Y-14859293D02*
X14372682Y-14802151D01*
X14372682Y-14802151D02*
X14382206Y-14783103D01*
X14382206Y-14783103D02*
X14391729Y-14773579D01*
X14391729Y-14773579D02*
X14410777Y-14764055D01*
X14410777Y-14764055D02*
X14439348Y-14764055D01*
X14439348Y-14764055D02*
X14458396Y-14773579D01*
X14458396Y-14773579D02*
X14467920Y-14783103D01*
X14467920Y-14783103D02*
X14477444Y-14802151D01*
X14477444Y-14802151D02*
X14477444Y-14859293D01*
X14477444Y-14859293D02*
X14467920Y-14878341D01*
X14467920Y-14878341D02*
X14458396Y-14887865D01*
X14458396Y-14887865D02*
X14439348Y-14897389D01*
X14439348Y-14897389D02*
X14410777Y-14897389D01*
X14534587Y-14764055D02*
X14610777Y-14764055D01*
X14563158Y-14697389D02*
X14563158Y-14868817D01*
X14563158Y-14868817D02*
X14572682Y-14887865D01*
X14572682Y-14887865D02*
X14591729Y-14897389D01*
X14591729Y-14897389D02*
X14610777Y-14897389D01*
X14829825Y-14764055D02*
X14829825Y-14964055D01*
X14829825Y-14773579D02*
X14848872Y-14764055D01*
X14848872Y-14764055D02*
X14886968Y-14764055D01*
X14886968Y-14764055D02*
X14906015Y-14773579D01*
X14906015Y-14773579D02*
X14915539Y-14783103D01*
X14915539Y-14783103D02*
X14925063Y-14802151D01*
X14925063Y-14802151D02*
X14925063Y-14859293D01*
X14925063Y-14859293D02*
X14915539Y-14878341D01*
X14915539Y-14878341D02*
X14906015Y-14887865D01*
X14906015Y-14887865D02*
X14886968Y-14897389D01*
X14886968Y-14897389D02*
X14848872Y-14897389D01*
X14848872Y-14897389D02*
X14829825Y-14887865D01*
X15039348Y-14897389D02*
X15020301Y-14887865D01*
X15020301Y-14887865D02*
X15010777Y-14868817D01*
X15010777Y-14868817D02*
X15010777Y-14697389D01*
X15201253Y-14897389D02*
X15201253Y-14792627D01*
X15201253Y-14792627D02*
X15191729Y-14773579D01*
X15191729Y-14773579D02*
X15172682Y-14764055D01*
X15172682Y-14764055D02*
X15134587Y-14764055D01*
X15134587Y-14764055D02*
X15115539Y-14773579D01*
X15201253Y-14887865D02*
X15182206Y-14897389D01*
X15182206Y-14897389D02*
X15134587Y-14897389D01*
X15134587Y-14897389D02*
X15115539Y-14887865D01*
X15115539Y-14887865D02*
X15106015Y-14868817D01*
X15106015Y-14868817D02*
X15106015Y-14849770D01*
X15106015Y-14849770D02*
X15115539Y-14830722D01*
X15115539Y-14830722D02*
X15134587Y-14821198D01*
X15134587Y-14821198D02*
X15182206Y-14821198D01*
X15182206Y-14821198D02*
X15201253Y-14811674D01*
X15267920Y-14764055D02*
X15344110Y-14764055D01*
X15296491Y-14697389D02*
X15296491Y-14868817D01*
X15296491Y-14868817D02*
X15306015Y-14887865D01*
X15306015Y-14887865D02*
X15325063Y-14897389D01*
X15325063Y-14897389D02*
X15344110Y-14897389D01*
X15486968Y-14887865D02*
X15467920Y-14897389D01*
X15467920Y-14897389D02*
X15429825Y-14897389D01*
X15429825Y-14897389D02*
X15410777Y-14887865D01*
X15410777Y-14887865D02*
X15401253Y-14868817D01*
X15401253Y-14868817D02*
X15401253Y-14792627D01*
X15401253Y-14792627D02*
X15410777Y-14773579D01*
X15410777Y-14773579D02*
X15429825Y-14764055D01*
X15429825Y-14764055D02*
X15467920Y-14764055D01*
X15467920Y-14764055D02*
X15486968Y-14773579D01*
X15486968Y-14773579D02*
X15496491Y-14792627D01*
X15496491Y-14792627D02*
X15496491Y-14811674D01*
X15496491Y-14811674D02*
X15401253Y-14830722D01*
X15667920Y-14897389D02*
X15667920Y-14697389D01*
X15667920Y-14887865D02*
X15648872Y-14897389D01*
X15648872Y-14897389D02*
X15610777Y-14897389D01*
X15610777Y-14897389D02*
X15591729Y-14887865D01*
X15591729Y-14887865D02*
X15582206Y-14878341D01*
X15582206Y-14878341D02*
X15572682Y-14859293D01*
X15572682Y-14859293D02*
X15572682Y-14802151D01*
X15572682Y-14802151D02*
X15582206Y-14783103D01*
X15582206Y-14783103D02*
X15591729Y-14773579D01*
X15591729Y-14773579D02*
X15610777Y-14764055D01*
X15610777Y-14764055D02*
X15648872Y-14764055D01*
X15648872Y-14764055D02*
X15667920Y-14773579D01*
X15744110Y-14973579D02*
X15753634Y-14964055D01*
X15753634Y-14964055D02*
X15772682Y-14935484D01*
X15772682Y-14935484D02*
X15782206Y-14916436D01*
X15782206Y-14916436D02*
X15791729Y-14887865D01*
X15791729Y-14887865D02*
X15801253Y-14840246D01*
X15801253Y-14840246D02*
X15801253Y-14802151D01*
X15801253Y-14802151D02*
X15791729Y-14754532D01*
X15791729Y-14754532D02*
X15782206Y-14725960D01*
X15782206Y-14725960D02*
X15772682Y-14706913D01*
X15772682Y-14706913D02*
X15753634Y-14678341D01*
X15753634Y-14678341D02*
X15744110Y-14668817D01*
X8888095Y-15025905D02*
X8888095Y-15225905D01*
X8788095Y-15125905D02*
X8988095Y-15125905D01*
X9229824Y-15017389D02*
X9353634Y-15017389D01*
X9353634Y-15017389D02*
X9286967Y-15093579D01*
X9286967Y-15093579D02*
X9315539Y-15093579D01*
X9315539Y-15093579D02*
X9334586Y-15103103D01*
X9334586Y-15103103D02*
X9344110Y-15112627D01*
X9344110Y-15112627D02*
X9353634Y-15131674D01*
X9353634Y-15131674D02*
X9353634Y-15179293D01*
X9353634Y-15179293D02*
X9344110Y-15198341D01*
X9344110Y-15198341D02*
X9334586Y-15207865D01*
X9334586Y-15207865D02*
X9315539Y-15217389D01*
X9315539Y-15217389D02*
X9258396Y-15217389D01*
X9258396Y-15217389D02*
X9239348Y-15207865D01*
X9239348Y-15207865D02*
X9229824Y-15198341D01*
X9439348Y-15198341D02*
X9448872Y-15207865D01*
X9448872Y-15207865D02*
X9439348Y-15217389D01*
X9439348Y-15217389D02*
X9429824Y-15207865D01*
X9429824Y-15207865D02*
X9439348Y-15198341D01*
X9439348Y-15198341D02*
X9439348Y-15217389D01*
X9572681Y-15017389D02*
X9591729Y-15017389D01*
X9591729Y-15017389D02*
X9610777Y-15026913D01*
X9610777Y-15026913D02*
X9620300Y-15036436D01*
X9620300Y-15036436D02*
X9629824Y-15055484D01*
X9629824Y-15055484D02*
X9639348Y-15093579D01*
X9639348Y-15093579D02*
X9639348Y-15141198D01*
X9639348Y-15141198D02*
X9629824Y-15179293D01*
X9629824Y-15179293D02*
X9620300Y-15198341D01*
X9620300Y-15198341D02*
X9610777Y-15207865D01*
X9610777Y-15207865D02*
X9591729Y-15217389D01*
X9591729Y-15217389D02*
X9572681Y-15217389D01*
X9572681Y-15217389D02*
X9553634Y-15207865D01*
X9553634Y-15207865D02*
X9544110Y-15198341D01*
X9544110Y-15198341D02*
X9534586Y-15179293D01*
X9534586Y-15179293D02*
X9525062Y-15141198D01*
X9525062Y-15141198D02*
X9525062Y-15093579D01*
X9525062Y-15093579D02*
X9534586Y-15055484D01*
X9534586Y-15055484D02*
X9544110Y-15036436D01*
X9544110Y-15036436D02*
X9553634Y-15026913D01*
X9553634Y-15026913D02*
X9572681Y-15017389D01*
X9810777Y-15084055D02*
X9810777Y-15217389D01*
X9763158Y-15007865D02*
X9715539Y-15150722D01*
X9715539Y-15150722D02*
X9839348Y-15150722D01*
X9944110Y-15103103D02*
X9925062Y-15093579D01*
X9925062Y-15093579D02*
X9915539Y-15084055D01*
X9915539Y-15084055D02*
X9906015Y-15065008D01*
X9906015Y-15065008D02*
X9906015Y-15055484D01*
X9906015Y-15055484D02*
X9915539Y-15036436D01*
X9915539Y-15036436D02*
X9925062Y-15026913D01*
X9925062Y-15026913D02*
X9944110Y-15017389D01*
X9944110Y-15017389D02*
X9982205Y-15017389D01*
X9982205Y-15017389D02*
X10001253Y-15026913D01*
X10001253Y-15026913D02*
X10010777Y-15036436D01*
X10010777Y-15036436D02*
X10020300Y-15055484D01*
X10020300Y-15055484D02*
X10020300Y-15065008D01*
X10020300Y-15065008D02*
X10010777Y-15084055D01*
X10010777Y-15084055D02*
X10001253Y-15093579D01*
X10001253Y-15093579D02*
X9982205Y-15103103D01*
X9982205Y-15103103D02*
X9944110Y-15103103D01*
X9944110Y-15103103D02*
X9925062Y-15112627D01*
X9925062Y-15112627D02*
X9915539Y-15122151D01*
X9915539Y-15122151D02*
X9906015Y-15141198D01*
X9906015Y-15141198D02*
X9906015Y-15179293D01*
X9906015Y-15179293D02*
X9915539Y-15198341D01*
X9915539Y-15198341D02*
X9925062Y-15207865D01*
X9925062Y-15207865D02*
X9944110Y-15217389D01*
X9944110Y-15217389D02*
X9982205Y-15217389D01*
X9982205Y-15217389D02*
X10001253Y-15207865D01*
X10001253Y-15207865D02*
X10010777Y-15198341D01*
X10010777Y-15198341D02*
X10020300Y-15179293D01*
X10020300Y-15179293D02*
X10020300Y-15141198D01*
X10020300Y-15141198D02*
X10010777Y-15122151D01*
X10010777Y-15122151D02*
X10001253Y-15112627D01*
X10001253Y-15112627D02*
X9982205Y-15103103D01*
X10106015Y-15217389D02*
X10106015Y-15084055D01*
X10106015Y-15103103D02*
X10115539Y-15093579D01*
X10115539Y-15093579D02*
X10134586Y-15084055D01*
X10134586Y-15084055D02*
X10163158Y-15084055D01*
X10163158Y-15084055D02*
X10182205Y-15093579D01*
X10182205Y-15093579D02*
X10191729Y-15112627D01*
X10191729Y-15112627D02*
X10191729Y-15217389D01*
X10191729Y-15112627D02*
X10201253Y-15093579D01*
X10201253Y-15093579D02*
X10220300Y-15084055D01*
X10220300Y-15084055D02*
X10248872Y-15084055D01*
X10248872Y-15084055D02*
X10267920Y-15093579D01*
X10267920Y-15093579D02*
X10277443Y-15112627D01*
X10277443Y-15112627D02*
X10277443Y-15217389D01*
X10372681Y-15217389D02*
X10372681Y-15084055D01*
X10372681Y-15103103D02*
X10382205Y-15093579D01*
X10382205Y-15093579D02*
X10401253Y-15084055D01*
X10401253Y-15084055D02*
X10429824Y-15084055D01*
X10429824Y-15084055D02*
X10448872Y-15093579D01*
X10448872Y-15093579D02*
X10458396Y-15112627D01*
X10458396Y-15112627D02*
X10458396Y-15217389D01*
X10458396Y-15112627D02*
X10467920Y-15093579D01*
X10467920Y-15093579D02*
X10486967Y-15084055D01*
X10486967Y-15084055D02*
X10515539Y-15084055D01*
X10515539Y-15084055D02*
X10534586Y-15093579D01*
X10534586Y-15093579D02*
X10544110Y-15112627D01*
X10544110Y-15112627D02*
X10544110Y-15217389D01*
X10934586Y-15007865D02*
X10763158Y-15265008D01*
X11191729Y-15017389D02*
X11210777Y-15017389D01*
X11210777Y-15017389D02*
X11229824Y-15026913D01*
X11229824Y-15026913D02*
X11239348Y-15036436D01*
X11239348Y-15036436D02*
X11248872Y-15055484D01*
X11248872Y-15055484D02*
X11258396Y-15093579D01*
X11258396Y-15093579D02*
X11258396Y-15141198D01*
X11258396Y-15141198D02*
X11248872Y-15179293D01*
X11248872Y-15179293D02*
X11239348Y-15198341D01*
X11239348Y-15198341D02*
X11229824Y-15207865D01*
X11229824Y-15207865D02*
X11210777Y-15217389D01*
X11210777Y-15217389D02*
X11191729Y-15217389D01*
X11191729Y-15217389D02*
X11172682Y-15207865D01*
X11172682Y-15207865D02*
X11163158Y-15198341D01*
X11163158Y-15198341D02*
X11153634Y-15179293D01*
X11153634Y-15179293D02*
X11144110Y-15141198D01*
X11144110Y-15141198D02*
X11144110Y-15093579D01*
X11144110Y-15093579D02*
X11153634Y-15055484D01*
X11153634Y-15055484D02*
X11163158Y-15036436D01*
X11163158Y-15036436D02*
X11172682Y-15026913D01*
X11172682Y-15026913D02*
X11191729Y-15017389D01*
X11344110Y-15198341D02*
X11353634Y-15207865D01*
X11353634Y-15207865D02*
X11344110Y-15217389D01*
X11344110Y-15217389D02*
X11334586Y-15207865D01*
X11334586Y-15207865D02*
X11344110Y-15198341D01*
X11344110Y-15198341D02*
X11344110Y-15217389D01*
X11544110Y-15217389D02*
X11429824Y-15217389D01*
X11486967Y-15217389D02*
X11486967Y-15017389D01*
X11486967Y-15017389D02*
X11467920Y-15045960D01*
X11467920Y-15045960D02*
X11448872Y-15065008D01*
X11448872Y-15065008D02*
X11429824Y-15074532D01*
X11620301Y-15036436D02*
X11629824Y-15026913D01*
X11629824Y-15026913D02*
X11648872Y-15017389D01*
X11648872Y-15017389D02*
X11696491Y-15017389D01*
X11696491Y-15017389D02*
X11715539Y-15026913D01*
X11715539Y-15026913D02*
X11725062Y-15036436D01*
X11725062Y-15036436D02*
X11734586Y-15055484D01*
X11734586Y-15055484D02*
X11734586Y-15074532D01*
X11734586Y-15074532D02*
X11725062Y-15103103D01*
X11725062Y-15103103D02*
X11610777Y-15217389D01*
X11610777Y-15217389D02*
X11734586Y-15217389D01*
X11858396Y-15017389D02*
X11877443Y-15017389D01*
X11877443Y-15017389D02*
X11896491Y-15026913D01*
X11896491Y-15026913D02*
X11906015Y-15036436D01*
X11906015Y-15036436D02*
X11915539Y-15055484D01*
X11915539Y-15055484D02*
X11925062Y-15093579D01*
X11925062Y-15093579D02*
X11925062Y-15141198D01*
X11925062Y-15141198D02*
X11915539Y-15179293D01*
X11915539Y-15179293D02*
X11906015Y-15198341D01*
X11906015Y-15198341D02*
X11896491Y-15207865D01*
X11896491Y-15207865D02*
X11877443Y-15217389D01*
X11877443Y-15217389D02*
X11858396Y-15217389D01*
X11858396Y-15217389D02*
X11839348Y-15207865D01*
X11839348Y-15207865D02*
X11829824Y-15198341D01*
X11829824Y-15198341D02*
X11820301Y-15179293D01*
X11820301Y-15179293D02*
X11810777Y-15141198D01*
X11810777Y-15141198D02*
X11810777Y-15093579D01*
X11810777Y-15093579D02*
X11820301Y-15055484D01*
X11820301Y-15055484D02*
X11829824Y-15036436D01*
X11829824Y-15036436D02*
X11839348Y-15026913D01*
X11839348Y-15026913D02*
X11858396Y-15017389D01*
X12048872Y-15017389D02*
X12067920Y-15017389D01*
X12067920Y-15017389D02*
X12086967Y-15026913D01*
X12086967Y-15026913D02*
X12096491Y-15036436D01*
X12096491Y-15036436D02*
X12106015Y-15055484D01*
X12106015Y-15055484D02*
X12115539Y-15093579D01*
X12115539Y-15093579D02*
X12115539Y-15141198D01*
X12115539Y-15141198D02*
X12106015Y-15179293D01*
X12106015Y-15179293D02*
X12096491Y-15198341D01*
X12096491Y-15198341D02*
X12086967Y-15207865D01*
X12086967Y-15207865D02*
X12067920Y-15217389D01*
X12067920Y-15217389D02*
X12048872Y-15217389D01*
X12048872Y-15217389D02*
X12029824Y-15207865D01*
X12029824Y-15207865D02*
X12020301Y-15198341D01*
X12020301Y-15198341D02*
X12010777Y-15179293D01*
X12010777Y-15179293D02*
X12001253Y-15141198D01*
X12001253Y-15141198D02*
X12001253Y-15093579D01*
X12001253Y-15093579D02*
X12010777Y-15055484D01*
X12010777Y-15055484D02*
X12020301Y-15036436D01*
X12020301Y-15036436D02*
X12029824Y-15026913D01*
X12029824Y-15026913D02*
X12048872Y-15017389D01*
X12191729Y-15017389D02*
X12191729Y-15055484D01*
X12267920Y-15017389D02*
X12267920Y-15055484D01*
X12563158Y-15293579D02*
X12553634Y-15284055D01*
X12553634Y-15284055D02*
X12534586Y-15255484D01*
X12534586Y-15255484D02*
X12525063Y-15236436D01*
X12525063Y-15236436D02*
X12515539Y-15207865D01*
X12515539Y-15207865D02*
X12506015Y-15160246D01*
X12506015Y-15160246D02*
X12506015Y-15122151D01*
X12506015Y-15122151D02*
X12515539Y-15074532D01*
X12515539Y-15074532D02*
X12525063Y-15045960D01*
X12525063Y-15045960D02*
X12534586Y-15026913D01*
X12534586Y-15026913D02*
X12553634Y-14998341D01*
X12553634Y-14998341D02*
X12563158Y-14988817D01*
X12744110Y-15217389D02*
X12629824Y-15217389D01*
X12686967Y-15217389D02*
X12686967Y-15017389D01*
X12686967Y-15017389D02*
X12667920Y-15045960D01*
X12667920Y-15045960D02*
X12648872Y-15065008D01*
X12648872Y-15065008D02*
X12629824Y-15074532D01*
X12982205Y-15217389D02*
X12982205Y-15017389D01*
X13067920Y-15217389D02*
X13067920Y-15112627D01*
X13067920Y-15112627D02*
X13058396Y-15093579D01*
X13058396Y-15093579D02*
X13039348Y-15084055D01*
X13039348Y-15084055D02*
X13010777Y-15084055D01*
X13010777Y-15084055D02*
X12991729Y-15093579D01*
X12991729Y-15093579D02*
X12982205Y-15103103D01*
X13191729Y-15217389D02*
X13172682Y-15207865D01*
X13172682Y-15207865D02*
X13163158Y-15198341D01*
X13163158Y-15198341D02*
X13153634Y-15179293D01*
X13153634Y-15179293D02*
X13153634Y-15122151D01*
X13153634Y-15122151D02*
X13163158Y-15103103D01*
X13163158Y-15103103D02*
X13172682Y-15093579D01*
X13172682Y-15093579D02*
X13191729Y-15084055D01*
X13191729Y-15084055D02*
X13220301Y-15084055D01*
X13220301Y-15084055D02*
X13239348Y-15093579D01*
X13239348Y-15093579D02*
X13248872Y-15103103D01*
X13248872Y-15103103D02*
X13258396Y-15122151D01*
X13258396Y-15122151D02*
X13258396Y-15179293D01*
X13258396Y-15179293D02*
X13248872Y-15198341D01*
X13248872Y-15198341D02*
X13239348Y-15207865D01*
X13239348Y-15207865D02*
X13220301Y-15217389D01*
X13220301Y-15217389D02*
X13191729Y-15217389D01*
X13372682Y-15217389D02*
X13353634Y-15207865D01*
X13353634Y-15207865D02*
X13344110Y-15188817D01*
X13344110Y-15188817D02*
X13344110Y-15017389D01*
X13525063Y-15207865D02*
X13506015Y-15217389D01*
X13506015Y-15217389D02*
X13467920Y-15217389D01*
X13467920Y-15217389D02*
X13448872Y-15207865D01*
X13448872Y-15207865D02*
X13439348Y-15188817D01*
X13439348Y-15188817D02*
X13439348Y-15112627D01*
X13439348Y-15112627D02*
X13448872Y-15093579D01*
X13448872Y-15093579D02*
X13467920Y-15084055D01*
X13467920Y-15084055D02*
X13506015Y-15084055D01*
X13506015Y-15084055D02*
X13525063Y-15093579D01*
X13525063Y-15093579D02*
X13534586Y-15112627D01*
X13534586Y-15112627D02*
X13534586Y-15131674D01*
X13534586Y-15131674D02*
X13439348Y-15150722D01*
X13601253Y-15293579D02*
X13610777Y-15284055D01*
X13610777Y-15284055D02*
X13629825Y-15255484D01*
X13629825Y-15255484D02*
X13639348Y-15236436D01*
X13639348Y-15236436D02*
X13648872Y-15207865D01*
X13648872Y-15207865D02*
X13658396Y-15160246D01*
X13658396Y-15160246D02*
X13658396Y-15122151D01*
X13658396Y-15122151D02*
X13648872Y-15074532D01*
X13648872Y-15074532D02*
X13639348Y-15045960D01*
X13639348Y-15045960D02*
X13629825Y-15026913D01*
X13629825Y-15026913D02*
X13610777Y-14998341D01*
X13610777Y-14998341D02*
X13601253Y-14988817D01*
X13963158Y-15293579D02*
X13953634Y-15284055D01*
X13953634Y-15284055D02*
X13934586Y-15255484D01*
X13934586Y-15255484D02*
X13925063Y-15236436D01*
X13925063Y-15236436D02*
X13915539Y-15207865D01*
X13915539Y-15207865D02*
X13906015Y-15160246D01*
X13906015Y-15160246D02*
X13906015Y-15122151D01*
X13906015Y-15122151D02*
X13915539Y-15074532D01*
X13915539Y-15074532D02*
X13925063Y-15045960D01*
X13925063Y-15045960D02*
X13934586Y-15026913D01*
X13934586Y-15026913D02*
X13953634Y-14998341D01*
X13953634Y-14998341D02*
X13963158Y-14988817D01*
X14039348Y-15084055D02*
X14039348Y-15217389D01*
X14039348Y-15103103D02*
X14048872Y-15093579D01*
X14048872Y-15093579D02*
X14067920Y-15084055D01*
X14067920Y-15084055D02*
X14096491Y-15084055D01*
X14096491Y-15084055D02*
X14115539Y-15093579D01*
X14115539Y-15093579D02*
X14125063Y-15112627D01*
X14125063Y-15112627D02*
X14125063Y-15217389D01*
X14248872Y-15217389D02*
X14229825Y-15207865D01*
X14229825Y-15207865D02*
X14220301Y-15198341D01*
X14220301Y-15198341D02*
X14210777Y-15179293D01*
X14210777Y-15179293D02*
X14210777Y-15122151D01*
X14210777Y-15122151D02*
X14220301Y-15103103D01*
X14220301Y-15103103D02*
X14229825Y-15093579D01*
X14229825Y-15093579D02*
X14248872Y-15084055D01*
X14248872Y-15084055D02*
X14277444Y-15084055D01*
X14277444Y-15084055D02*
X14296491Y-15093579D01*
X14296491Y-15093579D02*
X14306015Y-15103103D01*
X14306015Y-15103103D02*
X14315539Y-15122151D01*
X14315539Y-15122151D02*
X14315539Y-15179293D01*
X14315539Y-15179293D02*
X14306015Y-15198341D01*
X14306015Y-15198341D02*
X14296491Y-15207865D01*
X14296491Y-15207865D02*
X14277444Y-15217389D01*
X14277444Y-15217389D02*
X14248872Y-15217389D01*
X14372682Y-15084055D02*
X14448872Y-15084055D01*
X14401253Y-15017389D02*
X14401253Y-15188817D01*
X14401253Y-15188817D02*
X14410777Y-15207865D01*
X14410777Y-15207865D02*
X14429825Y-15217389D01*
X14429825Y-15217389D02*
X14448872Y-15217389D01*
X14667920Y-15084055D02*
X14667920Y-15284055D01*
X14667920Y-15093579D02*
X14686967Y-15084055D01*
X14686967Y-15084055D02*
X14725063Y-15084055D01*
X14725063Y-15084055D02*
X14744110Y-15093579D01*
X14744110Y-15093579D02*
X14753634Y-15103103D01*
X14753634Y-15103103D02*
X14763158Y-15122151D01*
X14763158Y-15122151D02*
X14763158Y-15179293D01*
X14763158Y-15179293D02*
X14753634Y-15198341D01*
X14753634Y-15198341D02*
X14744110Y-15207865D01*
X14744110Y-15207865D02*
X14725063Y-15217389D01*
X14725063Y-15217389D02*
X14686967Y-15217389D01*
X14686967Y-15217389D02*
X14667920Y-15207865D01*
X14877444Y-15217389D02*
X14858396Y-15207865D01*
X14858396Y-15207865D02*
X14848872Y-15188817D01*
X14848872Y-15188817D02*
X14848872Y-15017389D01*
X15039348Y-15217389D02*
X15039348Y-15112627D01*
X15039348Y-15112627D02*
X15029825Y-15093579D01*
X15029825Y-15093579D02*
X15010777Y-15084055D01*
X15010777Y-15084055D02*
X14972682Y-15084055D01*
X14972682Y-15084055D02*
X14953634Y-15093579D01*
X15039348Y-15207865D02*
X15020301Y-15217389D01*
X15020301Y-15217389D02*
X14972682Y-15217389D01*
X14972682Y-15217389D02*
X14953634Y-15207865D01*
X14953634Y-15207865D02*
X14944110Y-15188817D01*
X14944110Y-15188817D02*
X14944110Y-15169770D01*
X14944110Y-15169770D02*
X14953634Y-15150722D01*
X14953634Y-15150722D02*
X14972682Y-15141198D01*
X14972682Y-15141198D02*
X15020301Y-15141198D01*
X15020301Y-15141198D02*
X15039348Y-15131674D01*
X15106015Y-15084055D02*
X15182206Y-15084055D01*
X15134587Y-15017389D02*
X15134587Y-15188817D01*
X15134587Y-15188817D02*
X15144110Y-15207865D01*
X15144110Y-15207865D02*
X15163158Y-15217389D01*
X15163158Y-15217389D02*
X15182206Y-15217389D01*
X15325063Y-15207865D02*
X15306015Y-15217389D01*
X15306015Y-15217389D02*
X15267920Y-15217389D01*
X15267920Y-15217389D02*
X15248872Y-15207865D01*
X15248872Y-15207865D02*
X15239348Y-15188817D01*
X15239348Y-15188817D02*
X15239348Y-15112627D01*
X15239348Y-15112627D02*
X15248872Y-15093579D01*
X15248872Y-15093579D02*
X15267920Y-15084055D01*
X15267920Y-15084055D02*
X15306015Y-15084055D01*
X15306015Y-15084055D02*
X15325063Y-15093579D01*
X15325063Y-15093579D02*
X15334587Y-15112627D01*
X15334587Y-15112627D02*
X15334587Y-15131674D01*
X15334587Y-15131674D02*
X15239348Y-15150722D01*
X15506015Y-15217389D02*
X15506015Y-15017389D01*
X15506015Y-15207865D02*
X15486968Y-15217389D01*
X15486968Y-15217389D02*
X15448872Y-15217389D01*
X15448872Y-15217389D02*
X15429825Y-15207865D01*
X15429825Y-15207865D02*
X15420301Y-15198341D01*
X15420301Y-15198341D02*
X15410777Y-15179293D01*
X15410777Y-15179293D02*
X15410777Y-15122151D01*
X15410777Y-15122151D02*
X15420301Y-15103103D01*
X15420301Y-15103103D02*
X15429825Y-15093579D01*
X15429825Y-15093579D02*
X15448872Y-15084055D01*
X15448872Y-15084055D02*
X15486968Y-15084055D01*
X15486968Y-15084055D02*
X15506015Y-15093579D01*
X15582206Y-15293579D02*
X15591729Y-15284055D01*
X15591729Y-15284055D02*
X15610777Y-15255484D01*
X15610777Y-15255484D02*
X15620301Y-15236436D01*
X15620301Y-15236436D02*
X15629825Y-15207865D01*
X15629825Y-15207865D02*
X15639348Y-15160246D01*
X15639348Y-15160246D02*
X15639348Y-15122151D01*
X15639348Y-15122151D02*
X15629825Y-15074532D01*
X15629825Y-15074532D02*
X15620301Y-15045960D01*
X15620301Y-15045960D02*
X15610777Y-15026913D01*
X15610777Y-15026913D02*
X15591729Y-14998341D01*
X15591729Y-14998341D02*
X15582206Y-14988817D01*
M02*
