%TF.GenerationSoftware,KiCad,Pcbnew,9.0.3*%
%TF.CreationDate,2025-08-13T11:49:18-07:00*%
%TF.ProjectId,PD Board,50442042-6f61-4726-942e-6b696361645f,rev?*%
%TF.SameCoordinates,Original*%
%TF.FileFunction,Legend,Bot*%
%TF.FilePolarity,Positive*%
%FSLAX46Y46*%
G04 Gerber Fmt 4.6, Leading zero omitted, Abs format (unit mm)*
G04 Created by KiCad (PCBNEW 9.0.3) date 2025-08-13 11:49:18*
%MOMM*%
%LPD*%
G01*
G04 APERTURE LIST*
%ADD10C,0.400000*%
%ADD11C,0.191421*%
%ADD12C,0.508000*%
G04 APERTURE END LIST*
D10*
X160149223Y-94944438D02*
X160149223Y-96373009D01*
X160149223Y-96373009D02*
X160244462Y-96658723D01*
X160244462Y-96658723D02*
X160434938Y-96849200D01*
X160434938Y-96849200D02*
X160720652Y-96944438D01*
X160720652Y-96944438D02*
X160911128Y-96944438D01*
X158244461Y-96944438D02*
X159196842Y-96944438D01*
X159196842Y-96944438D02*
X159196842Y-94944438D01*
X156434937Y-96753961D02*
X156530175Y-96849200D01*
X156530175Y-96849200D02*
X156815889Y-96944438D01*
X156815889Y-96944438D02*
X157006365Y-96944438D01*
X157006365Y-96944438D02*
X157292080Y-96849200D01*
X157292080Y-96849200D02*
X157482556Y-96658723D01*
X157482556Y-96658723D02*
X157577794Y-96468247D01*
X157577794Y-96468247D02*
X157673032Y-96087295D01*
X157673032Y-96087295D02*
X157673032Y-95801580D01*
X157673032Y-95801580D02*
X157577794Y-95420628D01*
X157577794Y-95420628D02*
X157482556Y-95230152D01*
X157482556Y-95230152D02*
X157292080Y-95039676D01*
X157292080Y-95039676D02*
X157006365Y-94944438D01*
X157006365Y-94944438D02*
X156815889Y-94944438D01*
X156815889Y-94944438D02*
X156530175Y-95039676D01*
X156530175Y-95039676D02*
X156434937Y-95134914D01*
X155006365Y-94944438D02*
X155006365Y-96373009D01*
X155006365Y-96373009D02*
X155101604Y-96658723D01*
X155101604Y-96658723D02*
X155292080Y-96849200D01*
X155292080Y-96849200D02*
X155577794Y-96944438D01*
X155577794Y-96944438D02*
X155768270Y-96944438D01*
X153101603Y-96944438D02*
X154053984Y-96944438D01*
X154053984Y-96944438D02*
X154053984Y-94944438D01*
X151292079Y-96753961D02*
X151387317Y-96849200D01*
X151387317Y-96849200D02*
X151673031Y-96944438D01*
X151673031Y-96944438D02*
X151863507Y-96944438D01*
X151863507Y-96944438D02*
X152149222Y-96849200D01*
X152149222Y-96849200D02*
X152339698Y-96658723D01*
X152339698Y-96658723D02*
X152434936Y-96468247D01*
X152434936Y-96468247D02*
X152530174Y-96087295D01*
X152530174Y-96087295D02*
X152530174Y-95801580D01*
X152530174Y-95801580D02*
X152434936Y-95420628D01*
X152434936Y-95420628D02*
X152339698Y-95230152D01*
X152339698Y-95230152D02*
X152149222Y-95039676D01*
X152149222Y-95039676D02*
X151863507Y-94944438D01*
X151863507Y-94944438D02*
X151673031Y-94944438D01*
X151673031Y-94944438D02*
X151387317Y-95039676D01*
X151387317Y-95039676D02*
X151292079Y-95134914D01*
X149863507Y-94944438D02*
X149863507Y-96373009D01*
X149863507Y-96373009D02*
X149958746Y-96658723D01*
X149958746Y-96658723D02*
X150149222Y-96849200D01*
X150149222Y-96849200D02*
X150434936Y-96944438D01*
X150434936Y-96944438D02*
X150625412Y-96944438D01*
X147958745Y-96944438D02*
X148911126Y-96944438D01*
X148911126Y-96944438D02*
X148911126Y-94944438D01*
X146149221Y-96753961D02*
X146244459Y-96849200D01*
X146244459Y-96849200D02*
X146530173Y-96944438D01*
X146530173Y-96944438D02*
X146720649Y-96944438D01*
X146720649Y-96944438D02*
X147006364Y-96849200D01*
X147006364Y-96849200D02*
X147196840Y-96658723D01*
X147196840Y-96658723D02*
X147292078Y-96468247D01*
X147292078Y-96468247D02*
X147387316Y-96087295D01*
X147387316Y-96087295D02*
X147387316Y-95801580D01*
X147387316Y-95801580D02*
X147292078Y-95420628D01*
X147292078Y-95420628D02*
X147196840Y-95230152D01*
X147196840Y-95230152D02*
X147006364Y-95039676D01*
X147006364Y-95039676D02*
X146720649Y-94944438D01*
X146720649Y-94944438D02*
X146530173Y-94944438D01*
X146530173Y-94944438D02*
X146244459Y-95039676D01*
X146244459Y-95039676D02*
X146149221Y-95134914D01*
X144720649Y-94944438D02*
X144720649Y-96373009D01*
X144720649Y-96373009D02*
X144815888Y-96658723D01*
X144815888Y-96658723D02*
X145006364Y-96849200D01*
X145006364Y-96849200D02*
X145292078Y-96944438D01*
X145292078Y-96944438D02*
X145482554Y-96944438D01*
X142815887Y-96944438D02*
X143768268Y-96944438D01*
X143768268Y-96944438D02*
X143768268Y-94944438D01*
X141006363Y-96753961D02*
X141101601Y-96849200D01*
X141101601Y-96849200D02*
X141387315Y-96944438D01*
X141387315Y-96944438D02*
X141577791Y-96944438D01*
X141577791Y-96944438D02*
X141863506Y-96849200D01*
X141863506Y-96849200D02*
X142053982Y-96658723D01*
X142053982Y-96658723D02*
X142149220Y-96468247D01*
X142149220Y-96468247D02*
X142244458Y-96087295D01*
X142244458Y-96087295D02*
X142244458Y-95801580D01*
X142244458Y-95801580D02*
X142149220Y-95420628D01*
X142149220Y-95420628D02*
X142053982Y-95230152D01*
X142053982Y-95230152D02*
X141863506Y-95039676D01*
X141863506Y-95039676D02*
X141577791Y-94944438D01*
X141577791Y-94944438D02*
X141387315Y-94944438D01*
X141387315Y-94944438D02*
X141101601Y-95039676D01*
X141101601Y-95039676D02*
X141006363Y-95134914D01*
%TO.C,J1*%
D11*
X93275710Y-112820000D02*
G75*
G02*
X93084290Y-112820000I-95710J0D01*
G01*
X93084290Y-112820000D02*
G75*
G02*
X93275710Y-112820000I95710J0D01*
G01*
D12*
%TO.C,M1*%
X95069902Y-128748400D02*
G75*
G02*
X94307902Y-128748400I-381000J0D01*
G01*
X94307902Y-128748400D02*
G75*
G02*
X95069902Y-128748400I381000J0D01*
G01*
%TD*%
M02*
