%TF.GenerationSoftware,KiCad,Pcbnew,9.0.3*%
%TF.CreationDate,2025-08-13T11:49:18-07:00*%
%TF.ProjectId,PD Board,50442042-6f61-4726-942e-6b696361645f,rev?*%
%TF.SameCoordinates,Original*%
%TF.FileFunction,Copper,L4,Bot*%
%TF.FilePolarity,Positive*%
%FSLAX46Y46*%
G04 Gerber Fmt 4.6, Leading zero omitted, Abs format (unit mm)*
G04 Created by KiCad (PCBNEW 9.0.3) date 2025-08-13 11:49:18*
%MOMM*%
%LPD*%
G01*
G04 APERTURE LIST*
G04 Aperture macros list*
%AMRoundRect*
0 Rectangle with rounded corners*
0 $1 Rounding radius*
0 $2 $3 $4 $5 $6 $7 $8 $9 X,Y pos of 4 corners*
0 Add a 4 corners polygon primitive as box body*
4,1,4,$2,$3,$4,$5,$6,$7,$8,$9,$2,$3,0*
0 Add four circle primitives for the rounded corners*
1,1,$1+$1,$2,$3*
1,1,$1+$1,$4,$5*
1,1,$1+$1,$6,$7*
1,1,$1+$1,$8,$9*
0 Add four rect primitives between the rounded corners*
20,1,$1+$1,$2,$3,$4,$5,0*
20,1,$1+$1,$4,$5,$6,$7,0*
20,1,$1+$1,$6,$7,$8,$9,0*
20,1,$1+$1,$8,$9,$2,$3,0*%
G04 Aperture macros list end*
%TA.AperFunction,ComponentPad*%
%ADD10R,1.950000X1.950000*%
%TD*%
%TA.AperFunction,ComponentPad*%
%ADD11C,1.950000*%
%TD*%
%TA.AperFunction,ComponentPad*%
%ADD12RoundRect,0.250000X-0.552500X0.552500X-0.552500X-0.552500X0.552500X-0.552500X0.552500X0.552500X0*%
%TD*%
%TA.AperFunction,ComponentPad*%
%ADD13C,1.605000*%
%TD*%
%TA.AperFunction,ComponentPad*%
%ADD14C,2.362200*%
%TD*%
%TA.AperFunction,ViaPad*%
%ADD15C,0.600000*%
%TD*%
G04 APERTURE END LIST*
D10*
%TO.P,P7,1,1.1*%
%TO.N,GND*%
X144330000Y-111780000D03*
D11*
%TO.P,P7,2,1.2*%
X144330000Y-103580000D03*
%TO.P,P7,3,2.1*%
%TO.N,+20V*%
X139330000Y-111780000D03*
%TO.P,P7,4,2.2*%
X139330000Y-103580000D03*
%TD*%
D12*
%TO.P,J1,1,Pin_1*%
%TO.N,unconnected-(J1-Pin_1-Pad1)*%
X93180000Y-111520000D03*
D13*
%TO.P,J1,2,Pin_2*%
%TO.N,+20V*%
X96180000Y-111520000D03*
%TO.P,J1,3,Pin_3*%
%TO.N,unconnected-(J1-Pin_3-Pad3)*%
X93180000Y-108520000D03*
%TO.P,J1,4,Pin_4*%
%TO.N,GND*%
X96180000Y-108520000D03*
%TD*%
D10*
%TO.P,P3,1,1.1*%
%TO.N,GND*%
X138230000Y-120950000D03*
D11*
%TO.P,P3,2,1.2*%
X138230000Y-129150000D03*
%TO.P,P3,3,2.1*%
%TO.N,+20V*%
X143230000Y-120950000D03*
%TO.P,P3,4,2.2*%
X143230000Y-129150000D03*
%TD*%
D10*
%TO.P,P8,1,1.1*%
%TO.N,GND*%
X159830000Y-111780000D03*
D11*
%TO.P,P8,2,1.2*%
X159830000Y-103580000D03*
%TO.P,P8,3,2.1*%
%TO.N,+20V*%
X154830000Y-111780000D03*
%TO.P,P8,4,2.2*%
X154830000Y-103580000D03*
%TD*%
D14*
%TO.P,M1,1,1*%
%TO.N,+20V*%
X94688902Y-124816602D03*
%TO.P,M1,2,2*%
%TO.N,GND*%
X94688902Y-119116598D03*
%TD*%
D10*
%TO.P,P4,1,1.1*%
%TO.N,GND*%
X153730000Y-120950000D03*
D11*
%TO.P,P4,2,1.2*%
X153730000Y-129150000D03*
%TO.P,P4,3,2.1*%
%TO.N,+20V*%
X158730000Y-120950000D03*
%TO.P,P4,4,2.2*%
X158730000Y-129150000D03*
%TD*%
D10*
%TO.P,P1,1,1.1*%
%TO.N,GND*%
X107230000Y-120950000D03*
D11*
%TO.P,P1,2,1.2*%
X107230000Y-129150000D03*
%TO.P,P1,3,2.1*%
%TO.N,+20V*%
X112230000Y-120950000D03*
%TO.P,P1,4,2.2*%
X112230000Y-129150000D03*
%TD*%
D10*
%TO.P,P2,1,1.1*%
%TO.N,GND*%
X122730000Y-120950000D03*
D11*
%TO.P,P2,2,1.2*%
X122730000Y-129150000D03*
%TO.P,P2,3,2.1*%
%TO.N,+20V*%
X127730000Y-120950000D03*
%TO.P,P2,4,2.2*%
X127730000Y-129150000D03*
%TD*%
D10*
%TO.P,P6,1,1.1*%
%TO.N,GND*%
X128830000Y-111780000D03*
D11*
%TO.P,P6,2,1.2*%
X128830000Y-103580000D03*
%TO.P,P6,3,2.1*%
%TO.N,+20V*%
X123830000Y-111780000D03*
%TO.P,P6,4,2.2*%
X123830000Y-103580000D03*
%TD*%
D10*
%TO.P,P5,1,1.1*%
%TO.N,GND*%
X113330000Y-111780000D03*
D11*
%TO.P,P5,2,1.2*%
X113330000Y-103580000D03*
%TO.P,P5,3,2.1*%
%TO.N,+20V*%
X108330000Y-111780000D03*
%TO.P,P5,4,2.2*%
X108330000Y-103580000D03*
%TD*%
D15*
%TO.N,GND*%
X99220000Y-103340000D03*
X91990000Y-99910000D03*
%TD*%
%TA.AperFunction,Conductor*%
%TO.N,GND*%
G36*
X167904418Y-93500816D02*
G01*
X168118791Y-93516148D01*
X168136296Y-93518665D01*
X168341969Y-93563406D01*
X168358928Y-93568385D01*
X168556150Y-93641946D01*
X168572242Y-93649296D01*
X168756968Y-93750163D01*
X168771848Y-93759724D01*
X168879226Y-93840107D01*
X168940353Y-93885866D01*
X168953723Y-93897452D01*
X169102547Y-94046276D01*
X169114133Y-94059646D01*
X169240271Y-94228146D01*
X169249836Y-94243031D01*
X169350703Y-94427757D01*
X169358053Y-94443849D01*
X169431611Y-94641063D01*
X169436595Y-94658039D01*
X169481333Y-94863700D01*
X169483851Y-94881211D01*
X169499184Y-95095580D01*
X169499500Y-95104427D01*
X169499500Y-136895572D01*
X169499184Y-136904419D01*
X169483851Y-137118788D01*
X169481333Y-137136299D01*
X169436595Y-137341960D01*
X169431611Y-137358936D01*
X169358053Y-137556150D01*
X169350703Y-137572242D01*
X169249836Y-137756968D01*
X169240271Y-137771853D01*
X169114133Y-137940353D01*
X169102547Y-137953723D01*
X168953723Y-138102547D01*
X168940353Y-138114133D01*
X168771853Y-138240271D01*
X168756968Y-138249836D01*
X168572242Y-138350703D01*
X168556150Y-138358053D01*
X168358936Y-138431611D01*
X168341960Y-138436595D01*
X168136299Y-138481333D01*
X168118788Y-138483851D01*
X167923369Y-138497828D01*
X167904417Y-138499184D01*
X167895572Y-138499500D01*
X92004428Y-138499500D01*
X91995582Y-138499184D01*
X91974407Y-138497669D01*
X91781211Y-138483851D01*
X91763700Y-138481333D01*
X91558039Y-138436595D01*
X91541063Y-138431611D01*
X91343849Y-138358053D01*
X91327757Y-138350703D01*
X91143031Y-138249836D01*
X91128146Y-138240271D01*
X90959646Y-138114133D01*
X90946276Y-138102547D01*
X90797452Y-137953723D01*
X90785866Y-137940353D01*
X90659724Y-137771848D01*
X90650163Y-137756968D01*
X90549296Y-137572242D01*
X90541946Y-137556150D01*
X90514790Y-137483342D01*
X90468385Y-137358928D01*
X90463406Y-137341969D01*
X90418665Y-137136296D01*
X90416148Y-137118787D01*
X90400816Y-136904418D01*
X90400500Y-136895572D01*
X90400500Y-136081902D01*
X91199500Y-136081902D01*
X91199500Y-136318097D01*
X91236446Y-136551368D01*
X91309433Y-136775996D01*
X91416657Y-136986433D01*
X91555483Y-137177510D01*
X91722490Y-137344517D01*
X91913567Y-137483343D01*
X92012991Y-137534002D01*
X92124003Y-137590566D01*
X92124005Y-137590566D01*
X92124008Y-137590568D01*
X92244412Y-137629689D01*
X92348631Y-137663553D01*
X92581903Y-137700500D01*
X92581908Y-137700500D01*
X92818097Y-137700500D01*
X93051368Y-137663553D01*
X93275992Y-137590568D01*
X93486433Y-137483343D01*
X93677510Y-137344517D01*
X93844517Y-137177510D01*
X93983343Y-136986433D01*
X94090568Y-136775992D01*
X94163553Y-136551368D01*
X94200500Y-136318097D01*
X94200500Y-136081902D01*
X165699500Y-136081902D01*
X165699500Y-136318097D01*
X165736446Y-136551368D01*
X165809433Y-136775996D01*
X165916657Y-136986433D01*
X166055483Y-137177510D01*
X166222490Y-137344517D01*
X166413567Y-137483343D01*
X166512991Y-137534002D01*
X166624003Y-137590566D01*
X166624005Y-137590566D01*
X166624008Y-137590568D01*
X166744412Y-137629689D01*
X166848631Y-137663553D01*
X167081903Y-137700500D01*
X167081908Y-137700500D01*
X167318097Y-137700500D01*
X167551368Y-137663553D01*
X167775992Y-137590568D01*
X167986433Y-137483343D01*
X168177510Y-137344517D01*
X168344517Y-137177510D01*
X168483343Y-136986433D01*
X168590568Y-136775992D01*
X168663553Y-136551368D01*
X168700500Y-136318097D01*
X168700500Y-136081902D01*
X168663553Y-135848631D01*
X168590566Y-135624003D01*
X168483342Y-135413566D01*
X168344517Y-135222490D01*
X168177510Y-135055483D01*
X167986433Y-134916657D01*
X167775996Y-134809433D01*
X167551368Y-134736446D01*
X167318097Y-134699500D01*
X167318092Y-134699500D01*
X167081908Y-134699500D01*
X167081903Y-134699500D01*
X166848631Y-134736446D01*
X166624003Y-134809433D01*
X166413566Y-134916657D01*
X166304550Y-134995862D01*
X166222490Y-135055483D01*
X166222488Y-135055485D01*
X166222487Y-135055485D01*
X166055485Y-135222487D01*
X166055485Y-135222488D01*
X166055483Y-135222490D01*
X165995862Y-135304550D01*
X165916657Y-135413566D01*
X165809433Y-135624003D01*
X165736446Y-135848631D01*
X165699500Y-136081902D01*
X94200500Y-136081902D01*
X94163553Y-135848631D01*
X94090566Y-135624003D01*
X93983342Y-135413566D01*
X93844517Y-135222490D01*
X93677510Y-135055483D01*
X93486433Y-134916657D01*
X93275996Y-134809433D01*
X93051368Y-134736446D01*
X92818097Y-134699500D01*
X92818092Y-134699500D01*
X92581908Y-134699500D01*
X92581903Y-134699500D01*
X92348631Y-134736446D01*
X92124003Y-134809433D01*
X91913566Y-134916657D01*
X91804550Y-134995862D01*
X91722490Y-135055483D01*
X91722488Y-135055485D01*
X91722487Y-135055485D01*
X91555485Y-135222487D01*
X91555485Y-135222488D01*
X91555483Y-135222490D01*
X91495862Y-135304550D01*
X91416657Y-135413566D01*
X91309433Y-135624003D01*
X91236446Y-135848631D01*
X91199500Y-136081902D01*
X90400500Y-136081902D01*
X90400500Y-129033909D01*
X105755000Y-129033909D01*
X105755000Y-129266090D01*
X105791318Y-129495393D01*
X105863065Y-129716205D01*
X105968465Y-129923064D01*
X106025238Y-130001207D01*
X106628958Y-129397487D01*
X106653978Y-129457890D01*
X106725112Y-129564351D01*
X106815649Y-129654888D01*
X106922110Y-129726022D01*
X106982510Y-129751041D01*
X106378791Y-130354759D01*
X106378791Y-130354760D01*
X106456935Y-130411534D01*
X106663794Y-130516934D01*
X106884606Y-130588681D01*
X107113910Y-130625000D01*
X107346090Y-130625000D01*
X107575393Y-130588681D01*
X107796205Y-130516934D01*
X108003071Y-130411530D01*
X108081207Y-130354762D01*
X108081208Y-130354760D01*
X107477488Y-129751041D01*
X107537890Y-129726022D01*
X107644351Y-129654888D01*
X107734888Y-129564351D01*
X107806022Y-129457890D01*
X107831041Y-129397488D01*
X108434760Y-130001208D01*
X108434762Y-130001207D01*
X108491530Y-129923071D01*
X108596934Y-129716205D01*
X108668681Y-129495393D01*
X108705000Y-129266090D01*
X108705000Y-129033909D01*
X108704994Y-129033870D01*
X110754500Y-129033870D01*
X110754500Y-129266129D01*
X110790831Y-129495514D01*
X110862601Y-129716400D01*
X110967903Y-129923064D01*
X110968039Y-129923331D01*
X111104551Y-130111224D01*
X111268776Y-130275449D01*
X111456669Y-130411961D01*
X111554436Y-130461776D01*
X111663599Y-130517398D01*
X111663601Y-130517398D01*
X111663604Y-130517400D01*
X111884486Y-130589169D01*
X112002668Y-130607886D01*
X112113871Y-130625500D01*
X112113876Y-130625500D01*
X112346129Y-130625500D01*
X112447502Y-130609443D01*
X112575514Y-130589169D01*
X112796396Y-130517400D01*
X113003331Y-130411961D01*
X113191224Y-130275449D01*
X113355449Y-130111224D01*
X113491961Y-129923331D01*
X113597400Y-129716396D01*
X113669169Y-129495514D01*
X113693863Y-129339598D01*
X113705500Y-129266129D01*
X113705500Y-129033909D01*
X121255000Y-129033909D01*
X121255000Y-129266090D01*
X121291318Y-129495393D01*
X121363065Y-129716205D01*
X121468465Y-129923064D01*
X121525238Y-130001207D01*
X122128958Y-129397487D01*
X122153978Y-129457890D01*
X122225112Y-129564351D01*
X122315649Y-129654888D01*
X122422110Y-129726022D01*
X122482510Y-129751041D01*
X121878791Y-130354759D01*
X121878791Y-130354760D01*
X121956935Y-130411534D01*
X122163794Y-130516934D01*
X122384606Y-130588681D01*
X122613910Y-130625000D01*
X122846090Y-130625000D01*
X123075393Y-130588681D01*
X123296205Y-130516934D01*
X123503071Y-130411530D01*
X123581207Y-130354762D01*
X123581208Y-130354760D01*
X122977488Y-129751041D01*
X123037890Y-129726022D01*
X123144351Y-129654888D01*
X123234888Y-129564351D01*
X123306022Y-129457890D01*
X123331041Y-129397489D01*
X123934760Y-130001208D01*
X123934762Y-130001207D01*
X123991530Y-129923071D01*
X124096934Y-129716205D01*
X124168681Y-129495393D01*
X124205000Y-129266090D01*
X124205000Y-129033909D01*
X124204994Y-129033870D01*
X126254500Y-129033870D01*
X126254500Y-129266129D01*
X126290831Y-129495514D01*
X126362601Y-129716400D01*
X126467903Y-129923064D01*
X126468039Y-129923331D01*
X126604551Y-130111224D01*
X126768776Y-130275449D01*
X126956669Y-130411961D01*
X127054436Y-130461776D01*
X127163599Y-130517398D01*
X127163601Y-130517398D01*
X127163604Y-130517400D01*
X127384486Y-130589169D01*
X127502668Y-130607886D01*
X127613871Y-130625500D01*
X127613876Y-130625500D01*
X127846129Y-130625500D01*
X127947502Y-130609443D01*
X128075514Y-130589169D01*
X128296396Y-130517400D01*
X128503331Y-130411961D01*
X128691224Y-130275449D01*
X128855449Y-130111224D01*
X128991961Y-129923331D01*
X129097400Y-129716396D01*
X129169169Y-129495514D01*
X129193863Y-129339598D01*
X129205500Y-129266129D01*
X129205500Y-129033909D01*
X136755000Y-129033909D01*
X136755000Y-129266090D01*
X136791318Y-129495393D01*
X136863065Y-129716205D01*
X136968465Y-129923064D01*
X137025238Y-130001207D01*
X137628958Y-129397487D01*
X137653978Y-129457890D01*
X137725112Y-129564351D01*
X137815649Y-129654888D01*
X137922110Y-129726022D01*
X137982510Y-129751041D01*
X137378791Y-130354759D01*
X137378791Y-130354760D01*
X137456935Y-130411534D01*
X137663794Y-130516934D01*
X137884606Y-130588681D01*
X138113910Y-130625000D01*
X138346090Y-130625000D01*
X138575393Y-130588681D01*
X138796205Y-130516934D01*
X139003071Y-130411530D01*
X139081207Y-130354762D01*
X139081208Y-130354760D01*
X138477488Y-129751041D01*
X138537890Y-129726022D01*
X138644351Y-129654888D01*
X138734888Y-129564351D01*
X138806022Y-129457890D01*
X138831041Y-129397489D01*
X139434760Y-130001208D01*
X139434762Y-130001207D01*
X139491530Y-129923071D01*
X139596934Y-129716205D01*
X139668681Y-129495393D01*
X139705000Y-129266090D01*
X139705000Y-129033909D01*
X139704994Y-129033870D01*
X141754500Y-129033870D01*
X141754500Y-129266129D01*
X141790831Y-129495514D01*
X141862601Y-129716400D01*
X141967903Y-129923064D01*
X141968039Y-129923331D01*
X142104551Y-130111224D01*
X142268776Y-130275449D01*
X142456669Y-130411961D01*
X142554436Y-130461776D01*
X142663599Y-130517398D01*
X142663601Y-130517398D01*
X142663604Y-130517400D01*
X142884486Y-130589169D01*
X143002668Y-130607886D01*
X143113871Y-130625500D01*
X143113876Y-130625500D01*
X143346129Y-130625500D01*
X143447502Y-130609443D01*
X143575514Y-130589169D01*
X143796396Y-130517400D01*
X144003331Y-130411961D01*
X144191224Y-130275449D01*
X144355449Y-130111224D01*
X144491961Y-129923331D01*
X144597400Y-129716396D01*
X144669169Y-129495514D01*
X144693863Y-129339598D01*
X144705500Y-129266129D01*
X144705500Y-129033909D01*
X152255000Y-129033909D01*
X152255000Y-129266090D01*
X152291318Y-129495393D01*
X152363065Y-129716205D01*
X152468465Y-129923064D01*
X152525238Y-130001207D01*
X153128958Y-129397487D01*
X153153978Y-129457890D01*
X153225112Y-129564351D01*
X153315649Y-129654888D01*
X153422110Y-129726022D01*
X153482510Y-129751041D01*
X152878791Y-130354759D01*
X152878791Y-130354760D01*
X152956935Y-130411534D01*
X153163794Y-130516934D01*
X153384606Y-130588681D01*
X153613910Y-130625000D01*
X153846090Y-130625000D01*
X154075393Y-130588681D01*
X154296205Y-130516934D01*
X154503071Y-130411530D01*
X154581207Y-130354762D01*
X154581208Y-130354760D01*
X153977488Y-129751041D01*
X154037890Y-129726022D01*
X154144351Y-129654888D01*
X154234888Y-129564351D01*
X154306022Y-129457890D01*
X154331041Y-129397489D01*
X154934760Y-130001208D01*
X154934762Y-130001207D01*
X154991530Y-129923071D01*
X155096934Y-129716205D01*
X155168681Y-129495393D01*
X155205000Y-129266090D01*
X155205000Y-129033909D01*
X155204994Y-129033870D01*
X157254500Y-129033870D01*
X157254500Y-129266129D01*
X157290831Y-129495514D01*
X157362601Y-129716400D01*
X157467903Y-129923064D01*
X157468039Y-129923331D01*
X157604551Y-130111224D01*
X157768776Y-130275449D01*
X157956669Y-130411961D01*
X158054436Y-130461776D01*
X158163599Y-130517398D01*
X158163601Y-130517398D01*
X158163604Y-130517400D01*
X158384486Y-130589169D01*
X158502668Y-130607886D01*
X158613871Y-130625500D01*
X158613876Y-130625500D01*
X158846129Y-130625500D01*
X158947502Y-130609443D01*
X159075514Y-130589169D01*
X159296396Y-130517400D01*
X159503331Y-130411961D01*
X159691224Y-130275449D01*
X159855449Y-130111224D01*
X159991961Y-129923331D01*
X160097400Y-129716396D01*
X160169169Y-129495514D01*
X160193863Y-129339598D01*
X160205500Y-129266129D01*
X160205500Y-129033870D01*
X160186232Y-128912222D01*
X160169169Y-128804486D01*
X160097400Y-128583604D01*
X160097398Y-128583601D01*
X160097398Y-128583599D01*
X160041776Y-128474436D01*
X159991961Y-128376669D01*
X159855449Y-128188776D01*
X159691224Y-128024551D01*
X159503331Y-127888039D01*
X159296400Y-127782601D01*
X159075514Y-127710831D01*
X158846129Y-127674500D01*
X158846124Y-127674500D01*
X158613876Y-127674500D01*
X158613871Y-127674500D01*
X158384485Y-127710831D01*
X158163599Y-127782601D01*
X157956668Y-127888039D01*
X157768773Y-128024553D01*
X157604553Y-128188773D01*
X157468039Y-128376668D01*
X157362601Y-128583599D01*
X157290831Y-128804485D01*
X157254500Y-129033870D01*
X155204994Y-129033870D01*
X155168681Y-128804606D01*
X155096934Y-128583794D01*
X154991534Y-128376935D01*
X154934760Y-128298791D01*
X154331041Y-128902510D01*
X154306022Y-128842110D01*
X154234888Y-128735649D01*
X154144351Y-128645112D01*
X154037890Y-128573978D01*
X153977487Y-128548957D01*
X154581207Y-127945238D01*
X154503064Y-127888465D01*
X154296205Y-127783065D01*
X154075393Y-127711318D01*
X153846090Y-127675000D01*
X153613910Y-127675000D01*
X153384606Y-127711318D01*
X153163794Y-127783065D01*
X152956925Y-127888470D01*
X152878791Y-127945237D01*
X152878791Y-127945238D01*
X153482511Y-128548958D01*
X153422110Y-128573978D01*
X153315649Y-128645112D01*
X153225112Y-128735649D01*
X153153978Y-128842110D01*
X153128958Y-128902511D01*
X152525238Y-128298791D01*
X152525237Y-128298791D01*
X152468470Y-128376925D01*
X152363065Y-128583794D01*
X152291318Y-128804606D01*
X152255000Y-129033909D01*
X144705500Y-129033909D01*
X144705500Y-129033870D01*
X144686232Y-128912222D01*
X144669169Y-128804486D01*
X144597400Y-128583604D01*
X144597398Y-128583601D01*
X144597398Y-128583599D01*
X144541776Y-128474436D01*
X144491961Y-128376669D01*
X144355449Y-128188776D01*
X144191224Y-128024551D01*
X144003331Y-127888039D01*
X143796400Y-127782601D01*
X143575514Y-127710831D01*
X143346129Y-127674500D01*
X143346124Y-127674500D01*
X143113876Y-127674500D01*
X143113871Y-127674500D01*
X142884485Y-127710831D01*
X142663599Y-127782601D01*
X142456668Y-127888039D01*
X142268773Y-128024553D01*
X142104553Y-128188773D01*
X141968039Y-128376668D01*
X141862601Y-128583599D01*
X141790831Y-128804485D01*
X141754500Y-129033870D01*
X139704994Y-129033870D01*
X139668681Y-128804606D01*
X139596934Y-128583794D01*
X139491534Y-128376935D01*
X139434760Y-128298791D01*
X139434759Y-128298791D01*
X138831041Y-128902510D01*
X138806022Y-128842110D01*
X138734888Y-128735649D01*
X138644351Y-128645112D01*
X138537890Y-128573978D01*
X138477487Y-128548957D01*
X139081207Y-127945238D01*
X139003064Y-127888465D01*
X138796205Y-127783065D01*
X138575393Y-127711318D01*
X138346090Y-127675000D01*
X138113910Y-127675000D01*
X137884606Y-127711318D01*
X137663794Y-127783065D01*
X137456925Y-127888470D01*
X137378791Y-127945237D01*
X137378791Y-127945238D01*
X137982511Y-128548958D01*
X137922110Y-128573978D01*
X137815649Y-128645112D01*
X137725112Y-128735649D01*
X137653978Y-128842110D01*
X137628958Y-128902511D01*
X137025238Y-128298791D01*
X137025237Y-128298791D01*
X136968470Y-128376925D01*
X136863065Y-128583794D01*
X136791318Y-128804606D01*
X136755000Y-129033909D01*
X129205500Y-129033909D01*
X129205500Y-129033870D01*
X129186232Y-128912222D01*
X129169169Y-128804486D01*
X129097400Y-128583604D01*
X129097398Y-128583601D01*
X129097398Y-128583599D01*
X129041776Y-128474436D01*
X128991961Y-128376669D01*
X128855449Y-128188776D01*
X128691224Y-128024551D01*
X128503331Y-127888039D01*
X128296400Y-127782601D01*
X128075514Y-127710831D01*
X127846129Y-127674500D01*
X127846124Y-127674500D01*
X127613876Y-127674500D01*
X127613871Y-127674500D01*
X127384485Y-127710831D01*
X127163599Y-127782601D01*
X126956668Y-127888039D01*
X126768773Y-128024553D01*
X126604553Y-128188773D01*
X126468039Y-128376668D01*
X126362601Y-128583599D01*
X126290831Y-128804485D01*
X126254500Y-129033870D01*
X124204994Y-129033870D01*
X124168681Y-128804606D01*
X124096934Y-128583794D01*
X123991534Y-128376935D01*
X123934760Y-128298791D01*
X123331041Y-128902510D01*
X123306022Y-128842110D01*
X123234888Y-128735649D01*
X123144351Y-128645112D01*
X123037890Y-128573978D01*
X122977487Y-128548957D01*
X123581207Y-127945238D01*
X123503064Y-127888465D01*
X123296205Y-127783065D01*
X123075393Y-127711318D01*
X122846090Y-127675000D01*
X122613910Y-127675000D01*
X122384606Y-127711318D01*
X122163794Y-127783065D01*
X121956925Y-127888470D01*
X121878791Y-127945237D01*
X121878791Y-127945238D01*
X122482511Y-128548958D01*
X122422110Y-128573978D01*
X122315649Y-128645112D01*
X122225112Y-128735649D01*
X122153978Y-128842110D01*
X122128958Y-128902511D01*
X121525238Y-128298791D01*
X121525237Y-128298791D01*
X121468470Y-128376925D01*
X121363065Y-128583794D01*
X121291318Y-128804606D01*
X121255000Y-129033909D01*
X113705500Y-129033909D01*
X113705500Y-129033870D01*
X113686232Y-128912222D01*
X113669169Y-128804486D01*
X113597400Y-128583604D01*
X113597398Y-128583601D01*
X113597398Y-128583599D01*
X113541776Y-128474436D01*
X113491961Y-128376669D01*
X113355449Y-128188776D01*
X113191224Y-128024551D01*
X113003331Y-127888039D01*
X112796400Y-127782601D01*
X112575514Y-127710831D01*
X112346129Y-127674500D01*
X112346124Y-127674500D01*
X112113876Y-127674500D01*
X112113871Y-127674500D01*
X111884485Y-127710831D01*
X111663599Y-127782601D01*
X111456668Y-127888039D01*
X111268773Y-128024553D01*
X111104553Y-128188773D01*
X110968039Y-128376668D01*
X110862601Y-128583599D01*
X110790831Y-128804485D01*
X110754500Y-129033870D01*
X108704994Y-129033870D01*
X108668681Y-128804606D01*
X108596934Y-128583794D01*
X108491534Y-128376935D01*
X108434760Y-128298791D01*
X108434759Y-128298791D01*
X107831041Y-128902510D01*
X107806022Y-128842110D01*
X107734888Y-128735649D01*
X107644351Y-128645112D01*
X107537890Y-128573978D01*
X107477487Y-128548957D01*
X108081207Y-127945238D01*
X108003064Y-127888465D01*
X107796205Y-127783065D01*
X107575393Y-127711318D01*
X107346090Y-127675000D01*
X107113910Y-127675000D01*
X106884606Y-127711318D01*
X106663794Y-127783065D01*
X106456925Y-127888470D01*
X106378791Y-127945237D01*
X106378791Y-127945238D01*
X106982511Y-128548958D01*
X106922110Y-128573978D01*
X106815649Y-128645112D01*
X106725112Y-128735649D01*
X106653978Y-128842110D01*
X106628958Y-128902511D01*
X106025238Y-128298791D01*
X106025237Y-128298791D01*
X105968470Y-128376925D01*
X105863065Y-128583794D01*
X105791318Y-128804606D01*
X105755000Y-129033909D01*
X90400500Y-129033909D01*
X90400500Y-121850285D01*
X91574402Y-121850285D01*
X91574402Y-122082914D01*
X91591393Y-122211961D01*
X91604765Y-122313530D01*
X91632917Y-122418596D01*
X91664970Y-122538220D01*
X91753985Y-122753121D01*
X91753990Y-122753132D01*
X91870289Y-122954566D01*
X91870300Y-122954582D01*
X92011898Y-123139117D01*
X92011904Y-123139124D01*
X92176377Y-123303597D01*
X92176383Y-123303602D01*
X92360928Y-123445208D01*
X92360935Y-123445212D01*
X92562369Y-123561511D01*
X92562374Y-123561513D01*
X92562377Y-123561515D01*
X92669830Y-123606023D01*
X92777281Y-123650531D01*
X92777282Y-123650531D01*
X92777284Y-123650532D01*
X93001972Y-123710737D01*
X93174536Y-123733456D01*
X93238432Y-123761723D01*
X93276903Y-123820047D01*
X93277734Y-123889912D01*
X93265737Y-123918395D01*
X93177488Y-124071246D01*
X93177483Y-124071257D01*
X93093129Y-124274905D01*
X93036074Y-124487837D01*
X93007302Y-124706376D01*
X93007302Y-124926827D01*
X93036074Y-125145366D01*
X93093129Y-125358298D01*
X93177483Y-125561946D01*
X93177488Y-125561957D01*
X93287698Y-125752845D01*
X93287709Y-125752861D01*
X93421894Y-125927735D01*
X93421900Y-125927742D01*
X93577761Y-126083603D01*
X93577767Y-126083608D01*
X93752651Y-126217801D01*
X93752658Y-126217805D01*
X93943546Y-126328015D01*
X93943551Y-126328017D01*
X93943554Y-126328019D01*
X94147210Y-126412376D01*
X94360134Y-126469429D01*
X94578684Y-126498202D01*
X94578691Y-126498202D01*
X94799113Y-126498202D01*
X94799120Y-126498202D01*
X95017670Y-126469429D01*
X95230594Y-126412376D01*
X95434250Y-126328019D01*
X95625153Y-126217801D01*
X95800037Y-126083608D01*
X95955908Y-125927737D01*
X96090101Y-125752853D01*
X96200319Y-125561950D01*
X96284676Y-125358294D01*
X96341729Y-125145370D01*
X96370502Y-124926820D01*
X96370502Y-124706384D01*
X96341729Y-124487834D01*
X96284676Y-124274910D01*
X96200319Y-124071254D01*
X96200317Y-124071251D01*
X96200315Y-124071246D01*
X96090105Y-123880358D01*
X96090101Y-123880351D01*
X95955908Y-123705467D01*
X95955903Y-123705461D01*
X95800042Y-123549600D01*
X95800035Y-123549594D01*
X95625161Y-123415409D01*
X95625159Y-123415407D01*
X95625153Y-123415403D01*
X95625148Y-123415400D01*
X95625145Y-123415398D01*
X95434257Y-123305188D01*
X95434246Y-123305183D01*
X95230598Y-123220829D01*
X95213138Y-123216150D01*
X95017670Y-123163775D01*
X94976589Y-123158366D01*
X94912095Y-123149875D01*
X94848199Y-123121608D01*
X94809729Y-123063283D01*
X94808898Y-122993418D01*
X94826442Y-122958746D01*
X94825253Y-122957951D01*
X94827499Y-122954587D01*
X94827510Y-122954574D01*
X94943817Y-122753125D01*
X95032834Y-122538218D01*
X95093039Y-122313530D01*
X95123402Y-122082907D01*
X95123402Y-121850293D01*
X95093039Y-121619670D01*
X95032834Y-121394982D01*
X94943817Y-121180075D01*
X94943813Y-121180067D01*
X94827514Y-120978633D01*
X94827510Y-120978626D01*
X94827503Y-120978617D01*
X94825253Y-120975249D01*
X94826819Y-120974202D01*
X94804363Y-120916141D01*
X94818391Y-120847694D01*
X94867197Y-120797697D01*
X94911746Y-120782866D01*
X95017570Y-120768934D01*
X95230429Y-120711898D01*
X95230441Y-120711894D01*
X95434022Y-120627568D01*
X95434031Y-120627564D01*
X95624871Y-120517382D01*
X95687825Y-120469075D01*
X95687825Y-120469074D01*
X95145364Y-119926614D01*
X95279894Y-119836724D01*
X95409028Y-119707590D01*
X95498917Y-119573060D01*
X96041378Y-120115521D01*
X96041379Y-120115521D01*
X96089686Y-120052567D01*
X96162093Y-119927155D01*
X105755000Y-119927155D01*
X105755000Y-120700000D01*
X106629999Y-120700000D01*
X106604979Y-120760402D01*
X106580000Y-120885981D01*
X106580000Y-121014019D01*
X106604979Y-121139598D01*
X106629999Y-121200000D01*
X105755000Y-121200000D01*
X105755000Y-121972844D01*
X105761401Y-122032372D01*
X105761403Y-122032379D01*
X105811645Y-122167086D01*
X105811649Y-122167093D01*
X105897809Y-122282187D01*
X105897812Y-122282190D01*
X106012906Y-122368350D01*
X106012913Y-122368354D01*
X106147620Y-122418596D01*
X106147627Y-122418598D01*
X106207155Y-122424999D01*
X106207172Y-122425000D01*
X106980000Y-122425000D01*
X106980000Y-121550001D01*
X107040402Y-121575021D01*
X107165981Y-121600000D01*
X107294019Y-121600000D01*
X107419598Y-121575021D01*
X107480000Y-121550001D01*
X107480000Y-122425000D01*
X108252828Y-122425000D01*
X108252844Y-122424999D01*
X108312372Y-122418598D01*
X108312379Y-122418596D01*
X108447086Y-122368354D01*
X108447093Y-122368350D01*
X108562187Y-122282190D01*
X108562190Y-122282187D01*
X108648350Y-122167093D01*
X108648354Y-122167086D01*
X108698596Y-122032379D01*
X108698598Y-122032372D01*
X108704999Y-121972844D01*
X108705000Y-121972827D01*
X108705000Y-121200000D01*
X107830001Y-121200000D01*
X107855021Y-121139598D01*
X107880000Y-121014019D01*
X107880000Y-120885981D01*
X107869635Y-120833870D01*
X110754500Y-120833870D01*
X110754500Y-121066129D01*
X110790831Y-121295514D01*
X110862601Y-121516400D01*
X110915221Y-121619671D01*
X110968039Y-121723331D01*
X111104551Y-121911224D01*
X111268776Y-122075449D01*
X111456669Y-122211961D01*
X111554436Y-122261776D01*
X111663599Y-122317398D01*
X111663601Y-122317398D01*
X111663604Y-122317400D01*
X111884486Y-122389169D01*
X112002668Y-122407886D01*
X112113871Y-122425500D01*
X112113876Y-122425500D01*
X112346129Y-122425500D01*
X112447502Y-122409443D01*
X112575514Y-122389169D01*
X112796396Y-122317400D01*
X113003331Y-122211961D01*
X113191224Y-122075449D01*
X113355449Y-121911224D01*
X113491961Y-121723331D01*
X113597400Y-121516396D01*
X113669169Y-121295514D01*
X113695504Y-121129240D01*
X113705500Y-121066129D01*
X113705500Y-120833870D01*
X113684297Y-120700000D01*
X113669169Y-120604486D01*
X113597400Y-120383604D01*
X113597398Y-120383601D01*
X113597398Y-120383599D01*
X113503682Y-120199673D01*
X113491961Y-120176669D01*
X113355449Y-119988776D01*
X113293828Y-119927155D01*
X121255000Y-119927155D01*
X121255000Y-120700000D01*
X122129999Y-120700000D01*
X122104979Y-120760402D01*
X122080000Y-120885981D01*
X122080000Y-121014019D01*
X122104979Y-121139598D01*
X122129999Y-121200000D01*
X121255000Y-121200000D01*
X121255000Y-121972844D01*
X121261401Y-122032372D01*
X121261403Y-122032379D01*
X121311645Y-122167086D01*
X121311649Y-122167093D01*
X121397809Y-122282187D01*
X121397812Y-122282190D01*
X121512906Y-122368350D01*
X121512913Y-122368354D01*
X121647620Y-122418596D01*
X121647627Y-122418598D01*
X121707155Y-122424999D01*
X121707172Y-122425000D01*
X122480000Y-122425000D01*
X122480000Y-121550001D01*
X122540402Y-121575021D01*
X122665981Y-121600000D01*
X122794019Y-121600000D01*
X122919598Y-121575021D01*
X122980000Y-121550001D01*
X122980000Y-122425000D01*
X123752828Y-122425000D01*
X123752844Y-122424999D01*
X123812372Y-122418598D01*
X123812379Y-122418596D01*
X123947086Y-122368354D01*
X123947093Y-122368350D01*
X124062187Y-122282190D01*
X124062190Y-122282187D01*
X124148350Y-122167093D01*
X124148354Y-122167086D01*
X124198596Y-122032379D01*
X124198598Y-122032372D01*
X124204999Y-121972844D01*
X124205000Y-121972827D01*
X124205000Y-121200000D01*
X123330001Y-121200000D01*
X123355021Y-121139598D01*
X123380000Y-121014019D01*
X123380000Y-120885981D01*
X123369635Y-120833870D01*
X126254500Y-120833870D01*
X126254500Y-121066129D01*
X126290831Y-121295514D01*
X126362601Y-121516400D01*
X126415221Y-121619671D01*
X126468039Y-121723331D01*
X126604551Y-121911224D01*
X126768776Y-122075449D01*
X126956669Y-122211961D01*
X127054436Y-122261776D01*
X127163599Y-122317398D01*
X127163601Y-122317398D01*
X127163604Y-122317400D01*
X127384486Y-122389169D01*
X127502668Y-122407886D01*
X127613871Y-122425500D01*
X127613876Y-122425500D01*
X127846129Y-122425500D01*
X127947502Y-122409443D01*
X128075514Y-122389169D01*
X128296396Y-122317400D01*
X128503331Y-122211961D01*
X128691224Y-122075449D01*
X128855449Y-121911224D01*
X128991961Y-121723331D01*
X129097400Y-121516396D01*
X129169169Y-121295514D01*
X129195504Y-121129240D01*
X129205500Y-121066129D01*
X129205500Y-120833870D01*
X129184297Y-120700000D01*
X129169169Y-120604486D01*
X129097400Y-120383604D01*
X129097398Y-120383601D01*
X129097398Y-120383599D01*
X129003682Y-120199673D01*
X128991961Y-120176669D01*
X128855449Y-119988776D01*
X128793828Y-119927155D01*
X136755000Y-119927155D01*
X136755000Y-120700000D01*
X137629999Y-120700000D01*
X137604979Y-120760402D01*
X137580000Y-120885981D01*
X137580000Y-121014019D01*
X137604979Y-121139598D01*
X137629999Y-121200000D01*
X136755000Y-121200000D01*
X136755000Y-121972844D01*
X136761401Y-122032372D01*
X136761403Y-122032379D01*
X136811645Y-122167086D01*
X136811649Y-122167093D01*
X136897809Y-122282187D01*
X136897812Y-122282190D01*
X137012906Y-122368350D01*
X137012913Y-122368354D01*
X137147620Y-122418596D01*
X137147627Y-122418598D01*
X137207155Y-122424999D01*
X137207172Y-122425000D01*
X137980000Y-122425000D01*
X137980000Y-121550001D01*
X138040402Y-121575021D01*
X138165981Y-121600000D01*
X138294019Y-121600000D01*
X138419598Y-121575021D01*
X138480000Y-121550001D01*
X138480000Y-122425000D01*
X139252828Y-122425000D01*
X139252844Y-122424999D01*
X139312372Y-122418598D01*
X139312379Y-122418596D01*
X139447086Y-122368354D01*
X139447093Y-122368350D01*
X139562187Y-122282190D01*
X139562190Y-122282187D01*
X139648350Y-122167093D01*
X139648354Y-122167086D01*
X139698596Y-122032379D01*
X139698598Y-122032372D01*
X139704999Y-121972844D01*
X139705000Y-121972827D01*
X139705000Y-121200000D01*
X138830001Y-121200000D01*
X138855021Y-121139598D01*
X138880000Y-121014019D01*
X138880000Y-120885981D01*
X138869635Y-120833870D01*
X141754500Y-120833870D01*
X141754500Y-121066129D01*
X141790831Y-121295514D01*
X141862601Y-121516400D01*
X141915221Y-121619671D01*
X141968039Y-121723331D01*
X142104551Y-121911224D01*
X142268776Y-122075449D01*
X142456669Y-122211961D01*
X142554436Y-122261776D01*
X142663599Y-122317398D01*
X142663601Y-122317398D01*
X142663604Y-122317400D01*
X142884486Y-122389169D01*
X143002668Y-122407886D01*
X143113871Y-122425500D01*
X143113876Y-122425500D01*
X143346129Y-122425500D01*
X143447502Y-122409443D01*
X143575514Y-122389169D01*
X143796396Y-122317400D01*
X144003331Y-122211961D01*
X144191224Y-122075449D01*
X144355449Y-121911224D01*
X144491961Y-121723331D01*
X144597400Y-121516396D01*
X144669169Y-121295514D01*
X144695504Y-121129240D01*
X144705500Y-121066129D01*
X144705500Y-120833870D01*
X144684297Y-120700000D01*
X144669169Y-120604486D01*
X144597400Y-120383604D01*
X144597398Y-120383601D01*
X144597398Y-120383599D01*
X144503682Y-120199673D01*
X144491961Y-120176669D01*
X144355449Y-119988776D01*
X144293828Y-119927155D01*
X152255000Y-119927155D01*
X152255000Y-120700000D01*
X153129999Y-120700000D01*
X153104979Y-120760402D01*
X153080000Y-120885981D01*
X153080000Y-121014019D01*
X153104979Y-121139598D01*
X153129999Y-121200000D01*
X152255000Y-121200000D01*
X152255000Y-121972844D01*
X152261401Y-122032372D01*
X152261403Y-122032379D01*
X152311645Y-122167086D01*
X152311649Y-122167093D01*
X152397809Y-122282187D01*
X152397812Y-122282190D01*
X152512906Y-122368350D01*
X152512913Y-122368354D01*
X152647620Y-122418596D01*
X152647627Y-122418598D01*
X152707155Y-122424999D01*
X152707172Y-122425000D01*
X153480000Y-122425000D01*
X153480000Y-121550001D01*
X153540402Y-121575021D01*
X153665981Y-121600000D01*
X153794019Y-121600000D01*
X153919598Y-121575021D01*
X153980000Y-121550001D01*
X153980000Y-122425000D01*
X154752828Y-122425000D01*
X154752844Y-122424999D01*
X154812372Y-122418598D01*
X154812379Y-122418596D01*
X154947086Y-122368354D01*
X154947093Y-122368350D01*
X155062187Y-122282190D01*
X155062190Y-122282187D01*
X155148350Y-122167093D01*
X155148354Y-122167086D01*
X155198596Y-122032379D01*
X155198598Y-122032372D01*
X155204999Y-121972844D01*
X155205000Y-121972827D01*
X155205000Y-121200000D01*
X154330001Y-121200000D01*
X154355021Y-121139598D01*
X154380000Y-121014019D01*
X154380000Y-120885981D01*
X154369635Y-120833870D01*
X157254500Y-120833870D01*
X157254500Y-121066129D01*
X157290831Y-121295514D01*
X157362601Y-121516400D01*
X157415221Y-121619671D01*
X157468039Y-121723331D01*
X157604551Y-121911224D01*
X157768776Y-122075449D01*
X157956669Y-122211961D01*
X158054436Y-122261776D01*
X158163599Y-122317398D01*
X158163601Y-122317398D01*
X158163604Y-122317400D01*
X158384486Y-122389169D01*
X158502668Y-122407886D01*
X158613871Y-122425500D01*
X158613876Y-122425500D01*
X158846129Y-122425500D01*
X158947502Y-122409443D01*
X159075514Y-122389169D01*
X159296396Y-122317400D01*
X159503331Y-122211961D01*
X159691224Y-122075449D01*
X159855449Y-121911224D01*
X159991961Y-121723331D01*
X160097400Y-121516396D01*
X160169169Y-121295514D01*
X160195504Y-121129240D01*
X160205500Y-121066129D01*
X160205500Y-120833870D01*
X160184297Y-120700000D01*
X160169169Y-120604486D01*
X160097400Y-120383604D01*
X160097398Y-120383601D01*
X160097398Y-120383599D01*
X160003682Y-120199673D01*
X159991961Y-120176669D01*
X159855449Y-119988776D01*
X159691224Y-119824551D01*
X159503331Y-119688039D01*
X159296400Y-119582601D01*
X159075514Y-119510831D01*
X158846129Y-119474500D01*
X158846124Y-119474500D01*
X158613876Y-119474500D01*
X158613871Y-119474500D01*
X158384485Y-119510831D01*
X158163599Y-119582601D01*
X157956668Y-119688039D01*
X157768773Y-119824553D01*
X157604553Y-119988773D01*
X157468039Y-120176668D01*
X157362601Y-120383599D01*
X157290831Y-120604485D01*
X157254500Y-120833870D01*
X154369635Y-120833870D01*
X154355021Y-120760402D01*
X154330001Y-120700000D01*
X155205000Y-120700000D01*
X155205000Y-119927172D01*
X155204999Y-119927155D01*
X155198598Y-119867627D01*
X155198596Y-119867620D01*
X155148354Y-119732913D01*
X155148350Y-119732906D01*
X155062190Y-119617812D01*
X155062187Y-119617809D01*
X154947093Y-119531649D01*
X154947086Y-119531645D01*
X154812379Y-119481403D01*
X154812372Y-119481401D01*
X154752844Y-119475000D01*
X153980000Y-119475000D01*
X153980000Y-120349998D01*
X153919598Y-120324979D01*
X153794019Y-120300000D01*
X153665981Y-120300000D01*
X153540402Y-120324979D01*
X153480000Y-120349998D01*
X153480000Y-119475000D01*
X152707155Y-119475000D01*
X152647627Y-119481401D01*
X152647620Y-119481403D01*
X152512913Y-119531645D01*
X152512906Y-119531649D01*
X152397812Y-119617809D01*
X152397809Y-119617812D01*
X152311649Y-119732906D01*
X152311645Y-119732913D01*
X152261403Y-119867620D01*
X152261401Y-119867627D01*
X152255000Y-119927155D01*
X144293828Y-119927155D01*
X144191224Y-119824551D01*
X144003331Y-119688039D01*
X143796400Y-119582601D01*
X143575514Y-119510831D01*
X143346129Y-119474500D01*
X143346124Y-119474500D01*
X143113876Y-119474500D01*
X143113871Y-119474500D01*
X142884485Y-119510831D01*
X142663599Y-119582601D01*
X142456668Y-119688039D01*
X142268773Y-119824553D01*
X142104553Y-119988773D01*
X141968039Y-120176668D01*
X141862601Y-120383599D01*
X141790831Y-120604485D01*
X141754500Y-120833870D01*
X138869635Y-120833870D01*
X138855021Y-120760402D01*
X138830001Y-120700000D01*
X139705000Y-120700000D01*
X139705000Y-119927172D01*
X139704999Y-119927155D01*
X139698598Y-119867627D01*
X139698596Y-119867620D01*
X139648354Y-119732913D01*
X139648350Y-119732906D01*
X139562190Y-119617812D01*
X139562187Y-119617809D01*
X139447093Y-119531649D01*
X139447086Y-119531645D01*
X139312379Y-119481403D01*
X139312372Y-119481401D01*
X139252844Y-119475000D01*
X138480000Y-119475000D01*
X138480000Y-120349998D01*
X138419598Y-120324979D01*
X138294019Y-120300000D01*
X138165981Y-120300000D01*
X138040402Y-120324979D01*
X137980000Y-120349998D01*
X137980000Y-119475000D01*
X137207155Y-119475000D01*
X137147627Y-119481401D01*
X137147620Y-119481403D01*
X137012913Y-119531645D01*
X137012906Y-119531649D01*
X136897812Y-119617809D01*
X136897809Y-119617812D01*
X136811649Y-119732906D01*
X136811645Y-119732913D01*
X136761403Y-119867620D01*
X136761401Y-119867627D01*
X136755000Y-119927155D01*
X128793828Y-119927155D01*
X128691224Y-119824551D01*
X128503331Y-119688039D01*
X128296400Y-119582601D01*
X128075514Y-119510831D01*
X127846129Y-119474500D01*
X127846124Y-119474500D01*
X127613876Y-119474500D01*
X127613871Y-119474500D01*
X127384485Y-119510831D01*
X127163599Y-119582601D01*
X126956668Y-119688039D01*
X126768773Y-119824553D01*
X126604553Y-119988773D01*
X126468039Y-120176668D01*
X126362601Y-120383599D01*
X126290831Y-120604485D01*
X126254500Y-120833870D01*
X123369635Y-120833870D01*
X123355021Y-120760402D01*
X123330001Y-120700000D01*
X124205000Y-120700000D01*
X124205000Y-119927172D01*
X124204999Y-119927155D01*
X124198598Y-119867627D01*
X124198596Y-119867620D01*
X124148354Y-119732913D01*
X124148350Y-119732906D01*
X124062190Y-119617812D01*
X124062187Y-119617809D01*
X123947093Y-119531649D01*
X123947086Y-119531645D01*
X123812379Y-119481403D01*
X123812372Y-119481401D01*
X123752844Y-119475000D01*
X122980000Y-119475000D01*
X122980000Y-120349998D01*
X122919598Y-120324979D01*
X122794019Y-120300000D01*
X122665981Y-120300000D01*
X122540402Y-120324979D01*
X122480000Y-120349998D01*
X122480000Y-119475000D01*
X121707155Y-119475000D01*
X121647627Y-119481401D01*
X121647620Y-119481403D01*
X121512913Y-119531645D01*
X121512906Y-119531649D01*
X121397812Y-119617809D01*
X121397809Y-119617812D01*
X121311649Y-119732906D01*
X121311645Y-119732913D01*
X121261403Y-119867620D01*
X121261401Y-119867627D01*
X121255000Y-119927155D01*
X113293828Y-119927155D01*
X113191224Y-119824551D01*
X113003331Y-119688039D01*
X112796400Y-119582601D01*
X112575514Y-119510831D01*
X112346129Y-119474500D01*
X112346124Y-119474500D01*
X112113876Y-119474500D01*
X112113871Y-119474500D01*
X111884485Y-119510831D01*
X111663599Y-119582601D01*
X111456668Y-119688039D01*
X111268773Y-119824553D01*
X111104553Y-119988773D01*
X110968039Y-120176668D01*
X110862601Y-120383599D01*
X110790831Y-120604485D01*
X110754500Y-120833870D01*
X107869635Y-120833870D01*
X107855021Y-120760402D01*
X107830001Y-120700000D01*
X108705000Y-120700000D01*
X108705000Y-119927172D01*
X108704999Y-119927155D01*
X108698598Y-119867627D01*
X108698596Y-119867620D01*
X108648354Y-119732913D01*
X108648350Y-119732906D01*
X108562190Y-119617812D01*
X108562187Y-119617809D01*
X108447093Y-119531649D01*
X108447086Y-119531645D01*
X108312379Y-119481403D01*
X108312372Y-119481401D01*
X108252844Y-119475000D01*
X107480000Y-119475000D01*
X107480000Y-120349998D01*
X107419598Y-120324979D01*
X107294019Y-120300000D01*
X107165981Y-120300000D01*
X107040402Y-120324979D01*
X106980000Y-120349998D01*
X106980000Y-119475000D01*
X106207155Y-119475000D01*
X106147627Y-119481401D01*
X106147620Y-119481403D01*
X106012913Y-119531645D01*
X106012906Y-119531649D01*
X105897812Y-119617809D01*
X105897809Y-119617812D01*
X105811649Y-119732906D01*
X105811645Y-119732913D01*
X105761403Y-119867620D01*
X105761401Y-119867627D01*
X105755000Y-119927155D01*
X96162093Y-119927155D01*
X96199797Y-119861851D01*
X96199801Y-119861845D01*
X96199866Y-119861730D01*
X96199872Y-119861718D01*
X96284201Y-119658131D01*
X96341238Y-119445266D01*
X96370000Y-119226792D01*
X96370002Y-119226776D01*
X96370002Y-119006419D01*
X96370000Y-119006403D01*
X96341238Y-118787929D01*
X96284201Y-118575064D01*
X96199872Y-118371477D01*
X96199868Y-118371468D01*
X96089688Y-118180631D01*
X96089683Y-118180624D01*
X96041379Y-118117673D01*
X95498917Y-118660134D01*
X95409028Y-118525606D01*
X95279894Y-118396472D01*
X95145364Y-118306581D01*
X95687825Y-117764119D01*
X95624875Y-117715815D01*
X95434031Y-117605631D01*
X95434022Y-117605627D01*
X95230435Y-117521298D01*
X95017570Y-117464261D01*
X94799096Y-117435499D01*
X94799080Y-117435498D01*
X94578724Y-117435498D01*
X94578707Y-117435499D01*
X94360233Y-117464261D01*
X94147368Y-117521298D01*
X93943781Y-117605627D01*
X93943771Y-117605631D01*
X93752938Y-117715808D01*
X93752931Y-117715814D01*
X93689977Y-117764118D01*
X93689977Y-117764119D01*
X94232439Y-118306581D01*
X94097910Y-118396472D01*
X93968776Y-118525606D01*
X93878885Y-118660135D01*
X93336423Y-118117673D01*
X93336422Y-118117673D01*
X93288118Y-118180627D01*
X93288112Y-118180634D01*
X93177935Y-118371467D01*
X93177931Y-118371477D01*
X93093602Y-118575064D01*
X93036565Y-118787929D01*
X93007803Y-119006403D01*
X93007802Y-119006419D01*
X93007802Y-119226776D01*
X93007803Y-119226792D01*
X93036565Y-119445266D01*
X93093602Y-119658131D01*
X93177931Y-119861718D01*
X93177935Y-119861728D01*
X93266273Y-120014734D01*
X93282746Y-120082635D01*
X93259893Y-120148661D01*
X93204972Y-120191852D01*
X93175072Y-120199673D01*
X93058345Y-120215041D01*
X93001972Y-120222463D01*
X92945800Y-120237514D01*
X92777281Y-120282668D01*
X92562380Y-120371683D01*
X92562369Y-120371688D01*
X92360935Y-120487987D01*
X92360919Y-120487998D01*
X92176384Y-120629596D01*
X92176377Y-120629602D01*
X92011904Y-120794075D01*
X92011898Y-120794082D01*
X91870300Y-120978617D01*
X91870289Y-120978633D01*
X91753990Y-121180067D01*
X91753985Y-121180078D01*
X91664970Y-121394979D01*
X91604765Y-121619671D01*
X91574402Y-121850285D01*
X90400500Y-121850285D01*
X90400500Y-110917483D01*
X91877000Y-110917483D01*
X91877000Y-112122501D01*
X91877001Y-112122518D01*
X91887500Y-112225296D01*
X91887501Y-112225299D01*
X91935068Y-112368845D01*
X91942686Y-112391834D01*
X92034788Y-112541156D01*
X92158844Y-112665212D01*
X92308166Y-112757314D01*
X92474703Y-112812499D01*
X92577491Y-112823000D01*
X93782508Y-112822999D01*
X93885297Y-112812499D01*
X94051834Y-112757314D01*
X94201156Y-112665212D01*
X94325212Y-112541156D01*
X94417314Y-112391834D01*
X94472499Y-112225297D01*
X94483000Y-112122509D01*
X94482999Y-111417446D01*
X94877000Y-111417446D01*
X94877000Y-111622553D01*
X94891798Y-111715981D01*
X94909084Y-111825120D01*
X94932155Y-111896124D01*
X94972464Y-112020182D01*
X95024603Y-112122509D01*
X95061208Y-112194351D01*
X95065577Y-112202924D01*
X95186121Y-112368840D01*
X95186125Y-112368845D01*
X95331154Y-112513874D01*
X95331159Y-112513878D01*
X95368706Y-112541157D01*
X95497079Y-112634425D01*
X95613522Y-112693755D01*
X95679817Y-112727535D01*
X95679819Y-112727535D01*
X95679822Y-112727537D01*
X95874880Y-112790916D01*
X95976166Y-112806958D01*
X96077447Y-112823000D01*
X96077452Y-112823000D01*
X96282553Y-112823000D01*
X96374626Y-112808416D01*
X96485120Y-112790916D01*
X96680178Y-112727537D01*
X96862921Y-112634425D01*
X97028847Y-112513873D01*
X97173873Y-112368847D01*
X97294425Y-112202921D01*
X97387537Y-112020178D01*
X97450916Y-111825120D01*
X97468202Y-111715981D01*
X97476456Y-111663870D01*
X106854500Y-111663870D01*
X106854500Y-111896129D01*
X106890831Y-112125514D01*
X106962601Y-112346400D01*
X107061836Y-112541157D01*
X107068039Y-112553331D01*
X107204551Y-112741224D01*
X107368776Y-112905449D01*
X107556669Y-113041961D01*
X107654436Y-113091776D01*
X107763599Y-113147398D01*
X107763601Y-113147398D01*
X107763604Y-113147400D01*
X107984486Y-113219169D01*
X108102668Y-113237886D01*
X108213871Y-113255500D01*
X108213876Y-113255500D01*
X108446129Y-113255500D01*
X108547502Y-113239443D01*
X108675514Y-113219169D01*
X108896396Y-113147400D01*
X109103331Y-113041961D01*
X109291224Y-112905449D01*
X109455449Y-112741224D01*
X109591961Y-112553331D01*
X109697400Y-112346396D01*
X109769169Y-112125514D01*
X109795504Y-111959240D01*
X109805500Y-111896129D01*
X109805500Y-111663870D01*
X109784297Y-111530000D01*
X109769169Y-111434486D01*
X109697400Y-111213604D01*
X109697398Y-111213601D01*
X109697398Y-111213599D01*
X109641776Y-111104436D01*
X109591961Y-111006669D01*
X109455449Y-110818776D01*
X109393828Y-110757155D01*
X111855000Y-110757155D01*
X111855000Y-111530000D01*
X112729999Y-111530000D01*
X112704979Y-111590402D01*
X112680000Y-111715981D01*
X112680000Y-111844019D01*
X112704979Y-111969598D01*
X112729999Y-112030000D01*
X111855000Y-112030000D01*
X111855000Y-112802844D01*
X111861401Y-112862372D01*
X111861403Y-112862379D01*
X111911645Y-112997086D01*
X111911649Y-112997093D01*
X111997809Y-113112187D01*
X111997812Y-113112190D01*
X112112906Y-113198350D01*
X112112913Y-113198354D01*
X112247620Y-113248596D01*
X112247627Y-113248598D01*
X112307155Y-113254999D01*
X112307172Y-113255000D01*
X113080000Y-113255000D01*
X113080000Y-112380001D01*
X113140402Y-112405021D01*
X113265981Y-112430000D01*
X113394019Y-112430000D01*
X113519598Y-112405021D01*
X113580000Y-112380001D01*
X113580000Y-113255000D01*
X114352828Y-113255000D01*
X114352844Y-113254999D01*
X114412372Y-113248598D01*
X114412379Y-113248596D01*
X114547086Y-113198354D01*
X114547093Y-113198350D01*
X114662187Y-113112190D01*
X114662190Y-113112187D01*
X114748350Y-112997093D01*
X114748354Y-112997086D01*
X114798596Y-112862379D01*
X114798598Y-112862372D01*
X114804999Y-112802844D01*
X114805000Y-112802827D01*
X114805000Y-112030000D01*
X113930001Y-112030000D01*
X113955021Y-111969598D01*
X113980000Y-111844019D01*
X113980000Y-111715981D01*
X113969635Y-111663870D01*
X122354500Y-111663870D01*
X122354500Y-111896129D01*
X122390831Y-112125514D01*
X122462601Y-112346400D01*
X122561836Y-112541157D01*
X122568039Y-112553331D01*
X122704551Y-112741224D01*
X122868776Y-112905449D01*
X123056669Y-113041961D01*
X123154436Y-113091776D01*
X123263599Y-113147398D01*
X123263601Y-113147398D01*
X123263604Y-113147400D01*
X123484486Y-113219169D01*
X123602668Y-113237886D01*
X123713871Y-113255500D01*
X123713876Y-113255500D01*
X123946129Y-113255500D01*
X124047502Y-113239443D01*
X124175514Y-113219169D01*
X124396396Y-113147400D01*
X124603331Y-113041961D01*
X124791224Y-112905449D01*
X124955449Y-112741224D01*
X125091961Y-112553331D01*
X125197400Y-112346396D01*
X125269169Y-112125514D01*
X125295504Y-111959240D01*
X125305500Y-111896129D01*
X125305500Y-111663870D01*
X125284297Y-111530000D01*
X125269169Y-111434486D01*
X125197400Y-111213604D01*
X125197398Y-111213601D01*
X125197398Y-111213599D01*
X125141776Y-111104436D01*
X125091961Y-111006669D01*
X124955449Y-110818776D01*
X124893828Y-110757155D01*
X127355000Y-110757155D01*
X127355000Y-111530000D01*
X128229999Y-111530000D01*
X128204979Y-111590402D01*
X128180000Y-111715981D01*
X128180000Y-111844019D01*
X128204979Y-111969598D01*
X128229999Y-112030000D01*
X127355000Y-112030000D01*
X127355000Y-112802844D01*
X127361401Y-112862372D01*
X127361403Y-112862379D01*
X127411645Y-112997086D01*
X127411649Y-112997093D01*
X127497809Y-113112187D01*
X127497812Y-113112190D01*
X127612906Y-113198350D01*
X127612913Y-113198354D01*
X127747620Y-113248596D01*
X127747627Y-113248598D01*
X127807155Y-113254999D01*
X127807172Y-113255000D01*
X128580000Y-113255000D01*
X128580000Y-112380001D01*
X128640402Y-112405021D01*
X128765981Y-112430000D01*
X128894019Y-112430000D01*
X129019598Y-112405021D01*
X129080000Y-112380001D01*
X129080000Y-113255000D01*
X129852828Y-113255000D01*
X129852844Y-113254999D01*
X129912372Y-113248598D01*
X129912379Y-113248596D01*
X130047086Y-113198354D01*
X130047093Y-113198350D01*
X130162187Y-113112190D01*
X130162190Y-113112187D01*
X130248350Y-112997093D01*
X130248354Y-112997086D01*
X130298596Y-112862379D01*
X130298598Y-112862372D01*
X130304999Y-112802844D01*
X130305000Y-112802827D01*
X130305000Y-112030000D01*
X129430001Y-112030000D01*
X129455021Y-111969598D01*
X129480000Y-111844019D01*
X129480000Y-111715981D01*
X129469635Y-111663870D01*
X137854500Y-111663870D01*
X137854500Y-111896129D01*
X137890831Y-112125514D01*
X137962601Y-112346400D01*
X138061836Y-112541157D01*
X138068039Y-112553331D01*
X138204551Y-112741224D01*
X138368776Y-112905449D01*
X138556669Y-113041961D01*
X138654436Y-113091776D01*
X138763599Y-113147398D01*
X138763601Y-113147398D01*
X138763604Y-113147400D01*
X138984486Y-113219169D01*
X139102668Y-113237886D01*
X139213871Y-113255500D01*
X139213876Y-113255500D01*
X139446129Y-113255500D01*
X139547502Y-113239443D01*
X139675514Y-113219169D01*
X139896396Y-113147400D01*
X140103331Y-113041961D01*
X140291224Y-112905449D01*
X140455449Y-112741224D01*
X140591961Y-112553331D01*
X140697400Y-112346396D01*
X140769169Y-112125514D01*
X140795504Y-111959240D01*
X140805500Y-111896129D01*
X140805500Y-111663870D01*
X140784297Y-111530000D01*
X140769169Y-111434486D01*
X140697400Y-111213604D01*
X140697398Y-111213601D01*
X140697398Y-111213599D01*
X140641776Y-111104436D01*
X140591961Y-111006669D01*
X140455449Y-110818776D01*
X140393828Y-110757155D01*
X142855000Y-110757155D01*
X142855000Y-111530000D01*
X143729999Y-111530000D01*
X143704979Y-111590402D01*
X143680000Y-111715981D01*
X143680000Y-111844019D01*
X143704979Y-111969598D01*
X143729999Y-112030000D01*
X142855000Y-112030000D01*
X142855000Y-112802844D01*
X142861401Y-112862372D01*
X142861403Y-112862379D01*
X142911645Y-112997086D01*
X142911649Y-112997093D01*
X142997809Y-113112187D01*
X142997812Y-113112190D01*
X143112906Y-113198350D01*
X143112913Y-113198354D01*
X143247620Y-113248596D01*
X143247627Y-113248598D01*
X143307155Y-113254999D01*
X143307172Y-113255000D01*
X144080000Y-113255000D01*
X144080000Y-112380001D01*
X144140402Y-112405021D01*
X144265981Y-112430000D01*
X144394019Y-112430000D01*
X144519598Y-112405021D01*
X144580000Y-112380001D01*
X144580000Y-113255000D01*
X145352828Y-113255000D01*
X145352844Y-113254999D01*
X145412372Y-113248598D01*
X145412379Y-113248596D01*
X145547086Y-113198354D01*
X145547093Y-113198350D01*
X145662187Y-113112190D01*
X145662190Y-113112187D01*
X145748350Y-112997093D01*
X145748354Y-112997086D01*
X145798596Y-112862379D01*
X145798598Y-112862372D01*
X145804999Y-112802844D01*
X145805000Y-112802827D01*
X145805000Y-112030000D01*
X144930001Y-112030000D01*
X144955021Y-111969598D01*
X144980000Y-111844019D01*
X144980000Y-111715981D01*
X144969635Y-111663870D01*
X153354500Y-111663870D01*
X153354500Y-111896129D01*
X153390831Y-112125514D01*
X153462601Y-112346400D01*
X153561836Y-112541157D01*
X153568039Y-112553331D01*
X153704551Y-112741224D01*
X153868776Y-112905449D01*
X154056669Y-113041961D01*
X154154436Y-113091776D01*
X154263599Y-113147398D01*
X154263601Y-113147398D01*
X154263604Y-113147400D01*
X154484486Y-113219169D01*
X154602668Y-113237886D01*
X154713871Y-113255500D01*
X154713876Y-113255500D01*
X154946129Y-113255500D01*
X155047502Y-113239443D01*
X155175514Y-113219169D01*
X155396396Y-113147400D01*
X155603331Y-113041961D01*
X155791224Y-112905449D01*
X155955449Y-112741224D01*
X156091961Y-112553331D01*
X156197400Y-112346396D01*
X156269169Y-112125514D01*
X156295504Y-111959240D01*
X156305500Y-111896129D01*
X156305500Y-111663870D01*
X156284297Y-111530000D01*
X156269169Y-111434486D01*
X156197400Y-111213604D01*
X156197398Y-111213601D01*
X156197398Y-111213599D01*
X156141776Y-111104436D01*
X156091961Y-111006669D01*
X155955449Y-110818776D01*
X155893828Y-110757155D01*
X158355000Y-110757155D01*
X158355000Y-111530000D01*
X159229999Y-111530000D01*
X159204979Y-111590402D01*
X159180000Y-111715981D01*
X159180000Y-111844019D01*
X159204979Y-111969598D01*
X159229999Y-112030000D01*
X158355000Y-112030000D01*
X158355000Y-112802844D01*
X158361401Y-112862372D01*
X158361403Y-112862379D01*
X158411645Y-112997086D01*
X158411649Y-112997093D01*
X158497809Y-113112187D01*
X158497812Y-113112190D01*
X158612906Y-113198350D01*
X158612913Y-113198354D01*
X158747620Y-113248596D01*
X158747627Y-113248598D01*
X158807155Y-113254999D01*
X158807172Y-113255000D01*
X159580000Y-113255000D01*
X159580000Y-112380001D01*
X159640402Y-112405021D01*
X159765981Y-112430000D01*
X159894019Y-112430000D01*
X160019598Y-112405021D01*
X160080000Y-112380001D01*
X160080000Y-113255000D01*
X160852828Y-113255000D01*
X160852844Y-113254999D01*
X160912372Y-113248598D01*
X160912379Y-113248596D01*
X161047086Y-113198354D01*
X161047093Y-113198350D01*
X161162187Y-113112190D01*
X161162190Y-113112187D01*
X161248350Y-112997093D01*
X161248354Y-112997086D01*
X161298596Y-112862379D01*
X161298598Y-112862372D01*
X161304999Y-112802844D01*
X161305000Y-112802827D01*
X161305000Y-112030000D01*
X160430001Y-112030000D01*
X160455021Y-111969598D01*
X160480000Y-111844019D01*
X160480000Y-111715981D01*
X160455021Y-111590402D01*
X160430001Y-111530000D01*
X161305000Y-111530000D01*
X161305000Y-110757172D01*
X161304999Y-110757155D01*
X161298598Y-110697627D01*
X161298596Y-110697620D01*
X161248354Y-110562913D01*
X161248350Y-110562906D01*
X161162190Y-110447812D01*
X161162187Y-110447809D01*
X161047093Y-110361649D01*
X161047086Y-110361645D01*
X160912379Y-110311403D01*
X160912372Y-110311401D01*
X160852844Y-110305000D01*
X160080000Y-110305000D01*
X160080000Y-111179998D01*
X160019598Y-111154979D01*
X159894019Y-111130000D01*
X159765981Y-111130000D01*
X159640402Y-111154979D01*
X159580000Y-111179998D01*
X159580000Y-110305000D01*
X158807155Y-110305000D01*
X158747627Y-110311401D01*
X158747620Y-110311403D01*
X158612913Y-110361645D01*
X158612906Y-110361649D01*
X158497812Y-110447809D01*
X158497809Y-110447812D01*
X158411649Y-110562906D01*
X158411645Y-110562913D01*
X158361403Y-110697620D01*
X158361401Y-110697627D01*
X158355000Y-110757155D01*
X155893828Y-110757155D01*
X155791224Y-110654551D01*
X155603331Y-110518039D01*
X155565655Y-110498842D01*
X155396400Y-110412601D01*
X155175514Y-110340831D01*
X154946129Y-110304500D01*
X154946124Y-110304500D01*
X154713876Y-110304500D01*
X154713871Y-110304500D01*
X154484485Y-110340831D01*
X154263599Y-110412601D01*
X154056668Y-110518039D01*
X153868773Y-110654553D01*
X153704553Y-110818773D01*
X153568039Y-111006668D01*
X153462601Y-111213599D01*
X153390831Y-111434485D01*
X153354500Y-111663870D01*
X144969635Y-111663870D01*
X144955021Y-111590402D01*
X144930001Y-111530000D01*
X145805000Y-111530000D01*
X145805000Y-110757172D01*
X145804999Y-110757155D01*
X145798598Y-110697627D01*
X145798596Y-110697620D01*
X145748354Y-110562913D01*
X145748350Y-110562906D01*
X145662190Y-110447812D01*
X145662187Y-110447809D01*
X145547093Y-110361649D01*
X145547086Y-110361645D01*
X145412379Y-110311403D01*
X145412372Y-110311401D01*
X145352844Y-110305000D01*
X144580000Y-110305000D01*
X144580000Y-111179998D01*
X144519598Y-111154979D01*
X144394019Y-111130000D01*
X144265981Y-111130000D01*
X144140402Y-111154979D01*
X144080000Y-111179998D01*
X144080000Y-110305000D01*
X143307155Y-110305000D01*
X143247627Y-110311401D01*
X143247620Y-110311403D01*
X143112913Y-110361645D01*
X143112906Y-110361649D01*
X142997812Y-110447809D01*
X142997809Y-110447812D01*
X142911649Y-110562906D01*
X142911645Y-110562913D01*
X142861403Y-110697620D01*
X142861401Y-110697627D01*
X142855000Y-110757155D01*
X140393828Y-110757155D01*
X140291224Y-110654551D01*
X140103331Y-110518039D01*
X140065655Y-110498842D01*
X139896400Y-110412601D01*
X139675514Y-110340831D01*
X139446129Y-110304500D01*
X139446124Y-110304500D01*
X139213876Y-110304500D01*
X139213871Y-110304500D01*
X138984485Y-110340831D01*
X138763599Y-110412601D01*
X138556668Y-110518039D01*
X138368773Y-110654553D01*
X138204553Y-110818773D01*
X138068039Y-111006668D01*
X137962601Y-111213599D01*
X137890831Y-111434485D01*
X137854500Y-111663870D01*
X129469635Y-111663870D01*
X129455021Y-111590402D01*
X129430001Y-111530000D01*
X130305000Y-111530000D01*
X130305000Y-110757172D01*
X130304999Y-110757155D01*
X130298598Y-110697627D01*
X130298596Y-110697620D01*
X130248354Y-110562913D01*
X130248350Y-110562906D01*
X130162190Y-110447812D01*
X130162187Y-110447809D01*
X130047093Y-110361649D01*
X130047086Y-110361645D01*
X129912379Y-110311403D01*
X129912372Y-110311401D01*
X129852844Y-110305000D01*
X129080000Y-110305000D01*
X129080000Y-111179998D01*
X129019598Y-111154979D01*
X128894019Y-111130000D01*
X128765981Y-111130000D01*
X128640402Y-111154979D01*
X128580000Y-111179998D01*
X128580000Y-110305000D01*
X127807155Y-110305000D01*
X127747627Y-110311401D01*
X127747620Y-110311403D01*
X127612913Y-110361645D01*
X127612906Y-110361649D01*
X127497812Y-110447809D01*
X127497809Y-110447812D01*
X127411649Y-110562906D01*
X127411645Y-110562913D01*
X127361403Y-110697620D01*
X127361401Y-110697627D01*
X127355000Y-110757155D01*
X124893828Y-110757155D01*
X124791224Y-110654551D01*
X124603331Y-110518039D01*
X124565655Y-110498842D01*
X124396400Y-110412601D01*
X124175514Y-110340831D01*
X123946129Y-110304500D01*
X123946124Y-110304500D01*
X123713876Y-110304500D01*
X123713871Y-110304500D01*
X123484485Y-110340831D01*
X123263599Y-110412601D01*
X123056668Y-110518039D01*
X122868773Y-110654553D01*
X122704553Y-110818773D01*
X122568039Y-111006668D01*
X122462601Y-111213599D01*
X122390831Y-111434485D01*
X122354500Y-111663870D01*
X113969635Y-111663870D01*
X113955021Y-111590402D01*
X113930001Y-111530000D01*
X114805000Y-111530000D01*
X114805000Y-110757172D01*
X114804999Y-110757155D01*
X114798598Y-110697627D01*
X114798596Y-110697620D01*
X114748354Y-110562913D01*
X114748350Y-110562906D01*
X114662190Y-110447812D01*
X114662187Y-110447809D01*
X114547093Y-110361649D01*
X114547086Y-110361645D01*
X114412379Y-110311403D01*
X114412372Y-110311401D01*
X114352844Y-110305000D01*
X113580000Y-110305000D01*
X113580000Y-111179998D01*
X113519598Y-111154979D01*
X113394019Y-111130000D01*
X113265981Y-111130000D01*
X113140402Y-111154979D01*
X113080000Y-111179998D01*
X113080000Y-110305000D01*
X112307155Y-110305000D01*
X112247627Y-110311401D01*
X112247620Y-110311403D01*
X112112913Y-110361645D01*
X112112906Y-110361649D01*
X111997812Y-110447809D01*
X111997809Y-110447812D01*
X111911649Y-110562906D01*
X111911645Y-110562913D01*
X111861403Y-110697620D01*
X111861401Y-110697627D01*
X111855000Y-110757155D01*
X109393828Y-110757155D01*
X109291224Y-110654551D01*
X109103331Y-110518039D01*
X109065655Y-110498842D01*
X108896400Y-110412601D01*
X108675514Y-110340831D01*
X108446129Y-110304500D01*
X108446124Y-110304500D01*
X108213876Y-110304500D01*
X108213871Y-110304500D01*
X107984485Y-110340831D01*
X107763599Y-110412601D01*
X107556668Y-110518039D01*
X107368773Y-110654553D01*
X107204553Y-110818773D01*
X107068039Y-111006668D01*
X106962601Y-111213599D01*
X106890831Y-111434485D01*
X106854500Y-111663870D01*
X97476456Y-111663870D01*
X97480299Y-111639606D01*
X97480299Y-111639605D01*
X97483000Y-111622552D01*
X97483000Y-111417446D01*
X97465499Y-111306958D01*
X97450916Y-111214880D01*
X97387537Y-111019822D01*
X97387535Y-111019819D01*
X97387535Y-111019817D01*
X97335397Y-110917491D01*
X97294425Y-110837079D01*
X97278166Y-110814700D01*
X97173878Y-110671159D01*
X97173874Y-110671154D01*
X97028845Y-110526125D01*
X97028840Y-110526121D01*
X96862924Y-110405577D01*
X96862923Y-110405576D01*
X96862921Y-110405575D01*
X96802498Y-110374788D01*
X96680182Y-110312464D01*
X96633384Y-110297258D01*
X96485120Y-110249084D01*
X96485114Y-110249083D01*
X96282553Y-110217000D01*
X96282548Y-110217000D01*
X96077452Y-110217000D01*
X96077447Y-110217000D01*
X95874885Y-110249083D01*
X95874883Y-110249083D01*
X95874880Y-110249084D01*
X95777351Y-110280773D01*
X95679817Y-110312464D01*
X95497075Y-110405577D01*
X95331159Y-110526121D01*
X95331154Y-110526125D01*
X95186125Y-110671154D01*
X95186121Y-110671159D01*
X95065577Y-110837075D01*
X94972464Y-111019817D01*
X94940773Y-111117351D01*
X94909084Y-111214880D01*
X94909083Y-111214883D01*
X94909083Y-111214885D01*
X94877000Y-111417446D01*
X94482999Y-111417446D01*
X94482999Y-110917492D01*
X94472499Y-110814703D01*
X94417314Y-110648166D01*
X94325212Y-110498844D01*
X94201156Y-110374788D01*
X94100112Y-110312464D01*
X94051836Y-110282687D01*
X94051831Y-110282685D01*
X94050362Y-110282198D01*
X93885297Y-110227501D01*
X93885295Y-110227500D01*
X93782510Y-110217000D01*
X92577498Y-110217000D01*
X92577481Y-110217001D01*
X92474703Y-110227500D01*
X92474700Y-110227501D01*
X92308168Y-110282685D01*
X92308163Y-110282687D01*
X92158842Y-110374789D01*
X92034789Y-110498842D01*
X91942687Y-110648163D01*
X91942685Y-110648168D01*
X91926296Y-110697627D01*
X91887501Y-110814703D01*
X91887501Y-110814704D01*
X91887500Y-110814704D01*
X91877000Y-110917483D01*
X90400500Y-110917483D01*
X90400500Y-108417446D01*
X91877000Y-108417446D01*
X91877000Y-108622553D01*
X91909083Y-108825114D01*
X91909084Y-108825120D01*
X91949045Y-108948106D01*
X91972464Y-109020182D01*
X92065577Y-109202924D01*
X92186121Y-109368840D01*
X92186125Y-109368845D01*
X92331154Y-109513874D01*
X92331159Y-109513878D01*
X92451437Y-109601264D01*
X92497079Y-109634425D01*
X92613522Y-109693755D01*
X92679817Y-109727535D01*
X92679819Y-109727535D01*
X92679822Y-109727537D01*
X92874880Y-109790916D01*
X92976166Y-109806958D01*
X93077447Y-109823000D01*
X93077452Y-109823000D01*
X93282553Y-109823000D01*
X93374626Y-109808416D01*
X93485120Y-109790916D01*
X93680178Y-109727537D01*
X93862921Y-109634425D01*
X94028847Y-109513873D01*
X94173873Y-109368847D01*
X94294425Y-109202921D01*
X94387537Y-109020178D01*
X94450916Y-108825120D01*
X94468416Y-108714626D01*
X94483000Y-108622553D01*
X94483000Y-108417486D01*
X94877500Y-108417486D01*
X94877500Y-108622513D01*
X94909570Y-108824997D01*
X94972927Y-109019991D01*
X95066003Y-109202661D01*
X95098734Y-109247711D01*
X95668459Y-108677985D01*
X95681460Y-108726502D01*
X95751894Y-108848497D01*
X95851503Y-108948106D01*
X95973498Y-109018540D01*
X96022012Y-109031539D01*
X95452287Y-109601264D01*
X95497344Y-109633999D01*
X95680008Y-109727072D01*
X95875002Y-109790429D01*
X96077487Y-109822500D01*
X96282513Y-109822500D01*
X96484997Y-109790429D01*
X96679991Y-109727072D01*
X96862659Y-109633997D01*
X96907711Y-109601264D01*
X96907712Y-109601264D01*
X96337987Y-109031539D01*
X96386502Y-109018540D01*
X96508497Y-108948106D01*
X96608106Y-108848497D01*
X96678540Y-108726502D01*
X96691539Y-108677986D01*
X97261264Y-109247712D01*
X97261264Y-109247711D01*
X97293997Y-109202659D01*
X97387072Y-109019991D01*
X97450429Y-108824997D01*
X97482500Y-108622513D01*
X97482500Y-108417486D01*
X97450429Y-108215002D01*
X97407915Y-108084157D01*
X97405920Y-108014316D01*
X97442000Y-107954483D01*
X97478394Y-107931277D01*
X97520226Y-107913950D01*
X97520229Y-107913948D01*
X97520232Y-107913947D01*
X97644791Y-107830719D01*
X97750719Y-107724791D01*
X97833947Y-107600232D01*
X97891275Y-107461830D01*
X97920500Y-107314903D01*
X97920500Y-107165097D01*
X97891275Y-107018170D01*
X97833947Y-106879768D01*
X97833946Y-106879767D01*
X97833943Y-106879761D01*
X97750719Y-106755209D01*
X97750716Y-106755205D01*
X97644794Y-106649283D01*
X97644790Y-106649280D01*
X97520238Y-106566056D01*
X97520229Y-106566051D01*
X97381830Y-106508725D01*
X97381822Y-106508723D01*
X97234907Y-106479500D01*
X97234903Y-106479500D01*
X97085097Y-106479500D01*
X97085092Y-106479500D01*
X96938177Y-106508723D01*
X96938169Y-106508725D01*
X96799770Y-106566051D01*
X96799761Y-106566056D01*
X96675209Y-106649280D01*
X96675205Y-106649283D01*
X96569283Y-106755205D01*
X96569280Y-106755209D01*
X96486056Y-106879761D01*
X96486051Y-106879770D01*
X96428725Y-107018169D01*
X96428723Y-107018177D01*
X96408929Y-107117691D01*
X96376545Y-107179602D01*
X96315829Y-107214176D01*
X96287312Y-107217500D01*
X96077487Y-107217500D01*
X95875002Y-107249570D01*
X95680008Y-107312927D01*
X95497338Y-107406003D01*
X95452287Y-107438733D01*
X95452287Y-107438734D01*
X96022013Y-108008460D01*
X95973498Y-108021460D01*
X95851503Y-108091894D01*
X95751894Y-108191503D01*
X95681460Y-108313498D01*
X95668460Y-108362013D01*
X95098734Y-107792287D01*
X95098733Y-107792287D01*
X95066003Y-107837338D01*
X94972927Y-108020008D01*
X94909570Y-108215002D01*
X94877500Y-108417486D01*
X94483000Y-108417486D01*
X94483000Y-108417446D01*
X94450935Y-108215002D01*
X94450916Y-108214880D01*
X94387537Y-108019822D01*
X94387535Y-108019819D01*
X94387535Y-108019817D01*
X94342421Y-107931277D01*
X94294425Y-107837079D01*
X94261882Y-107792287D01*
X94173878Y-107671159D01*
X94173874Y-107671154D01*
X94028845Y-107526125D01*
X94028840Y-107526121D01*
X93862924Y-107405577D01*
X93862923Y-107405576D01*
X93862921Y-107405575D01*
X93805853Y-107376497D01*
X93680182Y-107312464D01*
X93633384Y-107297258D01*
X93485120Y-107249084D01*
X93485114Y-107249083D01*
X93282553Y-107217000D01*
X93282548Y-107217000D01*
X93077452Y-107217000D01*
X93077447Y-107217000D01*
X92874885Y-107249083D01*
X92874883Y-107249083D01*
X92874880Y-107249084D01*
X92777351Y-107280773D01*
X92679817Y-107312464D01*
X92497075Y-107405577D01*
X92331159Y-107526121D01*
X92331154Y-107526125D01*
X92186125Y-107671154D01*
X92186121Y-107671159D01*
X92065577Y-107837075D01*
X91972464Y-108019817D01*
X91951559Y-108084157D01*
X91909084Y-108214880D01*
X91909083Y-108214883D01*
X91909083Y-108214885D01*
X91877000Y-108417446D01*
X90400500Y-108417446D01*
X90400500Y-103463870D01*
X106854500Y-103463870D01*
X106854500Y-103696129D01*
X106890831Y-103925514D01*
X106962601Y-104146400D01*
X107067903Y-104353064D01*
X107068039Y-104353331D01*
X107204551Y-104541224D01*
X107368776Y-104705449D01*
X107556669Y-104841961D01*
X107654436Y-104891776D01*
X107763599Y-104947398D01*
X107763601Y-104947398D01*
X107763604Y-104947400D01*
X107984486Y-105019169D01*
X108102668Y-105037886D01*
X108213871Y-105055500D01*
X108213876Y-105055500D01*
X108446129Y-105055500D01*
X108547502Y-105039443D01*
X108675514Y-105019169D01*
X108896396Y-104947400D01*
X109103331Y-104841961D01*
X109291224Y-104705449D01*
X109455449Y-104541224D01*
X109591961Y-104353331D01*
X109697400Y-104146396D01*
X109769169Y-103925514D01*
X109793863Y-103769598D01*
X109805500Y-103696129D01*
X109805500Y-103463909D01*
X111855000Y-103463909D01*
X111855000Y-103696090D01*
X111891318Y-103925393D01*
X111963065Y-104146205D01*
X112068465Y-104353064D01*
X112125238Y-104431207D01*
X112728958Y-103827487D01*
X112753978Y-103887890D01*
X112825112Y-103994351D01*
X112915649Y-104084888D01*
X113022110Y-104156022D01*
X113082510Y-104181041D01*
X112478791Y-104784759D01*
X112478791Y-104784760D01*
X112556935Y-104841534D01*
X112763794Y-104946934D01*
X112984606Y-105018681D01*
X113213910Y-105055000D01*
X113446090Y-105055000D01*
X113675393Y-105018681D01*
X113896205Y-104946934D01*
X114103071Y-104841530D01*
X114181207Y-104784762D01*
X114181208Y-104784760D01*
X113577488Y-104181041D01*
X113637890Y-104156022D01*
X113744351Y-104084888D01*
X113834888Y-103994351D01*
X113906022Y-103887890D01*
X113931041Y-103827488D01*
X114534760Y-104431208D01*
X114534762Y-104431207D01*
X114591530Y-104353071D01*
X114696934Y-104146205D01*
X114768681Y-103925393D01*
X114805000Y-103696090D01*
X114805000Y-103463909D01*
X114804994Y-103463870D01*
X122354500Y-103463870D01*
X122354500Y-103696129D01*
X122390831Y-103925514D01*
X122462601Y-104146400D01*
X122567903Y-104353064D01*
X122568039Y-104353331D01*
X122704551Y-104541224D01*
X122868776Y-104705449D01*
X123056669Y-104841961D01*
X123154436Y-104891776D01*
X123263599Y-104947398D01*
X123263601Y-104947398D01*
X123263604Y-104947400D01*
X123484486Y-105019169D01*
X123602668Y-105037886D01*
X123713871Y-105055500D01*
X123713876Y-105055500D01*
X123946129Y-105055500D01*
X124047502Y-105039443D01*
X124175514Y-105019169D01*
X124396396Y-104947400D01*
X124603331Y-104841961D01*
X124791224Y-104705449D01*
X124955449Y-104541224D01*
X125091961Y-104353331D01*
X125197400Y-104146396D01*
X125269169Y-103925514D01*
X125293863Y-103769598D01*
X125305500Y-103696129D01*
X125305500Y-103463909D01*
X127355000Y-103463909D01*
X127355000Y-103696090D01*
X127391318Y-103925393D01*
X127463065Y-104146205D01*
X127568465Y-104353064D01*
X127625238Y-104431207D01*
X128228958Y-103827487D01*
X128253978Y-103887890D01*
X128325112Y-103994351D01*
X128415649Y-104084888D01*
X128522110Y-104156022D01*
X128582510Y-104181041D01*
X127978791Y-104784759D01*
X127978791Y-104784760D01*
X128056935Y-104841534D01*
X128263794Y-104946934D01*
X128484606Y-105018681D01*
X128713910Y-105055000D01*
X128946090Y-105055000D01*
X129175393Y-105018681D01*
X129396205Y-104946934D01*
X129603071Y-104841530D01*
X129681207Y-104784762D01*
X129681208Y-104784760D01*
X129077488Y-104181041D01*
X129137890Y-104156022D01*
X129244351Y-104084888D01*
X129334888Y-103994351D01*
X129406022Y-103887890D01*
X129431041Y-103827489D01*
X130034760Y-104431208D01*
X130034762Y-104431207D01*
X130091530Y-104353071D01*
X130196934Y-104146205D01*
X130268681Y-103925393D01*
X130305000Y-103696090D01*
X130305000Y-103463909D01*
X130304994Y-103463870D01*
X137854500Y-103463870D01*
X137854500Y-103696129D01*
X137890831Y-103925514D01*
X137962601Y-104146400D01*
X138067903Y-104353064D01*
X138068039Y-104353331D01*
X138204551Y-104541224D01*
X138368776Y-104705449D01*
X138556669Y-104841961D01*
X138654436Y-104891776D01*
X138763599Y-104947398D01*
X138763601Y-104947398D01*
X138763604Y-104947400D01*
X138984486Y-105019169D01*
X139102668Y-105037886D01*
X139213871Y-105055500D01*
X139213876Y-105055500D01*
X139446129Y-105055500D01*
X139547502Y-105039443D01*
X139675514Y-105019169D01*
X139896396Y-104947400D01*
X140103331Y-104841961D01*
X140291224Y-104705449D01*
X140455449Y-104541224D01*
X140591961Y-104353331D01*
X140697400Y-104146396D01*
X140769169Y-103925514D01*
X140793863Y-103769598D01*
X140805500Y-103696129D01*
X140805500Y-103463909D01*
X142855000Y-103463909D01*
X142855000Y-103696090D01*
X142891318Y-103925393D01*
X142963065Y-104146205D01*
X143068465Y-104353064D01*
X143125238Y-104431207D01*
X143728958Y-103827487D01*
X143753978Y-103887890D01*
X143825112Y-103994351D01*
X143915649Y-104084888D01*
X144022110Y-104156022D01*
X144082510Y-104181041D01*
X143478791Y-104784759D01*
X143478791Y-104784760D01*
X143556935Y-104841534D01*
X143763794Y-104946934D01*
X143984606Y-105018681D01*
X144213910Y-105055000D01*
X144446090Y-105055000D01*
X144675393Y-105018681D01*
X144896205Y-104946934D01*
X145103071Y-104841530D01*
X145181207Y-104784762D01*
X145181208Y-104784760D01*
X144577488Y-104181041D01*
X144637890Y-104156022D01*
X144744351Y-104084888D01*
X144834888Y-103994351D01*
X144906022Y-103887890D01*
X144931041Y-103827489D01*
X145534760Y-104431208D01*
X145534762Y-104431207D01*
X145591530Y-104353071D01*
X145696934Y-104146205D01*
X145768681Y-103925393D01*
X145805000Y-103696090D01*
X145805000Y-103463909D01*
X145804994Y-103463870D01*
X153354500Y-103463870D01*
X153354500Y-103696129D01*
X153390831Y-103925514D01*
X153462601Y-104146400D01*
X153567903Y-104353064D01*
X153568039Y-104353331D01*
X153704551Y-104541224D01*
X153868776Y-104705449D01*
X154056669Y-104841961D01*
X154154436Y-104891776D01*
X154263599Y-104947398D01*
X154263601Y-104947398D01*
X154263604Y-104947400D01*
X154484486Y-105019169D01*
X154602668Y-105037886D01*
X154713871Y-105055500D01*
X154713876Y-105055500D01*
X154946129Y-105055500D01*
X155047502Y-105039443D01*
X155175514Y-105019169D01*
X155396396Y-104947400D01*
X155603331Y-104841961D01*
X155791224Y-104705449D01*
X155955449Y-104541224D01*
X156091961Y-104353331D01*
X156197400Y-104146396D01*
X156269169Y-103925514D01*
X156293863Y-103769598D01*
X156305500Y-103696129D01*
X156305500Y-103463909D01*
X158355000Y-103463909D01*
X158355000Y-103696090D01*
X158391318Y-103925393D01*
X158463065Y-104146205D01*
X158568465Y-104353064D01*
X158625238Y-104431207D01*
X159228958Y-103827487D01*
X159253978Y-103887890D01*
X159325112Y-103994351D01*
X159415649Y-104084888D01*
X159522110Y-104156022D01*
X159582510Y-104181041D01*
X158978791Y-104784759D01*
X158978791Y-104784760D01*
X159056935Y-104841534D01*
X159263794Y-104946934D01*
X159484606Y-105018681D01*
X159713910Y-105055000D01*
X159946090Y-105055000D01*
X160175393Y-105018681D01*
X160396205Y-104946934D01*
X160603071Y-104841530D01*
X160681207Y-104784762D01*
X160681208Y-104784760D01*
X160077488Y-104181041D01*
X160137890Y-104156022D01*
X160244351Y-104084888D01*
X160334888Y-103994351D01*
X160406022Y-103887890D01*
X160431041Y-103827489D01*
X161034760Y-104431208D01*
X161034762Y-104431207D01*
X161091530Y-104353071D01*
X161196934Y-104146205D01*
X161268681Y-103925393D01*
X161305000Y-103696090D01*
X161305000Y-103463909D01*
X161268681Y-103234606D01*
X161196934Y-103013794D01*
X161091534Y-102806935D01*
X161034760Y-102728791D01*
X161034759Y-102728791D01*
X160431041Y-103332510D01*
X160406022Y-103272110D01*
X160334888Y-103165649D01*
X160244351Y-103075112D01*
X160137890Y-103003978D01*
X160077487Y-102978957D01*
X160681207Y-102375238D01*
X160603064Y-102318465D01*
X160396205Y-102213065D01*
X160175393Y-102141318D01*
X159946090Y-102105000D01*
X159713910Y-102105000D01*
X159484606Y-102141318D01*
X159263794Y-102213065D01*
X159056925Y-102318470D01*
X158978791Y-102375237D01*
X158978791Y-102375238D01*
X159582511Y-102978958D01*
X159522110Y-103003978D01*
X159415649Y-103075112D01*
X159325112Y-103165649D01*
X159253978Y-103272110D01*
X159228958Y-103332511D01*
X158625238Y-102728791D01*
X158625237Y-102728791D01*
X158568470Y-102806925D01*
X158463065Y-103013794D01*
X158391318Y-103234606D01*
X158355000Y-103463909D01*
X156305500Y-103463909D01*
X156305500Y-103463870D01*
X156286232Y-103342222D01*
X156269169Y-103234486D01*
X156197400Y-103013604D01*
X156197398Y-103013601D01*
X156197398Y-103013599D01*
X156141776Y-102904436D01*
X156091961Y-102806669D01*
X155955449Y-102618776D01*
X155791224Y-102454551D01*
X155603331Y-102318039D01*
X155396400Y-102212601D01*
X155175514Y-102140831D01*
X154946129Y-102104500D01*
X154946124Y-102104500D01*
X154713876Y-102104500D01*
X154713871Y-102104500D01*
X154484485Y-102140831D01*
X154263599Y-102212601D01*
X154056668Y-102318039D01*
X153868773Y-102454553D01*
X153704553Y-102618773D01*
X153568039Y-102806668D01*
X153462601Y-103013599D01*
X153390831Y-103234485D01*
X153354500Y-103463870D01*
X145804994Y-103463870D01*
X145768681Y-103234606D01*
X145696934Y-103013794D01*
X145591534Y-102806935D01*
X145534760Y-102728791D01*
X145534759Y-102728791D01*
X144931041Y-103332510D01*
X144906022Y-103272110D01*
X144834888Y-103165649D01*
X144744351Y-103075112D01*
X144637890Y-103003978D01*
X144577487Y-102978957D01*
X145181207Y-102375238D01*
X145103064Y-102318465D01*
X144896205Y-102213065D01*
X144675393Y-102141318D01*
X144446090Y-102105000D01*
X144213910Y-102105000D01*
X143984606Y-102141318D01*
X143763794Y-102213065D01*
X143556925Y-102318470D01*
X143478791Y-102375237D01*
X143478791Y-102375238D01*
X144082511Y-102978958D01*
X144022110Y-103003978D01*
X143915649Y-103075112D01*
X143825112Y-103165649D01*
X143753978Y-103272110D01*
X143728958Y-103332511D01*
X143125238Y-102728791D01*
X143125237Y-102728791D01*
X143068470Y-102806925D01*
X142963065Y-103013794D01*
X142891318Y-103234606D01*
X142855000Y-103463909D01*
X140805500Y-103463909D01*
X140805500Y-103463870D01*
X140786232Y-103342222D01*
X140769169Y-103234486D01*
X140697400Y-103013604D01*
X140697398Y-103013601D01*
X140697398Y-103013599D01*
X140641776Y-102904436D01*
X140591961Y-102806669D01*
X140455449Y-102618776D01*
X140291224Y-102454551D01*
X140103331Y-102318039D01*
X139896400Y-102212601D01*
X139675514Y-102140831D01*
X139446129Y-102104500D01*
X139446124Y-102104500D01*
X139213876Y-102104500D01*
X139213871Y-102104500D01*
X138984485Y-102140831D01*
X138763599Y-102212601D01*
X138556668Y-102318039D01*
X138368773Y-102454553D01*
X138204553Y-102618773D01*
X138068039Y-102806668D01*
X137962601Y-103013599D01*
X137890831Y-103234485D01*
X137854500Y-103463870D01*
X130304994Y-103463870D01*
X130268681Y-103234606D01*
X130196934Y-103013794D01*
X130091534Y-102806935D01*
X130034760Y-102728791D01*
X130034759Y-102728791D01*
X129431041Y-103332510D01*
X129406022Y-103272110D01*
X129334888Y-103165649D01*
X129244351Y-103075112D01*
X129137890Y-103003978D01*
X129077487Y-102978957D01*
X129681207Y-102375238D01*
X129603064Y-102318465D01*
X129396205Y-102213065D01*
X129175393Y-102141318D01*
X128946090Y-102105000D01*
X128713910Y-102105000D01*
X128484606Y-102141318D01*
X128263794Y-102213065D01*
X128056925Y-102318470D01*
X127978791Y-102375237D01*
X127978791Y-102375238D01*
X128582511Y-102978958D01*
X128522110Y-103003978D01*
X128415649Y-103075112D01*
X128325112Y-103165649D01*
X128253978Y-103272110D01*
X128228958Y-103332511D01*
X127625238Y-102728791D01*
X127625237Y-102728791D01*
X127568470Y-102806925D01*
X127463065Y-103013794D01*
X127391318Y-103234606D01*
X127355000Y-103463909D01*
X125305500Y-103463909D01*
X125305500Y-103463870D01*
X125286232Y-103342222D01*
X125269169Y-103234486D01*
X125197400Y-103013604D01*
X125197398Y-103013601D01*
X125197398Y-103013599D01*
X125141776Y-102904436D01*
X125091961Y-102806669D01*
X124955449Y-102618776D01*
X124791224Y-102454551D01*
X124603331Y-102318039D01*
X124396400Y-102212601D01*
X124175514Y-102140831D01*
X123946129Y-102104500D01*
X123946124Y-102104500D01*
X123713876Y-102104500D01*
X123713871Y-102104500D01*
X123484485Y-102140831D01*
X123263599Y-102212601D01*
X123056668Y-102318039D01*
X122868773Y-102454553D01*
X122704553Y-102618773D01*
X122568039Y-102806668D01*
X122462601Y-103013599D01*
X122390831Y-103234485D01*
X122354500Y-103463870D01*
X114804994Y-103463870D01*
X114768681Y-103234606D01*
X114696934Y-103013794D01*
X114591534Y-102806935D01*
X114534760Y-102728791D01*
X114534759Y-102728791D01*
X113931041Y-103332510D01*
X113906022Y-103272110D01*
X113834888Y-103165649D01*
X113744351Y-103075112D01*
X113637890Y-103003978D01*
X113577487Y-102978957D01*
X114181207Y-102375238D01*
X114103064Y-102318465D01*
X113896205Y-102213065D01*
X113675393Y-102141318D01*
X113446090Y-102105000D01*
X113213910Y-102105000D01*
X112984606Y-102141318D01*
X112763794Y-102213065D01*
X112556925Y-102318470D01*
X112478791Y-102375237D01*
X112478791Y-102375238D01*
X113082511Y-102978958D01*
X113022110Y-103003978D01*
X112915649Y-103075112D01*
X112825112Y-103165649D01*
X112753978Y-103272110D01*
X112728958Y-103332511D01*
X112125238Y-102728791D01*
X112125237Y-102728791D01*
X112068470Y-102806925D01*
X111963065Y-103013794D01*
X111891318Y-103234606D01*
X111855000Y-103463909D01*
X109805500Y-103463909D01*
X109805500Y-103463870D01*
X109786232Y-103342222D01*
X109769169Y-103234486D01*
X109697400Y-103013604D01*
X109697398Y-103013601D01*
X109697398Y-103013599D01*
X109641776Y-102904436D01*
X109591961Y-102806669D01*
X109455449Y-102618776D01*
X109291224Y-102454551D01*
X109103331Y-102318039D01*
X108896400Y-102212601D01*
X108675514Y-102140831D01*
X108446129Y-102104500D01*
X108446124Y-102104500D01*
X108213876Y-102104500D01*
X108213871Y-102104500D01*
X107984485Y-102140831D01*
X107763599Y-102212601D01*
X107556668Y-102318039D01*
X107368773Y-102454553D01*
X107204553Y-102618773D01*
X107068039Y-102806668D01*
X106962601Y-103013599D01*
X106890831Y-103234485D01*
X106854500Y-103463870D01*
X90400500Y-103463870D01*
X90400500Y-95681902D01*
X91199500Y-95681902D01*
X91199500Y-95918097D01*
X91236446Y-96151368D01*
X91309433Y-96375996D01*
X91416657Y-96586433D01*
X91555483Y-96777510D01*
X91722490Y-96944517D01*
X91913567Y-97083343D01*
X92012991Y-97134002D01*
X92124003Y-97190566D01*
X92124005Y-97190566D01*
X92124008Y-97190568D01*
X92244412Y-97229689D01*
X92348631Y-97263553D01*
X92581903Y-97300500D01*
X92581908Y-97300500D01*
X92818097Y-97300500D01*
X93051368Y-97263553D01*
X93275992Y-97190568D01*
X93486433Y-97083343D01*
X93677510Y-96944517D01*
X93844517Y-96777510D01*
X93983343Y-96586433D01*
X94090568Y-96375992D01*
X94163553Y-96151368D01*
X94200500Y-95918097D01*
X94200500Y-95681902D01*
X165699500Y-95681902D01*
X165699500Y-95918097D01*
X165736446Y-96151368D01*
X165809433Y-96375996D01*
X165916657Y-96586433D01*
X166055483Y-96777510D01*
X166222490Y-96944517D01*
X166413567Y-97083343D01*
X166512991Y-97134002D01*
X166624003Y-97190566D01*
X166624005Y-97190566D01*
X166624008Y-97190568D01*
X166744412Y-97229689D01*
X166848631Y-97263553D01*
X167081903Y-97300500D01*
X167081908Y-97300500D01*
X167318097Y-97300500D01*
X167551368Y-97263553D01*
X167775992Y-97190568D01*
X167986433Y-97083343D01*
X168177510Y-96944517D01*
X168344517Y-96777510D01*
X168483343Y-96586433D01*
X168590568Y-96375992D01*
X168663553Y-96151368D01*
X168700500Y-95918097D01*
X168700500Y-95681902D01*
X168663553Y-95448631D01*
X168590566Y-95224003D01*
X168483342Y-95013566D01*
X168344517Y-94822490D01*
X168177510Y-94655483D01*
X167986433Y-94516657D01*
X167775996Y-94409433D01*
X167551368Y-94336446D01*
X167318097Y-94299500D01*
X167318092Y-94299500D01*
X167081908Y-94299500D01*
X167081903Y-94299500D01*
X166848631Y-94336446D01*
X166624003Y-94409433D01*
X166413566Y-94516657D01*
X166304550Y-94595862D01*
X166222490Y-94655483D01*
X166222488Y-94655485D01*
X166222487Y-94655485D01*
X166055485Y-94822487D01*
X166055485Y-94822488D01*
X166055483Y-94822490D01*
X166025542Y-94863700D01*
X165916657Y-95013566D01*
X165809433Y-95224003D01*
X165736446Y-95448631D01*
X165699500Y-95681902D01*
X94200500Y-95681902D01*
X94163553Y-95448631D01*
X94090566Y-95224003D01*
X93983342Y-95013566D01*
X93844517Y-94822490D01*
X93677510Y-94655483D01*
X93486433Y-94516657D01*
X93275996Y-94409433D01*
X93051368Y-94336446D01*
X92818097Y-94299500D01*
X92818092Y-94299500D01*
X92581908Y-94299500D01*
X92581903Y-94299500D01*
X92348631Y-94336446D01*
X92124003Y-94409433D01*
X91913566Y-94516657D01*
X91804550Y-94595862D01*
X91722490Y-94655483D01*
X91722488Y-94655485D01*
X91722487Y-94655485D01*
X91555485Y-94822487D01*
X91555485Y-94822488D01*
X91555483Y-94822490D01*
X91525542Y-94863700D01*
X91416657Y-95013566D01*
X91309433Y-95224003D01*
X91236446Y-95448631D01*
X91199500Y-95681902D01*
X90400500Y-95681902D01*
X90400500Y-95104427D01*
X90400816Y-95095581D01*
X90416148Y-94881212D01*
X90416148Y-94881211D01*
X90418666Y-94863700D01*
X90427631Y-94822488D01*
X90463407Y-94658026D01*
X90468384Y-94641075D01*
X90541948Y-94443844D01*
X90549296Y-94427757D01*
X90619329Y-94299500D01*
X90650166Y-94243025D01*
X90659720Y-94228157D01*
X90785873Y-94059637D01*
X90797445Y-94046283D01*
X90946283Y-93897445D01*
X90959637Y-93885873D01*
X91128157Y-93759720D01*
X91143025Y-93750166D01*
X91327757Y-93649295D01*
X91343844Y-93641948D01*
X91541075Y-93568384D01*
X91558026Y-93563407D01*
X91763705Y-93518665D01*
X91781206Y-93516148D01*
X91995582Y-93500816D01*
X92004428Y-93500500D01*
X92065892Y-93500500D01*
X167834108Y-93500500D01*
X167895572Y-93500500D01*
X167904418Y-93500816D01*
G37*
%TD.AperFunction*%
%TD*%
M02*
