M48
; DRILL file {KiCad 9.0.3} date 2025-08-13T11:48:37-0700
; FORMAT={-:-/ absolute / metric / decimal}
; #@! TF.CreationDate,2025-08-13T11:48:37-07:00
; #@! TF.GenerationSoftware,Kicad,Pcbnew,9.0.3
; #@! TF.FileFunction,Plated,1,4,PTH
FMAT,2
METRIC
; #@! TA.AperFunction,Plated,PTH,ViaDrill
T1C0.300
; #@! TA.AperFunction,Plated,PTH,ComponentDrill
T2C1.070
; #@! TA.AperFunction,Plated,PTH,ComponentDrill
T3C1.300
; #@! TA.AperFunction,Plated,PTH,ComponentDrill
T4C1.854
%
G90
G05
T1
X91.99Y-99.91
X99.22Y-103.34
T2
X93.18Y-108.52
X93.18Y-111.52
X96.18Y-108.52
X96.18Y-111.52
T3
X107.23Y-120.95
X107.23Y-129.15
X108.33Y-103.58
X108.33Y-111.78
X112.23Y-120.95
X112.23Y-129.15
X113.33Y-103.58
X113.33Y-111.78
X122.73Y-120.95
X122.73Y-129.15
X123.83Y-103.58
X123.83Y-111.78
X127.73Y-120.95
X127.73Y-129.15
X128.83Y-103.58
X128.83Y-111.78
X138.23Y-120.95
X138.23Y-129.15
X139.33Y-103.58
X139.33Y-111.78
X143.23Y-120.95
X143.23Y-129.15
X144.33Y-103.58
X144.33Y-111.78
X153.73Y-120.95
X153.73Y-129.15
X154.83Y-103.58
X154.83Y-111.78
X158.73Y-120.95
X158.73Y-129.15
X159.83Y-103.58
X159.83Y-111.78
T4
X94.689Y-119.117
X94.689Y-124.817
M30
